<svg xmlns="http://www.w3.org/2000/svg" width="256" height="256"><path fill="#315e47" fill-opacity=".016" fill-rule="evenodd" d="M0 128.004v128.004l128.25-.254 128.25-.254.254-127.75L257.008 0H0zm.485.496c0 70.4.119 99.053.265 63.672s.146-92.98 0-128S.485 58.1.485 128.5"/><path fill="#315e47" fill-opacity=".51" fill-rule="evenodd" d="M108.127 1.75c-1.793 1.498-2.133 3.031-2.361 10.646-.353 11.787-.98 12.281-16.766 13.184-13.231.758-17.478 2.258-19.725 6.969-1.403 2.942-1.345 6.167.641 35.593 1.598 23.677 2.575 32.956 3.643 34.587 3.005 4.589 6.57 5.454 21.017 5.099 13.298-.326 13.388-.313 16.003 2.3 2.261 2.258 2.621 3.445 2.561 8.441-.058 4.854-.492 6.238-2.63 8.373l-2.56 2.558-29.332-.362c-21.752-.268-29.92-.047-31.609.857-3.581 1.917-39.879 32.894-41.002 34.992-1.256 2.347-1.299 6.598-.09 8.857 1.102 2.06 36.369 34.141 39.432 35.871 1.228.693 6.011 1.231 11.151 1.252 4.95.021 17.449.334 27.776.695 17.944.627 18.889.761 21.347 3.039l2.571 2.383-.727 17.012-.727 17.011 7.38-.66c6.281-.561 8.72-.268 16.38 1.974 4.95 1.449 11.563 2.908 14.697 3.243 6.748.722 6.389 1.446 7.273-14.664 1.517-27.664 1.695-28 14.837-28 7.085 0 8.926-.356 11.781-2.28 1.86-1.254 3.879-3.276 4.486-4.493.688-1.381 1.354-14.256 1.772-34.255.577-27.654.46-32.447-.856-34.99-2.034-3.934-5.623-5.581-13.734-6.304-3.71-.331-7.586-1.052-8.613-1.602-2.432-1.301-3.888-5.254-4.449-12.076-.919-11.202 1.18-12.498 21.806-13.458 8.25-.384 18.702-1.056 23.227-1.493l8.226-.796 18.108-17.339C247.213 66.532 250 63.174 250 58.685c0-3.813-2.889-6.654-21.482-21.128-25.576-19.911-19.982-18.053-49.916-16.581-31.701 1.558-31.363 1.66-33.145-9.976-1.506-9.835-3.815-11-21.797-11-11.334 0-13.766.274-15.533 1.75"/><path fill="#315e47" fill-opacity=".366" fill-rule="evenodd" d="M113.525.744c-7.228.558-7.818 1.357-7.002 9.485 1.297 12.916-.988 14.887-18.366 15.842-9.994.549-12.849 1.052-15 2.643-5.168 3.824-5.188 4.108-2.783 39.484 1.983 29.168 2.433 32.931 4.172 34.853 4.085 4.514 6.607 5.063 20.223 4.405 12.513-.605 12.782-.573 15.731 1.87 2.777 2.299 3 2.974 3 9.051 0 5.509-.368 6.935-2.284 8.845-2.277 2.27-2.39 2.278-32.541 2.278-26.23 0-30.584.216-32.716 1.622-1.352.892-10.559 8.439-20.459 16.772C6.469 163.91 3.929 167.054 5.878 172.18c.958 2.519 30.823 30.758 37.882 35.82 3.473 2.49 3.6 2.502 31.261 3 36.029.649 34.202-.656 32.813 23.436-.474 8.215-.483 15.315-.021 15.777s3.197.335 6.077-.283c4.731-1.014 6.315-.83 16.423 1.908 13.889 3.763 19.277 4.634 20.13 3.255.356-.577 1.223-9.181 1.925-19.121 1.226-17.343 1.383-18.177 3.887-20.682 2.395-2.395 3.341-2.621 11.48-2.741 7.496-.111 9.365-.484 12.065-2.407 1.758-1.251 3.394-3.257 3.637-4.458.822-4.069 1.559-25.09 1.631-46.528.064-19.248-.106-21.541-1.737-23.343-2.89-3.193-5.3-4.076-13.259-4.855-9.88-.967-11.536-2.741-12.538-13.437-.75-8.008.019-10.141 4.529-12.555.872-.466 10.327-1.34 21.011-1.941 30.936-1.74 25.514.647 47.067-20.718 11.988-11.882 18.838-19.415 19.153-21.063 1.052-5.503-.971-7.76-20.823-23.241-10.655-8.309-20.632-15.726-22.172-16.483-2.358-1.159-6.656-1.177-27.299-.114-31.11 1.602-32.409 1.223-33.92-9.917-.482-3.547-1.518-6.372-2.814-7.667C138.908.464 129.803-.511 113.525.744M62.927 143.36c-4.585 1.646-31.377 20.017-33.395 22.898-2.074 2.961-1.926 5.971.442 8.981 1.877 2.387 25.745 19.974 31.026 22.862 1.971 1.077 12.666 1.491 50.5 1.953 26.4.322 49.54.247 51.423-.167 4.209-.928 8.191-3.776 9.752-6.977.746-1.53 1.28-9.666 1.463-22.275l.287-19.866-3.173-2.835c-1.746-1.56-4.879-3.263-6.963-3.785s-24.939-1.202-50.789-1.511c-36.879-.441-47.769-.285-50.573.722"/><path fill="#315e47" fill-opacity=".461" fill-rule="evenodd" d="M108.043 1.952c-1.118.707-1.393 2.783-1.183 8.927.44 12.917-1.492 14.522-18.615 15.459-11.718.641-16.315 2.056-18.215 5.607-.567 1.058-1.014 4.991-.995 8.739.066 13.021 3.74 59.026 4.884 61.165 2.607 4.872 5.333 5.585 20.238 5.298l13.877-.267 2.983 2.983c2.607 2.607 2.983 3.695 2.983 8.637 0 4.934-.378 6.031-2.964 8.618l-2.965 2.965-28.285-.085c-15.558-.046-29.282-.065-30.499-.041-2.368.046-40.415 31.545-42.254 34.982-1.294 2.418-1.33 6.637-.077 8.979 1.021 1.907 36.004 33.905 38.849 35.535.932.533 13.62 1.144 28.195 1.357 28.878.422 31.849.949 33.903 6.01.76 1.874.811 7.19.169 17.68-.505 8.25-.537 15.393-.071 15.874.483.498 2.236.39 4.072-.25 4.863-1.695 7.914-1.402 19.59 1.876 12.913 3.626 19.337 3.965 19.337 1.02 0-7.659 2.314-33.053 3.226-35.393 1.533-3.936 6.142-5.627 15.342-5.627 7.279 0 7.782-.15 10.871-3.25l3.239-3.25.658-20.5c.362-11.275.66-26.402.661-33.615.003-11.701-.218-13.396-2.042-15.716-2.35-2.986-7.406-4.655-14.128-4.663-3.53-.005-5.406-.622-7.667-2.525-2.657-2.236-3.07-3.344-3.682-9.878-1.329-14.172-1.1-14.301 28.641-16.089 18.454-1.11 23.567-1.729 25.708-3.113 1.47-.95 10.437-9.417 19.927-18.815 16.853-16.689 17.254-17.183 17.25-21.255-.003-3.414-.592-4.715-3.254-7.188-7.195-6.685-38.432-30.224-41.023-30.914-1.525-.406-13.656-.197-26.958.464-21.103 1.049-24.588 1.012-27.339-.293-3.751-1.78-5.43-5.034-5.43-10.524 0-3.121-.659-4.689-2.923-6.953L139.154 1l-14.827.015c-8.155.009-15.483.43-16.284.937M132 31.071c-21.175.994-39.949 2.077-41.721 2.408-3.696.689-9.077 4.86-10.25 7.944-1.207 3.175 2.33 44.588 4.049 47.41.782 1.283 3.222 3.279 5.422 4.435 4.741 2.49 5.107 2.492 59 .245 45.054-1.877 46.494-2.02 50.918-5.022 5.84-3.963 28.362-23.476 28.992-25.118.926-2.412.692-7.315-.451-9.45-1.159-2.165-29.335-21.347-34.566-23.532-4.158-1.738-11.65-1.655-61.393.68M62.304 142.932c-4.622 2.028-32.272 21.139-33.263 22.991-1.313 2.454-1.338 6.653-.053 9.054 1.224 2.287 27.836 21.634 32.355 23.522 2.563 1.071 14.13 1.538 51.74 2.092 65.092.959 60.507 3.069 61.556-28.327.765-22.91.601-23.571-6.826-27.359-4.035-2.059-5.606-2.133-53.735-2.529-30.561-.251-50.42-.038-51.774.556"/></svg>