<?xml version="1.0" encoding="utf-8"?>
<!-- Generator: Adobe Illustrator 24.0.1, SVG Export Plug-In . SVG Version: 6.00 Build 0)  -->
<svg version="1.1" xmlns="http://www.w3.org/2000/svg" xmlns:xlink="http://www.w3.org/1999/xlink" x="0px" y="0px"
	 viewBox="0 0 102 102" style="enable-background:new 0 0 102 102;" xml:space="preserve">
<style type="text/css">
	.st0{fill:none;}
	.st1{display:none;}
	.st2{display:inline;}
	.st3{opacity:0.4;fill:#7BCDEF;}
	.st4{display:inline;fill:none;}
</style>
<g id="_x30_01-data_x5F_category-personal">
	<g>
		<rect x="53.9" y="48.2" width="31.2" height="2.8"/>
		<polygon points="53.9,59.5 85,59.5 85,56.7 53.9,56.7 		"/>
		<rect x="53.9" y="65.2" width="31.2" height="2.8"/>
		<path d="M46.9,65.6c0-2.6-0.8-4.8-2.3-6.4c-2.5-2.5-6.1-2.6-6.6-2.6H27.4c0,0,0,0,0,0c-0.6,0-4.1,0.1-6.6,2.6
			c-1.6,1.6-2.4,3.7-2.3,6.3v7.7c0,0.4,0,1.4,0.8,2.2c0.4,0.4,1.2,1,2.5,1h21.9c1.3,0,2.1-0.5,2.5-1c0.7-0.8,0.8-1.8,0.8-2.2
			L46.9,65.6z M44,73.4c0,0.2-0.1,0.3-0.3,0.3h-5.2c-0.2,0-0.3-0.1-0.3-0.3l0-8.2h-2.8l0,8.2c0,0.2-0.1,0.3-0.3,0.3h-5.1
			c-0.2,0-0.3-0.1-0.3-0.3l0-8.2H27l0,8.2c0,0.2-0.1,0.3-0.3,0.3h-5.1c-0.2,0-0.3-0.1-0.3-0.3v-7.8c0-1.9,0.5-3.3,1.5-4.3
			c1.7-1.8,4.5-1.8,4.6-1.8H38c0,0,2.8,0,4.5,1.8c1,1,1.5,2.4,1.5,4.3V73.4z"/>
		<path d="M32.6,53.8c3.9,0,7.1-3.2,7.1-7.1c0-3.9-3.2-7.1-7.1-7.1c-3.9,0-7.1,3.2-7.1,7.1C25.5,50.6,28.7,53.8,32.6,53.8z
			 M32.6,42.5c2.3,0,4.3,1.9,4.3,4.3c0,2.3-1.9,4.3-4.3,4.3c-2.3,0-4.3-1.9-4.3-4.3C28.4,44.4,30.3,42.5,32.6,42.5z"/>
		<path d="M96.4,44.8v-0.4l0,0c-0.3-7.4-6.4-13.4-13.9-13.4H36.1H19.6c-7.7,0-14,6.3-14,14v28.8v0.3v0.4l0,0
			c0.3,7.4,6.4,13.4,13.9,13.4H66h16.4c7.7,0,14-6.3,14-13.9V45.1L96.4,44.8z M93.5,73.9c0,0.4,0,0.7-0.1,1.1
			c-0.6,5.6-5.3,10-11.1,10H66.1H19.6c-6.1,0-11.1-5-11.1-11.1v-2.4V70V45.1c0-0.4,0-0.8,0.1-1.1c0.6-5.6,5.3-10,11.1-10H36h46.5
			c6.1,0,11.1,5,11.1,11.1v2.4l0,1.5V73.9z"/>
	</g>
</g>
<g id="Rahmen">
	<rect x="0" y="0" class="st0" width="102" height="102"/>
</g>
<g id="Schutzzone" class="st1">
	<g class="st2">
		<rect y="0" class="st3" width="102" height="5.7"/>
		<rect x="0" y="96.4" class="st3" width="102" height="5.7"/>
		
			<rect x="-48.2" y="48.2" transform="matrix(-1.836970e-16 1 -1 -1.836970e-16 53.8573 48.1827)" class="st3" width="102" height="5.7"/>
		
			<rect x="48.2" y="48.2" transform="matrix(-1.836970e-16 1 -1 -1.836970e-16 150.2365 -48.1893)" class="st3" width="102" height="5.7"/>
	</g>
	<rect y="0" class="st4" width="102" height="102"/>
</g>
</svg>
