<?xml version="1.0" encoding="utf-8"?>
<!-- Generator: Adobe Illustrator 24.0.1, SVG Export Plug-In . SVG Version: 6.00 Build 0)  -->
<svg version="1.1" xmlns="http://www.w3.org/2000/svg" xmlns:xlink="http://www.w3.org/1999/xlink" x="0px" y="0px"
	 viewBox="0 0 102 102" style="enable-background:new 0 0 102 102;" xml:space="preserve">
<style type="text/css">
	.st0{fill:none;}
	.st1{display:none;}
	.st2{display:inline;}
	.st3{opacity:0.4;fill:#7BCDEF;}
	.st4{display:inline;fill:none;}
</style>
<g id="_x30_01-data_x5F_category-personal">
	<g>
		<path class="st0" d="M32.6,51c2.3,0,4.3-1.9,4.3-4.3c0-2.3-1.9-4.3-4.3-4.3c-2.3,0-4.3,1.9-4.3,4.3C28.4,49.1,30.3,51,32.6,51z"/>
		<g>
			<polygon points="85,48.2 61.8,48.2 59.5,51 85,51 			"/>
			<polygon points="85,56.7 54.9,56.7 53.9,57.9 53.9,59.5 85,59.5 			"/>
			<rect x="53.9" y="65.2" width="31.2" height="2.8"/>
			<path d="M21.3,73.4v-7.8c0-1.9,0.5-3.3,1.5-4.3c1.7-1.8,4.5-1.8,4.6-1.8h8.2l2.3-2.8H27.4c0,0,0,0,0,0c-0.6,0-4.1,0.1-6.6,2.6
				c-1.6,1.6-2.4,3.7-2.3,6.3v7.7c0,0.4,0,1.4,0.8,2.2c0.4,0.4,1.2,1,2.5,1h0.1l2.3-2.8h-2.5C21.4,73.6,21.3,73.5,21.3,73.4z"/>
			<polygon points="29.8,65.2 27,65.2 27,70.1 29.8,66.6 			"/>
			<path d="M46.1,75.5c0.7-0.8,0.8-1.8,0.8-2.2l0-6.8L44,70v3.4c0,0.2-0.1,0.3-0.3,0.3h-2.7l-2.3,2.8h4.9
				C45,76.5,45.7,75.9,46.1,75.5z"/>
			<path d="M32.6,39.7c-3.9,0-7.1,3.2-7.1,7.1c0,3.9,3.2,7.1,7.1,7.1c3.9,0,7.1-3.2,7.1-7.1C39.7,42.8,36.5,39.7,32.6,39.7z
				 M32.6,51c-2.3,0-4.3-1.9-4.3-4.3c0-2.3,1.9-4.3,4.3-4.3c2.3,0,4.3,1.9,4.3,4.3C36.9,49.1,34.9,51,32.6,51z"/>
			<path d="M96.4,44.8v-0.4l0,0c-0.3-7.4-6.4-13.4-13.9-13.4h-6.7L73.4,34h9.1c6.1,0,11.1,5,11.1,11.1v2.4l0,1.5v24.9
				c0,0.4,0,0.7-0.1,1.1c-0.6,5.6-5.3,10-11.1,10H66.1H31.8l-2.3,2.8H66h16.4c7.7,0,14-6.3,14-13.9V45.1L96.4,44.8z"/>
			<path d="M8.5,73.9v-2.4V70V45.1c0-0.4,0-0.8,0.1-1.1c0.6-5.6,5.3-10,11.1-10H36h20.4l2.3-2.8H36.1H19.6c-7.7,0-14,6.3-14,14v28.8
				v0.3v0.4l0,0c0.2,5.3,3.4,9.8,8,12l1.9-2.3C11.4,82.6,8.5,78.6,8.5,73.9z"/>
		</g>
	</g>
</g>
<g id="Ebene_4">
	<rect x="49.6" y="-6.3" transform="matrix(0.7756 0.6313 -0.6313 0.7756 43.6815 -20.7076)" width="2.8" height="114.8"/>
</g>
<g id="Rahmen">
	<rect x="0" y="0" class="st0" width="102" height="102"/>
</g>
<g id="Schutzzone" class="st1">
	<g class="st2">
		<rect y="0" class="st3" width="102" height="5.7"/>
		<rect x="0" y="96.4" class="st3" width="102" height="5.7"/>
		
			<rect x="-48.2" y="48.2" transform="matrix(-1.836970e-16 1 -1 -1.836970e-16 53.8573 48.1827)" class="st3" width="102" height="5.7"/>
		
			<rect x="48.2" y="48.2" transform="matrix(-1.836970e-16 1 -1 -1.836970e-16 150.2365 -48.1893)" class="st3" width="102" height="5.7"/>
	</g>
	<rect y="0" class="st4" width="102" height="102"/>
</g>
</svg>
