<?xml version="1.0" encoding="utf-8"?>
<!-- Generator: Adobe Illustrator 24.1.2, SVG Export Plug-In . SVG Version: 6.00 Build 0)  -->
<svg version="1.1" id="Ebene_1" xmlns="http://www.w3.org/2000/svg" xmlns:xlink="http://www.w3.org/1999/xlink" x="0px" y="0px"
	 viewBox="0 0 102 102" style="enable-background:new 0 0 102 102;" xml:space="preserve">
<style type="text/css">
	.st0{fill:none;}
	.st1{display:none;}
	.st2{display:inline;}
	.st3{opacity:0.4;fill:#7BCDEF;enable-background:new    ;}
</style>
<g id="Rahmen">
	<rect class="st0" width="102" height="102"/>
</g>
<g id="Schutzzone" class="st1">
	<g class="st2">
		<rect class="st3" width="102" height="5.7"/>
		<rect y="96.4" class="st3" width="102" height="5.7"/>
		<rect class="st3" width="5.7" height="102"/>
		<rect x="96.3" class="st3" width="5.7" height="102"/>
	</g>
</g>
<g>
	<g>
		<path class="st0" d="M50.1,26.1L50.1,26.1c1.4,0.7,3.3,1.3,5.7,1.6c0,0,0,0,0.1,0c1.2,0.2,2.5,0.3,3.9,0.3s2.7-0.1,3.9-0.3
			c0,0,0,0,0.1,0c2.4-0.3,4.3-0.9,5.6-1.6l0,0c1.4-0.7,2.1-1.5,2.1-2.1c0-1.6-4.6-4-11.7-4c-7.2,0-11.7,2.4-11.7,4
			C48,24.6,48.8,25.4,50.1,26.1z"/>
		<path class="st0" d="M59.7,46.1c-3.4,0-6.9-0.6-9.6-1.6c-0.8-0.3-1.5-0.7-2.1-1v3.2c0,1.6,4.6,4,11.7,4c0.3,0,0.6,0,1,0
			c0-1.6,0.3-3.1,0.9-4.6C61,46.1,60.3,46.1,59.7,46.1z"/>
		<path d="M74.5,37v-5.5l0,0l0,0l0,0V24c0-4.6-7.6-7-14.7-7S45,19.4,45,24v7.5l0,0l0,0l0,0V39l0,0l0,0l0,0v7.5l0,0
			c0,4.6,7.6,7,14.7,7c0.4,0,0.8,0,1.2,0c1.3,6.3,6.9,11,13.5,11c7.6,0,13.8-6.2,13.8-13.8C88.3,43.2,82.1,37,74.5,37z M59.7,19.9
			c7.2,0,11.7,2.4,11.7,4c0,0.7-0.8,1.4-2.1,2.1l0,0c-1.3,0.7-3.3,1.3-5.6,1.6c0,0,0,0-0.1,0c-1.2,0.2-2.5,0.3-3.9,0.3
			s-2.7-0.1-3.9-0.3c0,0,0,0-0.1,0c-2.4-0.3-4.3-0.9-5.6-1.6l0,0c-1.3-0.6-2.1-1.4-2.1-2C48,22.3,52.6,19.9,59.7,19.9z M48,31.5
			v-3.2c0.6,0.4,1.3,0.7,2.1,1l0,0c2.7,1.1,6.2,1.6,9.6,1.6c3.4,0,6.9-0.6,9.6-1.6l0,0c0.8-0.3,1.5-0.7,2.1-1v3.2l0,0l0,0
			c0,0.7-2.7,3.5-11.7,3.7C52.3,35.2,48,32.2,48,31.5L48,31.5L48,31.5z M48,35.8c0.1,0.1,3.4,2.2,11.4,2.6c8.9,0,11.9-2.5,12-2.6
			v1.5c-3.4,0.8-6.3,2.8-8.3,5.5C62,42.9,60.9,43,59.6,43c-7.1,0-11.7-2.4-11.7-4l0,0L48,35.8L48,35.8z M59.7,50.6
			c-7.2,0-11.7-2.4-11.7-4v-3.2c0.6,0.4,1.3,0.7,2.1,1c2.7,1.1,6.2,1.6,9.6,1.6c0.6,0,1.2,0,1.8-0.1c-0.5,1.4-0.8,3-0.9,4.6
			C60.4,50.6,60.1,50.6,59.7,50.6z M74.5,61.6c-5.1,0-9.3-3.5-10.5-8.3c-0.2-0.8-0.3-1.7-0.3-2.5c0-0.1,0-0.3,0-0.4
			c0.1-1.7,0.5-3.3,1.3-4.7c1.8-3.4,5.4-5.6,9.5-5.6c6,0,10.8,4.8,10.8,10.8C85.3,56.8,80.4,61.6,74.5,61.6z"/>
	</g>
	<g>
		<path d="M71.2,43.5h7.2V46h-4.6l-0.1,2.9c0.2-0.1,0.5-0.1,0.6-0.1s0.4,0,0.6,0c0.7,0,1.2,0.1,1.8,0.3c0.5,0.2,1,0.4,1.4,0.8
			c0.4,0.4,0.7,0.8,0.9,1.3c0.2,0.5,0.3,1.1,0.3,1.8c0,0.8-0.1,1.6-0.4,2.2c-0.3,0.6-0.7,1.2-1.2,1.6c-0.5,0.4-1.2,0.7-1.9,1
			c-0.8,0.2-1.6,0.3-2.5,0.3c-0.2,0-0.4,0-0.7,0c-0.3,0-0.5-0.1-0.8-0.1s-0.6-0.1-0.9-0.2c-0.3-0.1-1-0.3-1-0.3l0.7-2.4
			c0,0,0.9,0.3,1.3,0.4c0.4,0.1,0.9,0.1,1.3,0.1c0.6,0,1.1-0.1,1.5-0.2c0.4-0.1,0.7-0.3,1-0.5s0.4-0.5,0.5-0.8s0.2-0.6,0.2-0.9
			c0-0.7-0.2-1.2-0.7-1.6c-0.4-0.4-1.2-0.6-2.1-0.6c-0.4,0-0.8,0-1.1,0.1c-0.4,0.1-0.7,0.2-1.1,0.4l-0.3-0.2L71.2,43.5z"/>
	</g>
</g>
<rect class="st0" width="102" height="102"/>
<g>
	<path class="st0" d="M38,59.5H27.4c-0.1,0-2.9,0-4.6,1.8c-1,1-1.5,2.4-1.5,4.3v7.8c0,0.2,0.1,0.3,0.3,0.3h5.1
		c0.2,0,0.3-0.1,0.3-0.3v-8.2h2.7v8.2c0,0.2,0.1,0.3,0.3,0.3h5.1c0.2,0,0.3-0.1,0.3-0.3v-8.2h2.8v8.2c0,0.2,0.1,0.3,0.3,0.3h5.2
		c0.2,0,0.3-0.1,0.3-0.3v-7.8c0-1.9-0.5-3.3-1.5-4.3C40.8,59.5,38,59.5,38,59.5z"/>
	<path class="st0" d="M32.6,51.1c2.4,0,4.3-2,4.3-4.3c0-2.4-2-4.3-4.3-4.3s-4.2,1.9-4.3,4.3C28.3,49.2,30.3,51.1,32.6,51.1z"/>
	<path d="M44.6,59.2c-2.5-2.5-6.1-2.6-6.6-2.6H27.4c-0.6,0-4.1,0.1-6.6,2.6c-1.6,1.6-2.4,3.7-2.3,6.3v7.7c0,0.4,0,1.4,0.8,2.2
		c0.4,0.4,1.2,1,2.5,1h21.9c1.3,0,2.1-0.5,2.5-1c0.7-0.8,0.8-1.8,0.8-2.2l-0.1-7.6C46.9,63,46.1,60.8,44.6,59.2z M44,73.4
		c0,0.2-0.1,0.3-0.3,0.3h-5.2c-0.2,0-0.3-0.1-0.3-0.3v-8.2h-2.8v8.2c0,0.2-0.1,0.3-0.3,0.3H30c-0.2,0-0.3-0.1-0.3-0.3v-8.2H27v8.2
		c0,0.2-0.1,0.3-0.3,0.3h-5.1c-0.2,0-0.3-0.1-0.3-0.3v-7.8c0-1.9,0.5-3.3,1.5-4.3c1.7-1.8,4.5-1.8,4.6-1.8H38c0,0,2.8,0,4.5,1.8
		c1,1,1.5,2.4,1.5,4.3V73.4z"/>
	<path d="M32.6,53.8c3.9,0,7.1-3.2,7.1-7.1s-3.2-7.1-7.1-7.1s-7.1,3.2-7.1,7.1C25.5,50.6,28.7,53.8,32.6,53.8z M32.6,42.5
		c2.3,0,4.3,1.9,4.3,4.3c0,2.3-1.9,4.3-4.3,4.3c-2.3,0-4.3-1.9-4.3-4.3C28.4,44.4,30.3,42.5,32.6,42.5z"/>
	<path d="M82.5,31h-4v3h4c6.1,0,11.1,5,11.1,11.1v2.4V49v24.9h-0.1c0,0.4,0,0.7-0.1,1.1c-0.6,5.6-5.3,10-11.1,10H66.1H19.6
		c-6.1,0-11.1-5-11.1-11.1v-2.4V70V45.1c0-0.4,0-0.8,0.1-1.1c0.6-5.6,5.3-10,11.1-10H36h5v-3h-4.9H19.6c-7.7,0-14,6.3-14,14v28.8
		v0.3v0.4c0.3,7.4,6.4,13.4,13.9,13.4H66h16.4c7.7,0,14-6.3,14-13.9V45.1v-0.3v-0.4C96.1,37,90,31,82.5,31z"/>
</g>
</svg>
