<?xml version="1.0" encoding="utf-8"?>
<!-- Generator: Adobe Illustrator 24.3.0, SVG Export Plug-In . SVG Version: 6.00 Build 0)  -->
<svg version="1.1" id="Ebene_1" xmlns="http://www.w3.org/2000/svg" xmlns:xlink="http://www.w3.org/1999/xlink" x="0px" y="0px"
	 viewBox="0 0 102 102" style="enable-background:new 0 0 102 102;" xml:space="preserve">
<style type="text/css">
	.st0{fill:none;}
	.st1{display:none;}
	.st2{display:inline;}
	.st3{opacity:0.4;fill:#7BCDEF;enable-background:new    ;}
	.st4{fill:#FFFFFF;stroke:#000000;stroke-miterlimit:10;}
</style>
<g id="Rahmen">
	<rect y="0" class="st0" width="102" height="102"/>
</g>
<g id="Schutzzone" class="st1">
	<g class="st2">
		<rect y="0" class="st3" width="102" height="5.7"/>
		<rect y="96.4" class="st3" width="102" height="5.7"/>
		<rect y="0" class="st3" width="5.7" height="102"/>
		<rect x="96.3" y="0" class="st3" width="5.7" height="102"/>
	</g>
</g>
<g id="Rahmen_1_">
	<rect y="0" class="st0" width="102" height="102"/>
</g>
<g id="Ebene_4">
	<rect x="-6.4" y="49.7" transform="matrix(0.6313 -0.7756 0.7756 0.6313 -20.8308 58.4128)" width="114.8" height="2.8"/>
</g>
<g>
	<g id="Ebene_4_1_">
		<rect x="-6.4" y="49.7" transform="matrix(0.6313 -0.7756 0.7756 0.6313 -20.8308 58.4128)" width="114.8" height="2.8"/>
	</g>
	<g>
		<path class="st0" d="M78.6,50.4c-0.2-0.2-0.3-0.4-0.5-0.6c-0.1-0.1-0.2-0.2-0.3-0.3c0.1,0.1,0.2,0.2,0.3,0.3
			C78.3,50,78.5,50.2,78.6,50.4z"/>
		<path class="st0" d="M73,50.9c0.2,0,0.4,0,0.6,0l0,0C73.4,50.9,73.2,50.9,73,50.9z"/>
		<path class="st0" d="M48.5,43.6L48.5,43.6C48.4,43.5,48.5,43.6,48.5,43.6z"/>
		<path class="st0" d="M65,45.6c-0.8,1.4-1.2,3-1.3,4.7c0,0.1,0,0.3,0,0.4c0,0.8,0.1,1.7,0.3,2.5c1.2,4.8,5.4,8.3,10.5,8.3
			c5.9,0,10.8-4.8,10.8-10.7c0-6-4.8-10.8-10.8-10.8C70.4,40,66.8,42.2,65,45.6z M74.3,48.7c0.1,0,0.4,0,0.6,0
			c0.7,0,1.2,0.1,1.8,0.3c0.4,0.2,0.8,0.3,1.1,0.5c0.1,0.1,0.2,0.2,0.3,0.3c0.2,0.2,0.4,0.4,0.5,0.6c0.1,0.2,0.3,0.4,0.4,0.7
			c0.2,0.5,0.3,1.1,0.3,1.8c0,0.8-0.1,1.6-0.4,2.2c-0.3,0.6-0.7,1.2-1.2,1.6c-0.5,0.4-1.2,0.7-1.9,1C75,57.9,74.2,58,73.3,58
			c-0.2,0-0.4,0-0.7,0c-0.3,0-0.5-0.1-0.8-0.1s-0.6-0.1-0.9-0.2c-0.3-0.1-1-0.3-1-0.3l0.7-2.4c0,0,0.9,0.3,1.3,0.4
			c0.4,0.1,0.9,0.1,1.3,0.1c0.6,0,1.1-0.1,1.5-0.2c0.4-0.1,0.7-0.3,1-0.5s0.4-0.5,0.5-0.8s0.2-0.6,0.2-0.9c0-0.5-0.1-0.9-0.4-1.3
			c-0.1-0.1-0.2-0.2-0.3-0.3c-0.2-0.2-0.5-0.4-0.9-0.5s-0.8-0.1-1.2-0.1c-0.2,0-0.4,0-0.6,0s-0.4,0-0.5,0.1
			c-0.4,0.1-0.7,0.2-1.1,0.4l-0.3-0.2l0.1-7.8h7.2v2.5h-4.6l-0.1,2.9C73.9,48.7,74.2,48.7,74.3,48.7z"/>
		<path d="M50.5,41.2c-1.6-0.7-2.6-1.6-2.6-2.3l0.1-3.2c0.1,0.1,1.7,1.1,5.5,1.9l2.2-2.8C50.8,34,48,31.9,48,31.4v-3.2
			c0.6,0.4,1.3,0.7,2.1,1c2.5,1,5.7,1.5,8.9,1.6l2.4-2.9c-0.5,0-1,0.1-1.6,0.1c-1.4,0-2.7-0.1-3.9-0.3c-0.1,0-0.1,0-0.1,0
			c-2.4-0.3-4.3-0.9-5.7-1.6c-0.7-0.4-1.2-0.7-1.5-1.1c-0.4-0.4-0.6-0.7-0.6-1c0-1.7,4.6-4.1,11.7-4.1c3,0,5.5,0.4,7.4,1l2-2.4
			c-2.7-1-6.1-1.5-9.3-1.5C52.7,17,45,19.4,45,24v7.5V39v7.5c0,0.5,0.1,0.9,0.2,1.4L50.5,41.2z"/>
		<path d="M70.8,37.4l-9.9,12.2l-3.1,3.8c0.7,0,1.4,0.1,2.1,0.1c0.4,0,0.8,0,1.2,0c1.3,6.3,6.9,11,13.5,11c7.6,0,13.8-6.2,13.8-13.8
			C88.5,43.2,82.3,37,74.7,37v-4.4l-3.3,4.1L70.8,37.4z M85.3,50.8c0,5.9-4.9,10.7-10.8,10.7c-5.1,0-9.3-3.5-10.5-8.3
			c-0.2-0.8-0.3-1.7-0.3-2.5c0-0.1,0-0.3,0-0.4c0.1-1.7,0.5-3.3,1.3-4.7c1.8-3.4,5.4-5.6,9.5-5.6C80.5,40,85.3,44.8,85.3,50.8z"/>
		<path d="M78.4,45.9v-2.5h-7.2l-0.1,7.8l0.3,0.2c0.4-0.2,0.7-0.3,1.1-0.4c0.2,0,0.3-0.1,0.5-0.1s0.4,0,0.6,0l0,0l0,0
			c0.5,0,0.9,0,1.2,0.1s0.7,0.2,0.9,0.5c0.1,0.1,0.2,0.2,0.3,0.3c0.3,0.3,0.4,0.8,0.4,1.3c0,0.3-0.1,0.6-0.2,0.9s-0.2,0.6-0.5,0.8
			s-0.6,0.4-1,0.5s-0.9,0.2-1.5,0.2c-0.4,0-0.9,0-1.3-0.1S70.6,55,70.6,55l-0.7,2.4c0,0,0.7,0.2,1,0.3s0.6,0.2,0.9,0.2
			s0.5,0.1,0.8,0.1s0.5,0,0.7,0c0.9,0,1.7-0.1,2.5-0.3c0.7-0.3,1.4-0.6,1.9-1s0.9-1,1.2-1.6c0.3-0.6,0.4-1.4,0.4-2.2
			c0-0.7-0.1-1.3-0.3-1.8c-0.1-0.2-0.2-0.5-0.4-0.7c-0.2-0.2-0.3-0.4-0.5-0.6c-0.1-0.1-0.2-0.2-0.3-0.3c-0.3-0.2-0.7-0.4-1.1-0.5
			c-0.6-0.2-1.1-0.3-1.8-0.3c-0.2,0-0.5,0-0.6,0s-0.4,0-0.6,0.1l0.1-2.9H78.4z"/>
		<polygon points="71.2,43.4 71.1,51.2 71.4,51.4 71.1,51.2 		"/>
		<path d="M74.7,55.3c0.4-0.1,0.7-0.3,1-0.5C75.4,55,75.1,55.2,74.7,55.3z"/>
		<path d="M76.4,53.1c0-0.5-0.1-0.9-0.4-1.3C76.3,52.2,76.4,52.6,76.4,53.1z"/>
		<path d="M73.6,50.9c0.5,0,0.9,0,1.2,0.1C74.5,51,74.1,50.9,73.6,50.9L73.6,50.9z"/>
		<path class="st0" d="M28.3,46.7c0,2.4,2,4.3,4.3,4.3c2.4,0,4.3-2,4.3-4.3c0-2.4-2-4.3-4.3-4.3S28.4,44.3,28.3,46.7z"/>
		<polygon points="27,65.1 27,70.1 29.7,66.8 29.7,65.1 		"/>
		<path d="M21.6,73.6c-0.2,0-0.3-0.1-0.3-0.3v-7.8c0-1.9,0.5-3.3,1.5-4.3c1.7-1.8,4.5-1.8,4.6-1.8h8.3l2.4-2.9l0,0H27.4
			c-0.6,0-4.1,0.1-6.6,2.6c-1.6,1.6-2.4,3.7-2.3,6.3v7.7c0,0.4,0,1.4,0.8,2.2c0.4,0.4,1.2,1,2.5,1h0.1l2.2-2.7
			C22.9,73.6,21.6,73.6,21.6,73.6z"/>
		<path d="M44,73.3c0,0.2-0.1,0.3-0.3,0.3h-2.4l-2.2,2.7h4.6c1.3,0,2.1-0.5,2.5-1c0.7-0.8,0.8-1.8,0.8-2.2l-0.1-6.4L44,70.3V73.3z"
			/>
		<path d="M25.5,46.6c0,3.9,3.2,7.1,7.1,7.1s7.1-3.2,7.1-7.1s-3.2-7.1-7.1-7.1S25.5,42.7,25.5,46.6z M36.9,46.7
			c0,2.3-1.9,4.3-4.3,4.3c-2.3,0-4.3-1.9-4.3-4.3c0.1-2.4,2-4.3,4.3-4.3S36.9,44.3,36.9,46.7z"/>
		<path d="M82.5,30.9h-4v3h4c6.1,0,11.1,5,11.1,11.1v2.4v1.5v24.9h-0.1c0,0.4,0,0.7-0.1,1.1c-0.6,5.6-5.3,10-11.1,10H66.1h-34
			l-2.4,2.9H66h16.4c7.7,0,14-6.3,14-13.9V45v-0.3v-0.4C96.1,36.9,90,30.9,82.5,30.9z"/>
		<path d="M8.5,73.8v-2.4v-1.5V45c0-0.4,0-0.8,0.1-1.1c0.6-5.6,5.3-10,11.1-10H36h5v-3h-4.9H19.6c-7.7,0-14,6.3-14,14v28.8V74v0.4
			c0.2,5.4,3.4,9.9,8,12.1l1.9-2.3C11.5,82.5,8.5,78.4,8.5,73.8z"/>
	</g>
</g>
<path class="st4" d="M538,212.9"/>
</svg>
