<?xml version="1.0" encoding="utf-8"?>
<!-- Generator: Adobe Illustrator 24.0.1, SVG Export Plug-In . SVG Version: 6.00 Build 0)  -->
<svg version="1.1" xmlns="http://www.w3.org/2000/svg" xmlns:xlink="http://www.w3.org/1999/xlink" x="0px" y="0px"
	 viewBox="0 0 102 102" style="enable-background:new 0 0 102 102;" xml:space="preserve">
<style type="text/css">
	.st0{fill:none;}
	.st1{display:none;}
	.st2{display:inline;}
	.st3{opacity:0.4;fill:#7BCDEF;}
</style>
<g id="_x30_03-data_x5F_category-health">
	<g>
		<path d="M62.9,60.4c0.3,0.3,0.6,0.4,1,0.4s0.7-0.1,1-0.4l26.6-26.6c4.1-4.1,5.8-10,4.3-15.9c-0.4-1.4-0.9-2.8-1.7-4.1
			c-3.4-5.6-9.3-8.6-15.6-8.2c-4,0.3-7.8,2.2-10.7,5.1l-3.5,3.5c-0.4,0.4-0.5,0.4-0.7,0.3L60,10.8c-3.3-3.3-7.7-5.3-12.4-5.2
			c-4.3,0.1-8.3,1.8-11.3,4.9c-6.4,6.4-6.1,17.2,0.3,23.6C45.8,43.3,62.9,60.4,62.9,60.4z M64.3,57.1c-0.2,0.2-0.6,0.2-0.8,0
			L40.5,34l11.3,0c0,0,0,0,0,0c0.5,0,1-0.3,1.2-0.8l3.5-6.6c0.1-0.2,0.4-0.2,0.5,0L62,41.4c0.2,0.6,0.7,0.9,1.3,1c0,0,0,0,0.1,0
			c0.6,0,1.1-0.3,1.3-0.9l4.7-11.8c0.1-0.2,0.4-0.2,0.5,0l1.9,3.5c0.2,0.5,0.7,0.9,1.3,0.9h14.9L64.3,57.1z M38.3,12.5
			c2.7-2.7,6.2-4.1,10-4c3.6,0.1,7,1.7,9.6,4.3l5,5c0.6,0.6,1.5,0.6,2,0l5-5c2.6-2.6,6-4.2,9.6-4.3c3.8-0.1,7.4,1.3,10,4
			c2.6,2.6,4,6,4,9.7c0,3.3-1.5,6.5-3.6,9H73.7l-3-5.8c-0.2-0.5-0.7-0.9-1.3-0.9c-0.6,0-1.1,0.3-1.3,0.9l-4.4,10.8
			c-0.1,0.2-0.4,0.2-0.5,0L58.5,22c-0.2-0.5-0.7-0.9-1.2-1c-0.6-0.1-1.1,0.2-1.4,0.7L51,31.2l-13.2,0C33.1,25.8,33.2,17.6,38.3,12.5
			z"/>
		<path d="M18.5,65.6v7.7c0,0.4,0,1.4,0.8,2.2c0.4,0.4,1.2,1,2.5,1h21.9c1.3,0,2.1-0.5,2.5-1c0.7-0.8,0.8-1.8,0.8-2.2l0-7.7
			c0-2.6-0.8-4.8-2.3-6.4c-2.5-2.5-6.1-2.6-6.6-2.6H27.4c0,0,0,0,0,0c-0.6,0-4.1,0.1-6.6,2.6C19.2,60.9,18.4,63,18.5,65.6z
			 M21.3,65.6c0-1.9,0.5-3.3,1.5-4.3c1.7-1.8,4.5-1.8,4.6-1.8H38c0,0,2.8,0,4.5,1.8c1,1,1.5,2.4,1.5,4.3v7.8c0,0.2-0.1,0.3-0.3,0.3
			h-5.1c-0.2,0-0.3-0.1-0.3-0.3l0-8.2h-2.8l0,8.2c0,0.2-0.1,0.3-0.3,0.3h-5.1c-0.2,0-0.3-0.1-0.3-0.3l0-8.2H27l0,8.2
			c0,0.2-0.1,0.3-0.3,0.3h-5.1c-0.2,0-0.3-0.1-0.3-0.3V65.6z"/>
		<path d="M32.6,53.9c3.9,0,7.1-3.2,7.1-7.1c0-3.9-3.2-7.1-7.1-7.1c-3.9,0-7.1,3.2-7.1,7.1C25.5,50.7,28.7,53.9,32.6,53.9z
			 M32.6,42.5c2.3,0,4.3,1.9,4.3,4.3c0,2.3-1.9,4.3-4.3,4.3c-2.3,0-4.3-1.9-4.3-4.3C28.4,44.4,30.3,42.5,32.6,42.5z"/>
		<path d="M96.4,44.9v-0.4l0,0c-0.1-2.1-0.7-4.1-1.6-5.9l-2.1,2.1c0.6,1.3,0.9,2.8,0.9,4.4v2.4l0,1.5v24.9c0,0.4,0,0.7-0.1,1.1
			c-0.6,5.6-5.3,10-11.1,10H66.1H19.6c-6.1,0-11.1-5-11.1-11.1v-2.4v-1.5V45.1c0-0.4,0-0.8,0.1-1.1c0.6-5.6,5.3-10,11.1-10h9.7
			c-0.6-0.9-1.1-1.9-1.5-2.8h-8.1c-7.7,0-14,6.3-14,14v28.8v0.3v0.4l0,0c0.3,7.4,6.4,13.4,13.9,13.4H66h16.4c7.7,0,14-6.3,14-13.9
			V45.2L96.4,44.9z"/>
	</g>
</g>
<g id="Rahmen">
	<rect x="0" y="0" class="st0" width="102" height="102"/>
</g>
<g id="Schutzzone" class="st1">
	<g class="st2">
		<rect y="0" class="st3" width="102" height="5.7"/>
		<rect x="0" y="96.4" class="st3" width="102" height="5.7"/>
		
			<rect x="-48.2" y="48.2" transform="matrix(-1.836970e-16 1 -1 -1.836970e-16 53.8573 48.1827)" class="st3" width="102" height="5.7"/>
		
			<rect x="48.2" y="48.2" transform="matrix(-1.836970e-16 1 -1 -1.836970e-16 150.2365 -48.1893)" class="st3" width="102" height="5.7"/>
	</g>
</g>
</svg>
