<?xml version="1.0" encoding="utf-8"?>
<!-- Generator: Adobe Illustrator 24.0.1, SVG Export Plug-In . SVG Version: 6.00 Build 0)  -->
<svg version="1.1" xmlns="http://www.w3.org/2000/svg" xmlns:xlink="http://www.w3.org/1999/xlink" x="0px" y="0px"
	 viewBox="0 0 102 102" style="enable-background:new 0 0 102 102;" xml:space="preserve">
<style type="text/css">
	.st0{fill:none;}
	.st1{display:none;}
	.st2{display:inline;}
	.st3{opacity:0.4;fill:#7BCDEF;}
</style>
<g id="_x30_03-data_x5F_category-health">
	<g>
		<path class="st0" d="M32.6,51c2.3,0,4.3-1.9,4.3-4.3c0-2.3-1.9-4.3-4.3-4.3c-2.3,0-4.3,1.9-4.3,4.3C28.4,49.1,30.3,51,32.6,51z"/>
		<path d="M40.5,34l11.3,0c0,0,0,0,0,0c0.5,0,1-0.3,1.2-0.8l3.5-6.6c0.1-0.2,0.4-0.2,0.5,0l1.5,4.6l2.1-2.6L58.5,22
			c-0.2-0.5-0.7-0.9-1.2-1c-0.6-0.1-1.1,0.2-1.4,0.7L51,31.2l-13.2,0c-4.7-5.4-4.5-13.6,0.6-18.7c2.7-2.7,6.2-4.1,10-4
			c3.6,0.1,7,1.7,9.6,4.3l5,5c0.6,0.6,1.5,0.6,2,0l5-5c1.9-1.9,4.3-3.3,6.9-3.9l2.6-3.2c-0.3,0-0.5,0-0.8,0c-4,0.3-7.8,2.2-10.7,5.1
			l-3.5,3.5c-0.4,0.4-0.5,0.4-0.7,0.3L60,10.8c-3.3-3.3-7.7-5.3-12.4-5.2c-4.3,0.1-8.3,1.8-11.3,4.9c-6.4,6.4-6.1,17.2,0.3,23.6
			c3,3,6.9,6.9,10.8,10.8l1.8-2.2L40.5,34z"/>
		<path d="M93.5,22.2c0,3.3-1.5,6.5-3.6,9H75.6L73.3,34h14.5l-23.5,23c-0.2,0.2-0.6,0.2-0.8,0l-4.9-4.9l-1.8,2.2
			c3.6,3.6,6.1,6.1,6.1,6.1c0.3,0.3,0.6,0.4,1,0.4s0.7-0.1,1-0.4l26.6-26.6c4.1-4.1,5.8-10,4.3-15.9c-0.4-1.4-0.9-2.8-1.7-4.1
			c-0.6-1-1.3-2-2.1-2.8l-1.8,2.2C92.4,15.7,93.5,18.9,93.5,22.2z"/>
		<polygon points="27,65.2 27,70.1 29.8,66.6 29.8,65.2 		"/>
		<path d="M21.6,73.7c-0.2,0-0.3-0.1-0.3-0.3v-7.8c0-1.9,0.5-3.3,1.5-4.3c1.7-1.8,4.5-1.8,4.6-1.8h8.2l2.3-2.8H27.4c0,0,0,0,0,0
			c-0.6,0-4.1,0.1-6.6,2.6c-1.6,1.6-2.4,3.7-2.3,6.3v7.7c0,0.4,0,1.4,0.8,2.2c0.4,0.4,1.2,1,2.5,1h0.1l2.3-2.8H21.6z"/>
		<path d="M44,73.4c0,0.2-0.1,0.3-0.3,0.3h-2.7l-2.3,2.8h4.9c1.3,0,2.1-0.5,2.5-1c0.7-0.8,0.8-1.8,0.8-2.2l0-6.9L44,70V73.4z"/>
		<path d="M32.6,53.9c3.9,0,7.1-3.2,7.1-7.1c0-3.9-3.2-7.1-7.1-7.1c-3.9,0-7.1,3.2-7.1,7.1C25.5,50.7,28.7,53.9,32.6,53.9z
			 M32.6,42.5c2.3,0,4.3,1.9,4.3,4.3c0,2.3-1.9,4.3-4.3,4.3c-2.3,0-4.3-1.9-4.3-4.3C28.4,44.4,30.3,42.5,32.6,42.5z"/>
		<path d="M96.4,44.5L96.4,44.5c-0.1-2.1-0.7-4.1-1.6-5.8l-2.1,2.1c0.6,1.3,0.9,2.8,0.9,4.4v2.4l0,1.5v24.9c0,0.4,0,0.7-0.1,1.1
			c-0.6,5.6-5.3,10-11.1,10H66.1H31.8l-2.3,2.8H66h16.4c7.7,0,14-6.3,14-13.9V45.2l0-0.3V44.5z"/>
		<path d="M8.5,73.9v-2.4v-1.5V45.1c0-0.4,0-0.8,0.1-1.1c0.6-5.6,5.3-10,11.1-10h9.7c-0.6-0.9-1.1-1.9-1.5-2.8h-8.1
			c-7.7,0-14,6.3-14,14v28.8v0.3v0.4l0,0c0.2,5.3,3.4,9.8,7.9,12l1.9-2.3C11.4,82.6,8.5,78.6,8.5,73.9z"/>
	</g>
</g>
<g id="Ebene_4">
	<rect x="49.6" y="-6.3" transform="matrix(0.7756 0.6313 -0.6313 0.7756 43.6815 -20.7076)" width="2.8" height="114.8"/>
</g>
<g id="Rahmen">
	<rect x="0" y="0" class="st0" width="102" height="102"/>
</g>
<g id="Schutzzone" class="st1">
	<g class="st2">
		<rect y="0" class="st3" width="102" height="5.7"/>
		<rect x="0" y="96.4" class="st3" width="102" height="5.7"/>
		
			<rect x="-48.2" y="48.2" transform="matrix(-1.836970e-16 1 -1 -1.836970e-16 53.8573 48.1827)" class="st3" width="102" height="5.7"/>
		
			<rect x="48.2" y="48.2" transform="matrix(-1.836970e-16 1 -1 -1.836970e-16 150.2365 -48.1893)" class="st3" width="102" height="5.7"/>
	</g>
</g>
</svg>
