<?xml version="1.0" encoding="utf-8"?>
<!-- Generator: Adobe Illustrator 24.3.0, SVG Export Plug-In . SVG Version: 6.00 Build 0)  -->
<svg version="1.1" id="Ebene_1" xmlns="http://www.w3.org/2000/svg" xmlns:xlink="http://www.w3.org/1999/xlink" x="0px" y="0px"
	 viewBox="0 0 102 102" style="enable-background:new 0 0 102 102;" xml:space="preserve">
<style type="text/css">
	.st0{fill:#1A171B;}
	.st1{fill:none;}
	.st2{display:none;}
	.st3{display:inline;}
	.st4{opacity:0.4;fill:#7BCDEF;enable-background:new    ;}
	.st5{display:inline;fill:none;}
	.st6{display:inline;fill:#7BCDEF;}
</style>
<g id="_x30_04-data_x5F_category-location">
	<g>
		<path class="st0" d="M48.2,39.8l20.1,31.7c0.3,0.4,0.7,0.7,1.2,0.7s0.9-0.2,1.2-0.7l20.1-31.7c1.5-2.6,2.4-5.3,2.7-8.3
			c0.1-0.7,0.1-1.2,0.1-1.7c0-13.3-10.8-24.1-24.1-24.1S45.4,16.5,45.4,29.8c0,0.3,0,0.7,0,1.1C45.7,33.9,46.6,37,48.2,39.8z
			 M69.4,8.5c11.7,0,21.3,9.5,21.3,21.3c0,0.4,0,0.8-0.1,1.4c-0.3,2.5-1.1,4.9-2.3,7.1L69.7,67.7c-0.1,0.2-0.4,0.2-0.5,0L50.6,38.3
			c-1.4-2.4-2.2-5-2.4-7.7c0-0.3,0-0.6,0-0.9C48.2,18,57.7,8.5,69.4,8.5z"/>
		<path class="st0" d="M69.4,42.7c7.1,0,12.9-5.8,12.9-12.9s-5.8-12.9-12.9-12.9s-12.9,5.8-12.9,12.9C56.5,37,62.3,42.7,69.4,42.7z
			 M69.4,19.9c5.5,0,10,4.5,10,10s-4.5,10-10,10s-10-4.5-10-10S63.9,19.9,69.4,19.9z"/>
		<path class="st0" d="M27.4,56.7L27.4,56.7c-0.6,0-4.1,0.1-6.6,2.6c-1.6,1.6-2.4,3.7-2.3,6.3v7.7c0,0.4,0,1.4,0.8,2.2
			c0.4,0.4,1.2,1,2.5,1h21.9c1.3,0,2.1-0.5,2.5-1c0.7-0.8,0.8-1.8,0.8-2.2v-7.7c0-2.6-0.8-4.8-2.3-6.4c-2.5-2.5-6.1-2.6-6.6-2.6
			H27.4V56.7z M42.6,61.3c1,1,1.5,2.4,1.5,4.3v7.8c0,0.2-0.1,0.3-0.3,0.3h-5.2c-0.2,0-0.3-0.1-0.3-0.3v-8.2h-2.8v8.2
			c0,0.2-0.1,0.3-0.3,0.3h-5.1c-0.2,0-0.3-0.1-0.3-0.3v-8.2H27v8.2c0,0.2-0.1,0.3-0.3,0.3h-5.1c-0.2,0-0.3-0.1-0.3-0.3v-7.8
			c0-1.9,0.5-3.3,1.5-4.3c1.7-1.8,4.5-1.8,4.6-1.8H38C38,59.5,40.8,59.6,42.6,61.3z"/>
		<path class="st0" d="M32.6,53.9c3.9,0,7.1-3.2,7.1-7.1s-3.2-7.1-7.1-7.1s-7.1,3.2-7.1,7.1C25.5,50.7,28.7,53.9,32.6,53.9z
			 M32.6,42.5c2.3,0,4.3,1.9,4.3,4.3c0,2.3-1.9,4.3-4.3,4.3c-2.3,0-4.3-1.9-4.3-4.3C28.4,44.4,30.3,42.5,32.6,42.5z"/>
		<path class="st0" d="M96.4,44.8v-0.4l0,0c0-0.9-0.2-1.8-0.4-2.6c-0.1,0.2-0.2,0.4-0.4,0.7l-0.1,0.1l-0.1,0.1l-2,3.1v1.6v1.5v24.9
			c0,0.4,0,0.7-0.1,1.1c-0.6,5.6-5.3,10-11.1,10H66.1H19.6c-6.1,0-11.1-5-11.1-11.1v-2.4V70V45.1c0-0.4,0-0.8,0.1-1.1
			c0.6-5.6,5.3-10,11.1-10H36h4.2c-0.2-0.9-0.3-1.8-0.4-2.7v-0.1h-3.7H19.6c-7.7,0-14,6.3-14,14V74v0.3v0.4l0,0
			c0.3,7.4,6.4,13.4,13.9,13.4H66h16.4c7.7,0,14-6.3,14-13.9V45.1V44.8z"/>
	</g>
</g>
<g id="Rahmen">
	<rect y="0" class="st1" width="102" height="102"/>
</g>
<g id="Schutzzone" class="st2">
	<g class="st3">
		<rect y="0" class="st4" width="102" height="5.7"/>
		<rect y="96.4" class="st4" width="102" height="5.7"/>
		<rect y="0" class="st4" width="5.7" height="102"/>
		<rect x="96.3" y="0" class="st4" width="5.7" height="102"/>
	</g>
	<g class="st3">
		<rect y="0" class="st4" width="102" height="5.7"/>
		<rect y="96.4" class="st4" width="102" height="5.7"/>
		<rect y="0" class="st4" width="5.7" height="102"/>
		<rect x="96.3" y="0" class="st4" width="5.7" height="102"/>
	</g>
	<rect y="0" class="st5" width="102" height="102"/>
	<g class="st3">
		<rect y="0" class="st4" width="102" height="5.7"/>
		<rect y="96.4" class="st4" width="102" height="5.7"/>
		<rect y="0" class="st4" width="5.7" height="102"/>
		<rect x="96.3" y="0" class="st4" width="5.7" height="102"/>
	</g>
	<rect x="39.7" y="29.9" class="st6" width="5.7" height="5.6"/>
	<rect x="85" y="46.8" class="st6" width="5.7" height="5.6"/>
	<polygon class="st6" points="90.7,48.2 96.4,48.2 96.4,42.5 	"/>
	<path class="st6" d="M69.4,19.8L69.4,19.8c-0.8,0-1.4-0.6-1.4-1.4l0,0c0-0.8,0.6-1.4,1.4-1.4l0,0c0.8,0,1.4,0.6,1.4,1.4l0,0
		C70.9,19.2,70.2,19.8,69.4,19.8z"/>
</g>
</svg>
