<?xml version="1.0" encoding="utf-8"?>
<!-- Generator: Adobe Illustrator 24.0.1, SVG Export Plug-In . SVG Version: 6.00 Build 0)  -->
<svg version="1.1" xmlns="http://www.w3.org/2000/svg" xmlns:xlink="http://www.w3.org/1999/xlink" x="0px" y="0px"
	 viewBox="0 0 102 102" style="enable-background:new 0 0 102 102;" xml:space="preserve">
<style type="text/css">
	.st0{fill:none;}
	.st1{display:none;}
	.st2{display:inline;}
	.st3{opacity:0.4;fill:#7BCDEF;}
	.st4{display:inline;fill:none;}
	.st5{display:inline;fill:#7BCDEF;}
</style>
<g id="_x30_04-data_x5F_category-location">
	<g>
		<path class="st0" d="M28.4,46.8c0,2.3,1.9,4.3,4.3,4.3c2.3,0,4.3-1.9,4.3-4.3c0-2.3-1.9-4.3-4.3-4.3
			C30.3,42.5,28.4,44.4,28.4,46.8z"/>
		<path d="M90.7,29.8c0,0.4,0,0.8-0.1,1.4c-0.3,2.5-1.1,4.9-2.3,7.1L69.7,67.7c-0.1,0.2-0.4,0.2-0.5,0L59,51.6l-1.9,2.3l11.1,17.5
			c0.3,0.4,0.7,0.7,1.2,0.7c0.5,0,0.9-0.2,1.2-0.7l20.1-31.7c1.5-2.6,2.4-5.3,2.7-8.3c0.1-0.7,0.1-1.2,0.1-1.7
			c0-5.5-1.8-10.5-4.9-14.5l-1.9,2.3C89.2,21,90.7,25.2,90.7,29.8z"/>
		<path d="M50.6,38.3c-1.4-2.4-2.2-5-2.4-7.7c0-0.3,0-0.6,0-0.9c0-11.7,9.5-21.3,21.3-21.3c2.4,0,4.6,0.4,6.8,1.1l1.9-2.3
			c-2.7-1-5.6-1.6-8.7-1.6c-13.3,0-24.1,10.8-24.1,24.1c0,0.3,0,0.7,0,1.1c0.2,3.1,1.2,6.2,2.8,8.9l1.5,2.4l1.9-2.3L50.6,38.3z"/>
		<path d="M79.4,29.9c0,5.5-4.5,10-10,10c-0.3,0-0.5,0-0.8,0l-2.1,2.6c0.9,0.2,1.9,0.3,2.9,0.3c7.1,0,12.9-5.8,12.9-12.9
			c0-1.9-0.4-3.7-1.2-5.3L79,27.1C79.2,28,79.4,28.9,79.4,29.9z"/>
		<path d="M59.4,29.9c0-5,3.6-9.1,8.4-9.9l2.4-3c-0.3,0-0.5,0-0.8,0c-7.1,0-12.9,5.8-12.9,12.9c0,1.2,0.2,2.3,0.5,3.4l2.4-3
			C59.4,30.2,59.4,30,59.4,29.9z"/>
		<polygon points="27,65.2 27,70.1 29.8,66.6 29.8,65.2 		"/>
		<path d="M21.6,73.7c-0.2,0-0.3-0.1-0.3-0.3v-7.8c0-1.9,0.5-3.3,1.5-4.3c1.7-1.8,4.5-1.8,4.6-1.8h8.2l2.3-2.8H27.4c0,0,0,0,0,0
			c-0.6,0-4.1,0.1-6.6,2.6c-1.6,1.6-2.4,3.7-2.3,6.3v7.7c0,0.4,0,1.4,0.8,2.2c0.4,0.4,1.2,1,2.5,1h0.1l2.3-2.8H21.6z"/>
		<path d="M44,73.4c0,0.2-0.1,0.3-0.3,0.3h-2.7l-2.3,2.8h4.9c1.3,0,2.1-0.5,2.5-1c0.7-0.8,0.8-1.8,0.8-2.2l0-6.9L44,70V73.4z"/>
		<path d="M25.5,46.8c0,3.9,3.2,7.1,7.1,7.1c3.9,0,7.1-3.2,7.1-7.1c0-3.9-3.2-7.1-7.1-7.1C28.7,39.7,25.5,42.9,25.5,46.8z
			 M36.9,46.8c0,2.3-1.9,4.3-4.3,4.3c-2.3,0-4.3-1.9-4.3-4.3c0-2.3,1.9-4.3,4.3-4.3C34.9,42.5,36.9,44.4,36.9,46.8z"/>
		<path d="M8.5,73.9v-2.4V70V45.1c0-0.4,0-0.8,0.1-1.1c0.6-5.6,5.3-10,11.1-10H36h4.2c-0.2-0.9-0.3-1.8-0.4-2.7c0,0,0-0.1,0-0.1
			h-3.7H19.6c-7.7,0-14,6.3-14,14v28.8v0.3v0.4l0,0c0.2,5.3,3.4,9.8,8,12l1.9-2.3C11.4,82.6,8.5,78.6,8.5,73.9z"/>
		<path d="M96.4,44.5L96.4,44.5c-0.1-0.9-0.2-1.7-0.4-2.6c-0.1,0.2-0.2,0.4-0.4,0.7l-0.1,0.1l-0.1,0.1l-2,3.1v1.6l0,1.5v24.9
			c0,0.4,0,0.7-0.1,1.1c-0.6,5.6-5.3,10-11.1,10H66.1H31.8l-2.3,2.8H66h16.4c7.7,0,14-6.3,14-13.9V45.1l0-0.3V44.5z"/>
	</g>
</g>
<g id="Ebene_4">
	<rect x="49.6" y="-6.3" transform="matrix(0.7756 0.6313 -0.6313 0.7756 43.6815 -20.7076)" width="2.8" height="114.8"/>
</g>
<g id="Rahmen">
	<rect x="0" y="0" class="st0" width="102" height="102"/>
</g>
<g id="Schutzzone" class="st1">
	<g class="st2">
		<rect x="0" y="0" class="st3" width="102" height="5.7"/>
		<rect x="0" y="96.4" class="st3" width="102" height="5.7"/>
		
			<rect x="-48.2" y="48.2" transform="matrix(-1.836970e-16 1 -1 -1.836970e-16 53.8573 48.1827)" class="st3" width="102" height="5.7"/>
		
			<rect x="48.2" y="48.2" transform="matrix(-1.836970e-16 1 -1 -1.836970e-16 150.2365 -48.1893)" class="st3" width="102" height="5.7"/>
	</g>
	<g class="st2">
		<rect x="0" y="0" class="st3" width="102" height="5.7"/>
		<rect x="0" y="96.4" class="st3" width="102" height="5.7"/>
		
			<rect x="-48.2" y="48.2" transform="matrix(-1.836970e-16 1 -1 -1.836970e-16 53.8573 48.1827)" class="st3" width="102" height="5.7"/>
		
			<rect x="48.2" y="48.2" transform="matrix(-1.836970e-16 1 -1 -1.836970e-16 150.2365 -48.1893)" class="st3" width="102" height="5.7"/>
	</g>
	<rect x="0" y="0" class="st4" width="102" height="102"/>
	<g class="st2">
		<rect x="0" y="0" class="st3" width="102" height="5.7"/>
		<rect x="0" y="96.4" class="st3" width="102" height="5.7"/>
		
			<rect x="-48.2" y="48.2" transform="matrix(-1.836970e-16 1 -1 -1.836970e-16 53.8573 48.1827)" class="st3" width="102" height="5.7"/>
		
			<rect x="48.2" y="48.2" transform="matrix(-1.836970e-16 1 -1 -1.836970e-16 150.2365 -48.1893)" class="st3" width="102" height="5.7"/>
	</g>
	<rect x="39.7" y="29.9" class="st5" width="5.7" height="5.6"/>
	<rect x="85" y="46.8" class="st5" width="5.7" height="5.6"/>
	<polygon class="st5" points="90.7,48.2 96.4,48.2 96.4,42.5 	"/>
	<path class="st5" d="M69.4,19.8L69.4,19.8c-0.8,0-1.4-0.6-1.4-1.4v0c0-0.8,0.6-1.4,1.4-1.4h0c0.8,0,1.4,0.6,1.4,1.4v0
		C70.9,19.2,70.2,19.8,69.4,19.8z"/>
</g>
</svg>
