<?xml version="1.0" encoding="utf-8"?>
<!-- Generator: Adobe Illustrator 24.0.1, SVG Export Plug-In . SVG Version: 6.00 Build 0)  -->
<svg version="1.1" xmlns="http://www.w3.org/2000/svg" xmlns:xlink="http://www.w3.org/1999/xlink" x="0px" y="0px"
	 viewBox="0 0 102 102" style="enable-background:new 0 0 102 102;" xml:space="preserve">
<style type="text/css">
	.st0{fill:none;}
	.st1{display:none;}
	.st2{display:inline;}
	.st3{opacity:0.4;fill:#7BCDEF;}
	.st4{display:inline;fill:none;}
	.st5{display:inline;fill:#7BCDEF;}
</style>
<g id="_x30_05-data_x5F_category-biometric">
	<g>
		<path d="M48.2,26.9v12.8c0,11.6,9.5,21.1,21.2,21.1s21.2-9.5,21.2-21.1V26.9c0-11.6-9.5-21.1-21.2-21.1S48.2,15.2,48.2,26.9z
			 M69.5,8.6c10.2,0,18.5,8.2,18.5,18.3v12.8c0,10.1-8.3,18.3-18.5,18.3S51,49.8,51,39.7V26.9C51,16.8,59.3,8.6,69.5,8.6z"/>
		<path d="M54.7,27.3v12c0,8.1,6.6,14.7,14.8,14.7c8.1,0,14.8-6.6,14.8-14.7V25.9h-2.8v13.4c0,6.5-5.4,11.9-12,11.9s-12-5.3-12-11.9
			v-12c0-6.5,5.4-11.9,12-11.9c0-1,0-2.8,0-2.8C61.3,12.6,54.7,19.2,54.7,27.3z"/>
		<path d="M61.3,27.5l0,12.2h2.8l0-12.2c0-2.9,2.4-5.3,5.4-5.3c3,0,5.4,2.4,5.4,5.3v11.6c0,2.9-2.4,5.3-5.4,5.3v2.8
			c4.5,0,8.2-3.7,8.2-8.1V27.5c0-4.5-3.7-8.1-8.2-8.1C65,19.3,61.3,23,61.3,27.5z"/>
		<polygon points="70.9,40.9 70.9,25.7 69.5,25.7 68.1,25.7 68.1,40.9 69.5,40.9 		"/>
		<path d="M18.5,65.6v7.7c0,0.4,0,1.4,0.8,2.2c0.4,0.4,1.2,1,2.5,1h21.9c1.3,0,2.1-0.5,2.5-1c0.7-0.8,0.8-1.8,0.8-2.2l0-7.7
			c0-2.6-0.8-4.8-2.3-6.4c-2.5-2.5-6.1-2.6-6.6-2.6H27.4c0,0,0,0,0,0c-0.6,0-4.1,0.1-6.6,2.6C19.2,60.8,18.4,63,18.5,65.6z
			 M21.3,65.6c0-1.9,0.5-3.3,1.5-4.3c1.7-1.8,4.5-1.8,4.6-1.8H38c0,0,2.8,0,4.5,1.8c1,1,1.5,2.4,1.5,4.3v7.7c0,0.2-0.1,0.3-0.3,0.3
			h-5.1c-0.2,0-0.3-0.1-0.3-0.3l0-8.2h-2.8l0,8.2c0,0.2-0.1,0.3-0.3,0.3h-5.1c-0.2,0-0.3-0.1-0.3-0.3l0-8.2H27l0,8.2
			c0,0.2-0.1,0.3-0.3,0.3h-5.1c-0.2,0-0.3-0.1-0.3-0.3V65.6z"/>
		<path d="M32.6,53.8c3.9,0,7.1-3.2,7.1-7.1c0-3.9-3.2-7.1-7.1-7.1c-3.9,0-7.1,3.2-7.1,7.1C25.5,50.6,28.7,53.8,32.6,53.8z
			 M32.6,42.5c2.3,0,4.3,1.9,4.3,4.3c0,2.3-1.9,4.3-4.3,4.3c-2.3,0-4.3-1.9-4.3-4.3C28.4,44.4,30.3,42.5,32.6,42.5z"/>
		<path d="M96.4,44.5L96.4,44.5c-0.1-0.5-0.1-1.1-0.2-1.6c-0.4,3.1-1.3,6.1-2.6,8.8v22.3c0,0.4,0,0.7-0.1,1.1
			c-0.6,5.6-5.3,10-11.1,10H66.1H19.6c-6.1,0-11.1-5-11.1-11.1v-2.4V70V45.1c0-0.4,0-0.8,0.1-1.1c0.6-5.6,5.3-10,11.1-10H36h6.6
			v-2.8h-6.5H19.6c-7.7,0-14,6.3-14,14v28.8v0.3v0.4l0,0c0.3,7.4,6.4,13.4,13.9,13.4H66h16.4c7.7,0,14-6.3,14-13.9V45.1l0-0.3V44.5z
			"/>
	</g>
</g>
<g id="Rahmen">
	<rect x="0" y="0" class="st0" width="102" height="102"/>
</g>
<g id="Schutzzone" class="st1">
	<g class="st2">
		<rect x="0" y="0" class="st3" width="102" height="5.7"/>
		<rect x="0" y="96.4" class="st3" width="102" height="5.7"/>
		
			<rect x="-48.2" y="48.2" transform="matrix(-1.836970e-16 1 -1 -1.836970e-16 53.8573 48.1827)" class="st3" width="102" height="5.7"/>
		
			<rect x="48.2" y="48.2" transform="matrix(-1.836970e-16 1 -1 -1.836970e-16 150.2365 -48.1893)" class="st3" width="102" height="5.7"/>
	</g>
	<g class="st2">
		<rect x="0" y="0" class="st3" width="102" height="5.7"/>
		<rect x="0" y="96.4" class="st3" width="102" height="5.7"/>
		
			<rect x="-48.2" y="48.2" transform="matrix(-1.836970e-16 1 -1 -1.836970e-16 53.8573 48.1827)" class="st3" width="102" height="5.7"/>
		
			<rect x="48.2" y="48.2" transform="matrix(-1.836970e-16 1 -1 -1.836970e-16 150.2365 -48.1893)" class="st3" width="102" height="5.7"/>
	</g>
	<g class="st2">
		<rect x="0" y="0" class="st3" width="102" height="5.7"/>
		<rect x="0" y="96.4" class="st3" width="102" height="5.7"/>
		
			<rect x="-48.2" y="48.2" transform="matrix(-1.836970e-16 1 -1 -1.836970e-16 53.8573 48.1827)" class="st3" width="102" height="5.7"/>
		
			<rect x="48.2" y="48.2" transform="matrix(-1.836970e-16 1 -1 -1.836970e-16 150.2365 -48.1893)" class="st3" width="102" height="5.7"/>
	</g>
	<rect x="0" y="0" class="st4" width="102" height="102"/>
	<g class="st2">
		<rect x="0" y="0" class="st3" width="102" height="5.7"/>
		<rect x="0" y="96.4" class="st3" width="102" height="5.7"/>
		
			<rect x="-48.2" y="48.2" transform="matrix(-1.836970e-16 1 -1 -1.836970e-16 53.8573 48.1827)" class="st3" width="102" height="5.7"/>
		
			<rect x="48.2" y="48.2" transform="matrix(-1.836970e-16 1 -1 -1.836970e-16 150.2365 -48.1893)" class="st3" width="102" height="5.7"/>
	</g>
	<rect x="42.5" y="29.9" class="st5" width="5.7" height="5.6"/>
	<rect x="107.5" y="56" class="st5" width="5.7" height="5.6"/>
	<rect x="115.7" y="42.9" class="st5" width="5.7" height="5.6"/>
	<polygon class="st5" points="90.7,53.9 96.4,53.9 96.4,48.2 	"/>
	<path class="st5" d="M107.5,21.8L107.5,21.8c-0.8,0-1.4-0.6-1.4-1.4v0c0-0.8,0.6-1.4,1.4-1.4h0c0.8,0,1.4,0.6,1.4,1.4v0
		C108.9,21.2,108.3,21.8,107.5,21.8z"/>
</g>
</svg>
