<?xml version="1.0" encoding="utf-8"?>
<!-- Generator: Adobe Illustrator 24.0.1, SVG Export Plug-In . SVG Version: 6.00 Build 0)  -->
<svg version="1.1" xmlns="http://www.w3.org/2000/svg" xmlns:xlink="http://www.w3.org/1999/xlink" x="0px" y="0px"
	 viewBox="0 0 102 102" style="enable-background:new 0 0 102 102;" xml:space="preserve">
<style type="text/css">
	.st0{fill:none;}
	.st1{display:none;}
	.st2{display:inline;}
	.st3{opacity:0.4;fill:#7BCDEF;}
	.st4{display:inline;fill:none;}
	.st5{display:inline;fill:#7BCDEF;}
</style>
<g id="_x30_05-data_x5F_category-biometric">
	<g>
		<path class="st0" d="M28.4,46.7c0,2.3,1.9,4.3,4.3,4.3c2.3,0,4.3-1.9,4.3-4.3c0-2.3-1.9-4.3-4.3-4.3
			C30.3,42.5,28.4,44.4,28.4,46.7z"/>
		<path d="M51,39.7V26.9c0-10.1,8.3-18.3,18.5-18.3C71.8,8.6,74,9,76,9.8l1.9-2.3c-2.6-1.1-5.5-1.8-8.5-1.8
			c-11.7,0-21.2,9.5-21.2,21.1v12.8c0,1.3,0.1,2.6,0.4,3.8l2.5-3C51,40.3,51,40,51,39.7z"/>
		<path d="M87.9,26.9v12.8c0,10.1-8.3,18.3-18.5,18.3c-4.6,0-8.8-1.7-12-4.4l-1.8,2.2c3.7,3.2,8.5,5.1,13.8,5.1
			c11.7,0,21.2-9.5,21.2-21.1V26.9c0-3.9-1.1-7.5-2.9-10.6l-1.9,2.3C87.2,21.1,87.9,23.9,87.9,26.9z"/>
		<path d="M57.5,27.3c0-6.5,5.4-11.9,12-11.9c0-1,0-2.8,0-2.8c-8.1,0-14.8,6.6-14.8,14.7v8.8l2.8-3.4V27.3z"/>
		<path d="M69.5,54c8.1,0,14.8-6.6,14.8-14.7V25.9h-2.8v13.4c0,6.5-5.4,11.9-12,11.9c-3,0-5.7-1.1-7.8-2.8l-1.8,2.2
			C62.5,52.7,65.8,54,69.5,54z"/>
		<path d="M74.8,39.1c0,2.9-2.4,5.3-5.4,5.3v2.8c4.5,0,8.2-3.7,8.2-8.1V28.8l-2.8,3.4V39.1z"/>
		<path d="M61.3,27.5l0,0.5l6.9-8.5C64.3,20,61.3,23.4,61.3,27.5z"/>
		<path d="M44,73.3c0,0.2-0.1,0.3-0.3,0.3h-2.7l-2.3,2.8h4.9c1.3,0,2.1-0.5,2.5-1c0.7-0.8,0.8-1.8,0.8-2.2l0-6.8L44,70V73.3z"/>
		<polygon points="27,65.2 27,70.1 29.8,66.6 29.8,65.2 		"/>
		<path d="M21.6,73.6c-0.2,0-0.3-0.1-0.3-0.3v-7.8c0-1.9,0.5-3.3,1.5-4.3c1.7-1.8,4.5-1.8,4.6-1.8h8.2l2.3-2.8H27.4c0,0,0,0,0,0
			c-0.6,0-4.1,0.1-6.6,2.6c-1.6,1.6-2.4,3.7-2.3,6.3v7.7c0,0.4,0,1.4,0.8,2.2c0.4,0.4,1.2,1,2.5,1h0.1l2.3-2.8H21.6z"/>
		<path d="M25.5,46.7c0,3.9,3.2,7.1,7.1,7.1c3.9,0,7.1-3.2,7.1-7.1c0-3.9-3.2-7.1-7.1-7.1C28.7,39.7,25.5,42.8,25.5,46.7z
			 M36.9,46.7c0,2.3-1.9,4.3-4.3,4.3c-2.3,0-4.3-1.9-4.3-4.3c0-2.3,1.9-4.3,4.3-4.3C34.9,42.5,36.9,44.4,36.9,46.7z"/>
		<path d="M96.4,44.5L96.4,44.5c-0.1-0.5-0.1-1.1-0.2-1.6c-0.4,3.1-1.3,6.1-2.6,8.8v22.3c0,0.4,0,0.7-0.1,1.1
			c-0.6,5.6-5.3,10-11.1,10H66.1H31.8l-2.3,2.8H66h16.4c7.7,0,14-6.3,14-13.9V45.1l0-0.3V44.5z"/>
		<path d="M8.5,73.9v-2.4V70V45.1c0-0.4,0-0.8,0.1-1.1c0.6-5.6,5.3-10,11.1-10H36h6.6v-2.8h-6.5H19.6c-7.7,0-14,6.3-14,14v28.8v0.3
			v0.4l0,0c0.2,5.3,3.4,9.8,8,12l1.9-2.3C11.4,82.6,8.5,78.6,8.5,73.9z"/>
	</g>
</g>
<g id="Ebene_4">
	<rect x="49.6" y="-6.3" transform="matrix(0.7756 0.6313 -0.6313 0.7756 43.6815 -20.7076)" width="2.8" height="114.8"/>
</g>
<g id="Rahmen">
	<rect x="0" y="0" class="st0" width="102" height="102"/>
</g>
<g id="Schutzzone" class="st1">
	<g class="st2">
		<rect x="0" y="0" class="st3" width="102" height="5.7"/>
		<rect x="0" y="96.4" class="st3" width="102" height="5.7"/>
		
			<rect x="-48.2" y="48.2" transform="matrix(-1.836970e-16 1 -1 -1.836970e-16 53.8573 48.1827)" class="st3" width="102" height="5.7"/>
		
			<rect x="48.2" y="48.2" transform="matrix(-1.836970e-16 1 -1 -1.836970e-16 150.2365 -48.1893)" class="st3" width="102" height="5.7"/>
	</g>
	<g class="st2">
		<rect x="0" y="0" class="st3" width="102" height="5.7"/>
		<rect x="0" y="96.4" class="st3" width="102" height="5.7"/>
		
			<rect x="-48.2" y="48.2" transform="matrix(-1.836970e-16 1 -1 -1.836970e-16 53.8573 48.1827)" class="st3" width="102" height="5.7"/>
		
			<rect x="48.2" y="48.2" transform="matrix(-1.836970e-16 1 -1 -1.836970e-16 150.2365 -48.1893)" class="st3" width="102" height="5.7"/>
	</g>
	<g class="st2">
		<rect x="0" y="0" class="st3" width="102" height="5.7"/>
		<rect x="0" y="96.4" class="st3" width="102" height="5.7"/>
		
			<rect x="-48.2" y="48.2" transform="matrix(-1.836970e-16 1 -1 -1.836970e-16 53.8573 48.1827)" class="st3" width="102" height="5.7"/>
		
			<rect x="48.2" y="48.2" transform="matrix(-1.836970e-16 1 -1 -1.836970e-16 150.2365 -48.1893)" class="st3" width="102" height="5.7"/>
	</g>
	<rect x="0" y="0" class="st4" width="102" height="102"/>
	<g class="st2">
		<rect x="0" y="0" class="st3" width="102" height="5.7"/>
		<rect x="0" y="96.4" class="st3" width="102" height="5.7"/>
		
			<rect x="-48.2" y="48.2" transform="matrix(-1.836970e-16 1 -1 -1.836970e-16 53.8573 48.1827)" class="st3" width="102" height="5.7"/>
		
			<rect x="48.2" y="48.2" transform="matrix(-1.836970e-16 1 -1 -1.836970e-16 150.2365 -48.1893)" class="st3" width="102" height="5.7"/>
	</g>
	<rect x="42.5" y="29.9" class="st5" width="5.7" height="5.6"/>
	<polygon class="st5" points="90.7,53.9 96.4,53.9 96.4,48.2 	"/>
</g>
</svg>
