<?xml version="1.0" encoding="utf-8"?>
<!-- Generator: Adobe Illustrator 24.3.0, SVG Export Plug-In . SVG Version: 6.00 Build 0)  -->
<svg version="1.1" id="Ebene_1" xmlns="http://www.w3.org/2000/svg" xmlns:xlink="http://www.w3.org/1999/xlink" x="0px" y="0px"
	 viewBox="0 0 102 102" style="enable-background:new 0 0 102 102;" xml:space="preserve">
<style type="text/css">
	.st0{fill:none;}
	.st1{display:none;}
	.st2{display:inline;}
	.st3{opacity:0.4;fill:#7BCDEF;enable-background:new    ;}
	.st4{display:inline;fill:none;}
</style>
<g id="_x30_06-data_x5F_category-privacy">
	<g>
		<path d="M51.1,51l18.6,16.1c0.3,0.3,0.7,0.4,1.1,0.4s0.8-0.1,1.1-0.4L90.6,51c5.2-4.5,7.1-11.8,4.7-17.9c-1.5-3.8-4.2-6.5-8.1-7.9
			c-0.5-0.2-1-0.4-1.6-0.5v-4.4c0-8.1-6.6-14.7-14.8-14.7C62.7,5.6,56,12.2,56,20.3v4.4c-0.5,0.1-1.1,0.3-1.6,0.5
			c-3.9,1.4-6.6,4-8.1,7.9C44,39.2,46,46.6,51.1,51z M58.8,20.4c0-6.6,5.4-12,12-12c6.6,0,12,5.4,12,12v3.9c-6.4-0.7-10.2,2.7-12,5
			c-1.4-1.8-4.8-5.1-10.4-5.1c-0.5,0-1.1,0-1.6,0.1C58.8,24.3,58.8,20.4,58.8,20.4z M49,34.1c1.2-3.1,3.4-5.2,6.5-6.3
			c1.8-0.6,3.5-1,5-1c4.8,0,7.5,2.9,8.7,4.6c0.4,0.6,1,0.9,1.7,0.9s1.3-0.3,1.7-0.9c1.4-2.1,5.6-6.6,13.7-3.7
			c3.1,1.1,5.2,3.2,6.5,6.3c2,5,0.3,11.1-3.9,14.8l-18,15.6l-18-15.5C48.6,45.2,47,39.1,49,34.1z"/>
		<path d="M32.6,53.8c3.9,0,7.1-3.2,7.1-7.1s-3.2-7.1-7.1-7.1s-7.1,3.2-7.1,7.1C25.5,50.6,28.7,53.8,32.6,53.8z M32.6,42.5
			c2.3,0,4.3,1.9,4.3,4.3c0,2.3-1.9,4.3-4.3,4.3c-2.3,0-4.3-1.9-4.3-4.3C28.4,44.4,30.3,42.5,32.6,42.5z"/>
		<path d="M27.4,56.7L27.4,56.7c-0.6,0-4.1,0.1-6.6,2.6c-1.6,1.6-2.4,3.7-2.3,6.3v7.7c0,0.4,0,1.4,0.8,2.2c0.4,0.4,1.2,1,2.5,1h21.9
			c1.3,0,2.1-0.5,2.5-1c0.7-0.8,0.8-1.8,0.8-2.2v-7.7c0-2.6-0.8-4.8-2.3-6.4c-2.5-2.5-6.1-2.6-6.6-2.6H27.4V56.7z M42.6,61.3
			c1,1,1.5,2.4,1.5,4.3v7.8c0,0.2-0.1,0.3-0.3,0.3h-5.1c-0.2,0-0.3-0.1-0.3-0.3v-8.2h-2.8v8.2c0,0.2-0.1,0.3-0.3,0.3h-5.1
			c-0.2,0-0.3-0.1-0.3-0.3v-8.2H27v8.2c0,0.2-0.1,0.3-0.3,0.3h-5.1c-0.2,0-0.3-0.1-0.3-0.3v-7.8c0-1.9,0.5-3.3,1.5-4.3
			c1.7-1.8,4.5-1.8,4.6-1.8H38C38,59.5,40.8,59.5,42.6,61.3z"/>
		<path d="M94.3,55.5l-0.8,0.6v17.7c0,0.4,0,0.7-0.1,1.1c-0.6,5.6-5.3,10-11.1,10H66.1H19.6c-6.1,0-11.1-5-11.1-11.1v-2.4V70V45.1
			c0-0.4,0-0.8,0.1-1.1c0.6-5.6,5.3-10,11.1-10H36h4.4c0.2-0.9,0.5-1.8,0.8-2.7c0,0,0-0.1,0.1-0.1h-5.1H19.6c-7.7,0-14,6.3-14,14V74
			v0.3v0.4l0,0c0.3,7.4,6.4,13.4,13.9,13.4H66h16.4c7.7,0,14-6.3,14-13.9V53.4C95.7,54.2,95.1,54.9,94.3,55.5z"/>
		<path d="M69.6,36.9c-2.3,0.5-4.2,2.3-4.7,4.7c-0.5,2.2,0.3,4.3,1.7,5.7c0,0,0,0.1,0,0.2v5.1c0,0.7,0.6,1.3,1.3,1.3h6
			c0.7,0,1.3-0.6,1.3-1.3v-5.1c0-0.1,0-0.1,0.1-0.2c1.1-1.1,1.8-2.7,1.8-4.4C77.1,39.1,73.6,36.1,69.6,36.9z M72.3,45.2
			c-0.1,0.1-0.1,0.1-0.1,0.2v5.3c0,0.2-0.1,0.3-0.3,0.3h-2.3c-0.2,0-0.3-0.1-0.3-0.3v-5.3c0-0.1-0.1-0.2-0.1-0.2
			c-1.1-0.7-1.8-2.3-1.1-4c0.5-1,1.5-1.6,2.6-1.6c1.4,0,2.6,0.8,3,2.1C74.1,43.2,73.5,44.5,72.3,45.2z"/>
	</g>
</g>
<g id="Rahmen">
	<rect y="0" class="st0" width="102" height="102"/>
</g>
<g id="Schutzzone" class="st1">
	<g class="st2">
		<rect y="0" class="st3" width="102" height="5.7"/>
		<rect y="96.4" class="st3" width="102" height="5.7"/>
		<rect y="0" class="st3" width="5.7" height="102"/>
		<rect x="96.3" y="0" class="st3" width="5.7" height="102"/>
	</g>
	<rect y="0" class="st4" width="102" height="102"/>
</g>
</svg>
