<?xml version="1.0" encoding="utf-8"?>
<!-- Generator: Adobe Illustrator 24.0.1, SVG Export Plug-In . SVG Version: 6.00 Build 0)  -->
<svg version="1.1" xmlns="http://www.w3.org/2000/svg" xmlns:xlink="http://www.w3.org/1999/xlink" x="0px" y="0px"
	 viewBox="0 0 102 102" style="enable-background:new 0 0 102 102;" xml:space="preserve">
<style type="text/css">
	.st0{fill:none;}
	.st1{display:none;}
	.st2{display:inline;}
	.st3{opacity:0.4;fill:#7BCDEF;}
	.st4{display:inline;fill:none;}
	.st5{display:inline;fill:#FFFFFF;stroke:#000000;}
</style>
<g id="_x30_06-data_x5F_category-privacy">
	<g>
		<path class="st0" d="M28.4,46.7c0,2.3,1.9,4.3,4.3,4.3c2.3,0,4.3-1.9,4.3-4.3c0-2.3-1.9-4.3-4.3-4.3
			C30.3,42.5,28.4,44.4,28.4,46.7z"/>
		<path d="M49,34.1c1.2-3.1,3.4-5.2,6.5-6.3c1.8-0.6,3.5-1,5-1c0.6,0,1.1,0,1.6,0.1l1.9-2.4c-1.1-0.3-2.3-0.5-3.6-0.5
			c-0.5,0-1.1,0-1.6,0.1v-3.9c0-6.6,5.4-12,12-12c1.9,0,3.7,0.5,5.3,1.3L78,7.5c-2.1-1.2-4.5-1.8-7.1-1.8c-8.1,0-14.8,6.6-14.8,14.7
			v4.4c-0.5,0.1-1.1,0.3-1.6,0.5c-3.9,1.4-6.6,4-8.1,7.9c-1.6,4-1.3,8.5,0.6,12.4l2-2.4C47.9,40.2,47.8,37,49,34.1z"/>
		<path d="M82.9,24.2c-0.5-0.1-1-0.1-1.5-0.1l-2.4,3c2-0.4,4.4-0.4,7.3,0.7c3.1,1.1,5.2,3.2,6.5,6.3c2,5,0.3,11.1-3.9,14.8
			L70.9,64.4L57.8,53.1L56,55.3l13.7,11.8c0.3,0.3,0.7,0.4,1.1,0.4c0.4,0,0.8-0.1,1.1-0.4L90.6,51c5.2-4.5,7.1-11.8,4.7-17.9
			c-1.5-3.8-4.2-6.5-8.1-7.9c-0.5-0.2-1-0.4-1.6-0.5v-4.4c0-0.5,0-0.9-0.1-1.4l-2.7,3.3V24.2z"/>
		<path d="M25.5,46.7c0,3.9,3.2,7.1,7.1,7.1c3.9,0,7.1-3.2,7.1-7.1c0-3.9-3.2-7.1-7.1-7.1C28.7,39.7,25.5,42.8,25.5,46.7z
			 M36.9,46.7c0,2.3-1.9,4.3-4.3,4.3c-2.3,0-4.3-1.9-4.3-4.3c0-2.3,1.9-4.3,4.3-4.3C34.9,42.5,36.9,44.4,36.9,46.7z"/>
		<path d="M44,73.4c0,0.2-0.1,0.3-0.3,0.3h-2.7l-2.3,2.8h4.9c1.3,0,2.1-0.5,2.5-1c0.7-0.8,0.8-1.8,0.8-2.2l0-6.8L44,70V73.4z"/>
		<polygon points="27,65.2 27,70.1 29.8,66.6 29.8,65.2 		"/>
		<path d="M21.6,73.6c-0.2,0-0.3-0.1-0.3-0.3v-7.8c0-1.9,0.5-3.3,1.5-4.3c1.7-1.8,4.5-1.8,4.6-1.8h8.2l2.3-2.8H27.4c0,0,0,0,0,0
			c-0.6,0-4.1,0.1-6.6,2.6c-1.6,1.6-2.4,3.7-2.3,6.3v7.7c0,0.4,0,1.4,0.8,2.2c0.4,0.4,1.2,1,2.5,1h0.1l2.3-2.8H21.6z"/>
		<path d="M70.8,38.1c1.4,0,2.6,0.8,3,2.1c0.4,1.5-0.2,2.8-1.4,3.5c-0.1,0.1-0.1,0.1-0.1,0.2v5.3c0,0.2-0.1,0.3-0.3,0.3h-2.3
			c-0.2,0-0.3-0.1-0.3-0.3V44c0-0.1-0.1-0.2-0.1-0.2c-1-0.6-1.6-1.7-1.5-3L65.2,44c0.3,0.7,0.7,1.3,1.3,1.8c0.1,0.1,0.1,0.1,0.1,0.2
			v5.1c0,0.7,0.6,1.3,1.3,1.3h6c0.7,0,1.3-0.6,1.3-1.3V46c0-0.1,0-0.1,0.1-0.2c1.1-1.1,1.8-2.7,1.8-4.4c0-2.9-2.1-5.4-4.8-6
			l-2.3,2.8C70.2,38.2,70.5,38.1,70.8,38.1z"/>
		<path d="M8.5,73.9v-2.4V70V45.1c0-0.4,0-0.8,0.1-1.1c0.6-5.6,5.3-10,11.1-10H36h4.4c0.2-0.9,0.5-1.8,0.8-2.7c0,0,0-0.1,0.1-0.1
			h-5.1H19.6c-7.7,0-14,6.3-14,14v28.8v0.3v0.4l0,0c0.2,5.3,3.4,9.8,8,12l1.9-2.3C11.4,82.6,8.5,78.6,8.5,73.9z"/>
		<path d="M94.3,55.5l-0.8,0.6v17.7c0,0.4,0,0.7-0.1,1.1c-0.6,5.6-5.3,10-11.1,10H66.1H31.8l-2.3,2.8H66h16.4c7.7,0,14-6.3,14-13.9
			V53.4C95.7,54.2,95.1,54.9,94.3,55.5z"/>
	</g>
</g>
<g id="Ebene_4">
	<rect x="49.6" y="-6.3" transform="matrix(0.7756 0.6313 -0.6313 0.7756 43.6815 -20.7076)" width="2.8" height="114.8"/>
</g>
<g id="Rahmen">
	<rect x="0" y="0" class="st0" width="102" height="102"/>
</g>
<g id="Schutzzone" class="st1">
	<g class="st2">
		<rect y="0" class="st3" width="102" height="5.7"/>
		<rect x="0" y="96.4" class="st3" width="102" height="5.7"/>
		
			<rect x="-48.2" y="48.2" transform="matrix(-1.836970e-16 1 -1 -1.836970e-16 53.8573 48.1827)" class="st3" width="102" height="5.7"/>
		
			<rect x="48.2" y="48.2" transform="matrix(-1.836970e-16 1 -1 -1.836970e-16 150.2365 -48.1893)" class="st3" width="102" height="5.7"/>
	</g>
	<rect y="0" class="st4" width="102" height="102"/>
</g>
</svg>
