<?xml version="1.0" encoding="utf-8"?>
<!-- Generator: Adobe Illustrator 24.3.0, SVG Export Plug-In . SVG Version: 6.00 Build 0)  -->
<svg version="1.1" id="Ebene_1" xmlns="http://www.w3.org/2000/svg" xmlns:xlink="http://www.w3.org/1999/xlink" x="0px" y="0px"
	 viewBox="0 0 102 102" style="enable-background:new 0 0 102 102;" xml:space="preserve">
<style type="text/css">
	.st0{fill:#1A171B;}
	.st1{fill:none;}
	.st2{display:none;}
	.st3{display:inline;}
	.st4{opacity:0.4;fill:#7BCDEF;enable-background:new    ;}
	.st5{display:inline;fill:none;}
</style>
<g id="_x30_11-data_x5F_collection-active">
	<g>
		<g>
			<path class="st0" d="M45.9,31.2h-9.2V34h5.2C42.8,32.7,44.2,31.7,45.9,31.2z"/>
		</g>
		<g>
			<path class="st0" d="M36.7,36.8v2.8h4.7c-0.3-1.1-0.4-2.1-0.4-2.8H36.7z"/>
		</g>
		<g>
			<path class="st0" d="M89.8,57.3c-0.5-0.5-1.3-0.5-1.8,0l-1.7,1.6l-1,0.9c-0.1,0.1-0.4,0.1-0.5-0.1c-0.3-0.7-0.6-1.4-0.8-2.1
				l-5.4-16.5l13.7-4.4c1.6-0.6,2.5-2.4,1.9-3.9l-1.1-3.2c-0.5-1.6-2.4-2.5-4-2l-15.7,5.1c-0.3-0.3-0.6-0.5-1-0.6l-12.6-2.7
				c-3.3-0.7-6.7,0.4-9,2.9l-1.4,1.5c-2.5-0.5-5.5,0.6-5.6,3.1c0,0.9,0.1,1.8,0.3,2.7c-0.5,0.8-0.8,1.7-0.8,2.6c0,0.2,0,0.3,0.1,0.5
				l-5.1,3.9c-0.6,0.4-1,1.1-1,1.8s0.2,1.3,0.7,1.8c0.1,0.1,0.2,0.2,0.4,0.3l0,0c0.4,0.3,0.9,0.5,1.4,0.5h4.1
				c-0.1,0.8,0,1.6,0.4,2.3c0.1,0.1,0.2,0.2,0.3,0.4c0.7,0.9,1.7,1.4,2.9,1.4c0.2,0,0.3,0,0.5,0c-0.1,0.8,0.1,1.7,0.6,2.4
				c0.1,0.1,0.2,0.2,0.3,0.4c0.9,1.1,2.2,1.6,3.6,1.4c0,0.1,0,0.3,0,0.4c0,0.8,0.2,1.7,0.6,2.3c0.2,0.2,0.3,0.5,0.5,0.7
				c0.8,0.8,1.9,1.2,3,1.1c1.1-0.1,2.2-0.5,3-1.4l0.7-0.8l0,0c1.8,2.7,4.1,5.6,6.9,7.5c1.3,0.9,2.3,2.1,2.9,3.5l0.5,1.1
				c0,0.1,0,0.2-0.1,0.3l-1,1l-1.9,1.8L65.2,79c-0.5,0.5-0.5,1.3,0,1.8l4.6,4.8l1.9-1.8l-3.5-3.7c-0.1-0.1-0.1-0.3,0-0.4L88.8,60
				c0.1-0.1,0.3-0.1,0.4,0l3.5,3.7l1.9-1.8L89.8,57.3z M89.6,30.6c0.4-0.1,0.8,0,0.9,0.2l0.8,2.6c0.1,0.2-0.1,0.6-0.4,0.7l-25.6,8.2
				c-1,0.2-1.8,0.4-2.2,0.3c-0.6,0-2.1-1.3-3.7-2.4l0.4-0.1L89.6,30.6z M52.8,34.1c1.6-1.8,4.1-2.6,6.5-2.1l9.8,2.1l-13.2,4.3
				c-1.6-1.2-3-2.3-4.1-3.1L52.8,34.1z M39.7,48.6l5.4-3.1l1.2-0.7l0.2-0.1c0.6,1,2.1,2.8,2.1,2.8L47,48l-2,0.2L39.7,48.6z
				 M49.1,52.4c-0.4,0.4-1,0.5-1.5,0.5s-0.9-0.2-1.2-0.6C46.1,52,46,51.6,46,51.2h0.8c0.2,0,0.4,0,0.7,0c0.1,0,0.3-0.1,0.4-0.1
				l2.7-0.9c0.3,0.3,0.6,0.5,0.6,0.5L49.1,52.4z M53.3,56.5c-0.9,0.7-2.1,0.7-2.7-0.1c-0.6-0.8-0.4-1.9,0.5-2.6l2.5-2
				c0.2,0.2,0.5,0.5,0.7,0.7c0.6,0.7,1.2,1.2,1.7,1.9L53.3,56.5z M57.8,60.9c-0.4,0.4-0.9,0.6-1.4,0.7c-0.5,0-0.9-0.1-1.2-0.4
				c-0.3-0.3-0.5-0.8-0.5-1.2c0-0.5,0.3-1,0.7-1.5l1.8-2l0.2,0.3c0.5,0.8,1,1.9,1.8,3.1L57.8,60.9z M82.9,62.1l-10,9.5
				c-0.1,0.1-0.3,0.1-0.4-0.1c-0.5-1-2.1-3.7-3.8-4.7c-4.5-2.5-7.6-8.9-9.1-11.5l-0.2-0.4c-1.1-2-2.1-3-3.2-4.2
				c-0.4-0.4-0.8-0.8-1.2-1.3l-0.6-0.5L52.1,47c0,0-0.1-0.1-0.3-0.3c-0.4-0.5-1.3-1.6-2.3-2.9c-0.7-0.9-1.3-1.9-1.8-2.8
				c-0.2-0.3-0.3-0.6-0.4-0.9c-0.2-0.6-0.4-1-0.3-1.4c0.3-1.2,1.5-2.1,2.7-1.7c0,0,0.1,0.1,0.2,0.2c0.4,0.3,1.3,1.2,2.5,2.2
				c0.9,0.7,1.9,1.6,3,2.4c1.1,0.9,2.3,1.7,3.3,2.4c1.2,0.8,2.3,1.3,3,1.5c1.9,0.4,14.2-4.2,14.2-4.2l0.1,0.4l5.4,16.5
				c0.4,1.1,0.9,2.3,1.4,3.3C83,61.9,83,62,82.9,62.1z"/>
		</g>
		<g>
			<path class="st0" d="M43.6,56.7h-2H15.3c-0.3,0-0.6,0-1-0.1c-0.1,0-0.1,0-0.2,0c-0.6-0.1-1.2-0.3-1.8-0.6c0,0-0.1,0-0.1-0.1
				c-0.6-0.3-1.1-0.7-1.6-1.1l0,0c-0.7-0.7-1.3-1.5-1.7-2.5l0,0c-0.3-0.8-0.5-1.7-0.5-2.6v-8.3V29.6c0-3.8,3.1-6.9,6.9-6.9h8h26.4
				c0.3,0,0.6,0,1,0.1c0.1,0,0.1,0,0.2,0c0.6,0.1,1.2,0.3,1.8,0.6c0,0,0.1,0,0.1,0.1c0.6,0.3,1.1,0.7,1.6,1.1l0,0
				c0.6,0.6,1.1,1.3,1.5,2c0.7-0.1,1.4-0.2,2.1-0.2c0.3,0,0.6,0,0.9,0c-0.1-0.4-0.3-0.8-0.5-1.2l0,0c-0.1-0.2-0.2-0.4-0.3-0.6
				c0,0,0,0,0-0.1c-0.1-0.2-0.2-0.4-0.4-0.6c0,0,0,0,0-0.1c-0.1-0.2-0.3-0.4-0.4-0.6l0,0c-0.6-0.7-1.3-1.4-2.1-1.9l-0.1-0.1
				c-0.1-0.1-0.3-0.2-0.5-0.3c-0.1,0-0.2-0.1-0.3-0.1c-0.1-0.1-0.3-0.1-0.4-0.2c-0.1,0-0.2-0.1-0.3-0.1c-0.1-0.1-0.3-0.1-0.4-0.2
				c-0.1,0-0.3-0.1-0.4-0.1c-0.1,0-0.3-0.1-0.4-0.1c-0.1,0-0.3-0.1-0.4-0.1c-0.1,0-0.3-0.1-0.4-0.1c-0.2,0-0.3-0.1-0.5-0.1
				c-0.1,0-0.2,0-0.3,0c-0.3,0-0.5,0-0.8,0l0,0l0,0l0,0l0,0H24.4l0,0h-4h-5.1c-5.4,0-9.7,4.4-9.7,9.7v11.9v8.3l0,0
				c0,0.4,0,0.9,0.1,1.3c0.1,1.1,0.5,2.1,0.9,3l0,0c0.1,0.2,0.2,0.4,0.3,0.6c0,0,0,0,0,0.1c0.1,0.2,0.2,0.4,0.4,0.6c0,0,0,0,0,0.1
				c0.1,0.2,0.3,0.4,0.4,0.6l0,0c0.6,0.7,1.3,1.4,2.1,1.9L9.9,58c0.1,0.1,0.3,0.2,0.5,0.3c0.1,0,0.2,0.1,0.3,0.1
				c0.1,0.1,0.3,0.1,0.4,0.2c0.1,0,0.2,0.1,0.3,0.1c0.1,0.1,0.3,0.1,0.4,0.2c0.1,0,0.3,0.1,0.4,0.1c0.1,0,0.3,0.1,0.4,0.1
				c0.1,0,0.3,0.1,0.4,0.1c0.1,0,0.3,0.1,0.4,0.1c0.2,0,0.3,0.1,0.5,0.1c0.1,0,0.2,0,0.3,0c0.3,0,0.5,0,0.8,0l0,0l0,0l0,0l0,0h23.3
				l0,0h4h3.9C45.2,58.9,44.3,57.9,43.6,56.7z"/>
		</g>
		<g>
			<path class="st0" d="M14,45.1v4.8c0,0.3,0,1.1,0.6,1.8c0.3,0.4,1,0.8,2,0.8h14.6c1,0,1.7-0.4,2-0.8c0.6-0.7,0.6-1.5,0.6-1.8v-4.8
				c0-1.9-0.5-3.8-1.7-4.9c-1.8-1.8-4.4-1.9-4.7-1.9l0,0h-7.1l0,0c-0.4,0-2.9,0.1-4.7,1.9C14.6,41.3,14,43.2,14,45.1z M16.8,45
				c0-1.1,0.3-2.3,0.8-2.9c1-1,2.7-1,2.7-1h7.1c0,0,1.7,0,2.7,1c0.6,0.6,0.8,1.8,0.8,2.9v4.5h-2.8v-5.7h-2.8v5.7h-2.8v-5.7h-2.8v5.7
				h-2.8V45H16.8z"/>
		</g>
		<g>
			<path class="st0" d="M23.9,35.3c2.7,0,4.9-2.2,4.9-4.9s-2.2-4.9-4.9-4.9S19,27.7,19,30.4S21.2,35.3,23.9,35.3z M23.9,28.3
				c1.1,0,2.1,0.9,2.1,2.1c0,1.1-0.9,2.1-2.1,2.1s-2.1-0.9-2.1-2.1C21.9,29.3,22.8,28.3,23.9,28.3z"/>
		</g>
	</g>
</g>
<g id="Rahmen">
	<rect y="0" class="st1" width="102" height="102"/>
</g>
<g id="Schutzzone" class="st2">
	<g class="st3">
		<rect y="0" class="st4" width="102" height="5.7"/>
		<rect y="96.4" class="st4" width="102" height="5.7"/>
		<rect y="0" class="st4" width="5.7" height="102"/>
		<rect x="96.3" y="0" class="st4" width="5.7" height="102"/>
	</g>
	<rect y="0" class="st5" width="102" height="102"/>
</g>
</svg>
