<?xml version="1.0" encoding="utf-8"?>
<!-- Generator: Adobe Illustrator 24.0.1, SVG Export Plug-In . SVG Version: 6.00 Build 0)  -->
<svg version="1.1" xmlns="http://www.w3.org/2000/svg" xmlns:xlink="http://www.w3.org/1999/xlink" x="0px" y="0px"
	 viewBox="0 0 102 102" style="enable-background:new 0 0 102 102;" xml:space="preserve">
<style type="text/css">
	.st0{fill:none;}
	.st1{display:none;}
	.st2{display:inline;}
	.st3{opacity:0.4;fill:#7BCDEF;}
	.st4{display:inline;fill:none;}
</style>
<g id="_x30_11-data_x5F_collection-active">
	<rect x="0" y="0" class="st0" width="102" height="102"/>
	<g>
		<path class="st0" d="M57.1,56.3l-1.8,2c-0.4,0.4-0.6,0.9-0.7,1.5c0,0.5,0.1,0.9,0.5,1.2c0.3,0.3,0.8,0.5,1.2,0.4
			c0.5,0,1-0.3,1.4-0.7l1.2-1.1c-0.7-1.2-1.3-2.2-1.8-3.1L57.1,56.3z"/>
		<path class="st0" d="M23.9,32.5c1.1,0,2.1-0.9,2.1-2.1c0-1.1-0.9-2.1-2.1-2.1s-2.1,0.9-2.1,2.1C21.9,31.5,22.8,32.5,23.9,32.5z"/>
		<path class="st0" d="M19.7,43.9h2.8v5.7h2.8v-5.7h2.8v5.7H31v-4.5c0-1.1-0.2-2.3-0.8-2.9c-1-1-2.7-1-2.7-1h-7.1c0,0-1.7,0-2.7,1
			c-0.6,0.6-0.9,1.8-0.8,2.9v4.6h2.8V43.9z"/>
		<g>
			<path d="M14,45.1v4.8c0,0.3,0,1.1,0.6,1.8c0.3,0.4,1,0.8,2,0.8h14.6c1,0,1.7-0.4,2-0.8c0.6-0.7,0.6-1.5,0.6-1.8v-4.8
				c0-1.9-0.5-3.8-1.7-4.9c-1.8-1.8-4.4-1.9-4.7-1.9c0,0,0,0,0,0h-7.1c0,0,0,0,0,0c-0.4,0-2.9,0.1-4.7,1.9
				C14.6,41.3,14,43.2,14,45.1z M16.8,45c0-1.1,0.3-2.3,0.8-2.9c1-1,2.7-1,2.7-1h7.1c0,0,1.7,0,2.7,1c0.6,0.6,0.8,1.8,0.8,2.9v4.5
				h-2.8v-5.7h-2.8v5.7h-2.8v-5.7h-2.8v5.7h-2.8V45z"/>
		</g>
		<g>
			<path d="M23.9,35.3c2.7,0,4.9-2.2,4.9-4.9s-2.2-4.9-4.9-4.9S19,27.7,19,30.4S21.2,35.3,23.9,35.3z M23.9,28.3
				c1.1,0,2.1,0.9,2.1,2.1c0,1.1-0.9,2.1-2.1,2.1s-2.1-0.9-2.1-2.1C21.9,29.3,22.8,28.3,23.9,28.3z"/>
		</g>
		<g>
			<path d="M45.9,31.2h-9.2V34h5.2C42.8,32.7,44.2,31.7,45.9,31.2z"/>
		</g>
		<g>
			<path d="M36.7,36.8v2.8h4.7c-0.3-1.1-0.4-2.1-0.4-2.8H36.7z"/>
		</g>
		<g>
			<path d="M14.3,56.6c-0.1,0-0.1,0-0.2,0c-0.6-0.1-1.2-0.3-1.8-0.6c0,0-0.1,0-0.1-0.1c-0.6-0.3-1.1-0.7-1.6-1.1c0,0,0,0,0,0
				c-0.7-0.7-1.3-1.5-1.7-2.5c0,0,0,0,0,0c-0.3-0.8-0.5-1.7-0.5-2.6v-8.3V29.6c0-3.8,3.1-6.9,6.9-6.9h8h26.4c0.3,0,0.6,0,1,0.1
				c0.1,0,0.1,0,0.2,0c0.6,0.1,1.2,0.3,1.8,0.6c0,0,0.1,0,0.1,0.1c0.6,0.3,1.1,0.7,1.6,1.1c0,0,0,0,0,0c0.6,0.6,1.1,1.3,1.5,2
				c0.7-0.1,1.4-0.2,2.1-0.2c0.3,0,0.6,0,0.9,0c-0.1-0.4-0.3-0.8-0.5-1.2c0,0,0,0,0,0c-0.1-0.2-0.2-0.4-0.3-0.6c0,0,0,0,0-0.1
				c-0.1-0.2-0.2-0.4-0.4-0.6c0,0,0,0,0-0.1c-0.1-0.2-0.3-0.4-0.4-0.6c0,0,0,0,0,0c-0.6-0.7-1.3-1.4-2.1-1.9c0,0-0.1-0.1-0.1-0.1
				c-0.1-0.1-0.3-0.2-0.5-0.3c-0.1,0-0.2-0.1-0.3-0.1c-0.1-0.1-0.3-0.1-0.4-0.2c-0.1,0-0.2-0.1-0.3-0.1c-0.1-0.1-0.3-0.1-0.4-0.2
				c-0.1,0-0.3-0.1-0.4-0.1c-0.1,0-0.3-0.1-0.4-0.1c-0.1,0-0.3-0.1-0.4-0.1c-0.1,0-0.3-0.1-0.4-0.1c-0.2,0-0.3-0.1-0.5-0.1
				c-0.1,0-0.2,0-0.3,0c-0.3,0-0.5,0-0.8,0c0,0,0,0,0,0h0h0h0H24.4h0h-4h-5.1c-5.4,0-9.7,4.4-9.7,9.7v11.9v8.3v0
				c0,0.4,0,0.9,0.1,1.3c0.1,1.1,0.5,2.1,0.9,3c0,0,0,0,0,0c0.1,0.2,0.2,0.4,0.3,0.6c0,0,0,0,0,0.1c0.1,0.2,0.2,0.4,0.4,0.6
				c0,0,0,0,0,0.1c0.1,0.2,0.3,0.4,0.4,0.6c0,0,0,0,0,0c0.6,0.7,1.3,1.4,2.1,1.9c0,0,0.1,0.1,0.1,0.1c0.1,0.1,0.3,0.2,0.5,0.3
				c0.1,0,0.2,0.1,0.3,0.1c0.1,0.1,0.3,0.1,0.4,0.2c0.1,0,0.2,0.1,0.3,0.1c0.1,0.1,0.3,0.1,0.4,0.2c0.1,0,0.3,0.1,0.4,0.1
				c0.1,0,0.3,0.1,0.4,0.1c0.1,0,0.3,0.1,0.4,0.1c0.1,0,0.3,0.1,0.4,0.1c0.2,0,0.3,0.1,0.5,0.1c0.1,0,0.2,0,0.3,0c0.3,0,0.5,0,0.8,0
				c0,0,0,0,0,0h0h0h0h20.3l2.3-2.8H15.3C14.9,56.7,14.6,56.7,14.3,56.6z"/>
		</g>
		<g>
			<path d="M49.7,37.1c0,0,0.1,0.1,0.2,0.2c0.4,0.3,1.2,1,2.2,1.9l1.9-2.3c-0.8-0.6-1.6-1.2-2.2-1.7l1-1.1c1.4-1.5,3.3-2.3,5.3-2.2
				l2-2.4l-0.2,0c-3.3-0.7-6.7,0.4-9,2.9l-1.4,1.5c-2.5-0.5-5.5,0.6-5.6,3.1c0,0.9,0.1,1.8,0.3,2.7c-0.5,0.8-0.8,1.7-0.8,2.6
				c0,0.2,0,0.3,0.1,0.5l-5.1,3.9c-0.6,0.4-1,1.1-1,1.8c0,0.7,0.2,1.3,0.7,1.8c0.1,0.1,0.2,0.2,0.4,0.3l0,0c0.4,0.3,0.9,0.5,1.4,0.5
				l2.7,0l2.4-2.9l-5.1,0.4l5.4-3.1l1.2-0.7l0,0l2.4-2.3c-0.3-0.5-0.7-1-0.9-1.5c-0.2-0.3-0.3-0.6-0.4-0.9c-0.2-0.6-0.4-1-0.3-1.4
				C47.3,37.5,48.5,36.7,49.7,37.1z"/>
		</g>
		<g>
			<path d="M89.8,57.3c-0.5-0.5-1.3-0.5-1.8,0l-1.7,1.6l-1,0.9c-0.1,0.1-0.4,0.1-0.5-0.1c-0.3-0.7-0.6-1.4-0.8-2.1l-5.4-16.5
				l13.7-4.4c1.6-0.6,2.5-2.4,1.9-3.9l-1.1-3.2c-0.5-1.6-2.4-2.5-4-2l-14.4,4.7l-3.4,4.2l18.3-5.9c0.4-0.1,0.8,0,0.9,0.2l0.8,2.6
				c0.1,0.2-0.1,0.6-0.4,0.7l-24,7.6l-3,3.7c4.1-1,12-3.9,12-3.9l0.1,0.4l5.4,16.5c0.4,1.1,0.9,2.3,1.4,3.3c0.1,0.1,0,0.2-0.1,0.3
				l-10,9.5c-0.1,0.1-0.3,0.1-0.4-0.1c-0.5-1-2.1-3.7-3.8-4.7c-4.5-2.5-7.6-8.9-9.1-11.5l-0.2-0.4c-0.5-0.8-0.9-1.5-1.4-2.1l-5.7,7
				c0,0.8,0.2,1.6,0.6,2.3c0.2,0.2,0.3,0.5,0.5,0.7c0.8,0.8,1.9,1.2,3,1.1c1.1-0.1,2.2-0.5,3-1.4l0.7-0.8l0,0
				c1.8,2.7,4.1,5.6,6.9,7.5c1.3,0.9,2.3,2.1,2.9,3.5l0.5,1.1c0,0.1,0,0.2-0.1,0.3l-1,1l-1.9,1.8L65.2,79c-0.5,0.5-0.5,1.3,0,1.8
				l4.6,4.8l1.9-1.8l-3.5-3.7c-0.1-0.1-0.1-0.3,0-0.4l20.6-19.7c0.1-0.1,0.3-0.1,0.4,0l3.5,3.7l1.9-1.8L89.8,57.3z M57.8,60.9
				c-0.4,0.4-0.9,0.6-1.4,0.7c-0.5,0-0.9-0.1-1.2-0.4c-0.3-0.3-0.5-0.8-0.5-1.2c0-0.5,0.3-1,0.7-1.5l1.8-2l0.2,0.3
				c0.5,0.8,1,1.9,1.8,3.1L57.8,60.9z"/>
		</g>
	</g>
</g>
<g id="Ebene_4">
	<rect x="49.6" y="-6.3" transform="matrix(0.7756 0.6313 -0.6313 0.7756 43.6815 -20.7076)" width="2.8" height="114.8"/>
</g>
<g id="Rahmen">
	<rect x="0" y="0" class="st0" width="102" height="102"/>
</g>
<g id="Schutzzone" class="st1">
	<g class="st2">
		<rect y="0" class="st3" width="102" height="5.7"/>
		<rect x="0" y="96.4" class="st3" width="102" height="5.7"/>
		
			<rect x="-48.2" y="48.2" transform="matrix(-1.836970e-16 1 -1 -1.836970e-16 53.8573 48.1827)" class="st3" width="102" height="5.7"/>
		
			<rect x="48.2" y="48.2" transform="matrix(-1.836970e-16 1 -1 -1.836970e-16 150.2365 -48.1893)" class="st3" width="102" height="5.7"/>
	</g>
	<rect y="0" class="st4" width="102" height="102"/>
</g>
</svg>
