<?xml version="1.0" encoding="utf-8"?>
<!-- Generator: Adobe Illustrator 24.0.1, SVG Export Plug-In . SVG Version: 6.00 Build 0)  -->
<svg version="1.1" xmlns="http://www.w3.org/2000/svg" xmlns:xlink="http://www.w3.org/1999/xlink" x="0px" y="0px"
	 viewBox="0 0 102 102" style="enable-background:new 0 0 102 102;" xml:space="preserve">
<style type="text/css">
	.st0{fill:none;}
	.st1{display:none;}
	.st2{display:inline;}
	.st3{opacity:0.4;fill:#7BCDEF;}
	.st4{display:inline;fill:none;}
</style>
<g id="_x30_12-data_x5F_collection-passive">
	<g>
		<path d="M81,42.4c-8.4,0-15.3,6.8-15.4,15.2l0,0l0.2,3.6c0,0.2-0.1,0.3-0.3,0.3h-2.9c-0.2,0-0.3-0.1-0.3-0.3l0.2-3.6h0
			c-0.1-8.4-6.9-15.2-15.4-15.2c-8.4,0-15.2,6.8-15.4,15.1c0,0.1,0,0.3,0.1,0.4l6,19c0,3.7,1.8,7.1,4.6,9.2l0.5,2.6
			c0.4,4.2,4,7.4,8.3,7.4c4.6,0,8.4-3.7,8.4-8.3c0-0.8-0.1-1.6-0.4-2.3l-0.2-1.8c1.4-1.9,2.2-4.2,2.3-6.8l0.2-2.6
			c0-0.1,0.1-0.3,0.3-0.3h4.6c0.1,0,0.3,0.1,0.3,0.3l0.2,2.6c0,2.5,0.9,4.9,2.3,6.8l-0.2,1.8c-0.2,0.7-0.4,1.5-0.4,2.3
			c0,4.6,3.7,8.3,8.4,8.3c4.3,0,7.9-3.3,8.3-7.4l0.5-2.6c2.8-2.1,4.6-5.4,4.6-9.2l6-19c0-0.1,0.1-0.3,0.1-0.4
			C96.3,49.2,89.4,42.4,81,42.4z M44.2,82.7C44.2,82.7,44.2,82.7,44.2,82.7c0-3.4,2.8-6.2,6.2-6.2c2.8,0,5.2,1.8,6,4.4
			c-1.4-0.8-3.1-1.2-4.8-1.2C48.7,79.7,46.1,80.9,44.2,82.7z M51.3,93.2c-2.4,0-4.4-1.6-5.1-3.7c-0.1-0.2-0.1-0.4-0.1-0.5l0-0.2
			c0-0.2-0.1-0.4-0.1-0.6c0-0.1,0-0.1,0-0.2c0-0.9,0.3-1.8,0.7-2.5c0.1-0.2,0.3-0.4,0.4-0.6c1-1.3,2.5-2.1,4.2-2.1
			c1.2,0,2.2,0.4,3.1,1c0.2,0.2,0.4,0.3,0.6,0.5c0.6,0.6,1.1,1.3,1.3,2.1l0.3,2C56.4,91.1,54.1,93.2,51.3,93.2z M58.4,78.5
			c-1.5-2.8-4.5-4.7-8-4.7c-4.4,0-8.1,3.1-8.8,7.1c-0.8-1.6-1.2-3.5-0.8-5.5c0.7-3.7,4-6.6,7.8-7c5.3-0.5,9.9,3.5,9.9,8.6
			C58.5,77.5,58.5,78,58.4,78.5z M58.8,69.7c-2.2-2.6-5.5-4.2-9.1-4.2c-4.4,0-8.3,2.4-10.4,5.9l-4.4-14.1c0,0,0-0.1,0-0.1
			c0.3-6.6,5.7-11.8,12.3-11.8c6.8,0,12.3,5.4,12.3,12.2L58.8,69.7z M66.2,71.4h-4.1c-0.2,0-0.3-0.1-0.3-0.3l0.3-6.6
			c0-0.1,0.1-0.3,0.3-0.3h3.4c0.1,0,0.3,0.1,0.3,0.3l0.3,6.6C66.5,71.3,66.3,71.4,66.2,71.4z M82.3,88.2c0,0.2,0,0.4-0.1,0.6l0,0.2
			c0,0.2-0.1,0.4-0.1,0.5c-0.7,2.2-2.7,3.7-5.1,3.7c-2.8,0-5.1-2.2-5.3-4.9l0.3-2c0.3-0.8,0.7-1.6,1.3-2.1c0.2-0.2,0.4-0.4,0.6-0.5
			c0.9-0.6,1.9-1,3.1-1c1.7,0,3.3,0.8,4.2,2.1c0.2,0.2,0.3,0.4,0.4,0.6c0.4,0.8,0.7,1.6,0.7,2.5C82.3,88.1,82.3,88.1,82.3,88.2z
			 M83.8,82.6c-1.8-1.8-4.3-2.9-7-2.9c-1.7,0-3.3,0.4-4.6,1.1c0.7-2.4,3-4.2,5.7-4.2C81.1,76.7,83.8,79.4,83.8,82.6
			C83.8,82.6,83.8,82.6,83.8,82.6z M86.6,80.9c-0.7-4-4.4-7.1-8.8-7.1c-3.5,0-6.5,1.9-8,4.7c-0.1-0.5-0.1-1-0.1-1.4
			c0-5.1,4.5-9.1,9.9-8.6c3.9,0.4,7.1,3.3,7.8,7C87.8,77.4,87.4,79.3,86.6,80.9z M93.3,57.1l-4.4,14.1c-2.1-3.5-5.9-5.9-10.4-5.9
			c-3.7,0-6.9,1.6-9.1,4.2l-0.8-12.1c0.1-6.7,5.6-12.2,12.3-12.2c6.6,0,12,5.2,12.3,11.8C93.3,57.1,93.3,57.1,93.3,57.1z"/>
		<rect x="36.8" y="31.2" width="14.2" height="2.8"/>
		<rect x="36.8" y="36.8" width="14.2" height="2.8"/>
		<path d="M29,57.5c0-0.3,0-0.6,0.1-0.9H15.4c-0.3,0-0.6,0-1-0.1c-0.1,0-0.1,0-0.2,0c-0.6-0.1-1.2-0.3-1.8-0.6c0,0-0.1,0-0.1-0.1
			c-0.6-0.3-1.1-0.7-1.6-1.1c0,0,0,0,0,0C10,54.1,9.4,53.3,9,52.3c0,0,0,0,0,0c-0.3-0.8-0.5-1.7-0.5-2.6v-8.3V29.6
			c0-3.8,3.1-6.9,6.9-6.9h8h26.4c0.3,0,0.6,0,1,0.1c0.1,0,0.1,0,0.2,0c0.6,0.1,1.2,0.3,1.8,0.6c0,0,0.1,0,0.1,0.1
			c0.6,0.3,1.1,0.7,1.6,1.1c0,0,0,0,0,0c0.7,0.7,1.3,1.5,1.7,2.5c0,0,0,0,0,0c0.3,0.8,0.5,1.7,0.5,2.6v8.3v4.4c1,0.6,2,1.3,2.8,2.1
			v-6.6v-8.3v0c0-0.4,0-0.9-0.1-1.3c-0.1-1.1-0.5-2.1-0.9-3c0,0,0,0,0,0c-0.1-0.2-0.2-0.4-0.3-0.6c0,0,0,0,0-0.1
			c-0.1-0.2-0.2-0.4-0.4-0.6c0,0,0,0,0-0.1c-0.1-0.2-0.3-0.4-0.4-0.6c0,0,0,0,0,0c-0.6-0.7-1.3-1.4-2.1-1.9c0,0-0.1-0.1-0.1-0.1
			c-0.1-0.1-0.3-0.2-0.5-0.3c-0.1,0-0.2-0.1-0.3-0.1c-0.1-0.1-0.3-0.1-0.4-0.2c-0.1,0-0.2-0.1-0.3-0.1c-0.1-0.1-0.3-0.1-0.4-0.2
			c-0.1,0-0.3-0.1-0.4-0.1c-0.1,0-0.3-0.1-0.4-0.1c-0.1,0-0.3-0.1-0.4-0.1c-0.1,0-0.3-0.1-0.4-0.1c-0.2,0-0.3-0.1-0.5-0.1
			c-0.1,0-0.2,0-0.3,0c-0.3,0-0.5,0-0.8,0c0,0,0,0,0,0h0h0h0H24.5h0h-4h-5.1c-5.4,0-9.7,4.4-9.7,9.7v11.9v8.3v0c0,0.4,0,0.9,0.1,1.3
			c0.1,1.1,0.5,2.1,0.9,3c0,0,0,0,0,0c0.1,0.2,0.2,0.4,0.3,0.6c0,0,0,0,0,0.1c0.1,0.2,0.2,0.4,0.4,0.6c0,0,0,0,0,0.1
			C7.7,55.6,7.8,55.8,8,56c0,0,0,0,0,0c0.6,0.7,1.3,1.4,2.1,1.9c0,0,0.1,0.1,0.1,0.1c0.1,0.1,0.3,0.2,0.5,0.3c0.1,0,0.2,0.1,0.3,0.1
			c0.1,0.1,0.3,0.1,0.4,0.2c0.1,0,0.2,0.1,0.3,0.1c0.1,0.1,0.3,0.1,0.4,0.2c0.1,0,0.3,0.1,0.4,0.1c0.1,0,0.3,0.1,0.4,0.1
			c0.1,0,0.3,0.1,0.4,0.1c0.1,0,0.3,0.1,0.4,0.1c0.2,0,0.3,0.1,0.5,0.1c0.1,0,0.2,0,0.3,0c0.3,0,0.5,0,0.8,0c0,0,0,0,0,0h0h0h0h14
			l-0.2-0.7C29.1,58.4,29,58,29,57.5z"/>
		<path d="M34.1,45.3v-0.3c0-1.9-0.5-3.8-1.7-4.9c-1.8-1.8-4.4-1.9-4.7-1.9c0,0,0,0,0,0h-7.1c0,0,0,0,0,0c-0.4,0-2.9,0.1-4.7,1.9
			c-1.1,1.1-1.7,3.1-1.7,4.9v4.8c0,0.3,0,1.1,0.6,1.8c0.3,0.4,1,0.8,2,0.8h13.1c0.3-1,0.7-1.9,1.2-2.8h-2.7v-5.7h-2.8v5.7h-2.8v-5.7
			h-2.8v5.7H17V45c0-1.1,0.3-2.3,0.8-2.9c1-1,2.7-1,2.7-1h7.1c0,0,1.7,0,2.7,1c0.6,0.6,0.8,1.8,0.8,2.9v4.3
			C31.9,47.9,32.9,46.5,34.1,45.3z"/>
		<path d="M19.2,30.4c0,2.7,2.2,4.9,4.9,4.9s4.9-2.2,4.9-4.9s-2.2-4.9-4.9-4.9S19.2,27.7,19.2,30.4z M26.2,30.4
			c0,1.1-0.9,2.1-2.1,2.1S22,31.5,22,30.4c0-1.1,0.9-2.1,2.1-2.1S26.2,29.3,26.2,30.4z"/>
	</g>
</g>
<g id="Rahmen">
	<rect x="0" y="0" class="st0" width="102" height="102"/>
</g>
<g id="Schutzzone" class="st1">
	<g class="st2">
		<rect y="0" class="st3" width="102" height="5.7"/>
		<rect x="0" y="96.4" class="st3" width="102" height="5.7"/>
		
			<rect x="-48.2" y="48.2" transform="matrix(-1.836970e-16 1 -1 -1.836970e-16 53.8573 48.1827)" class="st3" width="102" height="5.7"/>
		
			<rect x="48.2" y="48.2" transform="matrix(-1.836970e-16 1 -1 -1.836970e-16 150.2365 -48.1893)" class="st3" width="102" height="5.7"/>
	</g>
	<rect y="0" class="st4" width="102" height="102"/>
</g>
</svg>
