<?xml version="1.0" encoding="utf-8"?>
<!-- Generator: Adobe Illustrator 24.0.1, SVG Export Plug-In . SVG Version: 6.00 Build 0)  -->
<svg version="1.1" xmlns="http://www.w3.org/2000/svg" xmlns:xlink="http://www.w3.org/1999/xlink" x="0px" y="0px"
	 viewBox="0 0 102 102" style="enable-background:new 0 0 102 102;" xml:space="preserve">
<style type="text/css">
	.st0{fill:none;}
	.st1{fill:#FFFFFF;}
	.st2{display:none;}
	.st3{display:inline;}
	.st4{opacity:0.4;fill:#7BCDEF;}
	.st5{display:inline;fill:none;}
</style>
<g id="_x30_13-data_x5F_collection-3rd_x5F_party">
	<g>
		<path class="st0" d="M33.8,35.9c-1.1,0.3-1.8,1.4-1.5,2.5c0.3,1.1,1.4,1.8,2.5,1.5c1.1-0.3,1.8-1.4,1.5-2.5
			C36.1,36.3,34.9,35.6,33.8,35.9z"/>
		<path d="M82.3,93.6c-0.2,0-0.3-0.1-0.3-0.3l0-30.6c0-0.2,0.1-0.3,0.3-0.3l5.5,0l0-2.8h-7.3c-0.7,0-1.3,0.6-1.3,1.3l0,3.6l0,0.8
			H68.7c-2.6,0-5.5,2.2-8.6,4.5c-2.5,1.9-5.3,4-6.9,4h-8.5c-2.6,0-4.3,1.1-4.9,1.6l-0.2,0.3l1.9,1.9c0,0,1.1-1,3.2-1h8.5
			c2.6,0,5.5-2.2,8.6-4.5c2.5-1.9,5.3-4,6.9-4h10.5l0,17.2l-8,1.4c0,0-17.7,6.6-20.5,6.9S37.6,91,37.5,91l-7-4.4l-1.8,2.2
			c3.5,2.2,6.7,4.1,7.3,4.5c1.5,1,12.5,3,14.8,3s21.8-7.2,21.8-7.2l6.6-1.1l0,0.8l0,3.6l0,2.6c0,0.7,0.6,1.3,1.3,1.3h7.3l0-2.8
			L82.3,93.6z"/>
		<path d="M18.5,79.2c-0.7-0.4-1.2-1-1.3-1.7s-0.1-1.5,0.3-2.1c0.8-1.3,2.5-1.8,3.8-1l1.7,0.8l1.8-2.2l-2.2-1.1
			c-1.2-0.7-2.7-0.9-4.2-0.5c-1.5,0.4-2.7,1.3-3.4,2.6c-0.8,1.3-1,2.8-0.6,4.3c0.4,1.4,1.3,2.7,2.6,3.4c0,0,0.1,0.1,0.4,0.2l1.8-2.2
			L18.5,79.2z"/>
		<path d="M37.8,82.2l11.5,1.5c0.1,0,0.2,0,0.3,0l14.1-1.4l-0.5-2.8l-13.8,1.4c0,0,0,0-0.1,0l-10.5-1.2c0,0-0.1,0-0.1,0l-1.8-0.9
			L35.1,81l2.2,1.1C37.5,82.1,37.6,82.2,37.8,82.2z"/>
		<path d="M25.8,21.1c1.9,2.2,4,4.1,5.6,5c1.3,0.7,2.3,1.7,3.1,2.5l1.8,2.5l1.5,2.3c0.3,0.3,0.5,0.7,0.8,1c2.2,2.5,4.1,3.5,4.2,3.6
			l0.1,0.1c0.6,0.2,1.4,0.4,2.4,0.3c1.2-0.1,2.6-0.7,3.7-2.1c0.9-1.2,1.1-2.6,1-3.9c0,0-0.1-0.8-0.3-1.5s-0.4-1.3-0.4-1.3
			c-0.1-0.4-0.3-0.6-0.3-0.7c0-0.1-0.2-0.4-0.5-0.9l-1.6-2.5c-0.5-0.6-1-1.3-1.6-2c-0.3-0.4-0.7-0.8-1.1-1.2
			c-0.1-0.1-0.3-0.3-0.4-0.4c-2.2-2.6-2.3-5.4-2.3-5.5l0,0l0-0.1L41,11.5l-0.1,0l0-0.1l-2.8,0.3l0.6,4.6c0,0.5,0.4,4,3.1,7.2
			c0.2,0.2,0.4,0.4,0.6,0.7c0.3,0.3,0.6,0.7,0.9,1c0,0,2.8,4,3.1,4.5l0,0c0.1,0.1,0.1,0.2,0.1,0.2l0,0.1c0,0,0.6,1.2,0.7,2.4
			c0.1,0.7,0,1.5-0.4,2.1c-1,1.4-2.4,1-2.7,0.9c-0.3-0.2-1.5-1-3-2.5l0,0c-0.1-0.1-0.2-0.2-0.3-0.4c-0.6-0.6-1.1-1.4-1.7-2.2
			c-0.3-0.5-0.7-1.1-1-1.7L38,28.6l-1.2-1.5c-0.9-1-2.3-2.5-4.1-3.5c-1.3-0.8-3.2-2.4-4.8-4.4c-1.7-1.9-3.2-4.1-3.9-6
			c-0.9-2.4-1.5-5.3-1.8-7.6h-2.9c0.3,2.5,0.9,5.8,2,8.5C22.2,16.4,23.9,18.9,25.8,21.1z"/>
		<path d="M56.7,15.3l0,3.1l2.8-0.6l0-3.1c0-0.4-0.1-0.7-0.4-0.9l-8.6-8.1h-3.9l9.9,9.5C56.7,15.2,56.7,15.2,56.7,15.3z"/>
		<polygon points="39,50.7 39.9,54.2 42.1,51.5 41.8,50 		"/>
		<path d="M37.6,56.6l-1.3-5.2l-2.7,0.7l1.3,5.2c0,0.2-0.1,0.3-0.2,0.4l-2.2,0.6c-0.2,0-0.3-0.1-0.4-0.2l-1-4.1
			c-0.3-1.1-0.3-2.3,0.1-3c0.7-1.3,2.4-1.7,2.4-1.7l6.9-1.8c0,0,1.6-0.4,2.9,0.3c0.4,0.2,0.7,0.6,1,1.1l1.9-2.3
			c-0.4-0.5-0.9-1-1.4-1.3c-2.2-1.3-4.7-0.7-5-0.7c0,0,0,0,0,0l-6.9,1.7c0,0,0,0,0,0c-0.4,0.1-2.8,0.8-4.1,3
			c-0.8,1.4-0.9,3.4-0.4,5.2l1.2,4.7c0.1,0.3,0.3,1.1,1,1.6c0.4,0.3,1.1,0.5,2.1,0.3l2.1-0.5l3.1-3.8C37.7,56.8,37.6,56.7,37.6,56.6
			z"/>
		<polygon points="48.3,41 48.8,43.3 51.3,40.3 		"/>
		<path d="M64.7,22.9C64.7,22.9,64.7,22.9,64.7,22.9c-0.8-0.6-1.7-1-2.6-1.3c-0.1,0-0.1,0-0.2-0.1c-0.2-0.1-0.3-0.1-0.5-0.1
			c-0.1,0-0.2-0.1-0.3-0.1c-0.2,0-0.3-0.1-0.5-0.1c-0.1,0-0.2,0-0.4-0.1c-0.1,0-0.3,0-0.4-0.1c-0.1,0-0.3,0-0.4,0
			c-0.1,0-0.3,0-0.4,0c-0.1,0-0.3,0-0.4,0c-0.1,0-0.3,0-0.4,0c-0.2,0-0.3,0-0.5,0.1c-0.1,0-0.2,0-0.3,0c-0.3,0-0.5,0.1-0.8,0.2
			c0,0,0,0,0,0l0,0l0,0l0,0L49,23.3c0,0,0.7,1,1,1.4s0.8,1.2,0.8,1.2l6.5-1.8C57.6,24,58,24,58.3,24c0.1,0,0.1,0,0.2,0
			c0.6-0.1,1.3,0,1.9,0.1c0,0,0.1,0,0.1,0c0.6,0.1,1.2,0.4,1.8,0.7c0,0,0,0,0,0c0.4,0.2,0.7,0.4,1,0.7l1.8-2.2
			C65,23.1,64.9,23,64.7,22.9z"/>
		<path d="M29.4,65.6c0,0-0.1,0-0.1,0c-0.6-0.1-1.2-0.4-1.8-0.7c0,0,0,0,0,0c-0.9-0.5-1.7-1.2-2.3-2c0,0,0,0,0,0
			c-0.5-0.7-0.9-1.5-1.1-2.4l-2-8.1L19,41c-0.9-3.7,1.3-7.5,5-8.4l8.7-2c0,0-0.7-1.1-0.8-1.2c-0.1-0.1-1-1-1.3-1.2
			c-0.3,0.1-7.3,1.7-7.3,1.7c-5.2,1.3-8.4,6.6-7,11.8l2.9,11.6l2,8l0,0c0.1,0.4,0.3,0.8,0.4,1.2c0.4,1,1,1.9,1.7,2.7c0,0,0,0,0,0
			c0.2,0.2,0.3,0.4,0.5,0.5c0,0,0,0,0,0c0.2,0.2,0.3,0.3,0.5,0.5c0,0,0,0,0.1,0c0.2,0.2,0.4,0.3,0.6,0.4c0,0,0,0,0,0
			c0.8,0.6,1.6,1,2.5,1.3c0.1,0,0.1,0,0.2,0.1c0.2,0.1,0.3,0.1,0.5,0.1c0.1,0,0.2,0,0.2,0.1l2.1-2.6C30.1,65.7,29.7,65.7,29.4,65.6z
			"/>
		<path d="M70.7,48.7c0.9,3.7-1.3,7.5-5,8.4L58,59l-6.3,1.6l-3,3.7l7-1.8l0,0l3.9-1l5-1.3c7.2-1.4,10.1-6.5,8.9-12.3l-2.7-10.7
			L68.5,40L70.7,48.7z"/>
		<path d="M52.2,34.2c-0.2,1.2-0.6,2.3-1.3,3.2l3.3-0.8l3-3.7L52.2,34.2z"/>
		<path d="M36.7,35.9c-0.3-0.3-0.6-0.7-0.9-1.1l-0.1-0.1l0-0.1l-1.1-1.6c-0.5,0-1,0-1.5,0.1c-2.6,0.7-4.2,3.3-3.5,6
			c0.7,2.6,3.3,4.2,6,3.5c2.1-0.5,3.5-2.3,3.7-4.3C38.5,37.7,37.6,36.9,36.7,35.9z M34.9,39.9c-1.1,0.3-2.2-0.4-2.5-1.5
			c-0.3-1.1,0.4-2.2,1.5-2.5c1.1-0.3,2.2,0.4,2.5,1.5C36.6,38.5,36,39.6,34.9,39.9z"/>
		<path class="st1" d="M39.5,75.6l0.2-0.3C39.5,75.5,39.4,75.6,39.5,75.6L39.5,75.6z"/>
	</g>
</g>
<g id="Ebene_4">
	<polygon class="st1" points="54.1,40.7 51,38.3 46.7,40.7 48.9,46.2 	"/>
	<rect x="49.6" y="-6.3" transform="matrix(0.7756 0.6313 -0.6313 0.7756 43.6815 -20.7076)" width="2.8" height="114.8"/>
</g>
<g id="Rahmen">
	<rect x="0" y="0" class="st0" width="102" height="102"/>
</g>
<g id="Schutzzone" class="st2">
	<g class="st3">
		<rect x="0" y="0" class="st4" width="102" height="5.7"/>
		<rect x="0" y="96.4" class="st4" width="102" height="5.7"/>
		
			<rect x="-48.2" y="48.2" transform="matrix(-1.836970e-16 1 -1 -1.836970e-16 53.8576 48.1824)" class="st4" width="102" height="5.7"/>
		
			<rect x="48.2" y="48.2" transform="matrix(-1.836970e-16 1 -1 -1.836970e-16 150.2369 -48.1896)" class="st4" width="102" height="5.7"/>
	</g>
	<rect x="0.5" y="0" class="st5" width="102" height="102"/>
</g>
</svg>
