<?xml version="1.0" encoding="utf-8"?>
<!-- Generator: Adobe Illustrator 24.3.0, SVG Export Plug-In . SVG Version: 6.00 Build 0)  -->
<svg version="1.1" id="Ebene_1" xmlns="http://www.w3.org/2000/svg" xmlns:xlink="http://www.w3.org/1999/xlink" x="0px" y="0px"
	 viewBox="0 0 102 102" style="enable-background:new 0 0 102 102;" xml:space="preserve">
<style type="text/css">
	.st0{fill:none;}
	.st1{display:none;}
	.st2{display:inline;}
	.st3{opacity:0.4;fill:#7BCDEF;enable-background:new    ;}
	.st4{display:inline;fill:none;}
</style>
<g id="_x30_21-purpose-marketing">
	<g>
		<path class="st0" d="M27.7,41.6h-7.1c0,0-1.7,0-2.7,1c-0.6,0.6-0.9,1.8-0.8,2.9v4.3c0,0.2,0.1,0.3,0.3,0.3h2.3
			c0.2,0,0.3-0.1,0.3-0.3v-5.4h2.8v5.4c0,0.2,0.1,0.3,0.3,0.3h2.3c0.2,0,0.3-0.1,0.3-0.3v-5.4h2.8v5.4c0,0.2,0.1,0.3,0.3,0.3H31
			c0.2,0,0.3-0.1,0.3-0.3v-4.2c0-1.1-0.2-2.3-0.8-2.9C29.4,41.6,27.7,41.6,27.7,41.6z"/>
		<path class="st0" d="M62.6,72H56c-0.2,0-0.3,0.1-0.3,0.3v13.2c0,2,1.6,3.6,3.6,3.6s3.6-1.6,3.6-3.6V72.3
			C62.9,72.2,62.8,72,62.6,72z"/>
		<path class="st0" d="M24.1,33c1.1,0,2.1-0.9,2.1-2.1c0-1.1-0.9-2.1-2.1-2.1s-2.1,1-2.1,2.1S23,33,24.1,33z"/>
		<path class="st0" d="M89.4,56.3c-0.2,0-0.3,0.1-0.3,0.3v8.8c0,0.2,0.2,0.3,0.3,0.3c2.4-0.3,4.2-2.3,4.2-4.7S91.8,56.7,89.4,56.3z"
			/>
		<path class="st0" d="M85.9,42.4L71,53.7c-0.1,0.1-0.1,0.1-0.1,0.2V69c0,0.1,0,0.2,0.1,0.2l15.1,11c0.2,0.1,0.4,0,0.4-0.2
			l-0.2-37.3C86.3,42.4,86.1,42.3,85.9,42.4z"/>
		<path d="M89.1,53.6V39.4c0-0.5-0.3-1-0.8-1.2s-1-0.2-1.4,0.1L70.2,51l0,0l0,0l0,0c0,0,0,0-0.1,0H59.5l-2.3,2.8h10.5
			c0.2,0,0.3,0.1,0.3,0.3v14.8c0,0.2-0.1,0.3-0.3,0.3H53.2c-2.5,0-4.8-1.1-6.2-2.8l-1.8,2.2c0.1,0.1,0.2,0.2,0.3,0.4
			c2,2,4.6,3,7.4,3.1v13.5c0,3.5,2.9,6.3,6.4,6.3s6.4-2.8,6.4-6.3V72h4.2c0.1,0,0.1,0,0.2,0.1L87,83.8c0.2,0.2,0.5,0.3,0.8,0.3
			c0.2,0,0.4-0.1,0.6-0.1c0.5-0.2,0.8-0.7,0.8-1.2V68.5c2-0.1,3.8-0.9,5.1-2.3c1.4-1.4,2.1-3.2,2.1-5.2s-0.8-3.8-2.1-5.2
			C92.9,54.5,91,53.7,89.1,53.6z M62.9,85.5c0,2-1.6,3.6-3.6,3.6s-3.6-1.6-3.6-3.6V72.3c0-0.2,0.1-0.3,0.3-0.3h6.7
			c0.2,0,0.3,0.1,0.3,0.3L62.9,85.5z M86.1,80.2L71,69.3c-0.1-0.1-0.1-0.1-0.1-0.2V53.9c0-0.1,0-0.2,0.1-0.2l14.9-11.3
			c0.2-0.1,0.4,0,0.4,0.2L86.5,80C86.5,80.2,86.2,80.4,86.1,80.2z M89.4,65.8c-0.2,0-0.3-0.1-0.3-0.3v-8.8c0-0.2,0.2-0.3,0.3-0.3
			c2.4,0.3,4.2,2.3,4.2,4.7S91.8,65.4,89.4,65.8z"/>
		<rect x="36.8" y="31.2" width="14.2" height="2.8"/>
		<rect x="36.8" y="36.9" width="14.2" height="2.8"/>
		<path d="M37.6,56.7H15.3c-0.3,0-0.6,0-1-0.1c-0.1,0-0.1,0-0.2,0c-0.6-0.1-1.2-0.3-1.8-0.6c0,0-0.1,0-0.1-0.1
			c-0.6-0.3-1.1-0.7-1.6-1.1l0,0c-0.7-0.7-1.3-1.5-1.7-2.5l0,0c-0.3-0.8-0.5-1.7-0.5-2.6v-8.3V29.6c0-3.8,3.1-6.9,6.9-6.9h8h26.4
			c0.3,0,0.6,0,1,0.1c0.1,0,0.1,0,0.2,0c0.6,0.1,1.2,0.3,1.8,0.6c0,0,0.1,0,0.1,0.1c0.6,0.3,1.1,0.7,1.6,1.1l0,0
			c0.7,0.7,1.3,1.5,1.7,2.5l0,0c0.3,0.8,0.5,1.7,0.5,2.6v4.1l2.8-3.5v-0.6l0,0c0-0.4,0-0.9-0.1-1.3c-0.1-1.1-0.5-2.1-0.9-3l0,0
			c-0.1-0.2-0.2-0.4-0.3-0.6c0,0,0,0,0-0.1c-0.1-0.2-0.2-0.4-0.4-0.6c0,0,0,0,0-0.1c-0.1-0.2-0.3-0.4-0.4-0.6l0,0
			c-0.6-0.7-1.3-1.4-2.1-1.9l-0.1-0.1c-0.1-0.1-0.3-0.2-0.5-0.3c-0.1,0-0.2-0.1-0.3-0.1c-0.1-0.1-0.3-0.1-0.4-0.2
			c-0.1,0-0.2-0.1-0.3-0.1c-0.1-0.1-0.3-0.1-0.4-0.2c-0.1,0-0.3-0.1-0.4-0.1c-0.1,0-0.3-0.1-0.4-0.1c-0.1,0-0.3-0.1-0.4-0.1
			c-0.1,0-0.3-0.1-0.4-0.1c-0.2,0-0.3-0.1-0.5-0.1c-0.1,0-0.2,0-0.3,0c-0.3,0-0.5,0-0.8,0l0,0l0,0l0,0l0,0H24.5l0,0h-4h-5.1
			c-5.4,0-9.7,4.4-9.7,9.7v11.9v8.3l0,0c0,0.4,0,0.9,0.1,1.3c0.1,1.1,0.5,2.1,0.9,3l0,0c0.1,0.2,0.2,0.4,0.3,0.6c0,0,0,0,0,0.1
			c0.1,0.2,0.2,0.4,0.4,0.6c0,0,0,0,0,0.1c0.1,0.2,0.3,0.4,0.4,0.6l0,0c0.6,0.7,1.3,1.4,2.1,1.9l0.1,0.1c0.1,0.1,0.3,0.2,0.5,0.3
			c0.1,0,0.2,0.1,0.3,0.1c0.1,0.1,0.3,0.1,0.4,0.2c0.1,0,0.2,0.1,0.3,0.1c0.1,0.1,0.3,0.1,0.4,0.2c0.1,0,0.3,0.1,0.4,0.1
			c0.1,0,0.3,0.1,0.4,0.1c0.1,0,0.3,0.1,0.4,0.1c0.1,0,0.3,0.1,0.4,0.1c0.2,0,0.3,0.1,0.5,0.1c0.1,0,0.2,0,0.3,0c0.3,0,0.5,0,0.8,0
			l0,0l0,0l0,0l0,0h20.2l1.9-2.3C37.5,57.1,37.5,56.9,37.6,56.7z"/>
		<path d="M27.7,38.8L27.7,38.8h-7.1l0,0c-0.4,0-2.9,0.1-4.7,1.9c-1.1,1.1-1.7,3.1-1.7,4.9v4.8c0,0.3,0,1.1,0.6,1.8
			c0.3,0.4,1,0.8,2,0.8h14.6c1,0,1.7-0.4,2-0.8c0.6-0.7,0.6-1.5,0.6-1.8v-4.8c0-1.9-0.5-3.8-1.7-4.9C30.6,38.8,28,38.8,27.7,38.8z
			 M31.2,49.8c0,0.2-0.1,0.3-0.3,0.3h-2.2c-0.2,0-0.3-0.1-0.3-0.3v-5.4h-2.8v5.4c0,0.2-0.1,0.3-0.3,0.3H23c-0.2,0-0.3-0.1-0.3-0.3
			v-5.4h-2.8v5.4c0,0.2-0.1,0.3-0.3,0.3h-2.3c-0.2,0-0.3-0.1-0.3-0.3v-4.3c0-1.1,0.3-2.3,0.8-2.9c1-1,2.7-1,2.7-1h7.1
			c0,0,1.7,0,2.7,1c0.6,0.6,0.8,1.8,0.8,2.9L31.2,49.8L31.2,49.8z"/>
		<path d="M24.1,35.8c2.7,0,4.9-2.2,4.9-4.9S26.8,26,24.1,26s-4.9,2.2-4.9,4.9S21.4,35.8,24.1,35.8z M24.1,28.8
			c1.1,0,2.1,0.9,2.1,2.1c0,1.1-0.9,2.1-2.1,2.1S22,32,22,30.9S23,28.8,24.1,28.8z"/>
	</g>
</g>
<g id="Ebene_4">
	<rect x="-6.4" y="49.7" transform="matrix(0.6313 -0.7756 0.7756 0.6313 -20.8512 58.3866)" width="114.8" height="2.8"/>
</g>
<g id="Rahmen">
	<rect y="0" class="st0" width="102" height="102"/>
</g>
<g id="Schutzzone" class="st1">
	<g class="st2">
		<rect y="0" class="st3" width="102" height="5.7"/>
		<rect y="96.4" class="st3" width="102" height="5.7"/>
		<rect x="0" y="0" class="st3" width="5.7" height="102"/>
		<rect x="96.3" y="0" class="st3" width="5.7" height="102"/>
	</g>
	<rect y="0.5" class="st4" width="102" height="102"/>
</g>
</svg>
