<?xml version="1.0" encoding="utf-8"?>
<!-- Generator: Adobe Illustrator 24.3.0, SVG Export Plug-In . SVG Version: 6.00 Build 0)  -->
<svg version="1.1" id="Ebene_1" xmlns="http://www.w3.org/2000/svg" xmlns:xlink="http://www.w3.org/1999/xlink" x="0px" y="0px"
	 viewBox="0 0 102 102" style="enable-background:new 0 0 102 102;" xml:space="preserve">
<style type="text/css">
	.st0{fill:#1A171B;}
	.st1{fill:none;}
	.st2{display:none;}
	.st3{display:inline;fill:none;}
	.st4{display:inline;}
	.st5{opacity:0.4;fill:#7BCDEF;enable-background:new    ;}
</style>
<g id="_x30_22-purpose-development">
	<g>
		<path class="st0" d="M73,45.5C72.9,45.5,72.9,45.4,73,45.5c-3.1-3.5-7.4-5.5-12-5.4c-4.6,0-8.8,2-11.8,5.4l-0.1,0.1l-0.4,0.5l0,0
			c-2.1,2.6-3.2,6-3.2,9.5c0,3.6,2.9,8.8,3.3,9.5c0.8,1.5,2.3,3.5,5.4,7.6c-0.3,0.5-0.3,0.8-0.3,1.3v2.3c0,0.6,0.2,1.2,0.5,1.6
			c-0.3,0.5-0.5,1-0.5,1.6v2.3c0,0.8,0.3,1.6,0.9,2.1c0.2,0.2,0.5,0.4,0.7,0.5c0.4,0.2,0.8,0.3,1.2,0.3c0,0.1,0,0.2,0,0.2v2.4
			c0,1.2,0.7,2.2,1.6,2.7c0.4,0.2,0.9,0.3,1.4,0.3h2.4l0,0c1.7,0,3-1.4,3-3v-2.4c0-0.1,0-0.2,0-0.2c1.6-0.1,2.8-1.4,2.8-3v-2.3
			c0-0.6-0.2-1.1-0.5-1.6c0.3-0.5,0.5-1,0.5-1.6v-2.3c0-0.5,0-0.8-0.3-1.2c3.6-4.5,3.9-4.9,5.7-7.7c0.6-0.9,3.3-6.1,3.3-9.6
			c0-3.6-1.2-6.9-3.4-9.6L73,45.5z M56.7,74.2c0-0.2,0.1-0.3,0.3-0.3h8h0.1c0.1,0,0.1,0.1,0.1,0.2v2.1c0,0.2-0.1,0.3-0.3,0.3H57
			c-0.2,0-0.3-0.1-0.3-0.3V74.2z M62.1,87.8h-2.3c-0.2,0-0.3-0.1-0.3-0.3v-2.3c0-0.2,0.1-0.3,0.3-0.3h2.3h0.1c0.1,0,0.1,0.1,0.1,0.2
			v2.3C62.4,87.7,62.3,87.8,62.1,87.8z M64.9,82.1h-8c-0.1,0-0.2-0.1-0.2-0.2v-2.2c0-0.2,0.1-0.3,0.3-0.3h8l0,0h0.1
			c0.1,0,0.1,0.1,0.1,0.2v2.2C65.2,82,65.1,82.1,64.9,82.1z M71.2,63.3c-1.6,2.7-5.4,7.8-5.6,7.8h-9c-0.2,0-3.5-4-5.8-7.6
			c-0.4-0.6-2.5-5-2.5-7.8c0-2.9,0.9-5.6,2.6-7.7l0,0l0.3-0.4c0,0,0,0,0.1-0.1c2.4-2.9,6-4.5,9.8-4.5c3.7,0,7.3,1.6,9.7,4.4l0,0
			l0.3,0.4c0,0,0,0,0,0.1c1.7,2.1,2.7,4.8,2.7,7.7C73.9,58.4,71.8,62.3,71.2,63.3z"/>
		<rect x="67.1" y="31.9" transform="matrix(0.4511 -0.8925 0.8925 0.4511 9.4468 81.9758)" class="st0" width="8.6" height="2.8"/>
		<rect x="81.3" y="53.1" class="st0" width="8.6" height="2.8"/>
		
			<rect x="39.5" y="73.6" transform="matrix(0.7553 -0.6553 0.6553 0.7553 -38.3452 47.2287)" class="st0" width="9.2" height="2.8"/>
		<rect x="77.7" y="41.1" transform="matrix(0.8434 -0.5373 0.5373 0.8434 -9.9602 50.8121)" class="st0" width="9" height="2.8"/>
		<rect x="34.1" y="64.2" transform="matrix(0.9444 -0.3289 0.3289 0.9444 -19.4293 16.3447)" class="st0" width="9" height="2.8"/>
		<rect x="36.8" y="31.1" class="st0" width="14.2" height="2.8"/>
		<path class="st0" d="M36.8,39.6H47c1.2-1.1,2.6-2,4-2.7v-0.1H36.8V39.6z"/>
		<path class="st0" d="M38.8,59.4h1.4c-0.2-1-0.4-1.9-0.5-2.8H15.4c-0.3,0-0.6,0-1-0.1c-0.1,0-0.1,0-0.2,0c-0.6-0.1-1.2-0.3-1.8-0.6
			c0,0-0.1,0-0.1-0.1c-0.6-0.3-1.1-0.7-1.6-1.1l0,0C10,54,9.4,53.2,9,52.2l0,0c-0.3-0.8-0.5-1.7-0.5-2.6v-8.3V29.5
			c0-3.8,3.1-6.9,6.9-6.9h8h26.4c0.3,0,0.6,0,1,0.1c0.1,0,0.1,0,0.2,0c0.6,0.1,1.2,0.3,1.8,0.6c0,0,0.1,0,0.1,0.1
			c0.6,0.3,1.1,0.7,1.6,1.1l0,0c0.7,0.7,1.3,1.5,1.7,2.5l0,0c0.3,0.8,0.5,1.7,0.5,2.6V35c0.9-0.2,1.9-0.3,2.8-0.4v-5l0,0
			c0-0.4,0-0.9-0.1-1.3c-0.1-1.1-0.5-2.1-0.9-3l0,0c-0.1-0.2-0.2-0.4-0.3-0.6c0,0,0,0,0-0.1c-0.1-0.2-0.2-0.4-0.4-0.6c0,0,0,0,0-0.1
			c-0.1-0.2-0.3-0.4-0.4-0.6l0,0c-0.6-0.7-1.3-1.4-2.1-1.9l-0.1-0.1c-0.1-0.1-0.3-0.2-0.5-0.3c-0.1,0-0.2-0.1-0.3-0.1
			c-0.1-0.1-0.3-0.1-0.4-0.2c-0.1,0-0.2-0.1-0.3-0.1c-0.1-0.1-0.3-0.1-0.4-0.2c-0.1,0-0.3-0.1-0.4-0.1c-0.1,0-0.3-0.1-0.4-0.1
			C52.1,20,52,20,51.8,20c-0.1,0-0.3-0.1-0.4-0.1c-0.2,0-0.3-0.1-0.5-0.1c-0.1,0-0.2,0-0.3,0c-0.3,0-0.5,0-0.8,0l0,0l0,0l0,0l0,0
			H24.5l0,0h-4h-5.1c-5.4,0-9.7,4.4-9.7,9.7v11.9v8.3l0,0c0,0.4,0,0.9,0.1,1.3c0.1,1.1,0.5,2.1,0.9,3l0,0c0.1,0.2,0.2,0.4,0.3,0.6
			c0,0,0,0,0,0.1c0.1,0.2,0.2,0.4,0.4,0.6c0,0,0,0,0,0.1c0.1,0.2,0.3,0.4,0.4,0.6l0,0c0.6,0.7,1.3,1.4,2.1,1.9L10,58
			c0.1,0.1,0.3,0.2,0.5,0.3c0.1,0,0.2,0.1,0.3,0.1c0.1,0.1,0.3,0.1,0.4,0.2c0.1,0,0.2,0.1,0.3,0.1c0.1,0.1,0.3,0.1,0.4,0.2
			c0.1,0,0.3,0.1,0.4,0.1c0.1,0,0.3,0.1,0.4,0.1c0.1,0,0.3,0.1,0.4,0.1c0.1,0,0.3,0.1,0.4,0.1c0.2,0,0.3,0.1,0.5,0.1
			c0.1,0,0.2,0,0.3,0c0.3,0,0.5,0,0.8,0l0,0l0,0l0,0l0,0L38.8,59.4L38.8,59.4z"/>
		<path class="st0" d="M14.2,45.6v4.8c0,0.3,0,1.1,0.6,1.8c0.3,0.4,1,0.8,2,0.8h14.6c1,0,1.7-0.4,2-0.8c0.6-0.7,0.6-1.5,0.6-1.8
			v-4.8c0-1.9-0.5-3.8-1.7-4.9c-1.8-1.8-4.4-1.9-4.7-1.9l0,0h-7.1l0,0c-0.4,0-2.9,0.1-4.7,1.9C14.7,41.8,14.1,43.7,14.2,45.6z
			 M17,45.5c0-1.1,0.3-2.3,0.8-2.9c1-1,2.7-1,2.7-1h7.1c0,0,1.7,0,2.7,1c0.6,0.6,0.8,1.8,0.8,2.9v4.3c0,0.2-0.1,0.3-0.3,0.3h-2.3
			c-0.2,0-0.3-0.1-0.3-0.3v-5.4h-2.8v5.4c0,0.2-0.1,0.3-0.3,0.3h-2.3c-0.2,0-0.3-0.1-0.3-0.3v-5.4h-2.8v5.4c0,0.2-0.1,0.3-0.3,0.3
			h-2.3c-0.2,0-0.3-0.1-0.3-0.3v-4.3H17z"/>
		<path class="st0" d="M24.1,35.8c2.7,0,4.9-2.2,4.9-4.9S26.8,26,24.1,26s-4.9,2.2-4.9,4.9S21.4,35.8,24.1,35.8z M24.1,28.8
			c1.1,0,2.1,0.9,2.1,2.1c0,1.1-0.9,2.1-2.1,2.1S22,32,22,30.9S23,28.8,24.1,28.8z"/>
	</g>
</g>
<g id="Rahmen">
	<rect y="0" class="st1" width="102" height="102"/>
</g>
<g id="Schutzzone" class="st2">
	<rect y="0" class="st3" width="102" height="102"/>
	<g class="st4">
		<rect y="0" class="st5" width="102" height="5.7"/>
		<rect y="96.4" class="st5" width="102" height="5.7"/>
		<rect y="0" class="st5" width="5.7" height="102"/>
		<rect x="96.3" y="0" class="st5" width="5.7" height="102"/>
	</g>
	<rect y="0.5" class="st3" width="102" height="102"/>
</g>
</svg>
