<?xml version="1.0" encoding="utf-8"?>
<!-- Generator: Adobe Illustrator 24.0.1, SVG Export Plug-In . SVG Version: 6.00 Build 0)  -->
<svg version="1.1" xmlns="http://www.w3.org/2000/svg" xmlns:xlink="http://www.w3.org/1999/xlink" x="0px" y="0px"
	 viewBox="0 0 102 102" style="enable-background:new 0 0 102 102;" xml:space="preserve">
<style type="text/css">
	.st0{fill:none;}
	.st1{display:none;}
	.st2{display:inline;fill:none;}
	.st3{display:inline;}
	.st4{opacity:0.4;fill:#7BCDEF;}
</style>
<g id="_x30_22-purpose-development">
	<g>
		<rect x="81.3" y="53.1" width="8.6" height="2.8"/>
		<polygon points="41.9,75.1 39.7,77 41.5,79.2 41.9,78.8 48.5,73.1 46.6,71 		"/>
		<rect x="77.7" y="41.1" transform="matrix(0.8434 -0.5373 0.5373 0.8434 -9.9841 50.8448)" width="9" height="2.8"/>
		<polygon points="51,31.1 41.9,31.1 36.8,31.1 36.8,33.9 41.9,33.9 51,33.9 		"/>
		<path d="M36.8,36.7v2.8h5.1H47c1.2-1.1,2.6-2,4-2.7v-0.1h-9.1H36.8z"/>
		<path d="M14.5,56.5c-0.1,0-0.1,0-0.2,0c-0.6-0.1-1.2-0.3-1.8-0.6c0,0-0.1,0-0.1-0.1c-0.6-0.3-1.1-0.7-1.6-1.1c0,0,0,0,0,0
			C10,54,9.4,53.2,9,52.2c0,0,0,0,0,0c-0.3-0.8-0.5-1.7-0.5-2.6v-8.3V29.5c0-3.8,3.1-6.9,6.9-6.9h8h18.5h7.8c0.3,0,0.6,0,1,0.1
			c0.1,0,0.1,0,0.2,0c0.6,0.1,1.2,0.3,1.8,0.6c0,0,0.1,0,0.1,0.1c0.6,0.3,1.1,0.7,1.6,1.1c0,0,0,0,0,0c0.7,0.7,1.3,1.5,1.7,2.5
			c0,0,0,0,0,0c0.3,0.8,0.5,1.7,0.5,2.6v4.1l2.8-3.5v-0.7v0c0-0.4,0-0.9-0.1-1.3c-0.1-1.1-0.5-2.1-0.9-3c0,0,0,0,0,0
			c-0.1-0.2-0.2-0.4-0.3-0.6c0,0,0,0,0-0.1c-0.1-0.2-0.2-0.4-0.4-0.6c0,0,0,0,0-0.1c-0.1-0.2-0.3-0.4-0.4-0.6c0,0,0,0,0,0
			c-0.6-0.7-1.3-1.4-2.1-1.9c0,0-0.1-0.1-0.1-0.1c-0.1-0.1-0.3-0.2-0.5-0.3c-0.1,0-0.2-0.1-0.3-0.1c-0.1-0.1-0.3-0.1-0.4-0.2
			c-0.1,0-0.2-0.1-0.3-0.1c-0.1-0.1-0.3-0.1-0.4-0.2c-0.1,0-0.3-0.1-0.4-0.1c-0.1,0-0.3-0.1-0.4-0.1C52.1,20,52,20,51.8,20
			c-0.1,0-0.3-0.1-0.4-0.1c-0.2,0-0.3-0.1-0.5-0.1c-0.1,0-0.2,0-0.3,0c-0.3,0-0.5,0-0.8,0c0,0,0,0,0,0h0h0h0h-7.8H24.5h0h-4h-5.1
			c-5.4,0-9.7,4.4-9.7,9.7v11.9v8.3v0c0,0.4,0,0.9,0.1,1.3c0.1,1.1,0.5,2.1,0.9,3c0,0,0,0,0,0c0.1,0.2,0.2,0.4,0.3,0.6
			c0,0,0,0,0,0.1c0.1,0.2,0.2,0.4,0.4,0.6c0,0,0,0,0,0.1c0.1,0.2,0.3,0.4,0.4,0.6c0,0,0,0,0,0c0.6,0.7,1.3,1.4,2.1,1.9
			c0,0,0.1,0.1,0.1,0.1c0.1,0.1,0.3,0.2,0.5,0.3c0.1,0,0.2,0.1,0.3,0.1c0.1,0.1,0.3,0.1,0.4,0.2c0.1,0,0.2,0.1,0.3,0.1
			c0.1,0.1,0.3,0.1,0.4,0.2c0.1,0,0.3,0.1,0.4,0.1c0.1,0,0.3,0.1,0.4,0.1c0.1,0,0.3,0.1,0.4,0.1c0.1,0,0.3,0.1,0.4,0.1
			c0.2,0,0.3,0.1,0.5,0.1c0.1,0,0.2,0,0.3,0c0.3,0,0.5,0,0.8,0c0,0,0,0,0,0h0h0h0h20.3l2.3-2.8H15.4C15.1,56.6,14.8,56.5,14.5,56.5z
			"/>
		<path d="M73,45.5C72.9,45.5,72.9,45.4,73,45.5c-1.6-1.9-3.5-3.2-5.6-4.1l-1.9,2.3c2,0.7,3.9,2,5.3,3.6c0,0,0,0,0,0l0.3,0.4
			c0,0,0,0,0,0.1c1.7,2.1,2.7,4.8,2.7,7.7c0,2.9-2,6.8-2.6,7.8c-1.6,2.7-5.4,7.8-5.6,7.8l-9,0c-0.2,0-3.5-4-5.8-7.6
			c-0.1-0.2-0.3-0.5-0.6-1.1l-1.8,2.2c0.1,0.3,0.2,0.5,0.3,0.6c0.8,1.5,2.3,3.5,5.4,7.6c-0.3,0.5-0.3,0.8-0.3,1.3l0,2.3
			c0,0.6,0.2,1.2,0.5,1.6c-0.3,0.5-0.5,1-0.5,1.6l0,2.3c0,0.8,0.3,1.6,0.9,2.1c0.2,0.2,0.5,0.4,0.7,0.5c0.4,0.2,0.8,0.3,1.2,0.3
			c0,0.1,0,0.2,0,0.2l0,2.4c0,0.1,0,0.1,0,0.2c0.1,1.1,0.7,2,1.6,2.5c0.4,0.2,0.9,0.3,1.4,0.3l2.4,0l0,0c1.6,0,2.9-1.3,3-2.9
			c0-0.1,0-0.1,0-0.2l0-2.4c0-0.1,0-0.2,0-0.2c1.6-0.1,2.8-1.4,2.8-3l0-2.3c0-0.6-0.2-1.1-0.5-1.6c0.3-0.5,0.5-1,0.5-1.6l0-2.3
			c0-0.5,0-0.8-0.3-1.2c3.6-4.5,3.9-4.9,5.7-7.7c0.6-0.9,3.3-6.1,3.3-9.6c0-3.6-1.2-6.9-3.4-9.6L73,45.5z M56.7,74.2
			c0-0.2,0.1-0.3,0.3-0.3l8,0c0,0,0.1,0,0.1,0c0.1,0,0.1,0.1,0.1,0.2l0,2.1c0,0.2-0.1,0.3-0.3,0.3l-7.9,0c-0.2,0-0.3-0.1-0.3-0.3
			L56.7,74.2z M59.8,87.8c-0.1,0-0.2-0.1-0.2-0.2l0-2.3c0-0.2,0.1-0.3,0.3-0.3l2.3,0c0,0,0.1,0,0.1,0c0.1,0,0.1,0.1,0.1,0.2l0,2.3
			c0,0.1-0.1,0.2-0.2,0.3H59.8z M64.9,82.1l-8,0c-0.1,0-0.2-0.1-0.2-0.2l0-2.2c0-0.2,0.1-0.3,0.3-0.3l8,0l0,0c0,0,0.1,0,0.1,0
			c0.1,0,0.1,0.1,0.1,0.2l0,2.2C65.2,82,65.1,82.1,64.9,82.1z"/>
		<path d="M14.2,45.6v4.8c0,0.3,0,1.1,0.6,1.8c0.3,0.4,1,0.8,2,0.8h14.6c1,0,1.7-0.4,2-0.8c0.6-0.7,0.6-1.5,0.6-1.8v-4.8
			c0-1.9-0.5-3.8-1.7-4.9c-1.8-1.8-4.4-1.9-4.7-1.9c0,0,0,0,0,0h-7.1c0,0,0,0,0,0c-0.4,0-2.9,0.1-4.7,1.9
			C14.7,41.8,14.1,43.7,14.2,45.6z M17,45.5c0-1.1,0.3-2.3,0.8-2.9c1-1,2.7-1,2.7-1h7.1c0,0,1.7,0,2.7,1c0.6,0.6,0.8,1.8,0.8,2.9
			v4.3c0,0.2-0.1,0.3-0.3,0.3h-2.3c-0.2,0-0.3-0.1-0.3-0.3v-5.4h-2.8v5.4c0,0.2-0.1,0.3-0.3,0.3h-2.3c-0.2,0-0.3-0.1-0.3-0.3v-5.4
			h-2.8v5.4c0,0.2-0.1,0.3-0.3,0.3h-2.3c-0.2,0-0.3-0.1-0.3-0.3V45.5z"/>
		<path d="M24.1,35.8c2.7,0,4.9-2.2,4.9-4.9S26.8,26,24.1,26s-4.9,2.2-4.9,4.9S21.4,35.8,24.1,35.8z M24.1,28.8
			c1.1,0,2.1,0.9,2.1,2.1c0,1.1-0.9,2.1-2.1,2.1S22,32,22,30.9C22,29.8,23,28.8,24.1,28.8z"/>
	</g>
</g>
<g id="Ebene_4">
	<rect x="49.6" y="-6.3" transform="matrix(0.7756 0.6313 -0.6313 0.7756 43.6815 -20.7076)" width="2.8" height="114.8"/>
</g>
<g id="Rahmen">
	<rect class="st0" width="102" height="102"/>
</g>
<g id="Schutzzone" class="st1">
	<rect x="0" y="0" class="st2" width="102" height="102"/>
	<g class="st3">
		<rect y="0" class="st4" width="102" height="5.7"/>
		<rect x="0" y="96.4" class="st4" width="102" height="5.7"/>
		
			<rect x="-48.2" y="48.2" transform="matrix(-1.836970e-16 1 -1 -1.836970e-16 53.8573 48.1827)" class="st4" width="102" height="5.7"/>
		
			<rect x="48.2" y="48.2" transform="matrix(-1.836970e-16 1 -1 -1.836970e-16 150.2365 -48.1893)" class="st4" width="102" height="5.7"/>
	</g>
	<rect y="0.5" class="st2" width="102" height="102"/>
</g>
</svg>
