<?xml version="1.0" encoding="utf-8"?>
<!-- Generator: Adobe Illustrator 24.0.1, SVG Export Plug-In . SVG Version: 6.00 Build 0)  -->
<svg version="1.1" xmlns="http://www.w3.org/2000/svg" xmlns:xlink="http://www.w3.org/1999/xlink" x="0px" y="0px"
	 viewBox="0 0 102 102" style="enable-background:new 0 0 102 102;" xml:space="preserve">
<style type="text/css">
	.st0{fill:none;}
	.st1{display:none;}
	.st2{display:inline;}
	.st3{opacity:0.4;fill:#7BCDEF;}
	.st4{display:inline;fill:#7BCDEF;}
</style>
<g id="_x30_23-purpose-other">
	<g>
		<path d="M52.8,42.9c-3.2,1-5.8,3.2-7.4,6.1c-1.6,3-1.9,6.4-0.9,9.6c1,3.2,3.2,5.8,6.1,7.4c1.8,1,3.8,1.5,5.8,1.5
			c1.2,0,2.5-0.2,3.7-0.6c3.2-1,5.8-3.2,7.4-6.1c1.6-3,1.9-6.4,0.9-9.6C66.4,44.6,59.4,40.9,52.8,42.9z M65.8,52
			c0.8,2.5,0.5,5.1-0.7,7.4c-1.2,2.3-3.2,4-5.7,4.7c-2.5,0.8-5.1,0.5-7.4-0.7c-2.3-1.2-4-3.2-4.7-5.7s-0.5-5.1,0.7-7.4
			c1.2-2.3,3.2-4,5.7-4.7c1-0.3,1.9-0.4,2.9-0.4C60.6,45.2,64.5,47.9,65.8,52z"/>
		<path d="M70.1,85.9c1.8,1,3.8,1.5,5.8,1.5c1.2,0,2.5-0.2,3.7-0.6c6.6-2,10.3-9.1,8.3-15.7c-1-3.2-3.2-5.8-6.1-7.4
			c-3-1.6-6.4-1.9-9.6-0.9c-3.2,1-5.8,3.2-7.4,6.1c-1.6,3-1.9,6.4-0.9,9.6C64.9,81.7,67.1,84.3,70.1,85.9z M67.3,70.2
			c1.2-2.3,3.2-4,5.7-4.7c0.9-0.3,1.9-0.4,2.9-0.4c1.6,0,3.1,0.4,4.5,1.1c2.3,1.2,4,3.2,4.7,5.7c1.6,5.1-1.3,10.6-6.4,12.1
			c-2.5,0.8-5.1,0.5-7.4-0.7c-2.3-1.2-4-3.2-4.7-5.7C65.9,75.2,66.1,72.5,67.3,70.2z"/>
		<path d="M83.5,60.5c1.2,0,2.5-0.2,3.7-0.6c6.6-2,10.3-9.1,8.3-15.7c-2-6.6-9.1-10.3-15.7-8.3c-3.2,1-5.8,3.2-7.4,6.1
			c-1.6,3-1.9,6.4-0.9,9.6C73.2,57.1,78.1,60.5,83.5,60.5z M74.9,43.5c1.2-2.3,3.2-4,5.7-4.7c1-0.3,1.9-0.4,2.9-0.4
			c4.1,0,8,2.7,9.3,6.8c1.6,5.1-1.3,10.6-6.4,12.1c-5.1,1.6-10.6-1.3-12.1-6.4C73.5,48.4,73.7,45.7,74.9,43.5z"/>
		<path d="M79.7,53.9h2.5H85h2.5c0.2,0,0.3-0.1,0.3-0.3v-5.1c0-0.2-0.1-0.3-0.3-0.3h-2.3c-0.2,0-0.3-0.1-0.3-0.3v-2.3
			c0-0.2-0.1-0.3-0.3-0.3h-2.3c-0.2,0-0.3-0.1-0.3-0.3v-2.3c0-0.2-0.1-0.3-0.3-0.3h-2.3c-0.2,0-0.3,0.1-0.3,0.3v10.8
			C79.4,53.7,79.5,53.9,79.7,53.9z"/>
		<path d="M54.7,48.9L54.6,50c-0.2,0.1-0.1,0-0.2,0.1l-0.9-0.7c-0.2-0.1-0.4-0.1-0.6,0c0,0-0.5,0.3-1.1,0.9s-0.9,1-0.9,1.1
			c-0.1,0.2-0.1,0.4,0,0.6l0.7,0.9c-0.1,0.2-0.1,0.1-0.1,0.3l-1.1,0.1c-0.2,0-0.4,0.2-0.4,0.4c0,0-0.2,0.5-0.2,1.4
			c0,0.9,0.2,1.4,0.2,1.4c0.1,0.2,0.2,0.3,0.4,0.4l1.1,0.2c0.1,0.2,0,0.1,0.1,0.2L51,57.9c-0.1,0.2-0.1,0.4,0,0.6
			c0,0,0.3,0.5,0.9,1.1s1,0.9,1.1,0.9c0.2,0.1,0.4,0.1,0.6,0l0.9-0.7c0.2,0.1,0.1,0.1,0.3,0.1l0.1,1.1c0,0.2,0.2,0.4,0.4,0.4
			c0,0,0.5,0.2,1.4,0.2c0.9,0,1.4-0.2,1.4-0.2c0.2-0.1,0.3-0.2,0.4-0.4l0.2-1.1c0.2-0.1,0.1,0,0.2-0.1l0.9,0.7
			c0.2,0.1,0.4,0.1,0.6,0c0,0,0.5-0.3,1.1-0.9s0.9-1,0.9-1.1c0.1-0.2,0.1-0.4,0-0.6L61.3,57c0.1-0.2,0.1-0.1,0.1-0.2l1.1-0.2
			c0.2,0,0.4-0.2,0.4-0.4c0,0,0.2-0.5,0.2-1.4c0-0.9-0.2-1.4-0.2-1.4c-0.1-0.2-0.2-0.3-0.4-0.4L61.4,53c-0.1-0.2,0-0.1-0.1-0.2
			l0.7-0.9c0.1-0.2,0.1-0.4,0-0.6c0,0-0.3-0.5-0.9-1.1s-1-0.9-1.1-0.9c-0.2-0.1-0.4-0.1-0.6,0l-0.9,0.7C58.5,50,58.5,50,58.4,50
			l-0.2-1.1c0-0.2-0.2-0.4-0.4-0.4c0,0-0.5-0.2-1.4-0.2c-0.9,0-1.4,0.2-1.4,0.2C54.9,48.5,54.7,48.7,54.7,48.9z M59.8,54.9
			c0,1.8-1.5,3.3-3.3,3.3c-1.8,0-3.3-1.5-3.3-3.3c0-1.8,1.5-3.3,3.3-3.3C58.3,51.6,59.8,53.1,59.8,54.9z"/>
		<path d="M71.4,79.7l2.1-0.4l0.1-0.1l6.2-5.9l1.3-1.1c0.4-0.4,0.4-1,0-1.4l-0.6-0.6c-0.4-0.4-1-0.4-1.4,0l-1.3,1.1l-6.2,5.9l0,0
			L71,79.3C71,79.5,71.2,79.7,71.4,79.7z"/>
		<rect x="36.8" y="31.3" width="14.2" height="2.8"/>
		<path d="M36.8,39.8h8.5c1.6-1.2,3.4-2.1,5.3-2.7c0.1,0,0.2-0.1,0.3-0.1V37H36.8V39.8z"/>
		<path d="M6.7,54.2C6.7,54.2,6.7,54.2,6.7,54.2c0.1,0.2,0.2,0.4,0.4,0.7c0,0,0,0,0,0.1c0.1,0.2,0.2,0.4,0.4,0.6c0,0,0,0,0,0.1
			C7.7,55.8,7.8,56,8,56.1c0,0,0,0,0,0c0.6,0.7,1.3,1.4,2.1,1.9c0,0,0.1,0.1,0.1,0.1c0.1,0.1,0.3,0.2,0.5,0.3c0.1,0,0.2,0.1,0.3,0.1
			c0.1,0.1,0.3,0.1,0.4,0.2c0.1,0,0.2,0.1,0.3,0.1c0.1,0.1,0.3,0.1,0.4,0.2c0.1,0,0.3,0.1,0.4,0.1c0.1,0,0.3,0.1,0.4,0.1
			c0.1,0,0.3,0.1,0.4,0.1c0.1,0,0.3,0.1,0.4,0.1c0.2,0,0.3,0.1,0.5,0.1c0.1,0,0.2,0,0.3,0c0.3,0,0.5,0,0.8,0c0,0,0,0,0,0h0h0h0h23.2
			c-0.3-0.9-0.5-1.9-0.6-2.8H15.4c-0.3,0-0.6,0-1-0.1c-0.1,0-0.1,0-0.2,0c-0.6-0.1-1.2-0.3-1.8-0.6c0,0-0.1,0-0.1-0.1
			c-0.6-0.3-1.1-0.7-1.6-1.1c0,0,0,0,0,0C10,54.3,9.4,53.4,9,52.5c0,0,0,0,0,0c-0.3-0.8-0.5-1.7-0.5-2.6v-8.3V29.7
			c0-3.8,3.1-6.9,6.9-6.9h8h26.4c0.3,0,0.6,0,1,0.1c0.1,0,0.1,0,0.2,0c0.6,0.1,1.2,0.3,1.8,0.6c0,0,0.1,0,0.1,0.1
			c0.6,0.3,1.1,0.7,1.6,1.1c0,0,0,0,0,0c0.7,0.7,1.3,1.5,1.7,2.5c0,0,0,0,0,0c0.3,0.8,0.5,1.7,0.5,2.6v6.6c1,0,1.9,0.1,2.8,0.3v-6.9
			v0c0-0.4,0-0.9-0.1-1.3c-0.1-1.1-0.5-2.1-0.9-3c0,0,0,0,0,0c-0.1-0.2-0.2-0.4-0.3-0.6c0,0,0,0,0-0.1c-0.1-0.2-0.2-0.4-0.4-0.6
			c0,0,0,0,0-0.1c-0.1-0.2-0.3-0.4-0.4-0.6c0,0,0,0,0,0c-0.6-0.7-1.3-1.4-2.1-1.9c0,0-0.1-0.1-0.1-0.1c-0.1-0.1-0.3-0.2-0.5-0.3
			c-0.1,0-0.2-0.1-0.3-0.1c-0.1-0.1-0.3-0.1-0.4-0.2c-0.1,0-0.2-0.1-0.3-0.1c-0.1-0.1-0.3-0.1-0.4-0.2c-0.1,0-0.3-0.1-0.4-0.1
			c-0.1,0-0.3-0.1-0.4-0.1c-0.1,0-0.3-0.1-0.4-0.1c-0.1,0-0.3-0.1-0.4-0.1c-0.2,0-0.3-0.1-0.5-0.1c-0.1,0-0.2,0-0.3,0
			c-0.3,0-0.5,0-0.8,0c0,0,0,0,0,0h0h0h0H24.5h0h-4h-5.1c-5.4,0-9.7,4.4-9.7,9.7v11.9v8.3v0c0,0.4,0,0.9,0.1,1.3
			C5.9,52.3,6.2,53.3,6.7,54.2z"/>
		<path d="M14.2,45.8v4.8c0,0.3,0,1.1,0.6,1.8c0.3,0.4,1,0.8,2,0.8h14.6c1,0,1.7-0.4,2-0.8c0.6-0.7,0.6-1.5,0.6-1.8v-4.8
			c0-1.9-0.5-3.8-1.7-4.9C30.6,39.1,28,39,27.7,39c0,0,0,0,0,0h-7.1c0,0,0,0,0,0c-0.4,0-2.9,0.1-4.7,1.9
			C14.7,42,14.1,43.9,14.2,45.8z M17,45.8c0-1.1,0.3-2.3,0.8-2.9c1-1,2.7-1,2.7-1h7.1c0,0,1.7,0,2.7,1c0.6,0.6,0.8,1.8,0.8,2.9V50
			c0,0.2-0.1,0.3-0.3,0.3h-2.2c-0.2,0-0.3-0.1-0.3-0.3v-5.4h-2.8V50c0,0.2-0.1,0.3-0.3,0.3H23c-0.2,0-0.3-0.1-0.3-0.3v-5.4h-2.8V50
			c0,0.2-0.1,0.3-0.3,0.3h-2.2c-0.2,0-0.3-0.1-0.3-0.3V45.8z"/>
		<path d="M24.1,36.1c2.7,0,4.9-2.2,4.9-4.9s-2.2-4.9-4.9-4.9s-4.9,2.2-4.9,4.9S21.4,36.1,24.1,36.1z M24.1,29.1
			c1.1,0,2.1,0.9,2.1,2.1c0,1.1-0.9,2.1-2.1,2.1S22,32.3,22,31.1C22,30,23,29.1,24.1,29.1z"/>
	</g>
</g>
<g id="Rahmen">
	<rect y="0" class="st0" width="102" height="102"/>
	<rect x="0" y="0" class="st0" width="102" height="102"/>
</g>
<g id="Schutzzone" class="st1">
	<g class="st2">
		<rect y="0" class="st3" width="102" height="5.7"/>
		<rect x="0" y="96.4" class="st3" width="102" height="5.7"/>
		
			<rect x="-48.2" y="48.2" transform="matrix(-1.836970e-16 1 -1 -1.836970e-16 53.8573 48.1827)" class="st3" width="102" height="5.7"/>
		
			<rect x="48.2" y="48.2" transform="matrix(-1.836970e-16 1 -1 -1.836970e-16 150.2365 -48.1893)" class="st3" width="102" height="5.7"/>
	</g>
	<polygon class="st4" points="101.7,43.3 107.3,43.3 107.3,37.7 	"/>
</g>
</svg>
