<?xml version="1.0" encoding="utf-8"?>
<!-- Generator: Adobe Illustrator 24.0.1, SVG Export Plug-In . SVG Version: 6.00 Build 0)  -->
<svg version="1.1" xmlns="http://www.w3.org/2000/svg" xmlns:xlink="http://www.w3.org/1999/xlink" x="0px" y="0px"
	 viewBox="0 0 102 102" style="enable-background:new 0 0 102 102;" xml:space="preserve">
<style type="text/css">
	.st0{fill:none;}
	.st1{display:none;}
	.st2{display:inline;}
	.st3{opacity:0.4;fill:#7BCDEF;}
	.st4{display:inline;fill:#7BCDEF;}
</style>
<g id="_x30_23-purpose-other">
	<g>
		<path class="st0" d="M27.7,41.8h-7.1c0,0-1.7,0-2.7,1c-0.6,0.6-0.9,1.8-0.8,2.9V50c0,0.2,0.1,0.3,0.3,0.3h2.2
			c0.2,0,0.3-0.1,0.3-0.3v-5.4h2.8V50c0,0.2,0.1,0.3,0.3,0.3h2.2c0.2,0,0.3-0.1,0.3-0.3v-5.4h2.8V50c0,0.2,0.1,0.3,0.3,0.3h2.2
			c0.2,0,0.3-0.1,0.3-0.3v-4.2c0-1.1-0.2-2.3-0.8-2.9C29.4,41.9,27.7,41.8,27.7,41.8z"/>
		<path class="st0" d="M80.5,66.2c-1.4-0.7-3-1.1-4.5-1.1c-1,0-1.9,0.1-2.9,0.4c-2.5,0.8-4.5,2.5-5.7,4.7c-1.2,2.3-1.5,4.9-0.7,7.4
			c0.8,2.5,2.5,4.5,4.7,5.7c2.3,1.2,4.9,1.5,7.4,0.7c5.1-1.6,8-7,6.4-12.1C84.4,69.4,82.8,67.4,80.5,66.2z M81,72.2l-1.3,1.1
			l-6.2,5.9l-0.1,0.1l-2.1,0.4c-0.2,0-0.4-0.1-0.3-0.4l0.5-2.1l0,0l6.2-5.9l1.3-1.1c0.4-0.4,1-0.4,1.4,0l0.6,0.6
			C81.4,71.1,81.4,71.8,81,72.2z"/>
		<path class="st0" d="M24.1,33.2c1.1,0,2.1-0.9,2.1-2.1c0-1.1-0.9-2.1-2.1-2.1S22,30,22,31.1C22,32.3,23,33.2,24.1,33.2z"/>
		<path class="st0" d="M83.5,38.3c-0.9,0-1.9,0.1-2.9,0.4c-2.5,0.8-4.5,2.5-5.7,4.7c-1.2,2.3-1.5,4.9-0.7,7.4c1.6,5.1,7,8,12.1,6.4
			c5.1-1.6,8-7,6.4-12.1C91.5,41,87.6,38.3,83.5,38.3z M87.9,53.6c0,0.2-0.1,0.3-0.3,0.3H85h-2.8h-2.5c-0.2,0-0.3-0.1-0.3-0.3V42.8
			c0-0.2,0.1-0.3,0.3-0.3h2.3c0.2,0,0.3,0.1,0.3,0.3v2.3c0,0.2,0.1,0.3,0.3,0.3h2.3c0.2,0,0.3,0.1,0.3,0.3v2.3
			c0,0.2,0.1,0.3,0.3,0.3h2.3c0.2,0,0.3,0.1,0.3,0.3V53.6z"/>
		<path d="M67.6,60.8c1.6-3,1.9-6.4,0.9-9.6c-0.8-2.5-2.2-4.6-4.1-6.1l-1.8,2.2c1.5,1.2,2.6,2.8,3.2,4.7c0.8,2.5,0.5,5.1-0.7,7.4
			c-1.2,2.3-3.2,4-5.7,4.7c-2.5,0.8-5.1,0.5-7.4-0.7c-0.6-0.3-1.2-0.7-1.7-1.1l-1.8,2.2c0.7,0.5,1.4,1,2.1,1.4
			c1.8,1,3.8,1.5,5.8,1.5c1.2,0,2.5-0.2,3.7-0.6C63.4,65.9,66,63.7,67.6,60.8z"/>
		<path d="M81.8,63.7c-3-1.6-6.4-1.9-9.6-0.9c-3.2,1-5.8,3.2-7.4,6.1c-1.6,3-1.9,6.4-0.9,9.6c1,3.2,3.2,5.8,6.1,7.4
			c1.8,1,3.8,1.5,5.8,1.5c1.2,0,2.5-0.2,3.7-0.6c6.6-2,10.3-9.1,8.3-15.7C86.9,67.9,84.8,65.3,81.8,63.7z M78.8,84.1
			c-2.5,0.8-5.1,0.5-7.4-0.7c-2.3-1.2-4-3.2-4.7-5.7c-0.8-2.5-0.5-5.1,0.7-7.4c1.2-2.3,3.2-4,5.7-4.7c0.9-0.3,1.9-0.4,2.9-0.4
			c1.6,0,3.1,0.4,4.5,1.1c2.3,1.2,4,3.2,4.7,5.7C86.8,77,83.9,82.5,78.8,84.1z"/>
		<path d="M79.8,36c-3.2,1-5.8,3.2-7.4,6.1c-1.6,3-1.9,6.4-0.9,9.6c1.7,5.4,6.6,8.8,12,8.8c1.2,0,2.5-0.2,3.7-0.6
			c6.6-2,10.3-9.1,8.3-15.7C93.4,37.7,86.4,34,79.8,36z M86.4,57.3c-5.1,1.6-10.6-1.3-12.1-6.4c-0.8-2.5-0.5-5.1,0.7-7.4
			c1.2-2.3,3.2-4,5.7-4.7c1-0.3,1.9-0.4,2.9-0.4c4.1,0,8,2.7,9.3,6.8C94.4,50.2,91.5,55.7,86.4,57.3z"/>
		<path d="M87.6,48.2h-2.3c-0.2,0-0.3-0.1-0.3-0.3v-2.3c0-0.2-0.1-0.3-0.3-0.3h-2.3c-0.2,0-0.3-0.1-0.3-0.3v-2.3
			c0-0.2-0.1-0.3-0.3-0.3h-2.3c-0.2,0-0.3,0.1-0.3,0.3v10.8c0,0.2,0.1,0.3,0.3,0.3h2.5H85h2.5c0.2,0,0.3-0.1,0.3-0.3v-5.1
			C87.9,48.3,87.7,48.2,87.6,48.2z"/>
		<path d="M53.5,60.4l0.9-0.7c0.2,0.1,0.1,0.1,0.3,0.1l0.1,1.1c0,0.2,0.2,0.4,0.4,0.4c0,0,0.5,0.2,1.4,0.2c0.9,0,1.4-0.2,1.4-0.2
			c0.2-0.1,0.3-0.2,0.4-0.4l0.2-1.1c0.2-0.1,0.1,0,0.2-0.1l0.9,0.7c0.2,0.1,0.4,0.1,0.6,0c0,0,0.5-0.3,1.1-0.9s0.9-1,0.9-1.1
			c0.1-0.2,0.1-0.4,0-0.6L61.3,57c0.1-0.2,0.1-0.1,0.1-0.2l1.1-0.2c0.2,0,0.4-0.2,0.4-0.4c0,0,0.2-0.5,0.2-1.4
			c0-0.9-0.2-1.4-0.2-1.4c-0.1-0.2-0.2-0.3-0.4-0.4L61.4,53c-0.1-0.2,0-0.1-0.1-0.2l0.7-0.9c0.1-0.2,0.1-0.4,0-0.6
			c0,0-0.3-0.5-0.9-1.1c-0.2-0.2-0.4-0.4-0.6-0.5l-2.1,2.6c0.8,0.6,1.3,1.5,1.3,2.6c0,1.8-1.5,3.3-3.3,3.3c-0.8,0-1.6-0.3-2.1-0.8
			l-2.1,2.6c0.4,0.3,0.6,0.5,0.7,0.5C53.1,60.5,53.3,60.5,53.5,60.4z"/>
		<path d="M80.4,70.1c-0.4-0.4-1-0.4-1.4,0l-1.3,1.1l-6.2,5.9l0,0L71,79.3c0,0.2,0.1,0.4,0.3,0.4l2.1-0.4l0.1-0.1l6.2-5.9l1.3-1.1
			c0.4-0.4,0.4-1,0-1.4L80.4,70.1z"/>
		<rect x="36.8" y="31.3" width="14.2" height="2.8"/>
		<path d="M36.8,39.8h8.5c1.6-1.2,3.4-2.1,5.3-2.7c0.1,0,0.2-0.1,0.3-0.1V37H36.8V39.8z"/>
		<path d="M15.4,56.8c-0.3,0-0.6,0-1-0.1c-0.1,0-0.1,0-0.2,0c-0.6-0.1-1.2-0.3-1.8-0.6c0,0-0.1,0-0.1-0.1c-0.6-0.3-1.1-0.7-1.6-1.1
			c0,0,0,0,0,0C10,54.3,9.4,53.4,9,52.5c0,0,0,0,0,0c-0.3-0.8-0.5-1.7-0.5-2.6v-8.3V29.7c0-3.8,3.1-6.9,6.9-6.9h8h26.4
			c0.3,0,0.6,0,1,0.1c0.1,0,0.1,0,0.2,0c0.6,0.1,1.2,0.3,1.8,0.6c0,0,0.1,0,0.1,0.1c0.6,0.3,1.1,0.7,1.6,1.1c0,0,0,0,0,0
			c0.7,0.7,1.3,1.5,1.7,2.5c0,0,0,0,0,0c0.3,0.8,0.5,1.7,0.5,2.6v3.9l2.8-3.5v-0.4v0c0-0.4,0-0.9-0.1-1.3c-0.1-1.1-0.5-2.1-0.9-3
			c0,0,0,0,0,0c-0.1-0.2-0.2-0.4-0.3-0.6c0,0,0,0,0-0.1c-0.1-0.2-0.2-0.4-0.4-0.6c0,0,0,0,0-0.1c-0.1-0.2-0.3-0.4-0.4-0.6
			c0,0,0,0,0,0c-0.6-0.7-1.3-1.4-2.1-1.9c0,0-0.1-0.1-0.1-0.1c-0.1-0.1-0.3-0.2-0.5-0.3c-0.1,0-0.2-0.1-0.3-0.1
			c-0.1-0.1-0.3-0.1-0.4-0.2c-0.1,0-0.2-0.1-0.3-0.1c-0.1-0.1-0.3-0.1-0.4-0.2c-0.1,0-0.3-0.1-0.4-0.1c-0.1,0-0.3-0.1-0.4-0.1
			c-0.1,0-0.3-0.1-0.4-0.1c-0.1,0-0.3-0.1-0.4-0.1c-0.2,0-0.3-0.1-0.5-0.1c-0.1,0-0.2,0-0.3,0c-0.3,0-0.5,0-0.8,0c0,0,0,0,0,0h0h0h0
			H24.5h0h-4h-5.1c-5.4,0-9.7,4.4-9.7,9.7v11.9v8.3v0c0,0.4,0,0.9,0.1,1.3c0.1,1.1,0.5,2.1,0.9,3c0,0,0,0,0,0
			c0.1,0.2,0.2,0.4,0.3,0.6c0,0,0,0,0,0.1c0.1,0.2,0.2,0.4,0.4,0.6c0,0,0,0,0,0.1C7.7,55.8,7.8,56,8,56.1c0,0,0,0,0,0
			c0.6,0.7,1.3,1.4,2.1,1.9c0,0,0.1,0.1,0.1,0.1c0.1,0.1,0.3,0.2,0.5,0.3c0.1,0,0.2,0.1,0.3,0.1c0.1,0.1,0.3,0.1,0.4,0.2
			c0.1,0,0.2,0.1,0.3,0.1c0.1,0.1,0.3,0.1,0.4,0.2c0.1,0,0.3,0.1,0.4,0.1c0.1,0,0.3,0.1,0.4,0.1c0.1,0,0.3,0.1,0.4,0.1
			c0.1,0,0.3,0.1,0.4,0.1c0.2,0,0.3,0.1,0.5,0.1c0.1,0,0.2,0,0.3,0c0.3,0,0.5,0,0.8,0c0,0,0,0,0,0h0h0h0h20.1l2.3-2.8H15.4z"/>
		<path d="M27.7,39C27.7,39,27.7,39,27.7,39h-7.1c0,0,0,0,0,0c-0.4,0-2.9,0.1-4.7,1.9c-1.1,1.1-1.7,3.1-1.7,4.9v4.8
			c0,0.3,0,1.1,0.6,1.8c0.3,0.4,1,0.8,2,0.8h14.6c1,0,1.7-0.4,2-0.8c0.6-0.7,0.6-1.5,0.6-1.8v-4.8c0-1.9-0.5-3.8-1.7-4.9
			C30.6,39.1,28,39,27.7,39z M31.2,50c0,0.2-0.1,0.3-0.3,0.3h-2.2c-0.2,0-0.3-0.1-0.3-0.3v-5.4h-2.8V50c0,0.2-0.1,0.3-0.3,0.3H23
			c-0.2,0-0.3-0.1-0.3-0.3v-5.4h-2.8V50c0,0.2-0.1,0.3-0.3,0.3h-2.2c-0.2,0-0.3-0.1-0.3-0.3v-4.3c0-1.1,0.3-2.3,0.8-2.9
			c1-1,2.7-1,2.7-1h7.1c0,0,1.7,0,2.7,1c0.6,0.6,0.8,1.8,0.8,2.9V50z"/>
		<path d="M24.1,36.1c2.7,0,4.9-2.2,4.9-4.9s-2.2-4.9-4.9-4.9s-4.9,2.2-4.9,4.9S21.4,36.1,24.1,36.1z M24.1,29.1
			c1.1,0,2.1,0.9,2.1,2.1c0,1.1-0.9,2.1-2.1,2.1S22,32.3,22,31.1C22,30,23,29.1,24.1,29.1z"/>
	</g>
</g>
<g id="Ebene_4">
	<rect x="49.6" y="-6.3" transform="matrix(0.7756 0.6313 -0.6313 0.7756 43.6815 -20.7076)" width="2.8" height="114.8"/>
</g>
<g id="Rahmen">
	<rect y="0" class="st0" width="102" height="102"/>
</g>
<g id="Schutzzone" class="st1">
	<g class="st2">
		<rect y="0" class="st3" width="102" height="5.7"/>
		<rect x="0" y="96.4" class="st3" width="102" height="5.7"/>
		
			<rect x="-48.2" y="48.2" transform="matrix(-1.836970e-16 1 -1 -1.836970e-16 53.8573 48.1827)" class="st3" width="102" height="5.7"/>
		
			<rect x="48.2" y="48.2" transform="matrix(-1.836970e-16 1 -1 -1.836970e-16 150.2365 -48.1893)" class="st3" width="102" height="5.7"/>
	</g>
	<polygon class="st4" points="101.7,43.3 107.3,43.3 107.3,37.7 	"/>
</g>
</svg>
