<?xml version="1.0" encoding="utf-8"?>
<!-- Generator: Adobe Illustrator 24.0.1, SVG Export Plug-In . SVG Version: 6.00 Build 0)  -->
<svg version="1.1" xmlns="http://www.w3.org/2000/svg" xmlns:xlink="http://www.w3.org/1999/xlink" x="0px" y="0px"
	 viewBox="0 0 102 102" style="enable-background:new 0 0 102 102;" xml:space="preserve">
<style type="text/css">
	.st0{fill:none;}
	.st1{display:none;}
	.st2{display:inline;}
	.st3{opacity:0.4;fill:#7BCDEF;}
</style>
<g id="_x30_31-cross_x5F_border-ch">
	<g>
		<path class="st0" d="M59.5,23c0-0.1-0.1-0.3-0.3-0.3H42.8c-0.2,0-0.3,0.1-0.3,0.3v18.5c0,0.6-0.4,1-1,1l-18.6-0.1
			c-0.2,0-0.3,0.1-0.3,0.3v16.5c0,0.2,0.1,0.3,0.3,0.3l12.7,0l23.9-29.4V23z"/>
		<path class="st0" d="M42.5,79.1c0,0.1,0.1,0.3,0.3,0.3h16.5c0.1,0,0.3-0.1,0.3-0.3V60.6c0-0.6,0.4-1,1-1H79c0.1,0,0.3-0.1,0.3-0.3
			V42.8c0-0.1-0.1-0.3-0.3-0.3H66.4L42.5,71.9V79.1z"/>
		<path d="M22.9,59.5c-0.2,0-0.3-0.1-0.3-0.3V42.7c0-0.2,0.1-0.3,0.3-0.3l18.6,0.1c0.5,0,1-0.5,1-1V23c0-0.2,0.1-0.3,0.3-0.3h16.5
			c0.1,0,0.3,0.1,0.3,0.3v7.1l2.8-3.4v-5.8c0-0.6-0.4-1-1-1H40.7c-0.5,0-1,0.5-1,1v18.5c0,0.1-0.1,0.3-0.3,0.3H20.8
			c-0.5,0-1,0.5-1,1v20.6c0,0.6,0.4,1,1,1h12.5l2.3-2.9L22.9,59.5z"/>
		<path d="M81.2,39.7H68.7l-2.3,2.8H79c0.1,0,0.3,0.1,0.3,0.3v16.5c0,0.1-0.1,0.3-0.3,0.3H60.5c-0.5,0-1,0.5-1,1v18.6
			c0,0.1-0.1,0.3-0.3,0.3H42.8c-0.1,0-0.3-0.1-0.3-0.3v-7.2l-2.8,3.4v5.8c0,0.6,0.4,1,1,1h20.6c0.5,0,1-0.5,1-1V62.6
			c0-0.1,0.1-0.3,0.3-0.3h18.6c0.5,0,1-0.5,1-1V40.7C82.2,40.1,81.7,39.7,81.2,39.7z"/>
	</g>
</g>
<g id="Ebene_4">
	<rect x="49.6" y="-6.3" transform="matrix(0.7756 0.6313 -0.6313 0.7756 43.6815 -20.7076)" width="2.8" height="114.8"/>
</g>
<g id="Rahmen">
	<rect x="0" y="0.8" class="st0" width="102" height="102"/>
</g>
<g id="Schutzzone" class="st1">
	<g class="st2">
		<rect x="0" y="0" class="st3" width="102" height="8.5"/>
		<rect x="0" y="96.4" class="st3" width="102" height="5.7"/>
		
			<rect x="-48.2" y="48.2" transform="matrix(-1.836970e-16 1 -1 -1.836970e-16 53.8573 48.1827)" class="st3" width="102" height="5.7"/>
		
			<rect x="48.2" y="48.2" transform="matrix(-1.836970e-16 1 -1 -1.836970e-16 150.2365 -48.1893)" class="st3" width="102" height="5.7"/>
	</g>
</g>
</svg>
