<?xml version="1.0" encoding="utf-8"?>
<!-- Generator: Adobe Illustrator 24.0.1, SVG Export Plug-In . SVG Version: 6.00 Build 0)  -->
<svg version="1.1" xmlns="http://www.w3.org/2000/svg" xmlns:xlink="http://www.w3.org/1999/xlink" x="0px" y="0px"
	 viewBox="0 0 102 102" style="enable-background:new 0 0 102 102;" xml:space="preserve">
<style type="text/css">
	.st0{fill:none;}
	.st1{display:none;}
	.st2{display:inline;}
	.st3{opacity:0.4;fill:#7BCDEF;}
	.st4{display:inline;fill:none;}
</style>
<g id="_x30_32-cross_x5F_border-ch_x5F_eu">
	<g>
		<path class="st0" d="M75.2,49.7l-0.6-1.3l-0.6,1.3c-0.2,0.4-0.6,0.7-1.1,0.8l-1.4,0.2l1,1c0.3,0.3,0.5,0.8,0.4,1.3l-0.2,1.4
			l1.3-0.7c0.2-0.1,0.4-0.2,0.7-0.2s0.5,0.1,0.7,0.2l1.3,0.7l-0.2-1.4c-0.1-0.5,0.1-0.9,0.4-1.3l1-1l-1.4-0.2
			C75.8,50.4,75.4,50.1,75.2,49.7z"/>
		<path class="st0" d="M67.3,66.1l-0.6-1.3L66,66.1c-0.2,0.4-0.6,0.7-1.1,0.8l-1.4,0.2l1,1c0.3,0.3,0.5,0.8,0.4,1.3l-0.2,1.4
			l1.3-0.7c0.4-0.2,0.9-0.2,1.3,0l1.3,0.7l-0.2-1.4c-0.1-0.5,0.1-0.9,0.4-1.3l1-1l-1.4-0.2C67.9,66.8,67.5,66.5,67.3,66.1z"/>
		<path d="M57.3,72.1l-3.5-0.5l-1.4-2.9v-4.2h-2.8v6h0.6l0.8,1.7l0.6,1.3c0.2,0.4,0.6,0.7,1.1,0.8l1.4,0.2l-1,1
			c-0.3,0.3-0.5,0.8-0.4,1.3l0.2,1.4l-1.3-0.7c-0.2-0.1-0.4-0.2-0.7-0.2s-0.5,0.1-0.7,0.2L49,78.2l-2.2,1.2h-3.9
			c-0.2,0-0.3-0.1-0.3-0.3v-7.2l-2.8,3.4v5.8c0,0.6,0.4,1,1,1H51v-1.8l3.1,1.6c0.5,0.2,1.1,0.2,1.5-0.1c0.4-0.3,0.7-0.9,0.6-1.4
			L55.5,77l2.6-2.5c0.4-0.4,0.5-0.9,0.4-1.5C58.3,72.6,57.9,72.2,57.3,72.1z"/>
		<path d="M22.9,59.5c-0.2,0-0.3-0.1-0.3-0.3V42.7c0-0.2,0.1-0.3,0.3-0.3l18.6,0.1c0.5,0,1-0.5,1-1V23c0-0.2,0.1-0.3,0.3-0.3h6.7
			l2.2,3.2c0.2,0.3,0.6,0.5,1,0.6l1.4,0.2l-1,1c-0.3,0.3-0.5,0.8-0.4,1.3l0.2,1.4l-1.3-0.7c-0.4-0.2-1-0.2-1.4,0
			c-0.4,0.3-0.7,0.7-0.7,1.2v0.5v2.1v3.9h2.8v-3.9v-0.3l1.8,0.9c0.2,0.1,0.4,0.2,0.7,0.2c0.3,0,0.6-0.1,0.8-0.3
			c0.4-0.3,0.7-0.9,0.6-1.4l-0.6-3.5l2.6-2.5c0.4-0.4,0.5-0.9,0.4-1.5c-0.2-0.5-0.6-0.9-1.1-1l-3.7-0.5L51,19.9l0,0H40.7
			c-0.5,0-1,0.5-1,1v18.5c0,0.2-0.1,0.3-0.3,0.3H20.8c-0.5,0-1,0.5-1,1v20.6c0,0.6,0.4,1,1,1h12.5l2.3-2.9L22.9,59.5z"/>
		<path d="M67.9,40.7l2,1c0.2,0.1,0.4,0.2,0.7,0.2c0.3,0,0.6-0.1,0.8-0.3c0.4-0.3,0.7-0.9,0.6-1.4l-0.6-3.5l0,0l-0.1-0.1L67.9,40.7z
			"/>
		<path d="M81,48.3l-3.5-0.5l-1.6-3.2c-0.2-0.5-0.7-0.8-1.3-0.8s-1,0.3-1.3,0.8l-1.6,3.2l-3.5,0.5c-0.5,0.1-1,0.5-1.1,1
			c-0.2,0.5,0,1.1,0.4,1.5l2.6,2.5l-0.6,3.5c-0.1,0.5,0.1,1.1,0.6,1.4c0.2,0.2,0.5,0.3,0.8,0.3c0.2,0,0.5-0.1,0.7-0.2l3.2-1.7
			l3.2,1.7c0.5,0.2,1.1,0.2,1.5-0.1c0.4-0.3,0.7-0.9,0.6-1.4l-0.6-3.5l2.6-2.5c0.4-0.4,0.5-0.9,0.4-1.5C82,48.7,81.5,48.4,81,48.3z
			 M76.7,51.7c-0.3,0.3-0.5,0.8-0.4,1.3l0.2,1.4l-1.3-0.7c-0.2-0.1-0.4-0.2-0.7-0.2s-0.5,0.1-0.7,0.2l-1.3,0.7l0.2-1.4
			c0.1-0.5-0.1-0.9-0.4-1.3l-1-1l1.4-0.2c0.5-0.1,0.9-0.4,1.1-0.8l0.6-1.3l0.6,1.3c0.2,0.4,0.6,0.7,1.1,0.8l1.4,0.2L76.7,51.7z"/>
		<path d="M73.1,64.7l-3.5-0.5L67.9,61c-0.2-0.5-0.7-0.8-1.3-0.8s-1,0.3-1.3,0.8l-1.6,3.2l-3.5,0.5c-0.5,0.1-1,0.5-1.1,1
			c-0.2,0.5,0,1.1,0.4,1.5l2.6,2.5l-0.6,3.5c-0.1,0.5,0.1,1.1,0.6,1.4c0.2,0.2,0.5,0.3,0.8,0.3c0.2,0,0.5-0.1,0.7-0.2l3.2-1.7
			l3.2,1.7c0.5,0.2,1.1,0.2,1.5-0.1c0.4-0.3,0.7-0.9,0.6-1.4l-0.6-3.5l2.6-2.5c0.4-0.4,0.5-0.9,0.4-1.5
			C74.1,65.2,73.6,64.8,73.1,64.7z M68.8,68.1c-0.3,0.3-0.5,0.8-0.4,1.3l0.2,1.4l-1.3-0.7c-0.4-0.2-0.9-0.2-1.3,0l-1.3,0.7l0.2-1.4
			c0.1-0.5-0.1-0.9-0.4-1.3l-1-1l1.4-0.2c0.5-0.1,0.9-0.4,1.1-0.8l0.6-1.3l0.6,1.3c0.2,0.4,0.6,0.7,1.1,0.8l1.4,0.2L68.8,68.1z"/>
	</g>
</g>
<g id="Ebene_4">
	<rect x="49.6" y="-6.3" transform="matrix(0.7756 0.6313 -0.6313 0.7756 43.6815 -20.7076)" width="2.8" height="114.8"/>
</g>
<g id="Rahmen">
	<rect x="0" y="0" class="st0" width="102" height="102"/>
</g>
<g id="Schutzzone" class="st1">
	<g class="st2">
		<rect y="0" class="st3" width="102" height="5.7"/>
		<rect x="0" y="96.4" class="st3" width="102" height="5.7"/>
		
			<rect x="-48.2" y="48.2" transform="matrix(-1.836970e-16 1 -1 -1.836970e-16 53.8573 48.1827)" class="st3" width="102" height="5.7"/>
		
			<rect x="48.2" y="48.2" transform="matrix(-1.836970e-16 1 -1 -1.836970e-16 150.2365 -48.1893)" class="st3" width="102" height="5.7"/>
	</g>
	<rect y="0" class="st4" width="102" height="102"/>
</g>
</svg>
