<?xml version="1.0" encoding="utf-8"?>
<!-- Generator: Adobe Illustrator 24.3.0, SVG Export Plug-In . SVG Version: 6.00 Build 0)  -->
<svg version="1.1" id="Ebene_1" xmlns="http://www.w3.org/2000/svg" xmlns:xlink="http://www.w3.org/1999/xlink" x="0px" y="0px"
	 viewBox="0 0 102 102" style="enable-background:new 0 0 102 102;" xml:space="preserve">
<style type="text/css">
	.st0{fill:none;}
	.st1{display:none;}
	.st2{display:inline;}
	.st3{opacity:0.4;fill:#7BCDEF;enable-background:new    ;}
	.st4{fill:#1A171B;}
</style>
<g id="Rahmen">
	<rect y="0" class="st0" width="102" height="102"/>
	<rect y="0" class="st0" width="102" height="102"/>
</g>
<g id="Schutzzone" class="st1">
	<g class="st2">
		<rect y="0" class="st3" width="102" height="5.7"/>
		<rect y="96.4" class="st3" width="102" height="5.7"/>
		<rect y="0" class="st3" width="5.7" height="102"/>
		<rect x="96.3" y="0" class="st3" width="5.7" height="102"/>
	</g>
</g>
<path class="st4" d="M51.2,14.1c-7.1,0-13.7,2-19.3,5.5c-0.6,0.4-1.3,0.8-1.9,1.2c-8,5.6-13.7,14.4-15.2,24.5
	c-0.2,1.6-0.4,3.2-0.4,4.8c0,0.3,0,0.6,0,0.8c0,1,0.1,2.1,0.1,3.1c0.1,1.5,0.3,3,0.7,4.5c3.5,16.7,18.3,29.2,36.1,29.2
	c20.4,0,36.9-16.5,36.9-36.9S71.6,14.1,51.2,14.1z M84.5,43.3l-0.8,0.4l-1.2,2.8l-1.4-3.7l-2.3-2.5L76.9,40l-2.4-0.5
	c-1,0.2-1.8,1-2.2,2.1l-0.4,5.1L69.7,46l-3.1-2c-0.4-0.3-0.9-0.4-1.4-0.4c-1,0-2.1,0.5-2.6,1.7L62,48.9l2.8,2.6c0.1,0,0.1,0.1,0,0.2
	l-3.2,4.8c0,0,0,0,0,0.1l-0.3,6.9v0.1l-3.7,3.7c0,0-0.1,0.1-0.2,0L55,65.8c0,0-1.2-5.4-1.2-5.5l-1.6-4.4c0-0.1-0.1-0.1-0.1-0.1
	l-6.6-0.6c0,0-2.6-3-2.9-4.9c-0.3-2.1,0.1-3.5,0.7-4.7c0.6-1.2,2.9-3.2,4.4-3.3c0.1,0,0.1,0,0.2,0c1.5,0,4,1.7,4,1.7
	c0.2,0.1,0.5,0.2,0.7,0.2l5.9,0.6c0.1,0,0.2,0,0.3,0c0.6,0,1.1-0.2,1.5-0.5l0.1-2.6L57,41.8L54.5,41l-2.2,0.3l-3-1.3l-0.9-1.8
	l0.8-2.5l2.4-0.5C52.1,34.8,53,34,53,34l1.3-3.5l6.4,1.4c1-0.2,2.1-1,2.3-2.2l1.3-10.4C74.3,23.5,82.1,32.4,84.5,43.3z M31.3,23.2
	l4.9,9.2c0.9,1.3,0.9,3.2-0.1,4.5L34,39.6l-5.9-0.7c-0.1,0-0.1,0-0.2,0c-0.9,0-1.7,0.7-1.7,1.6c0,1.5-1.2,2.6-2.5,2.6
	c-0.1,0-0.2,0-0.3,0l-3.2-0.4c-0.2,0-0.5,0-0.7,0c-0.5,0-1,0.1-1.5,0.2C19.9,34.8,24.7,27.9,31.3,23.2z M17.2,54.2
	c0.5-0.2,1.2-0.7,2.2-1.2l2.2-1.1c0.5-0.3,1.1-0.4,1.7-0.4s1.3,0.2,1.8,0.5l4.5,2.7c0.2,0,0.3,0,0.5,0c1.7,0,4.7,0.4,4.9,3.5
	l0.2,1.1c0,0.1,0,0.1-0.1,0.1c-1.1,0.8-3.7,2.6-4,2.9c0,0,0,0-0.1,0.1c-0.1,0.6-1.5,7.4-1.3,11.7c0,0.6-0.4,1.2-1,1.4
	c-0.1,0-0.2,0-0.2,0c-0.3,0-0.5-0.1-0.6-0.4V75l-1.4-3.8c-0.2-1,0.3-2.5-0.2-3.2l-2.8-5.2c0,0-0.8-1.6-0.9-1.7L19.3,60
	c-0.6-2.1,0.8-2.2-1.2-2.8l-0.5-0.4C17.4,55.9,17.2,55,17.2,54.2z M19.4,63.5l-0.6-1.4c0.1,0.1,2.1,2,2.1,2l2.7,5.7l0.7,2.3L23,70.3
	C23,70.3,20.2,65.4,19.4,63.5z M51.2,85.1c-7.9,0-15.1-2.7-20.9-7.1c1.5-0.8,2.5-2.4,2.5-4.1C32.7,70.8,33.6,66,34,64
	c1-0.7,2.5-1.7,3.3-2.4c0.8-0.6,1.3-1.7,1.1-2.8l-0.2-1c-0.2-3.5-1.8-4.6-3-4.9c-1.3-0.8-3.1-1.1-4.5-1.2l-3.8-2.3
	c-1-0.6-2.2-0.9-3.4-0.9c-1,0-2.2,0.3-3.1,0.8l-2.2,1.1c-0.1,0.1-0.2,0.1-0.3,0.2l-0.3-1c-0.1-0.2-0.2-0.5-0.3-0.7
	c-0.1-0.1-0.2-0.2-0.3-0.3c0-0.7,0.1-1.4,0.2-2.1c0.5-0.6,1.3-1,2.1-1c0.1,0,0.2,0,0.3,0l3.2,0.4c0.2,0,0.4,0,0.7,0
	c2.6,0,4.7-1.7,5.2-4.1l4.7,0.6c0.1,0,0.2,0,0.4,0c0.9,0,1.7-0.4,2.4-1.1l2.1-2.7c1.7-2.3,1.8-5.4,0.3-7.8l-4.9-9.2
	c5.1-3,11-4.8,17.4-4.8c3.5,0,6.9,0.5,10.1,1.5l-1.1,10.4l-5.2-1.1c-0.2,0-0.4-0.1-0.6-0.1c-1.2,0-2.3,0.7-2.8,2l-1,2.8l-0.3,0.3
	c-0.8,0-1.7,0.3-1.7,0.3c-1,0.2-1.8,1-2.2,2l-0.8,2.5c-0.3,0.8-0.2,1.6,0.3,2.4c-2.3,0.8-4.5,2.9-5.3,4.6c-0.9,2.1-1.3,4.1-0.9,6.5
	c0.4,2.6,2.8,5.5,3.5,6.4c0.5,0.6,1.2,0.9,2,1l4.7,0.4c0.1,0,0.1,0,0.1,0.1l0.9,2.6c0.1,0.6,0.7,3.1,1.2,5.3c0.2,0.8,0.7,1.5,1.4,2
	l2.5,1.4c0.4,0.3,0.9,0.4,1.4,0.4c0.7,0,1.5-0.3,2.1-0.8l3.8-3.8c0.5-0.5,0.8-1.2,0.9-2l0.2-6.2c0,0,0,0,0-0.1l2.9-4.3
	c0.8-1.2,0.6-2.8-0.4-3.8L65,47.8c0.1-0.4,0.1-0.8,0.2-1.1l3,2c0.2,0.1,0.4,0.2,0.6,0.3l2.2,0.7c0.3,0.1,0.6,0.2,0.9,0.2
	c0.6,0,1.2-0.2,1.7-0.5c0.8-0.5,1.2-1.4,1.2-2.4c0-1.3,0-2.9,0-3.6c0.1-0.3,0.1-0.6,0.2-0.9l2.7,1.2l1.4,1.8l2.3,4.5l1.4,0.2
	l2.1-2.5h0.3c0.1,1.1,0.2,2.2,0.2,3.3C85.4,69.8,70.1,85.1,51.2,85.1z"/>
</svg>
