<?xml version="1.0" encoding="utf-8"?>
<!-- Generator: Adobe Illustrator 24.3.0, SVG Export Plug-In . SVG Version: 6.00 Build 0)  -->
<svg version="1.1" id="Ebene_1" xmlns="http://www.w3.org/2000/svg" xmlns:xlink="http://www.w3.org/1999/xlink" x="0px" y="0px"
	 viewBox="0 0 102 102" style="enable-background:new 0 0 102 102;" xml:space="preserve">
<style type="text/css">
	.st0{display:none;}
	.st1{display:inline;}
	.st2{opacity:0.4;fill:#7BCDEF;enable-background:new    ;}
	.st3{fill:none;}
	.st4{fill:#1A171B;}
</style>
<g id="Ebene_4">
	<rect x="-6.4" y="49.7" transform="matrix(0.6313 -0.7756 0.7756 0.6313 -20.8512 58.3866)" width="114.8" height="2.8"/>
</g>
<g id="Schutzzone" class="st0">
	<g class="st1">
		<rect y="0" class="st2" width="102" height="5.7"/>
		<rect y="96.4" class="st2" width="102" height="5.7"/>
		<rect x="0" y="0" class="st2" width="5.7" height="102"/>
		<rect x="96.3" y="0" class="st2" width="5.7" height="102"/>
	</g>
</g>
<g id="Rahmen_1_">
	<rect x="0" y="0" class="st3" width="102" height="102"/>
	<rect x="0" y="0" class="st3" width="102" height="102"/>
</g>
<g>
	<path class="st3" d="M20.2,42.6l3.2,0.4c0.1,0,0.2,0,0.3,0c1.2,0,2.5-1,2.5-2.6c0-0.9,0.8-1.6,1.7-1.6c0.1,0,0.1,0,0.2,0l5.9,0.7
		l2.1-2.7c1-1.3,1-3.2,0.1-4.5l-4.9-9.2c-6.5,4.7-11.3,11.6-13.3,19.7c0.5-0.1,1-0.2,1.5-0.2C19.7,42.6,20,42.6,20.2,42.6z"/>
	<path class="st3" d="M20.9,64c0,0-2.1-1.8-2.1-2l0.6,1.4c0.8,1.9,3.6,6.8,3.6,6.8l1.3,1.7l-0.7-2.3L20.9,64z"/>
	<path class="st4" d="M77.5,29.1c3.4,4.1,5.8,8.9,7,14.2l-0.8,0.4l-1.2,2.8l-1.4-3.7l-2.3-2.5L77,40.1l-2.4-0.5
		c-1,0.2-1.8,1-2.2,2.1l-0.4,5.1l-2.2-0.7L66.6,44c-0.3-0.2-0.6-0.3-0.9-0.4l-3.5,4.3l-0.2,1l2.8,2.6c0.1,0,0.1,0.1,0,0.2l-3.2,4.8
		c0,0,0,0,0,0.1l-0.3,6.9v0.1l-3.7,3.7c0,0-0.1,0.1-0.2,0L55,65.8c0,0-1.2-5.4-1.2-5.5l-0.5-1.4l-2.4,3c0.2,1,0.7,2.9,1.1,4.6
		c0.2,0.8,0.7,1.5,1.4,2l2.5,1.4c0.4,0.3,0.9,0.4,1.4,0.4c0.7,0,1.5-0.3,2.1-0.8l3.8-3.8c0.5-0.5,0.8-1.2,0.9-2l0.2-6.2
		c0,0,0,0,0-0.1l2.9-4.3c0.8-1.2,0.6-2.8-0.4-3.8L65,47.8c0.1-0.4,0.1-0.8,0.2-1.1l3,2c0.2,0.1,0.4,0.2,0.6,0.3l2.2,0.7
		c0.3,0.1,0.6,0.2,0.9,0.2c0.6,0,1.2-0.2,1.7-0.5c0.8-0.5,1.2-1.4,1.2-2.4c0-1.3,0-2.9,0-3.6c0.1-0.3,0.1-0.6,0.2-0.9l2.7,1.2
		l1.4,1.8l2.3,4.5l1.4,0.2l2.1-2.5h0.3c0.1,1.1,0.2,2.2,0.2,3.3c0,18.9-15.3,34.2-34.2,34.2c-5.8,0-11.3-1.5-16-4l-1.7,2.1
		c5.3,2.9,11.3,4.6,17.8,4.6c20.4,0,36.9-16.5,36.9-36.9c0-9.1-3.3-17.5-8.9-24L77.5,29.1z"/>
	<path class="st4" d="M51.2,14.1c-7.1,0-13.7,2-19.3,5.5c-0.6,0.4-1.3,0.8-1.9,1.2c-8,5.6-13.7,14.4-15.2,24.5
		c-0.2,1.6-0.4,3.2-0.4,4.8c0,0.3,0,0.6,0,0.8c0,1,0.1,2.1,0.1,3.1c0.1,1.5,0.3,3,0.7,4.5c1.3,6.1,4.1,11.7,8,16.3l3.3-4.1
		c-0.1-1,0.3-2.1-0.2-2.8l-2.8-5.2c0,0-0.8-1.6-0.9-1.7l-3.3-1.1c-0.6-2.1,0.8-2.2-1.2-2.8l-0.5-0.4c-0.1-0.8-0.3-1.7-0.3-2.5
		c0.5-0.2,1.2-0.7,2.2-1.2l2.2-1.1c0.5-0.3,1.1-0.4,1.7-0.4c0.6,0,1.3,0.2,1.8,0.5l4.5,2.7c0.2,0,0.3,0,0.5,0c1.7,0,4.7,0.4,4.9,3.5
		l0.2,1.1c0,0.1,0,0.1-0.1,0.1c-1.1,0.8-3.7,2.6-4,2.9c0,0,0,0-0.1,0.1c0,0.3-0.3,1.6-0.6,3.4l7.5-9.3c-0.5-2.5-1.8-3.4-2.8-3.6
		c-1.3-0.8-3.1-1.1-4.5-1.2l-3.8-2.3c-1-0.6-2.2-0.9-3.4-0.9c-1,0-2.2,0.3-3.1,0.8l-2.2,1.1c-0.1,0.1-0.2,0.1-0.3,0.2l-0.3-1
		c-0.1-0.2-0.2-0.5-0.3-0.7c-0.1-0.1-0.2-0.2-0.3-0.3c0-0.7,0.1-1.4,0.2-2.1c0.5-0.6,1.3-1,2.1-1c0.1,0,0.2,0,0.3,0l3.2,0.4
		c0.2,0,0.4,0,0.7,0c2.6,0,4.7-1.7,5.2-4.1l4.7,0.6c0.1,0,0.2,0,0.4,0c0.9,0,1.7-0.4,2.4-1.1l2.1-2.7c1.7-2.3,1.8-5.4,0.3-7.8
		l-4.9-9.2c5.1-3,11-4.8,17.4-4.8c3.5,0,6.9,0.5,10.1,1.5l-1.1,10.4l-5.2-1.1c-0.2,0-0.4-0.1-0.6-0.1c-1.2,0-2.3,0.7-2.8,2l-1,2.8
		l-0.3,0.3c-0.8,0-1.7,0.3-1.7,0.3c-1,0.2-1.8,1-2.2,2l-0.8,2.5c-0.3,0.8-0.2,1.6,0.3,2.4c-2.3,0.8-4.5,2.9-5.3,4.6
		c-0.9,2.1-1.3,4.1-0.9,6.5c0.1,0.9,0.5,1.9,1,2.8l2.2-2.7c-0.1-0.2-0.1-0.3-0.1-0.5c-0.3-2.1,0.1-3.5,0.7-4.7
		c0.6-1.2,2.9-3.2,4.4-3.3c0.1,0,0.1,0,0.2,0c0.4,0,0.9,0.1,1.4,0.3l1.5-1.9L49.3,40l-0.9-1.8l0.8-2.5l2.4-0.5
		c0.5-0.4,1.4-1.2,1.4-1.2l1.3-3.5l4.2,0.9l2.2,0.5c1-0.2,2.1-1,2.3-2.2l0.5-4.4l0.7-6c1,0.4,2,0.9,3,1.4l1.7-2.1
		C63.6,15.7,57.6,14.1,51.2,14.1z M20.9,64l2.7,5.7l0.7,2.3L23,70.3c0,0-2.8-4.9-3.6-6.8l-0.6-1.4C18.8,62.2,20.9,64,20.9,64z
		 M36.1,32.4c0.9,1.3,0.9,3.2-0.1,4.5L34,39.6l-5.9-0.7c-0.1,0-0.1,0-0.2,0c-0.9,0-1.7,0.7-1.7,1.6c0,1.5-1.2,2.6-2.5,2.6
		c-0.1,0-0.2,0-0.3,0l-3.2-0.4c-0.2,0-0.5,0-0.7,0c-0.5,0-1,0.1-1.5,0.2c2-8,6.8-15,13.3-19.7L36.1,32.4z"/>
</g>
</svg>
