<?xml version="1.0" encoding="utf-8"?>
<!-- Generator: Adobe Illustrator 24.0.1, SVG Export Plug-In . SVG Version: 6.00 Build 0)  -->
<svg version="1.1" xmlns="http://www.w3.org/2000/svg" xmlns:xlink="http://www.w3.org/1999/xlink" x="0px" y="0px"
	 viewBox="0 0 102 102" style="enable-background:new 0 0 102 102;" xml:space="preserve">
<style type="text/css">
	.st0{fill:none;}
	.st1{display:none;}
	.st2{display:inline;fill:#7BCDEF;}
	.st3{display:inline;}
	.st4{opacity:0.4;fill:#7BCDEF;}
</style>
<g id="_x30_41-passing_x5F_on-free_x5F_of_x5F_charge">
</g>
<g id="Ebene_4">
	<rect x="49.6" y="-6.3" transform="matrix(0.7756 0.6313 -0.6313 0.7756 43.6815 -20.7076)" width="2.8" height="114.8"/>
	<g>
		<path d="M21.7,23.8c0.7,2.3,2.2,4.9,3.9,7.3c1.7,2.3,3.6,4.4,5.1,5.5c1.4,1,2.4,2.2,3.1,3.2c0.4,0.5,0.6,0.9,0.7,1.1
			c0.1,0.3,0.2,0.5,0.3,0.8l1.5,2.8c0.2,0.4,0.5,0.7,0.7,1.1c0.1,0.1,0.2,0.2,0.2,0.3c0,0,0.1,0.1,0.1,0.1c0.1,0.1,0.2,0.3,0.3,0.4
			h0c1.3,1.6,2.5,2.5,2.8,2.8c0,0,0,0,0,0c0.3,0.2,0.5,0.3,0.5,0.4l0.1,0.1c0.3,0.1,0.6,0.3,1,0.4l2-2.6c-0.7,0.2-1.4,0-1.6-0.1
			c-0.3-0.2-1.5-1.1-2.8-2.8h0c-0.1-0.1-0.2-0.3-0.3-0.4c-0.5-0.7-1-1.5-1.5-2.4c-0.3-0.6-0.6-1.1-0.8-1.8l-0.1-0.1
			c0-0.1-0.4-0.7-1-1.6c-0.8-1.1-2.1-2.7-3.8-3.9c-1.3-0.9-2.9-2.7-4.4-4.8c-1.5-2.1-2.8-4.4-3.4-6.3c-0.9-2.9-1.1-6.5-1.2-8.9
			l21.6,0l12,13.7c0.1,0.1,0.1,0.1,0.1,0.2l-1.1,6.6l3.5-4.3l0.4-2.5c0.1-0.4,0-0.8-0.3-1L48.4,14.2l2.6,0c0.7,0,1.3-0.6,1.3-1.3
			V5.7l-2.8,0l0,5.5c0,0.2-0.1,0.3-0.3,0.3l-30.6,0c-0.2,0-0.3-0.1-0.3-0.3l0-5.5l-2.8,0V13c0,0.7,0.6,1.3,1.3,1.3l3.6,0
			C20.5,16.8,20.8,20.7,21.7,23.8z"/>
		<path d="M48.4,41.8c-0.1-0.5-0.3-0.9-0.3-0.9c-0.1-0.3-1.1-2.8-3.2-5.7c-0.3-0.4-0.6-0.8-1-1.3c-0.1-0.2-0.2-0.3-0.4-0.5
			c-1.9-2.8-1.8-5.6-1.8-5.7l0,0l0-0.1l-0.1-4.7l-0.1,0l0-0.1l-2.8,0.1l0.1,4.7c0,0.5,0,4,2.4,7.4c0.2,0.2,0.3,0.5,0.5,0.7
			c0.3,0.4,0.6,0.7,0.8,1.1c1.6,2.3,2.7,4.8,2.7,4.8c0.1,0.1,0.1,0.2,0.1,0.2l0,0.1c0,0,0.5,1.2,0.5,2.5c0,0.2,0,0.3,0,0.5
			L48.4,41.8z"/>
		<path d="M31.8,59.6c-0.4,0-2.9,0.1-4.7,1.9c-1.1,1.1-1.7,3.1-1.7,4.9v1.9c0,0.3,0,1.1,0.6,1.8c0.1,0.1,0.2,0.2,0.3,0.3l1.9-2.4
			c0-0.1-0.1-0.1-0.1-0.2v-1.4c0-1.1,0.3-2.3,0.8-2.9c1-1,2.7-1,2.7-1h1.4l2.3-2.8H31.8C31.8,59.6,31.8,59.6,31.8,59.6z"/>
		<polygon points="60.5,53.2 57.7,53.2 55.4,56.1 60.5,56.1 		"/>
		<polygon points="50.8,61.7 60.5,61.7 60.5,58.9 53.1,58.9 		"/>
		<path d="M22.9,74c-0.7-0.7-1.3-1.5-1.7-2.5c0,0,0,0,0,0c-0.3-0.8-0.5-1.7-0.5-2.6v-8.3v-9c0-3.8,3.1-6.9,6.9-6.9h0.2h1.4h4.4
			L32,41.9c0,0,0,0,0-0.1h-4.3h-0.1h0c0,0,0,0,0,0c-5.4,0-9.7,4.4-9.7,9.7v9.1V69v0c0,0.4,0,0.9,0.1,1.3c0.1,1.1,0.5,2.1,0.9,3
			c0,0,0,0,0,0c0.1,0.2,0.2,0.4,0.3,0.6c0,0,0,0,0,0.1c0.1,0.2,0.2,0.4,0.4,0.6c0,0,0,0,0,0.1c0.1,0.2,0.3,0.4,0.4,0.6c0,0,0,0,0,0
			c0.4,0.5,1,1,1.5,1.4l1.8-2.2C23.2,74.4,23.1,74.2,22.9,74C22.9,74.1,22.9,74.1,22.9,74z"/>
		<path d="M63.8,46.6c0.7,0.7,1.3,1.5,1.7,2.5c0,0,0,0,0,0c0.3,0.8,0.5,1.7,0.5,2.6v5.5v10.8c0.3,0.2,0.6,0.4,0.9,0.6l0.1,0l0.1,0
			l1.8,1.3c0-0.3,0-0.6,0-0.9v-8.4l5-0.7c0.1,0,0.2,0,0.2,0.1l15.1,12.5l1.8-2.1l-15.7-13c-0.3-0.2-0.6-0.3-1-0.3l-5.4,0.8v-0.7
			v-5.4v0c0-0.4,0-0.9-0.1-1.3c-0.1-1.1-0.5-2.1-0.9-3c0,0,0,0,0,0c-0.1-0.2-0.2-0.4-0.3-0.6c0,0,0,0,0-0.1
			c-0.1-0.2-0.2-0.4-0.4-0.6c0,0,0,0,0-0.1c-0.1-0.2-0.3-0.4-0.4-0.6l0,0c-0.4-0.5-0.9-0.9-1.4-1.3l-1.8,2.2
			C63.5,46.4,63.6,46.4,63.8,46.6C63.8,46.6,63.8,46.6,63.8,46.6z"/>
		<path d="M67.6,84.4c-2.1-3-5.2-4.7-5.3-4.8l-0.1-0.1c-0.7-0.3-1.3-0.6-1.9-0.9c-0.6-0.3-1.1-0.6-1.5-0.9c0,0,0,0-0.1,0
			c0,0-0.1,0-0.1-0.1c-0.2-0.1-0.4-0.3-0.5-0.4c-0.6-0.4-1.1-0.9-1.5-1.3c-0.9-0.9-1.5-1.6-1.6-1.8c-0.2-0.4-0.6-1.7,0.7-2.8
			c1.3-1.1,3.8-0.4,4.6-0.1l0.1,0c0,0,1.9,0.7,4.2,2.3c0.6,0.4,1.2,0.9,1.9,1.4c0.1,0.1,0.2,0.2,0.3,0.3c3.5,2.6,7.1,2.7,7.7,2.7
			l4.7,0.2l0.1-2.8l-4.8-0.2l-0.1,0c0,0-3.3,0.1-6.2-2.3l-2.3-1.7c-2.4-1.6-4.3-2.3-4.6-2.4c-0.5-0.2-4.6-1.8-7.4,0.6
			c-2.4,2.1-1.9,5-1.3,6.2l0.1,0.1c0,0,0.1,0.1,0.2,0.3H40.7l-1.5,0l-2.3,2.8l4.6,0L41.2,80c-0.3,1.4-0.1,2.8,0.5,3.9
			c0.7,1.2,1.8,2,3,2.3c0.3,0.1,0.7,0.1,1,0.1c1,0,1.9-0.3,2.7-0.9c0.1-0.1,0.2-0.2,0.4-0.3c0.7,1.5,2.1,2.5,3.7,2.7
			c0.2,0,0.3,0,0.5,0c1,0,2-0.3,2.8-0.9c0.1,0.2,0.2,0.3,0.3,0.5c0.8,1.1,2,1.8,3.3,2c0.2,0,0.3,0,0.5,0c2.3,0,4.2-1.7,4.8-4
			c0.2,0.2,0.3,0.4,0.5,0.7c2.1,3,8.1,7.6,12.6,9c4.4,1.3,12,1.4,12.3,1.4v-2.8c-0.1,0-7.5,0-11.5-1.2C74.9,91.2,69.4,87,67.6,84.4z
			 M48.5,79.5L48,81.5c-0.2,0.7-0.5,1.2-1,1.6c-0.5,0.3-1,0.5-1.5,0.3c-0.5-0.1-1-0.5-1.2-1c-0.3-0.5-0.4-1.2-0.3-1.9l0.5-1.9l4.2,0
			L48.5,79.5z M55.2,82.9c-0.1,1.3-1.2,2.3-2.3,2.1c-1.1-0.1-1.9-1.3-1.8-2.6l0-0.1l0.4-3.6c0,0,0,0,0,0h3.9c0,0,0.2,0.1,0.2,0.2
			L55.2,82.9z M62.1,84.4c-0.2,1.3-1.2,2.3-2.3,2.2c-0.5-0.1-1-0.4-1.3-0.8c-0.4-0.5-0.5-1.2-0.5-1.8l0.3-3.2c0.8,0.5,3.3,1.7,4,2.2
			L62.1,84.4z"/>
		<path d="M39,51.3c-0.1-0.1-1.8-1.2-3.7-3.7c-2.7,0.1-4.8,2.2-4.8,4.9c0,2.7,2.2,4.9,4.9,4.9c0.9,0,1.8-0.3,2.5-0.7l2.1-2.6
			c0.2-0.5,0.3-1,0.3-1.6c0-0.3,0-0.5-0.1-0.7c-0.4-0.1-0.8-0.2-1.1-0.4L39,51.3z M35.4,54.5c-1.1,0-2.1-0.9-2.1-2.1
			s0.9-2.1,2.1-2.1c1.1,0,2.1,0.9,2.1,2.1S36.5,54.5,35.4,54.5z"/>
	</g>
</g>
<g id="Rahmen">
	
		<rect x="-0.1" y="0" transform="matrix(-1 -4.490109e-11 4.490109e-11 -1 101.84 102.0472)" class="st0" width="102" height="102"/>
</g>
<g id="Schutzzone" class="st1">
	<g class="st3">
		<rect x="0" y="0" class="st4" width="102" height="5.7"/>
		<rect x="0" y="96.4" class="st4" width="102" height="5.7"/>
		
			<rect x="-48.2" y="48.2" transform="matrix(-1.836970e-16 1 -1 -1.836970e-16 53.8576 48.1824)" class="st4" width="102" height="5.7"/>
		
			<rect x="48.2" y="48.2" transform="matrix(-1.836970e-16 1 -1 -1.836970e-16 150.2369 -48.1896)" class="st4" width="102" height="5.7"/>
	</g>
</g>
</svg>
