<?xml version="1.0" encoding="utf-8"?>
<!-- Generator: Adobe Illustrator 24.0.1, SVG Export Plug-In . SVG Version: 6.00 Build 0)  -->
<svg version="1.1" xmlns="http://www.w3.org/2000/svg" xmlns:xlink="http://www.w3.org/1999/xlink" x="0px" y="0px"
	 viewBox="0 0 102 102" style="enable-background:new 0 0 102 102;" xml:space="preserve">
<style type="text/css">
	.st0{fill:none;}
	.st1{display:none;}
	.st2{display:inline;}
	.st3{opacity:0.4;fill:#7BCDEF;}
</style>
<g id="_x30_42-passing_x5F_on-with_x5F_charge">
	<g>
		<path d="M49.6,12.8l-0.9,5.1l2.7,0.5l1-5.9c0.1-0.4,0-0.8-0.3-1.1l-5.1-5.8h-3.6l6.1,6.9C49.6,12.6,49.7,12.7,49.6,12.8z"/>
		<path d="M18.3,15.8c1.7,2.3,3.6,4.4,5.1,5.5c1.4,1,2.4,2.2,3.1,3.2c0.4,0.5,0.6,0.9,0.7,1.1c0.1,0.2,0.2,0.4,0.3,0.6
			c0,0,0,0.1,0,0.1l1.5,2.8c0.2,0.4,0.5,0.7,0.7,1.1c0.7,0.9,1.3,1.6,1.9,2.2c0.5,0.5,1,0.9,1.3,1.2c0.4,0.3,0.7,0.5,0.7,0.5
			l0.1,0.1c0,0,0,0,0,0c0.5,0.3,1.4,0.5,2.3,0.5c0,0,0.1,0,0.1,0c1.2,0,2.6-0.5,3.8-1.8c0.1-0.1,0.2-0.2,0.2-0.3
			c0.2-0.3,0.4-0.6,0.5-0.9c0.4-0.8,0.5-1.7,0.5-2.6h0c0,0,0,0,0,0c0-0.1,0-0.1,0-0.2c0-1-0.2-1.9-0.4-2.8c0,0,0,0,0,0
			c-0.1-0.2-0.1-0.4-0.2-0.5c-0.1-0.2-0.3-0.7-0.7-1.6c-0.5-1-1.3-2.5-2.5-4.1c-0.3-0.4-0.6-0.8-1-1.3c-0.1-0.2-0.2-0.3-0.4-0.5
			c-1.9-2.8-1.8-5.6-1.8-5.7l0,0l0-0.1l-0.1-4.7l0-0.1l-2.8,0.1l0.1,4.7c0,0.5,0,4,2.4,7.4c0.1,0.2,0.3,0.3,0.4,0.5
			c0,0.1,0.1,0.1,0.1,0.2c0.3,0.4,0.6,0.7,0.8,1.1c1.6,2.3,2.7,4.8,2.7,4.8c0.1,0.1,0.1,0.2,0.1,0.2l0,0.1c0,0,0.3,0.9,0.5,1.9
			c0,0,0,0,0,0c0,0,0,0,0,0c0,0.2,0,0.4,0,0.6c0,0.7-0.1,1.5-0.6,2.1c-0.1,0.1-0.2,0.2-0.3,0.2c-0.1,0.1-0.2,0.2-0.3,0.3
			c-0.5,0.3-1,0.4-1.3,0.3c-0.4,0-0.7-0.1-0.9-0.2c-0.2-0.1-0.6-0.4-1.1-1c-0.2-0.2-0.3-0.3-0.5-0.5c-0.3-0.4-0.7-0.8-1.1-1.2h0
			c-0.1-0.1-0.2-0.3-0.3-0.4c-0.5-0.7-1-1.5-1.5-2.4c-0.3-0.6-0.6-1.1-0.8-1.8l-0.1-0.1c0-0.1-0.3-0.5-0.8-1.2
			c-0.1-0.1-0.2-0.2-0.2-0.3c-0.8-1.1-2.1-2.7-3.8-3.9c-1.3-0.9-2.9-2.7-4.4-4.8c-1.5-2.1-2.8-4.4-3.4-6.3c-0.2-0.7-0.4-1.4-0.5-2.2
			h-2.9c0.2,1,0.4,2,0.7,2.9C15.1,10.8,16.6,13.5,18.3,15.8z"/>
		<path d="M60.1,38.2l0.8-4.3c0.1-0.7-0.3-1.4-1-1.5l-7-1.3l-0.5,2.8l5.3,1c0.2,0,0.3,0.2,0.2,0.3l-0.5,2.5L60.1,38.2z"/>
		<path d="M49.7,47.7l7,1.3c0.7,0.1,1.4-0.3,1.5-1l0.8-4.3l-2.8-0.5l-0.5,2.5c0,0.2-0.2,0.3-0.3,0.2l-5.3-1L49.7,47.7z"/>
		<path d="M26.5,29l-1.9-2.5c0,0,0-0.1-0.1-0.1c-0.1-0.2-0.2-0.3-0.3-0.5l-3.1-0.6c-0.7-0.1-1.4,0.3-1.5,1l-0.8,4.3l2.8,0.5l0.5-2.5
			c0-0.2,0.2-0.3,0.3-0.2l4.3,0.8C26.6,29.1,26.5,29,26.5,29z"/>
		<path d="M17.8,36.1L17,40.4c-0.1,0.7,0.3,1.4,1,1.5l7.1,1.3l0.5-2.8l-5.3-1c-0.1,0-0.2-0.2-0.2-0.3l0.5-2.5L17.8,36.1z"/>
		<path d="M37.9,43C37.9,43,37.9,43,37.9,43c-1.6-0.3-2.9-1.2-3.8-2.4c-0.8-1.1-1.1-2.4-1-3.7c-0.1-0.1-0.2-0.1-0.4-0.2
			c-0.7-0.4-1.4-1-2.2-1.7c-0.1,0.2-0.1,0.5-0.2,0.7c-0.4,2.3,0.1,4.6,1.4,6.5c1.3,1.9,3.3,3.2,5.6,3.6c0,0,0,0,0,0
			c4.7,0.9,9.3-2.3,10.1-7.1c0.4-2.3-0.1-4.6-1.4-6.5c-0.5-0.7-1-1.3-1.7-1.8c0,0,0,0,0,0c0,0,0,0,0,0l0,0c-0.1,1-0.4,2-1.1,2.9
			c0.1,0.2,0.3,0.3,0.4,0.5c0.9,1.3,1.2,2.9,1,4.4C44.2,41.5,41.1,43.6,37.9,43z"/>
		<path d="M61.2,55.6c0.1,0,0.2,0,0.2,0c0.2,0,0.4,0,0.5-0.1c0,0,0.1,0,0.1-0.1c0,0,0.1,0,0.1-0.1c0,0,0,0,0,0
			c0.3-0.2,0.5-0.5,0.6-0.9L65.2,42l2.3-12.5c0.1-0.8-0.4-1.5-1.1-1.7L43,23.5c0.3,0.6,0.5,1.2,0.7,1.7c0.2,0.6,0.4,1.1,0.4,1.4
			l20,3.7c0.1,0,0.2,0.2,0.2,0.3l-2,10.8l-2,10.8c0,0.1-0.2,0.2-0.3,0.2L37,48.3L13.9,44c-0.1,0-0.2-0.2-0.2-0.3l2-10.8l2-10.8
			c0-0.1,0.2-0.2,0.3-0.2l1.9,0.4c-0.1,0-0.1-0.1-0.2-0.1c-1.2-0.6-2.6-1.7-4.1-3c-0.2,0.2-0.4,0.5-0.5,0.8l-2.3,12.5l-2.3,12.5
			c-0.1,0.4,0,0.7,0.2,1c0,0,0,0,0,0c0,0,0.1,0.1,0.1,0.1c0,0,0.1,0.1,0.1,0.1c0.1,0.1,0.3,0.2,0.5,0.3c0.1,0,0.2,0,0.2,0.1
			l24.7,4.5L61.2,55.6z"/>
		<path d="M60.9,58.4c-0.1,0-0.1,0-0.2,0l-3.6-0.7h-8.5v2.8h12.3V58.4z"/>
		<rect x="48.6" y="63.4" width="12.3" height="2.8"/>
		<path d="M75.6,61.8c-0.3-0.2-0.6-0.3-1-0.3l-5.4,0.8v-0.7v-5.4v0c0-0.4,0-0.9-0.1-1.3c-0.1-1.1-0.5-2.1-0.9-3c0,0,0,0,0,0
			c-0.1-0.2-0.2-0.4-0.3-0.6c0,0,0,0,0-0.1c-0.1-0.2-0.2-0.4-0.4-0.6c0,0,0,0,0-0.1c-0.1-0.2-0.3-0.4-0.4-0.6c0,0,0,0,0,0
			c-0.1-0.1-0.2-0.2-0.2-0.2l-0.7,4.1c0.3,0.8,0.5,1.6,0.5,2.4v5.5v10.8c0.3,0.2,0.6,0.4,0.9,0.6l0.1,0l0.1,0l1.8,1.3
			c0-0.3,0-0.6,0-0.9v-8.4l5-0.7c0.1,0,0.2,0,0.2,0.1l15.1,12.5l1.8-2.1L75.6,61.8z"/>
		<path d="M74.5,79.6c0,0-3.3,0.1-6.2-2.3L66,75.6c-2.4-1.6-4.3-2.3-4.6-2.4C61,73,56.8,71.3,54,73.7c-2.4,2.1-1.9,5-1.3,6.2
			l0.1,0.1c0,0,0.1,0.1,0.2,0.3H41.1l-13.1,0c-0.3,0-0.6,0-1-0.1c-0.1,0-0.1,0-0.2,0c-0.6-0.1-1.2-0.3-1.8-0.6c0,0-0.1,0-0.1-0.1
			c-0.6-0.3-1.1-0.7-1.6-1.1c0,0,0,0,0,0c-0.7-0.7-1.3-1.5-1.7-2.5c0,0,0,0,0,0c-0.3-0.8-0.5-1.7-0.5-2.6v-8.3v-9
			c0-1.8,0.7-3.5,1.9-4.7l-3.1-0.6c-1,1.5-1.6,3.3-1.6,5.3v9.1v8.3v0c0,0.4,0,0.9,0.1,1.3c0.1,1.1,0.5,2.1,0.9,3c0,0,0,0,0,0
			c0.1,0.2,0.2,0.4,0.3,0.6c0,0,0,0,0,0.1c0.1,0.2,0.2,0.4,0.4,0.6c0,0,0,0,0,0.1c0.1,0.2,0.3,0.4,0.4,0.6c0,0,0,0,0,0
			c0.6,0.7,1.3,1.4,2.1,1.9c0,0,0.1,0.1,0.1,0.1c0.1,0.1,0.3,0.2,0.5,0.3c0.1,0,0.2,0.1,0.3,0.1c0.1,0.1,0.3,0.1,0.4,0.2
			c0.1,0,0.2,0.1,0.3,0.1c0.1,0.1,0.3,0.1,0.4,0.2c0.1,0,0.3,0.1,0.4,0.1c0.1,0,0.3,0.1,0.4,0.1c0.1,0,0.3,0.1,0.4,0.1
			c0.1,0,0.3,0.1,0.4,0.1c0.2,0,0.3,0.1,0.5,0.1c0.1,0,0.2,0,0.3,0c0.3,0,0.5,0,0.8,0c0,0,0,0,0,0h0h0h0l14,0l-0.3,1.2
			c-0.3,1.4-0.1,2.8,0.5,3.9c0.7,1.2,1.8,2,3,2.3c0.3,0.1,0.7,0.1,1,0.1c1,0,1.9-0.3,2.7-0.9c0.1-0.1,0.2-0.2,0.4-0.3
			c0.7,1.5,2.1,2.5,3.7,2.7c0.2,0,0.3,0,0.5,0c1,0,2-0.3,2.8-0.9c0.1,0.2,0.2,0.3,0.3,0.5c0.8,1.1,2,1.8,3.3,2c0.2,0,0.3,0,0.5,0
			c2.3,0,4.2-1.7,4.8-4c0.2,0.2,0.3,0.4,0.5,0.7c1.2,1.7,3.6,3.9,6.3,5.8h5.6c-3.6-1.6-8-5.1-9.6-7.4c-2.1-3-5.2-4.7-5.3-4.8
			l-0.1-0.1c-0.7-0.3-1.3-0.6-1.9-0.9c-0.6-0.3-1.1-0.6-1.5-0.9c0,0,0,0-0.1,0c0,0-0.1,0-0.1-0.1c-0.2-0.1-0.4-0.3-0.5-0.4
			c-0.6-0.4-1.1-0.9-1.5-1.3c-0.9-0.9-1.5-1.6-1.6-1.8c-0.2-0.4-0.6-1.7,0.7-2.8c1.3-1.1,3.8-0.4,4.6-0.1l0.1,0c0,0,1.9,0.7,4.2,2.3
			c0.6,0.4,1.2,0.9,1.9,1.4c0.1,0.1,0.2,0.2,0.3,0.3c3.5,2.6,7.1,2.7,7.7,2.7l4.7,0.2l0.1-2.8L74.5,79.6L74.5,79.6z M48.8,84
			L48.3,86c-0.2,0.7-0.5,1.2-1,1.6c-0.5,0.3-1,0.5-1.5,0.3c-0.5-0.1-1-0.5-1.2-1c-0.3-0.5-0.4-1.2-0.3-1.9l0.5-1.9l4.2,0L48.8,84z
			 M58.4,88.5l0.3-3.2c0.8,0.5,3.3,1.7,4,2.2l-0.2,1.4c-0.2,1.3-1.2,2.3-2.3,2.2c-0.5-0.1-1-0.4-1.3-0.8
			C58.4,89.8,58.3,89.1,58.4,88.5z M55.7,83.2c0,0,0.2,0.1,0.2,0.2l-0.4,4c-0.1,1.3-1.2,2.3-2.3,2.1c-1.1-0.1-1.9-1.3-1.8-2.6l0-0.1
			l0.4-3.6c0,0,0,0,0,0H55.7z"/>
		<path d="M25.8,70.9v1.9c0,0.3,0,1.1,0.6,1.8c0.3,0.4,1,0.8,2,0.8h14.6c1,0,1.7-0.4,2-0.8c0.6-0.7,0.6-1.5,0.6-1.8v-1.9
			c0-1.9-0.5-3.8-1.7-4.9c-1.8-1.8-4.4-1.9-4.7-1.9c0,0,0,0,0,0h-7.1c0,0,0,0,0,0c-0.4,0-2.9,0.1-4.7,1.9
			C26.4,67.1,25.8,69,25.8,70.9z M28.7,70.9c0-1.1,0.3-2.3,0.8-2.9c1-1,2.7-1,2.7-1h7.1c0,0,1.7,0,2.7,1c0.6,0.6,0.8,1.8,0.8,2.9
			v1.4c0,0.2-0.1,0.3-0.3,0.3h-2.2c-0.2,0-0.3-0.1-0.3-0.3v-2.5h-2.8v2.5c0,0.2-0.1,0.3-0.3,0.3h-2.2c-0.2,0-0.3-0.1-0.3-0.3v-2.5
			h-2.8v2.5c0,0.2-0.1,0.3-0.3,0.3h-2.2c-0.2,0-0.3-0.1-0.3-0.3V70.9z"/>
		<path d="M40.6,56.6c0-0.1,0-0.3,0-0.4c0,0,0,0,0,0c-0.1-0.6-0.3-1.1-0.6-1.6L36,53.8l-3.3-0.6c-0.1,0.1-0.2,0.1-0.2,0.2
			c0,0-0.1,0.1-0.1,0.1c-0.9,0.9-1.4,2.1-1.4,3.5c0,1.4,0.6,2.6,1.4,3.5c0.9,0.9,2.1,1.4,3.5,1.4c0.3,0,0.5,0,0.7-0.1c0,0,0,0,0,0
			c2.4-0.4,4.2-2.4,4.2-4.8c0,0,0-0.1,0-0.1c0,0,0,0,0,0C40.7,56.8,40.6,56.7,40.6,56.6z M35.8,59c-0.6,0-1.1-0.2-1.5-0.6
			c-0.4-0.4-0.6-0.9-0.6-1.5c0-1.1,0.9-2.1,2.1-2.1c0.6,0,1.1,0.2,1.5,0.6c0.4,0.4,0.6,0.9,0.6,1.5C37.8,58.1,36.9,59,35.8,59z"/>
	</g>
</g>
<g id="Rahmen">
	<rect x="0" y="0" transform="matrix(-1 -4.490109e-11 4.490109e-11 -1 102.0472 102.0472)" class="st0" width="102" height="102"/>
	<rect x="0" y="0" transform="matrix(-1 -4.490109e-11 4.490109e-11 -1 102.0472 102.0472)" class="st0" width="102" height="102"/>
	<rect x="0" y="0" transform="matrix(-1 -4.490109e-11 4.490109e-11 -1 102.0472 102.0472)" class="st0" width="102" height="102"/>
</g>
<g id="Schutzzone" class="st1">
	<g class="st2">
		<rect x="0" y="0" class="st3" width="102" height="5.7"/>
		<rect x="0" y="96.4" class="st3" width="102" height="5.7"/>
		
			<rect x="-48.2" y="48.2" transform="matrix(-1.836970e-16 1 -1 -1.836970e-16 53.8574 48.1825)" class="st3" width="102" height="5.7"/>
		
			<rect x="48.2" y="48.2" transform="matrix(-1.836970e-16 1 -1 -1.836970e-16 150.2367 -48.1895)" class="st3" width="102" height="5.7"/>
	</g>
</g>
</svg>
