<?xml version="1.0" encoding="utf-8"?>
<!-- Generator: Adobe Illustrator 24.0.1, SVG Export Plug-In . SVG Version: 6.00 Build 0)  -->
<svg version="1.1" xmlns="http://www.w3.org/2000/svg" xmlns:xlink="http://www.w3.org/1999/xlink" x="0px" y="0px"
	 viewBox="0 0 102 102" style="enable-background:new 0 0 102 102;" xml:space="preserve">
<style type="text/css">
	.st0{fill:none;}
	.st1{display:none;}
	.st2{display:inline;}
	.st3{opacity:0.4;fill:#7BCDEF;}
</style>
<g id="_x30_51-automatic-case_x5F_by_x5F_case">
	<g>
		<path d="M89.2,56.7h-7V48c0-4.6-3.7-8.3-8.3-8.3H52.6c-0.2,0-0.3-0.1-0.3-0.3v-5.2c0-0.1,0.1-0.2,0.2-0.3c2.6-0.7,4.5-3.2,4.3-6.1
			c-0.2-3-2.8-5.4-5.8-5.5c-3.3,0-6,2.6-6,5.9c0,2.7,1.8,5,4.3,5.7c0.1,0,0.2,0.1,0.2,0.3v5.2c0,0.2-0.1,0.3-0.3,0.3H28.1
			c-4.6,0-8.3,3.7-8.3,8.3v8.9h-7.1c-0.8,0-1.4,0.6-1.4,1.4v8.4c0,0.8,0.6,1.4,1.4,1.4h7.1v11.5c0,4.6,3.7,8.3,8.3,8.3h45.9
			c4.6,0,8.3-3.7,8.3-8.3V68.1h7c0.8,0,1.5-0.7,1.5-1.5v-8.4C90.7,57.4,90,56.7,89.2,56.7z M19.8,64.9c0,0.2-0.1,0.3-0.3,0.3h-5.1
			c-0.2,0-0.3-0.1-0.3-0.3v-5c0-0.2,0.1-0.3,0.3-0.3h5c0.2,0,0.3,0.1,0.3,0.3V64.9z M47.9,28.2c0-1.7,1.4-3.1,3.1-3.1
			c1.7,0,3.1,1.4,3.1,3.1s-1.4,3.1-3.1,3.1C49.2,31.3,47.9,29.9,47.9,28.2z M79.4,58.2v8.4v13c0,3-2.4,5.4-5.4,5.4H28.1
			c-3,0-5.4-2.4-5.4-5.4v-13v-8.4V48c0-3,2.4-5.4,5.4-5.4h45.9c3,0,5.4,2.4,5.4,5.4V58.2z M87.9,65c0,0.2-0.1,0.3-0.3,0.3h-5.1
			c-0.2,0-0.3-0.1-0.3-0.3v-5.1c0-0.2,0.1-0.3,0.3-0.3h5.1c0.2,0,0.3,0.1,0.3,0.3V65z"/>
		<path d="M66.3,55.8c-3.3,0-5.9,2.7-5.9,5.9s2.7,5.9,5.9,5.9c3.3,0,5.9-2.7,5.9-5.9S69.5,55.8,66.3,55.8z M66.3,64.8
			c-1.7,0-3.1-1.4-3.1-3.1s1.4-3.1,3.1-3.1c1.7,0,3.1,1.4,3.1,3.1S68,64.8,66.3,64.8z"/>
		<path d="M41.5,61.7c0-3.3-2.7-5.9-5.9-5.9s-5.9,2.7-5.9,5.9s2.7,5.9,5.9,5.9S41.5,65,41.5,61.7z M35.6,64.8
			c-1.7,0-3.1-1.4-3.1-3.1s1.4-3.1,3.1-3.1s3.1,1.4,3.1,3.1S37.3,64.8,35.6,64.8z"/>
		<polygon points="39.7,76.5 39.7,77.9 62.2,77.9 62.2,76.5 62.2,75.1 39.7,75.1 		"/>
		<path d="M30.4,30.8l7.7,5.7c0.2,0.2,0.5,0.3,0.8,0.3c0.3,0,0.6-0.1,0.9-0.3c0.5-0.4,0.7-1,0.5-1.6l-3-8c2.5-2.4,3.8-5.2,3.8-8.1
			c0-7.2-8-13.1-17.7-13.1c-9.8,0-17.7,5.9-17.7,13.1s8,13.1,17.7,13.1C25.9,31.9,28.1,31.7,30.4,30.8z M8.5,18.7
			c0-5.7,6.7-10.3,14.9-10.3c8.2,0,14.9,4.6,14.9,10.3c0,3-2,5.3-3.6,6.7c-0.4,0.4-0.6,0.9-0.4,1.4c0.4,1,1,2.7,1.4,3.7
			c0.1,0.3-0.2,0.5-0.4,0.3l-3.8-2.8c-0.2-0.2-0.5-0.3-0.8-0.3c-0.2,0-0.4,0-0.6,0.1c-2.1,0.9-4.1,1.1-6.7,1.1
			C15.2,29,8.5,24.4,8.5,18.7z"/>
		<polygon points="24.6,20.6 24.6,11.3 23.1,11.3 21.7,11.3 21.7,20.6 23.1,20.6 		"/>
		<circle cx="23.1" cy="24.8" r="1.3"/>
	</g>
</g>
<g id="Rahmen">
	<rect x="0" y="0" class="st0" width="102" height="102"/>
</g>
<g id="Schutzzone" class="st1">
	<g class="st2">
		<rect x="0" y="0" class="st3" width="102" height="5.7"/>
		<rect x="0" y="96.4" class="st3" width="102" height="5.7"/>
		
			<rect x="-48.2" y="48.2" transform="matrix(-1.836970e-16 1 -1 -1.836970e-16 53.8583 48.1817)" class="st3" width="102" height="5.7"/>
		
			<rect x="48.2" y="48.2" transform="matrix(-1.836970e-16 1 -1 -1.836970e-16 150.2375 -48.1903)" class="st3" width="102" height="5.7"/>
	</g>
</g>
</svg>
