<?xml version="1.0" encoding="utf-8"?>
<!-- Generator: Adobe Illustrator 24.0.1, SVG Export Plug-In . SVG Version: 6.00 Build 0)  -->
<svg version="1.1" xmlns="http://www.w3.org/2000/svg" xmlns:xlink="http://www.w3.org/1999/xlink" x="0px" y="0px"
	 viewBox="0 0 102 102" style="enable-background:new 0 0 102 102;" xml:space="preserve">
<style type="text/css">
	.st0{fill:none;}
	.st1{fill:#FFFFFF;}
	.st2{display:none;}
	.st3{display:inline;}
	.st4{opacity:0.4;fill:#7BCDEF;}
</style>
<g id="_x30_51-automatic-case_x5F_by_x5F_case">
	<g>
		<path class="st0" d="M19.5,59.6h-5c-0.2,0-0.3,0.1-0.3,0.3v5c0,0.2,0.1,0.3,0.3,0.3h5.1c0.2,0,0.3-0.1,0.3-0.3v-5
			C19.8,59.8,19.7,59.6,19.5,59.6z"/>
		<path class="st0" d="M54,28.2c0-1.7-1.4-3.1-3.1-3.1c-1.7,0-3.1,1.4-3.1,3.1s1.4,3.1,3.1,3.1C52.6,31.3,54,29.9,54,28.2z"/>
		<path class="st0" d="M66.3,64.8c1.7,0,3.1-1.4,3.1-3.1s-1.4-3.1-3.1-3.1c-1.7,0-3.1,1.4-3.1,3.1S64.6,64.8,66.3,64.8z"/>
		<path class="st0" d="M23.4,29c2.5,0,4.6-0.2,6.7-1.1c0.2-0.1,0.4-0.1,0.6-0.1c0.3,0,0.6,0.1,0.8,0.3l3.8,2.8
			c0.2,0.2,0.5-0.1,0.4-0.3c-0.4-1-1-2.7-1.4-3.7c-0.2-0.5,0-1.1,0.4-1.4c1.6-1.4,3.6-3.6,3.6-6.7c0-5.7-6.7-10.3-14.9-10.3
			C15.2,8.4,8.5,13,8.5,18.7S15.2,29,23.4,29z M23.1,26.1c-0.7,0-1.3-0.6-1.3-1.3s0.6-1.3,1.3-1.3s1.3,0.6,1.3,1.3
			S23.9,26.1,23.1,26.1z M21.7,11.3h1.4h1.4v9.4h-1.4h-1.4V11.3z"/>
		<path class="st0" d="M87.6,59.5h-5.1c-0.2,0-0.3,0.1-0.3,0.3V65c0,0.2,0.1,0.3,0.3,0.3h5.1c0.2,0,0.3-0.1,0.3-0.3v-5.1
			C87.9,59.7,87.7,59.5,87.6,59.5z"/>
		<path d="M22.6,66.6v-8.4V48c0-3,2.4-5.4,5.4-5.4h21.4l2.9-3.6v-4.8c0-0.1,0.1-0.2,0.2-0.3c2.6-0.7,4.5-3.2,4.3-6.1
			c-0.2-3-2.8-5.4-5.8-5.5c-3.3,0-6,2.6-6,5.9c0,2.7,1.8,5,4.3,5.7c0.1,0,0.2,0.1,0.2,0.3v5.2c0,0.2-0.1,0.3-0.3,0.3H28.1
			c-4.6,0-8.3,3.7-8.3,8.3v8.9h-7.1c-0.8,0-1.4,0.6-1.4,1.4v8.4c0,0.8,0.6,1.4,1.4,1.4h7.1v10.9l2.8-3.5V66.6z M47.9,28.2
			c0-1.7,1.4-3.1,3.1-3.1c1.7,0,3.1,1.4,3.1,3.1s-1.4,3.1-3.1,3.1C49.2,31.3,47.9,29.9,47.9,28.2z M19.8,64.9c0,0.2-0.1,0.3-0.3,0.3
			h-5.1c-0.2,0-0.3-0.1-0.3-0.3v-5c0-0.2,0.1-0.3,0.3-0.3h5c0.2,0,0.3,0.1,0.3,0.3V64.9z"/>
		<path d="M89.2,56.7h-7V48c0-4.6-3.7-8.3-8.3-8.3h-5.2l-2.3,2.8h7.5c3,0,5.4,2.4,5.4,5.4v10.3v8.4v13c0,3-2.4,5.4-5.4,5.4H31.8
			l-2.3,2.8h44.4c4.6,0,8.3-3.7,8.3-8.3V68.1h7c0.8,0,1.5-0.7,1.5-1.5v-8.4C90.7,57.4,90,56.7,89.2,56.7z M87.9,65
			c0,0.2-0.1,0.3-0.3,0.3h-5.1c-0.2,0-0.3-0.1-0.3-0.3v-5.1c0-0.2,0.1-0.3,0.3-0.3h5.1c0.2,0,0.3,0.1,0.3,0.3V65z"/>
		<path d="M66.3,67.6c3.3,0,5.9-2.7,5.9-5.9s-2.7-5.9-5.9-5.9c-3.3,0-5.9,2.7-5.9,5.9S63,67.6,66.3,67.6z M66.3,58.6
			c1.7,0,3.1,1.4,3.1,3.1s-1.4,3.1-3.1,3.1c-1.7,0-3.1-1.4-3.1-3.1S64.6,58.6,66.3,58.6z"/>
		<path d="M29.7,61.7c0,1.3,0.5,2.6,1.2,3.6l1.9-2.3c-0.2-0.4-0.3-0.8-0.3-1.3c0-1.7,1.4-3.1,3.1-3.1c0.2,0,0.4,0,0.7,0.1l1.9-2.3
			c-0.8-0.4-1.6-0.6-2.5-0.6C32.4,55.8,29.7,58.4,29.7,61.7z"/>
		<polygon points="39.7,77.9 62.2,77.9 62.2,76.5 62.2,75.1 39.9,75.1 39.7,75.3 39.7,76.5 		"/>
		<path d="M23.4,31.9c2.5,0,4.7-0.2,7-1l7.7,5.7c0.2,0.2,0.5,0.3,0.8,0.3c0.3,0,0.6-0.1,0.9-0.3c0.5-0.4,0.7-1,0.5-1.6l-3-8
			c2.5-2.4,3.8-5.2,3.8-8.1c0-7.2-8-13.1-17.7-13.1c-9.8,0-17.7,5.9-17.7,13.1S13.6,31.9,23.4,31.9z M23.4,8.4
			c8.2,0,14.9,4.6,14.9,10.3c0,3-2,5.3-3.6,6.7c-0.4,0.4-0.6,0.9-0.4,1.4c0.4,1,1,2.7,1.4,3.7c0.1,0.3-0.2,0.5-0.4,0.3l-3.8-2.8
			c-0.2-0.2-0.5-0.3-0.8-0.3c-0.2,0-0.4,0-0.6,0.1c-2.1,0.9-4.1,1.1-6.7,1.1c-8.2,0-14.9-4.6-14.9-10.3S15.2,8.4,23.4,8.4z"/>
		<polygon points="24.6,20.6 24.6,11.3 23.1,11.3 21.7,11.3 21.7,20.6 23.1,20.6 		"/>
		<circle cx="23.1" cy="24.8" r="1.3"/>
		<polygon class="st1" points="39.7,75.1 39.7,75.3 39.9,75.1 		"/>
	</g>
</g>
<g id="Ebene_4">
	<rect x="49.6" y="-6.3" transform="matrix(0.7756 0.6313 -0.6313 0.7756 43.6815 -20.7076)" width="2.8" height="114.8"/>
</g>
<g id="Rahmen">
	<rect x="0" y="0" class="st0" width="102" height="102"/>
</g>
<g id="Schutzzone" class="st2">
	<g class="st3">
		<rect x="0" y="0" class="st4" width="102" height="5.7"/>
		<rect x="0" y="96.4" class="st4" width="102" height="5.7"/>
		
			<rect x="-48.2" y="48.2" transform="matrix(-1.836970e-16 1 -1 -1.836970e-16 53.8583 48.1817)" class="st4" width="102" height="5.7"/>
		
			<rect x="48.2" y="48.2" transform="matrix(-1.836970e-16 1 -1 -1.836970e-16 150.2375 -48.1903)" class="st4" width="102" height="5.7"/>
	</g>
</g>
</svg>
