<?xml version="1.0" encoding="utf-8"?>
<!-- Generator: Adobe Illustrator 24.0.1, SVG Export Plug-In . SVG Version: 6.00 Build 0)  -->
<svg version="1.1" xmlns="http://www.w3.org/2000/svg" xmlns:xlink="http://www.w3.org/1999/xlink" x="0px" y="0px"
	 viewBox="0 0 102 102" style="enable-background:new 0 0 102 102;" xml:space="preserve">
<style type="text/css">
	.st0{fill:none;}
	.st1{display:none;}
	.st2{display:inline;}
	.st3{opacity:0.4;fill:#7BCDEF;}
</style>
<g id="_x30_61-profiling-profiling">
	<g>
		<g>
			<rect x="68.2" y="42.7" width="19.8" height="2.8"/>
		</g>
		<g>
			<polygon points="88,51.2 68.2,51.2 68.2,54 88,54 			"/>
		</g>
		<g>
			<rect x="68.2" y="59.7" width="19.8" height="2.8"/>
		</g>
		<g>
			<path d="M56.1,57.9c3.7-4.6,6.5-10.5,7.3-16.4c1.2-8.8-1.4-17.2-7.3-23.4L56,18l0,0c-5.3-5.6-12.5-8.8-20.2-9
				C28,8.8,20.6,11.6,15,16.9C10.2,21.5,7,27.6,6.1,34.1c-0.2,1.5-0.3,3-0.3,4.4c0.1,7.3,2.9,14.2,7.9,19.5
				c10,10.6,27.8,11.5,39.7,2.6c0.1-0.1,0.3-0.1,0.5,0l30.8,32.5l2.3-2l-31-32.7C56,58.3,55.9,58.1,56.1,57.9z M52.8,57
				c-2.3,2.2-5,3.9-8,5.1c-2.1,0.9-4.4,1.5-6.7,1.7c-1.5,0.2-2.7,0.2-3.9,0.2c-0.9,0-1.8-0.1-2.7-0.2c-2.6-0.3-5.2-1.1-7.6-2.2
				c-1.9-0.9-3.6-2-5.3-3.3c-2-1.6-3.3-3-5-5.3l-0.1-0.2l-0.1-0.1c-0.3-0.5-0.7-1-1-1.6c-0.2-0.3-0.3-0.6-0.5-0.8
				c-0.2-0.4-0.4-0.8-0.6-1.2c-0.2-0.5-0.4-0.9-0.7-1.6c-0.1-0.2-0.1-0.3-0.2-0.5c-1-2.8-1.6-5.7-1.6-8.6c0-1.3,0.1-2.7,0.2-4
				c1.2-8.8,6.8-16.3,14.9-20.1c2.1-1,4.4-1.7,6.7-2.1c1.4-0.2,2.7-0.4,3.8-0.4c0.9,0,1.8,0,2.8,0.1c2.3,0.2,4.6,0.7,6.8,1.6
				c6.6,2.5,12,7.6,14.8,14.1c0.3,0.7,0.5,1.3,0.7,1.9l0.1,0.2l0,0.1c0.2,0.7,0.4,1.2,0.5,1.8c0,0.1,0.1,0.2,0.1,0.4l0.1,0.2
				c0.1,0.6,0.2,1.1,0.3,1.6c0.1,0.8,0.2,1.5,0.3,2.2c0,0.2,0,0.4,0,0.5c0,0.5,0,1.1,0,1.8c0,0.3,0,0.7,0,1c0,0.5-0.1,0.9-0.1,1.4
				c0,0.3-0.1,0.5-0.1,0.7c0,0.2-0.1,0.5-0.1,0.7l0,0.2c0,0.2-0.1,0.4-0.1,0.7c-0.2,0.8-0.3,1.5-0.5,2.1l0,0.1
				c-0.2,0.8-0.5,1.6-0.9,2.6c-0.2,0.5-0.4,0.9-0.6,1.3l-0.1,0.2l-0.1,0.2C56.9,52.4,55.1,54.9,52.8,57z"/>
		</g>
		<g>
			<polygon points="59,44.9 59,44.9 59,44.9 			"/>
		</g>
		<g>
			<path d="M30.8,79.3c-5.9,0-10.8-4.7-11.1-10.5c-1-0.3-1.9-0.7-2.9-1.2l0,0.6l0,0.6c0.3,7.4,6.4,13.4,13.9,13.4h34.9h0.7l-2.7-2.8
				H30.8z"/>
		</g>
		<g>
			<path d="M96.1,42.2l0-0.3v-0.4l0,0c-0.3-7.4-6.4-13.4-13.9-13.4H68.4c0.2,0.9,0.4,1.9,0.5,2.8h13.2c6.1,0,11.1,5,11.1,11.1v2.4
				l0,1.5l0,22.2c0,0.4,0,0.7-0.1,1.1c-0.5,5.1-4.5,9.2-9.6,9.9l2.3,2.4c5.9-1.6,10.2-7,10.2-13.4L96.1,42.2z"/>
		</g>
		<g>
			<path d="M49.1,43.6c0-2.6-0.8-4.8-2.3-6.4c-2.5-2.5-6.1-2.6-6.6-2.6H29.6c0,0,0,0,0,0c-0.6,0-4.1,0.1-6.6,2.6
				c-1.6,1.6-2.4,3.7-2.3,6.3v7.7c0,0.4,0,1.4,0.8,2.2c0.4,0.4,1.2,1,2.5,1h21.9c1.3,0,2.1-0.5,2.5-1c0.7-0.8,0.8-1.8,0.8-2.2
				L49.1,43.6z M46.3,51.6h-5.7l0-8.5h-2.8l0,8.5h-5.7l0-8.5h-2.8l0,8.5h-5.7v-8.1c0-1.9,0.5-3.3,1.5-4.3c1.7-1.8,4.5-1.8,4.6-1.8
				h10.6c0,0,2.8,0,4.5,1.8c1,1,1.5,2.4,1.5,4.3V51.6z"/>
		</g>
		<g>
			<path d="M34.9,31.8c3.9,0,7.1-3.2,7.1-7.1c0-3.9-3.2-7.1-7.1-7.1c-3.9,0-7.1,3.2-7.1,7.1C27.8,28.6,31,31.8,34.9,31.8z
				 M34.9,20.4c2.3,0,4.3,1.9,4.3,4.3c0,2.3-1.9,4.3-4.3,4.3c-2.3,0-4.3-1.9-4.3-4.3C30.6,22.3,32.6,20.4,34.9,20.4z"/>
		</g>
	</g>
</g>
<g id="Rahmen">
	<rect x="0" y="0.1" class="st0" width="102" height="102"/>
</g>
<g id="Schutzzone" class="st1">
	<g class="st2">
		<rect x="0" y="0" class="st3" width="102" height="5.7"/>
		<rect x="0" y="96.4" class="st3" width="102" height="5.7"/>
		
			<rect x="-48.2" y="48.2" transform="matrix(-1.836970e-16 1 -1 -1.836970e-16 53.8583 48.1817)" class="st3" width="102" height="5.7"/>
		
			<rect x="48.2" y="48.2" transform="matrix(-1.836970e-16 1 -1 -1.836970e-16 150.2375 -48.1903)" class="st3" width="102" height="5.7"/>
	</g>
</g>
</svg>
