<?xml version="1.0" encoding="utf-8"?>
<!-- Generator: Adobe Illustrator 24.0.1, SVG Export Plug-In . SVG Version: 6.00 Build 0)  -->
<svg version="1.1" xmlns="http://www.w3.org/2000/svg" xmlns:xlink="http://www.w3.org/1999/xlink" x="0px" y="0px"
	 viewBox="0 0 102 102" style="enable-background:new 0 0 102 102;" xml:space="preserve">
<style type="text/css">
	.st0{fill:none;}
	.st1{display:none;}
	.st2{display:inline;}
	.st3{opacity:0.4;fill:#7BCDEF;}
</style>
<g id="_x30_61-profiling-profiling">
	<g>
		<path class="st0" d="M34.9,20.4c-2.3,0-4.3,1.9-4.3,4.3c0,2.3,1.9,4.3,4.3,4.3c2.3,0,4.3-1.9,4.3-4.3
			C39.1,22.3,37.2,20.4,34.9,20.4z"/>
		<g>
			<polygon points="88,54 88,51.2 68.2,51.2 68.2,54 			"/>
		</g>
		<g>
			<polygon points="88,45.2 88,42.4 68.2,42.4 68.2,45.2 			"/>
		</g>
		<g>
			<rect x="68.2" y="59.7" width="19.8" height="2.8"/>
		</g>
		<g>
			<polygon points="61.6,48.4 61.6,48.4 61.6,48.4 			"/>
		</g>
		<g>
			<path d="M31.5,63.9c-2.6-0.3-5.2-1.1-7.6-2.2c-1.9-0.9-3.6-2-5.3-3.3c-2-1.6-3.3-3-5-5.3l-0.1-0.2l-0.1-0.1c-0.3-0.5-0.7-1-1-1.6
				c-0.2-0.3-0.3-0.6-0.5-0.8c-0.2-0.4-0.4-0.8-0.6-1.2c-0.2-0.5-0.4-0.9-0.7-1.6c-0.1-0.2-0.1-0.3-0.2-0.5c-1-2.8-1.6-5.7-1.6-8.6
				c0-1.3,0.1-2.7,0.2-4c1.2-8.8,6.8-16.3,14.9-20.1c2.1-1,4.4-1.7,6.7-2.1c1.4-0.2,2.7-0.4,3.8-0.4c0.9,0,1.8,0,2.8,0.1
				c2.3,0.2,4.6,0.7,6.8,1.6c6.6,2.5,12,7.6,14.8,14.1c0.3,0.7,0.5,1.3,0.7,1.9l0.1,0.2l0,0.1c0,0,0,0,0,0l2.2-2.7
				c-1.3-3.3-3.2-6.4-5.8-9.1L56,18l0,0c-5.3-5.6-12.5-8.8-20.2-9C28,8.8,20.6,11.6,15,16.9C10.2,21.5,7,27.6,6.1,34.1
				c-0.2,1.5-0.3,3-0.3,4.4c0.1,7.3,2.9,14.2,7.9,19.5c4.3,4.6,10.1,7.3,16.3,8.3L32,64C31.8,64,31.7,63.9,31.5,63.9z"/>
		</g>
		<g>
			<polygon points="84.8,93.1 87,91.1 54.7,56.9 52.7,59.3 			"/>
		</g>
		<g>
			<path d="M19.8,68.8c-1-0.3-1.9-0.7-2.9-1.2l0,0.6l0,0.6c0.2,3.5,1.6,6.6,3.8,9l1.8-2.2C20.9,73.7,19.9,71.4,19.8,68.8z"/>
		</g>
		<g>
			<polygon points="65.8,82.2 66.5,82.2 63.8,79.3 36.5,79.3 34.2,82.2 			"/>
		</g>
		<g>
			<path d="M96.1,41.9v-0.4l0,0c-0.3-7.4-6.4-13.4-13.9-13.4H78l-2.3,2.8h6.4c6.1,0,11.1,5,11.1,11.1v2.4l0,1.5l0,22.2
				c0,0.4,0,0.7-0.1,1.1c-0.5,5.1-4.5,9.2-9.6,9.9l2.3,2.4c5.9-1.6,10.2-7,10.2-13.4l0-26L96.1,41.9z"/>
		</g>
		<g>
			<path d="M40.6,51.6l0-8.5h-2.8l0,8.5h-5.7l0-8.5h-2.8l0,8.5h-5.7v-8.1c0-1.9,0.5-3.3,1.5-4.3c1.7-1.8,4.5-1.8,4.6-1.8h10.6
				c0,0,2.8,0,4.5,1.8c1,1,1.5,2.4,1.5,4.3v2.8l2.8-3.5c-0.1-2.3-0.9-4.3-2.3-5.7c-2.5-2.5-6.1-2.6-6.6-2.6H29.6c0,0,0,0,0,0
				c-0.6,0-4.1,0.1-6.6,2.6c-1.6,1.6-2.4,3.7-2.3,6.3v7.7c0,0.4,0,1.4,0.8,2.2c0.4,0.4,1.2,1,2.5,1h15.8l2.3-2.8H40.6z"/>
		</g>
		<g>
			<path d="M34.9,17.6c-3.9,0-7.1,3.2-7.1,7.1c0,3.9,3.2,7.1,7.1,7.1c3.9,0,7.1-3.2,7.1-7.1C42,20.8,38.8,17.6,34.9,17.6z
				 M34.9,28.9c-2.3,0-4.3-1.9-4.3-4.3c0-2.3,1.9-4.3,4.3-4.3c2.3,0,4.3,1.9,4.3,4.3C39.1,27,37.2,28.9,34.9,28.9z"/>
		</g>
	</g>
</g>
<g id="Neg_Line">
	<rect x="49.6" y="-6.3" transform="matrix(0.7756 0.6313 -0.6313 0.7756 43.6815 -20.7076)" width="2.8" height="114.8"/>
</g>
<g id="Rahmen">
	<rect x="0" y="0.1" class="st0" width="102" height="102"/>
</g>
<g id="Schutzzone" class="st1">
	<g class="st2">
		<rect x="0" y="0" class="st3" width="102" height="5.7"/>
		<rect x="0" y="96.4" class="st3" width="102" height="5.7"/>
		
			<rect x="-48.2" y="48.2" transform="matrix(-1.836970e-16 1 -1 -1.836970e-16 53.8583 48.1817)" class="st3" width="102" height="5.7"/>
		
			<rect x="48.2" y="48.2" transform="matrix(-1.836970e-16 1 -1 -1.836970e-16 150.2375 -48.1903)" class="st3" width="102" height="5.7"/>
	</g>
</g>
</svg>
