<?xml version="1.0" encoding="utf-8"?>
<!-- Generator: Adobe Illustrator 26.0.1, SVG Export Plug-In . SVG Version: 6.00 Build 0)  -->
<svg version="1.1" xmlns="http://www.w3.org/2000/svg" xmlns:xlink="http://www.w3.org/1999/xlink" x="0px" y="0px"
	 viewBox="0 0 102 102" style="enable-background:new 0 0 102 102;" xml:space="preserve">
<style type="text/css">
	.st0{fill:none;}
	.st1{display:none;}
	.st2{display:inline;}
	.st3{opacity:0.4;fill:#7BCDEF;}
	.st4{display:inline;fill:none;}
</style>
<g id="_x30_32-cross_x5F_border-ch_x5F_eu">
	<g>
		<path d="M62.1,36.8l-0.6,3.5c-0.1,0.5,0.1,1.1,0.6,1.4c0.4,0.3,1,0.4,1.5,0.1l3.2-1.7l3.2,1.7c0.2,0.1,0.4,0.2,0.7,0.2
			c0.3,0,0.6-0.1,0.8-0.3c0.4-0.3,0.7-0.9,0.6-1.4l-0.6-3.5l2.6-2.5c0.4-0.4,0.5-0.9,0.4-1.5c-0.2-0.5-0.6-0.9-1.1-1l-3.5-0.5
			l-1.6-3.2c-0.2-0.5-0.7-0.8-1.3-0.8s-1,0.3-1.3,0.8l-1.6,3.2l-3.5,0.5c-0.5,0.1-1,0.5-1.1,1c-0.2,0.5,0,1.1,0.4,1.5L62.1,36.8z
			 M65,34c0.5-0.1,0.9-0.4,1.1-0.8l0.6-1.3l0.6,1.3c0.2,0.4,0.6,0.7,1.1,0.8l1.4,0.2l-1,1c-0.3,0.3-0.5,0.8-0.4,1.3l0.2,1.4
			l-1.3-0.7c-0.4-0.2-0.9-0.2-1.3,0l-1.3,0.7l0.2-1.4c0.1-0.5-0.1-0.9-0.4-1.3l-1-1L65,34z"/>
		<path d="M82.1,49.2c-0.2-0.5-0.6-0.9-1.1-1l-3.5-0.5l-1.6-3.2c-0.2-0.5-0.7-0.8-1.3-0.8s-1,0.3-1.3,0.8l-1.6,3.2l-3.5,0.5
			c-0.5,0.1-1,0.5-1.1,1c-0.2,0.5,0,1.1,0.4,1.5l2.6,2.5l-0.6,3.5c-0.1,0.5,0.1,1.1,0.6,1.4c0.2,0.2,0.5,0.3,0.8,0.3
			c0.2,0,0.5-0.1,0.7-0.2l3.2-1.7l3.2,1.7c0.5,0.2,1.1,0.2,1.5-0.1c0.4-0.3,0.7-0.9,0.6-1.4l-0.6-3.5l2.6-2.5
			C82.1,50.3,82.3,49.8,82.1,49.2z M76.7,51.7c-0.3,0.3-0.5,0.8-0.4,1.3l0.2,1.4l-1.3-0.7c-0.2-0.1-0.4-0.2-0.7-0.2
			s-0.5,0.1-0.7,0.2l-1.3,0.7l0.2-1.4c0.1-0.5-0.1-0.9-0.4-1.3l-1-1l1.4-0.2c0.5-0.1,0.9-0.4,1.1-0.8l0.6-1.3l0.6,1.3
			c0.2,0.4,0.6,0.7,1.1,0.8l1.4,0.2L76.7,51.7z"/>
		<path d="M73.1,64.7l-3.5-0.5L67.9,61c-0.2-0.5-0.7-0.8-1.3-0.8s-1,0.3-1.3,0.8l-1.6,3.2l-3.5,0.5c-0.5,0.1-1,0.5-1.1,1
			c-0.2,0.5,0,1.1,0.4,1.5l2.6,2.5l-0.6,3.5c-0.1,0.5,0.1,1.1,0.6,1.4c0.2,0.2,0.5,0.3,0.8,0.3c0.2,0,0.5-0.1,0.7-0.2l3.2-1.7
			l3.2,1.7c0.5,0.2,1.1,0.2,1.5-0.1c0.4-0.3,0.7-0.9,0.6-1.4l-0.6-3.5l2.6-2.5c0.4-0.4,0.5-0.9,0.4-1.5
			C74.1,65.2,73.6,64.8,73.1,64.7z M68.8,68.1c-0.3,0.3-0.5,0.8-0.4,1.3l0.2,1.4l-1.3-0.7c-0.4-0.2-0.9-0.2-1.3,0l-1.3,0.7l0.2-1.4
			c0.1-0.5-0.1-0.9-0.4-1.3l-1-1l1.4-0.2c0.5-0.1,0.9-0.4,1.1-0.8l0.6-1.3l0.6,1.3c0.2,0.4,0.6,0.7,1.1,0.8l1.4,0.2L68.8,68.1z"/>
		<path d="M57.5,72.1l-3.5-0.5l-1.6-3.2c-0.2-0.5-0.7-0.8-1.3-0.8s-1,0.3-1.3,0.8l-1.6,3.2l-3.5,0.5c-0.5,0.1-1,0.5-1.1,1
			c-0.2,0.5,0,1.1,0.4,1.5l2.6,2.5l-0.6,3.5c-0.1,0.5,0.1,1.1,0.6,1.4c0.2,0.2,0.5,0.3,0.8,0.3c0.2,0,0.5-0.1,0.7-0.2l3.2-1.7
			l3.2,1.7c0.5,0.2,1.1,0.2,1.5-0.1c0.4-0.3,0.7-0.9,0.6-1.4L55.7,77l2.6-2.5c0.4-0.4,0.5-0.9,0.4-1.5C58.5,72.5,58,72.2,57.5,72.1z
			 M53.2,75.5c-0.3,0.3-0.5,0.8-0.4,1.3l0.2,1.4l-1.3-0.7c-0.4-0.2-0.9-0.2-1.3,0l-1.3,0.7l0.2-1.4c0.1-0.5-0.1-0.9-0.4-1.3l-1-1
			l1.4-0.2c0.5-0.1,0.9-0.4,1.1-0.8l0.6-1.3l0.6,1.3c0.2,0.4,0.6,0.7,1.1,0.8l1.4,0.2L53.2,75.5z"/>
		<path d="M57.3,24.3l-3.5-0.5l-1.6-3.2c-0.2-0.5-0.7-0.8-1.3-0.8s-1,0.3-1.3,0.8l-1.6,3.2l-3.5,0.5c-0.5,0.1-1,0.5-1.1,1
			c-0.2,0.5,0,1.1,0.4,1.5l2.6,2.5l-0.6,3.5c-0.1,0.5,0.1,1.1,0.6,1.4c0.2,0.2,0.5,0.3,0.8,0.3c0.2,0,0.5-0.1,0.7-0.2l3.2-1.7
			l3.2,1.7c0.5,0.2,1.1,0.2,1.5-0.1c0.4-0.3,0.7-0.9,0.6-1.4l-0.6-3.5l2.6-2.5c0.4-0.4,0.5-0.9,0.4-1.5
			C58.3,24.8,57.9,24.4,57.3,24.3z M53.1,27.7c-0.3,0.3-0.5,0.8-0.4,1.3l0.2,1.4l-1.3-0.7c-0.4-0.2-0.9-0.2-1.3,0L49,30.4l0.2-1.4
			c0.1-0.5-0.1-0.9-0.4-1.3l-1-1l1.4-0.2c0.5-0.1,0.9-0.4,1.1-0.8l0.6-1.3l0.6,1.3c0.2,0.4,0.6,0.7,1.1,0.8l1.4,0.2L53.1,27.7z"/>
		<path d="M42.3,34.2c0.4-0.4,0.5-0.9,0.4-1.5c-0.2-0.5-0.6-0.9-1.1-1L38,31.2L36.4,28c-0.2-0.5-0.7-0.8-1.3-0.8s-1,0.3-1.3,0.8
			l-1.6,3.2l-3.5,0.5c-0.5,0.1-1,0.5-1.1,1c-0.2,0.5,0,1.1,0.4,1.5l2.6,2.5l-0.6,3.5c-0.1,0.5,0.1,1.1,0.6,1.4
			c0.2,0.2,0.5,0.3,0.8,0.3c0.2,0,0.5-0.1,0.7-0.2l3.2-1.7l3.2,1.7c0.5,0.2,1.1,0.2,1.5-0.1c0.4-0.3,0.7-0.9,0.6-1.4l-0.6-3.5
			L42.3,34.2z M38.3,34.2l-1,1c-0.3,0.3-0.5,0.8-0.4,1.3l0.2,1.4l-1.3-0.7c-0.4-0.2-0.9-0.2-1.3,0l-1.3,0.7l0.2-1.4
			c0.1-0.5-0.1-0.9-0.4-1.3l-1-1l1.4-0.2c0.5-0.1,0.9-0.4,1.1-0.8l0.6-1.3l0.6,1.3c0.2,0.4,0.6,0.7,1.1,0.8L38.3,34.2z"/>
		<path d="M20,50.6l2.6,2.5L22,56.6c-0.1,0.5,0.1,1.1,0.6,1.4c0.4,0.3,1,0.4,1.5,0.1l3.2-1.7l3.2,1.7c0.2,0.1,0.4,0.2,0.7,0.2
			c0.3,0,0.6-0.1,0.8-0.3c0.4-0.3,0.7-0.9,0.6-1.4l-0.6-3.5l2.6-2.5c0.4-0.4,0.5-0.9,0.4-1.5c-0.2-0.5-0.6-0.9-1.1-1l-3.5-0.5
			l-1.6-3.2c-0.2-0.5-0.7-0.8-1.3-0.8s-1,0.3-1.3,0.8l-1.6,3.2l-3.5,0.5c-0.5,0.1-1,0.5-1.1,1C19.5,49.7,19.6,50.2,20,50.6z
			 M24.1,50.6l1.4-0.2c0.5-0.1,0.9-0.4,1.1-0.8l0.6-1.3l0.6,1.3c0.2,0.4,0.6,0.7,1.1,0.8l1.4,0.2l-1,1c-0.3,0.3-0.5,0.8-0.4,1.3
			l0.2,1.4l-1.3-0.7c-0.2-0.1-0.4-0.2-0.7-0.2s-0.5,0.1-0.7,0.2l-1.3,0.7l0.2-1.4c0.1-0.5-0.1-0.9-0.4-1.3L24.1,50.6z"/>
		<path d="M27.6,65.6c-0.2,0.5,0,1.1,0.4,1.5l2.6,2.5l-0.6,3.5c-0.1,0.5,0.1,1.1,0.6,1.4c0.4,0.3,1,0.4,1.5,0.1l3.2-1.7l3.2,1.7
			c0.2,0.1,0.4,0.2,0.7,0.2c0.3,0,0.6-0.1,0.8-0.3c0.4-0.3,0.7-0.9,0.6-1.4l-0.6-3.5l2.6-2.5c0.4-0.4,0.5-0.9,0.4-1.5
			c-0.2-0.5-0.6-0.9-1.1-1L38,64.1l-1.6-3.2c-0.2-0.5-0.7-0.8-1.3-0.8s-1,0.3-1.3,0.8l-1.6,3.2l-3.5,0.5
			C28.2,64.7,27.7,65.1,27.6,65.6z M32,67l1.4-0.2c0.5-0.1,0.9-0.4,1.1-0.8l0.6-1.3l0.6,1.3c0.2,0.4,0.6,0.7,1.1,0.8l1.4,0.2l-1,1
			c-0.3,0.3-0.5,0.8-0.4,1.3l0.2,1.4L35.8,70c-0.4-0.2-0.9-0.2-1.3,0l-1.3,0.7l0.2-1.4c0.1-0.5-0.1-0.9-0.4-1.3L32,67z"/>
	</g>
</g>
<g id="Rahmen">
	<rect x="0" y="0" class="st0" width="102" height="102"/>
</g>
<g id="Schutzzone" class="st1">
	<g class="st2">
		<rect y="0" class="st3" width="102" height="5.7"/>
		<rect x="0" y="96.4" class="st3" width="102" height="5.7"/>
		
			<rect x="-48.2" y="48.2" transform="matrix(-1.836970e-16 1 -1 -1.836970e-16 53.8573 48.1827)" class="st3" width="102" height="5.7"/>
		
			<rect x="48.2" y="48.2" transform="matrix(-1.836970e-16 1 -1 -1.836970e-16 150.2365 -48.1893)" class="st3" width="102" height="5.7"/>
	</g>
	<rect y="0" class="st4" width="102" height="102"/>
</g>
</svg>
