<?xml version="1.0" standalone="no"?>
<!DOCTYPE svg PUBLIC "-//W3C//DTD SVG 20010904//EN"
 "http://www.w3.org/TR/2001/REC-SVG-20010904/DTD/svg10.dtd">
<svg version="1.0" xmlns="http://www.w3.org/2000/svg"
 width="512.000000pt" height="512.000000pt" viewBox="0 0 512.000000 512.000000"
 preserveAspectRatio="xMidYMid meet">
<metadata>
Created by potrace 1.14, written by Peter Selinger 2001-2017
</metadata>
<g transform="translate(0.000000,512.000000) scale(0.100000,-0.100000)"
fill="#000000" stroke="none">
<path d="M2310 4631 c-65 -15 -65 -16 -65 -180 0 -165 -6 -185 -72 -223 -28
-17 -46 -19 -275 -33 -164 -10 -231 -78 -223 -227 4 -92 15 -274 20 -353 2
-33 7 -112 10 -175 3 -63 8 -140 10 -170 2 -30 7 -111 10 -180 8 -149 17 -188
52 -231 46 -55 91 -68 207 -61 210 12 272 9 303 -14 45 -32 66 -86 64 -163 -2
-115 -18 -151 -82 -183 -30 -16 -60 -17 -274 -13 -545 11 -598 10 -631 -7 -33
-18 -44 -28 -371 -344 -124 -120 -232 -232 -241 -249 -20 -38 -20 -121 1 -162
9 -17 42 -58 74 -90 63 -65 415 -432 454 -473 63 -67 40 -64 612 -74 299 -6
319 -10 359 -74 18 -30 22 -48 20 -111 -3 -104 -10 -257 -17 -372 -5 -80 -4
-99 9 -112 13 -12 23 -14 49 -5 83 26 147 29 192 9 25 -11 217 -71 246 -76 11
-2 28 -7 37 -9 25 -8 111 -10 118 -3 8 8 11 29 19 169 3 62 8 142 10 178 3 36
7 112 10 170 7 121 22 160 73 192 31 19 49 22 141 21 147 -1 205 28 240 120 9
24 15 193 26 850 5 269 4 290 -14 325 -37 73 -91 100 -211 107 -144 8 -166 34
-186 209 -15 132 -10 168 29 204 41 38 61 42 302 57 80 5 138 9 310 20 154 11
158 13 315 195 12 14 36 41 53 60 18 19 66 73 107 120 41 47 80 90 85 96 166
187 167 187 168 260 1 38 -6 62 -26 97 -15 25 -34 50 -41 54 -8 4 -36 28 -63
53 -27 25 -83 74 -123 110 -40 36 -85 76 -100 90 -15 14 -43 38 -61 54 -19 16
-72 64 -119 105 -107 96 -127 106 -209 105 -61 0 -311 -12 -391 -19 -289 -23
-346 -16 -389 44 -23 32 -26 45 -35 142 -8 90 -35 135 -96 162 -26 11 -375 18
-420 8z"/>
</g>
</svg>
