<svg xmlns="http://www.w3.org/2000/svg" width="256" height="256"><path fill="#315e47" fill-opacity=".016" fill-rule="evenodd" d="M0 128.004v128.004l128.25-.254 128.25-.254.254-127.75L257.008 0H0zm.485.496c0 70.4.119 99.053.265 63.672s.146-92.98 0-128S.485 58.1.485 128.5"/><path fill="#315e47" fill-opacity=".346" fill-rule="evenodd" d="M108.173 1.591c-2.1 1.471-2.25 2.225-1.987 9.987.253 7.484.049 8.631-1.876 10.556-2.476 2.477-8.612 3.719-18.81 3.808-7.846.069-12.694 1.969-15.785 6.189-1.905 2.6-1.902 3.007.26 34.957 1.517 22.411 2.628 33.177 3.623 35.102 2.623 5.072 6.076 6 20.977 5.636l13.378-.326 2.73 2.729c2.386 2.385 2.712 3.453 2.594 8.492-.119 5.106-.49 6.08-3.252 8.548l-3.118 2.786-28.29-.682c-23.786-.574-28.756-.45-31.217.778-1.61.803-11.548 8.75-22.085 17.661-20.413 17.262-21.834 19.107-19.341 25.124 1.133 2.737 35.178 34.448 39.399 36.698 1.332.71 12.556 1.408 30.041 1.868 27.878.733 27.916.737 30.374 3.195l2.461 2.461-.726 16.972-.725 16.972 7.351-.657c6.248-.559 8.702-.262 16.351 1.976 4.95 1.449 11.563 2.908 14.697 3.243 6.876.736 6.284 2.297 7.79-20.542.593-9.007 1.479-17.125 1.969-18.039 1.531-2.861 5.248-3.977 14.275-4.285 8.354-.285 8.872-.439 12-3.567l3.269-3.268.806-32.64c.618-25.036.52-33.329-.42-35.599-1.772-4.278-6.367-6.716-12.668-6.72-6.97-.005-11.587-2.009-12.973-5.631-1.838-4.804-2.169-13.577-.625-16.585 1.951-3.802 5.602-4.529 29.235-5.819 11.196-.611 21.204-1.425 22.24-1.809 2.605-.963 35.767-32.887 38.047-36.626 2.257-3.701 2.369-7.359.315-10.292-1.683-2.402-35.768-29.313-41.151-32.489-3.188-1.881-4.186-1.916-24.567-.857-30.389 1.579-31.39 1.544-34.129-1.195-1.537-1.537-2.535-4.08-3.012-7.673C144.179 1.33 141.708 0 123.255 0c-10.095 0-13.292.337-15.082 1.591"/><path fill="#315e47" fill-opacity=".129" fill-rule="evenodd" d="M107.648 2.495c-1.167 1.167-1.373 3.1-.94 8.821.925 12.237-1.38 14.117-18.364 14.973-7.432.374-12.214 1.11-14.328 2.203-5.89 3.045-6.005 4.37-3.515 40.359l2.239 32.35 3.152 3.15 3.153 3.149h30.119l2.418 2.806c1.927 2.235 2.418 3.928 2.418 8.327 0 4.803-.391 5.911-3.006 8.527l-3.006 3.006-29.744-.288c-17.629-.17-30.42.102-31.403.667-2.04 1.174-29.559 24.31-36.091 30.342-4.8 4.433-5.926 7.884-4.114 12.607.68 1.772 33.964 32.541 38.226 35.337 2.167 1.423 6.625 1.743 30.237 2.169 25.852.467 27.841.632 29.891 2.489 1.207 1.094 2.578 2.704 3.046 3.578.469.877.438 8.482-.071 16.983-.507 8.466-.559 15.756-.117 16.198s3.162.3 6.042-.318c4.731-1.014 6.315-.83 16.423 1.908 13.889 3.763 19.277 4.634 20.13 3.255.356-.577 1.219-9.124 1.916-18.994.889-12.57 1.699-18.464 2.705-19.677 2.461-2.967 7.603-4.533 12.724-3.875 5.901.759 11.861-1.157 14.448-4.645 1.769-2.384 1.989-5.233 2.666-34.5.646-27.906.541-32.34-.832-35.402-2.081-4.638-6.932-6.996-14.397-6.998-5.033-.002-6.204-.38-8.598-2.773-2.313-2.313-2.889-3.962-3.48-9.96-1.287-13.063-.006-13.831 25.405-15.232 31.023-1.711 25.598.675 47.157-20.745 11.834-11.758 18.834-19.466 19.142-21.075 1.039-5.437-.997-7.696-20.893-23.188-10.703-8.335-20.911-15.732-22.684-16.438-2.608-1.039-7.894-1.053-27.722-.071-13.475.666-25.4.874-26.5.461-3.605-1.354-5.633-4.688-6.431-10.57-.604-4.455-1.397-6.297-3.482-8.089C139.026 1.118 138.133 1 124.016 1c-11.864 0-15.176.302-16.368 1.495M136.5 31.201c-23.65 1.061-44.664 2.36-46.697 2.888s-5.072 2.333-6.75 4.012c-3.661 3.66-3.686 4.164-1.53 30.089 1.672 20.111 2.268 21.856 8.548 25.058 2.525 1.288 5.802 1.743 12.429 1.728 18.289-.042 91.094-3.836 93.818-4.889 3.635-1.405 28.64-22.328 30.927-25.879 2.35-3.647 2.204-7.367-.418-10.701-2.932-3.727-30.871-22.148-35.574-23.453-2.064-.574-5.553-.984-7.753-.912s-23.35.998-47 2.059"/><path fill="#315e47" fill-opacity=".146" fill-rule="evenodd" d="M108.25 1.627c-.865.374-1.25 3.266-1.25 9.401 0 7.826-.271 9.175-2.32 11.557-2.191 2.548-3.064 2.76-15.75 3.834-21.808 1.846-20.865-.027-18.572 36.883 2.32 37.353 2.298 37.2 5.856 40.758 3.357 3.358 3.147 3.325 19.499 2.975l12.214-.262 3.036 3.036c2.666 2.667 3.037 3.727 3.037 8.691 0 4.916-.382 6.035-2.923 8.577L108.154 130H78.511c-20.694 0-30.302.353-31.827 1.168-3.665 1.961-39.374 32.582-40.051 34.345-1.521 3.964-.581 7.371 3.117 11.302 3.464 3.683 22.151 20.784 32.06 29.339 5.32 4.594 8.524 5.008 36.19 4.678 31.66-.377 31.539-.469 30.187 22.954-.498 8.643-.599 16.062-.223 16.487.375.425 3.044.228 5.931-.438 4.205-.971 6.178-.95 9.927.103 2.573.723 5.353 1.42 6.178 1.549.825.13 2.175.498 3 .82 6.35 2.473 16.362 3.535 17.406 1.845.288-.467 1.019-8.229 1.623-17.25s1.561-17.608 2.127-19.082c1.485-3.87 6.409-5.82 14.698-5.82 3.879 0 8.232-.538 9.674-1.195 5.094-2.321 5.366-4.079 6.101-39.509l.683-32.908-3.031-3.101c-2.608-2.668-3.993-3.195-9.906-3.774-8.792-.862-10.038-1.235-12.334-3.699-1.31-1.407-2.1-4.26-2.572-9.3-1.301-13.887-.772-14.179 28.913-15.953 15.844-.947 23.116-1.771 25.195-2.855 1.608-.839 10.685-9.397 20.173-19.018C247.221 65 249 62.847 249 59.82c0-1.856-.694-4.366-1.543-5.578-1.424-2.033-33.557-27.64-39.898-31.795-2.633-1.725-4.181-1.76-28.659-.652-28.284 1.282-29.875 1.089-32.475-3.94-.784-1.516-1.425-4.512-1.425-6.659 0-2.848-.725-4.687-2.681-6.8L139.637 1.5l-15.068-.206c-8.288-.114-15.631.036-16.319.333m21.153 29.35c-20.404.972-38.667 2.285-40.585 2.918-3.602 1.189-8.054 5.267-9.151 8.383-.597 1.698 1.888 38.638 2.934 43.6.751 3.563 5.552 7.817 10.251 9.082 3.201.862 15.124.634 51.408-.982 25.982-1.157 48.838-2.519 50.791-3.026 2.171-.564 8-4.658 15-10.534 15.546-13.052 18.757-16.269 19.468-19.505 1.174-5.343-1.665-8.309-19.297-20.167L193.5 29.5l-13.5-.145c-7.425-.079-30.194.651-50.597 1.622m-67.13 112.504c-5.116 2.224-30.018 19.379-32.251 22.218-2.763 3.513-2.537 6.705.728 10.283 4.792 5.252 28.457 21.822 32.728 22.917 2.407.616 23.497 1.145 52.522 1.316l48.5.285 3.632-2.259c1.998-1.242 4.101-3.492 4.673-5 .572-1.507 1.323-11.108 1.668-21.334.705-20.911.356-22.605-5.395-26.182-3.444-2.142-4.794-2.249-36.078-2.867-54.143-1.07-67.094-.956-70.727.623"/></svg>