<svg xmlns="http://www.w3.org/2000/svg" width="256" height="256"><path fill="#8fd6b7" fill-opacity=".243" fill-rule="evenodd" d="M0 128.004v128.004l128.25-.254 128.25-.254.254-127.75L257.008 0H0zm.485.496c0 70.4.119 99.053.265 63.672s.146-92.98 0-128S.485 58.1.485 128.5"/><path fill="#8fd6b7" fill-opacity=".363" fill-rule="evenodd" d="M112.25 44.662c-.829.335-1.25 2.809-1.25 7.35 0 8.872-.825 9.661-11.036 10.552-5.821.507-8.749 1.266-10.645 2.757l-2.615 2.057.638 14.727c1.378 31.839 1.731 34.829 4.513 38.134 2.53 3.008 2.569 3.016 10.866 2.499 10.737-.67 12.871.666 12.597 7.888-.274 7.237-.682 7.37-22.759 7.4l-19.059.026-13.259 12.724c-17.804 17.085-17.804 15.632.009 33.76l13.25 13.485 17.027-.011c14.088-.008 17.427.27 19.34 1.61l2.312 1.619-.728 27.409-.728 27.409 14.388-.279 14.389-.278 1.019-26.166C141.712 198.708 141.614 199 150.7 199c4.285 0 5.861-.47 7.68-2.289 2.088-2.088 2.348-3.513 2.955-16.159.366-7.627.665-18.993.665-25.256 0-10.756-.136-11.523-2.455-13.841-1.86-1.861-3.516-2.455-6.845-2.455-5.68 0-7.445-1.978-8.306-9.309-1.031-8.766-.145-9.349 15.423-10.151 6.976-.36 13.937-.893 15.47-1.184 3.305-.63 26.264-25.718 27.295-29.827.398-1.587.05-3.441-.926-4.931-1.846-2.817-23.871-22.587-26.999-24.234-1.565-.824-6.277-.881-17.157-.207-8.25.51-15.968.687-17.15.392-2.244-.56-4.35-5.014-4.35-9.198 0-1.293-.9-3.251-2-4.351-1.725-1.725-3.27-1.989-11.25-1.921-5.088.043-9.812.306-10.5.583"/><path fill="#8fd6b7" fill-opacity=".366" fill-rule="evenodd" d="M112.718 45.047c-1.462.893-1.738 2.263-1.54 7.641C111.496 61.301 109.711 63 100.34 63c-7.372 0-12.032 1.926-12.885 5.324-.316 1.258.082 13.004.884 26.103 1.795 29.307 1.199 28.174 14.614 27.748 7.903-.251 9.176-.046 10.993 1.771 3.13 3.13 2.859 10.275-.489 12.909-2.401 1.889-3.575 1.968-20.99 1.419l-18.447-.581-13.51 13.417C49.711 161.834 47 165.076 47 167.268c0 2.125 2.719 5.648 12.088 15.663 6.648 7.108 12.835 13.216 13.75 13.576.914.359 9.446.911 18.96 1.226 17.016.563 17.33.614 19.292 3.108 1.683 2.14 1.913 3.56 1.476 9.097-.285 3.609-.79 15.45-1.121 26.312l-.602 19.75h27.899l.606-9.75c.333-5.363.887-17.175 1.231-26.25.753-19.89 1.197-21 8.397-21 5.936 0 9.451-1.447 10.822-4.457.57-1.249 1.164-12.886 1.347-26.375.32-23.596.279-24.189-1.825-26.293-1.445-1.445-3.845-2.315-7.301-2.647-6.371-.612-7.876-2.558-8.214-10.619-.357-8.53.172-8.763 23.195-10.194l10.5-.653 3.846-4.131c2.115-2.272 7.627-8.465 12.25-13.761 12.18-13.956 12.349-13.266-7.596-30.869l-11.5-10.15-17.608.696-17.608.697-1.642-2.345C136.739 56.61 136 54.13 136 52.388s-.86-4.229-1.911-5.527c-1.71-2.113-2.84-2.389-10.75-2.632-5.113-.156-9.59.188-10.621.818M75.916 153.609C64.379 162.49 62 165.001 62 168.295c0 3.216 1.813 5.175 13.492 14.57l7.22 5.808 21.894.661c39.111 1.181 42.848 1.04 46.088-1.744 2.78-2.388 2.811-2.543 3.306-16.75.275-7.887.154-15.474-.268-16.861-1.616-5.306-2.588-5.455-37.816-5.779l-32.584-.3z"/><path fill="#8fd6b7" fill-opacity=".461" fill-rule="evenodd" d="M111.876 46.25c-.068.688-.024 3.649.098 6.582.312 7.512-2.2 10.123-9.898 10.286-8.101.172-11.138 1.067-13.168 3.882-1.711 2.373-1.731 3.613-.384 24.5.78 12.1 1.431 23.013 1.447 24.25S90.9 118.9 92 120c1.715 1.715 3.333 2 11.345 2 11.155 0 12.655.987 12.655 8.329 0 3.439-.564 5.235-2.139 6.81-2.065 2.065-2.752 2.122-19.75 1.642-9.686-.274-18.367-.224-19.292.11-3.169 1.148-26.577 24.008-27.224 26.587-.982 3.91 1.243 7.015 14.085 19.658l11.82 11.635 18 .568c23.485.74 21.852-1.053 21.056 23.115-.328 9.925-.845 21.984-1.151 26.796l-.555 8.75H139l.01-4.75c.005-2.613.455-14.65 1-26.75.981-21.781 1.017-22.022 3.546-24.25 1.962-1.728 3.783-2.25 7.845-2.25 9.071 0 9.043.085 9.418-28.854.369-28.43.506-27.919-7.837-29.238-6.845-1.082-8.657-3.005-9.512-10.096-.623-5.17-.464-5.909 1.747-8.12 2.256-2.255 3.443-2.486 16.358-3.17 7.659-.406 14.683-1.14 15.61-1.63.926-.491 6.888-6.747 13.25-13.903 13.926-15.668 14.111-16.362 6.315-23.769-7.518-7.143-18.882-17.158-21.416-18.873-1.839-1.245-4.555-1.314-18-.456-18.921 1.208-20.278.737-21.621-7.495-.44-2.693-1.541-5.458-2.447-6.146-1.059-.803-5.156-1.25-11.457-1.25-7.114 0-9.843.343-9.933 1.25m15.003 20.315c-13.541.762-25.78 1.827-27.197 2.366-5.441 2.068-5.945 4.334-4.734 21.256.602 8.422 1.565 16.49 2.14 17.929 1.597 4.002 5.249 5.416 13.321 5.156 17.361-.558 52.408-2.38 55.571-2.889 2.696-.434 5.682-2.723 13.25-10.159 8.889-8.732 9.77-9.934 9.77-13.318 0-4.027-1.083-5.142-15.998-16.47-6.366-4.835-6.653-4.939-14-5.097-4.126-.088-18.581.463-32.123 1.226m-52.922 88.114c-11.336 8.58-13.478 11.107-12.55 14.805.682 2.718 16.931 17.225 21.501 19.196 1.865.805 12.672 1.257 33.948 1.421 40.4.31 37.87 1.802 38.044-22.428.1-13.816.098-13.829-2.656-16.583l-2.757-2.757-18.993-.664c-10.447-.365-25.158-.665-32.693-.666L84.103 147z"/></svg>