<svg xmlns="http://www.w3.org/2000/svg" width="256" height="256"><path fill="#8fd6b7" fill-opacity=".243" fill-rule="evenodd" d="M0 128.004v128.004l128.25-.254 128.25-.254.254-127.75L257.008 0H0zm.485.496c0 70.4.119 99.053.265 63.672s.146-92.98 0-128S.485 58.1.485 128.5"/><path fill="#8fd6b7" fill-opacity=".363" fill-rule="evenodd" d="M110.75 32.033c-1.43.871-1.75 2.517-1.75 8.994 0 9.754-.854 10.515-12.623 11.256-14.993.943-15.007.972-13.484 29.913 1.595 30.321 1.91 32.698 4.7 35.488C89.717 119.808 90.769 120 100.3 120c12.465 0 13.7.789 13.7 8.757 0 5.338-1.672 8.209-4.821 8.281-.924.021-10.545.005-21.381-.036l-19.702-.075-7.798 6.911c-4.289 3.802-11.286 10.516-15.548 14.922-11.335 11.716-11.374 11.516 5.838 29.524 7.473 7.819 14.561 14.763 15.75 15.431 1.476.829 8.128 1.225 20.957 1.25 18.337.034 18.853.092 21.13 2.369 2.273 2.273 2.321 2.689 1.818 15.857-.315 8.255-.137 13.756.456 14.123.534.33 2.56.112 4.502-.484 2.978-.914 4.766-.686 11.415 1.458 9.091 2.93 12.843 3.664 14.258 2.79.552-.341 1.463-7.586 2.026-16.099C144.112 206.64 144.485 206 153.976 206c6.923 0 10.696-2.407 11.434-7.293.266-1.764.733-14.562 1.039-28.439l.554-25.233-2.833-3.171c-2.408-2.694-3.696-3.243-8.563-3.647-6.842-.567-8.075-1.995-8.991-10.409-.544-5-.346-5.992 1.632-8.161 2.128-2.332 3.161-2.528 18.752-3.554 13.085-.862 16.952-1.45 18.682-2.84 3.985-3.201 25.283-28.031 26.27-30.626 1.798-4.729-.472-7.857-15.056-20.752-7.697-6.806-15.035-12.825-16.308-13.375-1.519-.657-8.56-.688-20.507-.092-21.01 1.049-20.823 1.112-22.188-7.523-1.308-8.274-2.973-9.333-15.168-9.652-5.979-.156-10.952.176-11.975.8"/><path fill="#8fd6b7" fill-opacity=".366" fill-rule="evenodd" d="M110.338 33.062c-.639.639-.876 3.729-.595 7.75.648 9.28-1.058 10.852-12.762 11.762-9.153.712-12.548 2.156-13.992 5.954-.583 1.535-.387 10.963.535 25.698.801 12.801 1.461 24.771 1.466 26.601.007 2.364.889 4.206 3.049 6.366l3.039 3.039 9.417-.706c9.191-.689 9.477-.645 11.96 1.839 3.637 3.636 3.606 10.665-.064 14.335l-2.608 2.608-20.142-.588c-14.626-.428-20.724-.264-22.268.596-3.523 1.961-28.228 26.272-29.471 29-.636 1.395-.883 3.624-.55 4.952.334 1.329 7.029 9.003 14.877 17.053L66.5 203.958l20.392.663c26.269.855 24.633-.432 23.666 18.617l-.709 13.97 4.938-.679c3.898-.536 6.737-.118 13.467 1.98 13.624 4.248 13.063 4.766 14.246-13.158 1.206-18.266 1.778-19.351 10.205-19.351 5.873 0 10.628-1.9 11.792-4.713.407-.983.973-14.234 1.257-29.447l.516-27.661-2.59-2.589c-1.922-1.923-3.619-2.59-6.587-2.59-4.707 0-8.735-1.626-9.598-3.873-.338-.881-.866-4.308-1.173-7.615-.46-4.955-.226-6.421 1.332-8.34 1.76-2.167 2.961-2.394 17.368-3.288 8.513-.528 16.474-1.173 17.692-1.432 2.614-.557 28.065-28.895 28.921-32.202.32-1.237.303-3.361-.038-4.719-.629-2.506-25.534-25.794-30.36-28.388-2.066-1.111-5.691-1.17-19.993-.323-12.482.739-18.15.724-19.854-.052-2.377-1.083-4.373-5.871-4.384-10.518-.003-1.237-.906-3.15-2.006-4.25-1.753-1.753-3.333-2-12.8-2-6.287 0-11.244.444-11.862 1.062M77.917 149.295c-1.421.663-7.169 4.768-12.773 9.123-15.035 11.682-15.013 13.333.356 26.298 6.931 5.846 12.11 9.458 14 9.762 1.65.266 18.671.604 37.823.752l34.824.27 2.926-3.266 2.927-3.266v-34.619l-2.579-2.425c-2.51-2.359-3.143-2.441-23.75-3.068-34.176-1.04-50.875-.904-53.754.439"/><path fill="#8fd6b7" fill-opacity=".461" fill-rule="evenodd" d="M110.667 32.667c-.367.366-.667 3.916-.667 7.889 0 10.489-1.199 11.669-12.617 12.414-10.04.655-13.061 1.901-14.036 5.785-1.121 4.465 1.714 53.353 3.272 56.424 1.806 3.56 4.209 4.199 14.741 3.916 7.986-.214 9.095-.016 11.25 2.008 3.392 3.187 3.436 11.566.076 14.723-2.23 2.094-3.112 2.174-23.989 2.174H67.023l-14.129 13.744c-7.771 7.559-14.523 14.78-15.005 16.048-1.469 3.864 1.281 7.943 14.972 22.208l12.957 13.5 20.507.519c26.73.676 25.088-.582 24.443 18.723l-.476 14.241 5.229-.614c3.888-.457 6.865-.083 11.604 1.459 3.506 1.141 7.999 2.36 9.983 2.708 3.441.604 3.638.485 4.25-2.576.353-1.766.665-5.966.693-9.335.09-10.745 1.439-19.544 3.278-21.383 1.242-1.242 3.587-1.769 8.421-1.892 5.757-.146 6.996-.515 8.811-2.626 1.94-2.256 2.167-4.075 2.776-22.251 1.158-34.586 1.124-35.165-2.26-38.55-2.388-2.388-3.77-2.923-7.546-2.923-6.605 0-9.489-3.051-9.649-10.205-.169-7.546-.043-8.058 2.579-10.42 2.067-1.862 4.069-2.211 16.199-2.823 7.612-.385 15.415-1.105 17.34-1.601 2.78-.715 6.096-3.848 16.118-15.224 12.91-14.653 14.496-17.146 13.481-21.19-.51-2.031-24.464-24.379-30.216-28.19-1.756-1.164-4.652-1.23-17-.39-21.516 1.463-22.086 1.431-24.928-1.412-1.875-1.874-2.455-3.511-2.455-6.927 0-3.641-.49-4.858-2.635-6.545-2.274-1.789-4.03-2.073-12.833-2.073-5.609 0-10.499.3-10.865.667M127.5 56.71c-17.333.941-29.213 2.017-31.184 2.826-5.857 2.404-6.424 5.053-5.163 24.126.612 9.261 1.673 18.223 2.357 19.916.755 1.868 2.619 3.73 4.742 4.737 3.265 1.55 5.856 1.538 39.075-.182 28.889-1.495 36.01-2.142 37.876-3.445 5.625-3.927 21.707-20.405 22.315-22.864 1.113-4.501-1.49-7.725-13.911-17.226L171.713 55.5l-8.106-.155c-4.459-.085-20.707.529-36.107 1.365m-48.037 91.456c-3.013.809-20.691 14.127-24.051 18.121-4.736 5.628-3.695 7.641 9.732 18.833 7.222 6.02 12.184 9.399 14.64 9.969 2.044.475 19.103.874 37.91.887l34.194.024 2.794-2.403c2.538-2.183 2.856-3.213 3.469-11.25.371-4.866.714-13.054.762-18.196.085-9.178.031-9.4-2.961-12.196-1.963-1.834-4.543-3.041-7.25-3.393-6.304-.821-66.377-1.164-69.239-.396"/></svg>