<svg xmlns="http://www.w3.org/2000/svg" width="256" height="256"><path fill="#8fd6b7" fill-opacity=".016" fill-rule="evenodd" d="M0 128.004v128.004l128.25-.254 128.25-.254.254-127.75L257.008 0H0zm.485.496c0 70.4.119 99.053.265 63.672s.146-92.98 0-128S.485 58.1.485 128.5"/><path fill="#8fd6b7" fill-opacity=".215" fill-rule="evenodd" d="M53.176 6.032C41.961 8.338 30.819 16.404 25.597 25.999c-1.953 3.589-3.992 11.035-7.058 25.774-2.371 11.4-4.602 22.977-4.958 25.727-.443 3.423.781 16.193 3.882 40.5 2.492 19.525 4.532 38.366 4.533 41.869.003 4.993-1.103 9.704-5.118 21.809-4.859 14.644-5.1 15.867-4.687 23.739.507 9.653 3.327 16.482 9.885 23.932 4.709 5.349 16.01 11.367 22.924 12.206 2.475.301 36.675 2.5 76 4.889 49.235 2.99 73.148 4.081 76.794 3.502 11.343-1.799 22.391-9.358 27.56-18.855 1.533-2.817 6.355-15.494 10.717-28.172 9.625-27.983 9.482-25.429 3.864-68.938-2.236-17.315-4.11-34.406-4.164-37.981-.073-4.793 1.022-10.571 4.17-22 3.785-13.745 4.22-16.406 3.839-23.5-.336-6.24-1.074-9.308-3.355-13.946-5.6-11.384-16.495-19.504-28.988-21.604-3.265-.549-36.312-2.783-73.437-4.964S67.575 5.822 64 5.581s-8.446-.038-10.824.451"/><path fill="#8fd6b7" fill-opacity=".376" fill-rule="evenodd" d="M113.2 25.2c-.724.724-1.2 4.232-1.2 8.845 0 10.161-.801 10.878-13.054 11.671-8.27.536-9.602.899-12.358 3.364-3.551 3.178-3.461 1.141-1.6 36.42 1.305 24.741 1.447 25.622 4.614 28.59 2.427 2.275 3.151 2.393 12.93 2.105 9.347-.274 10.559-.104 12.413 1.75 2.952 2.952 2.921 11.962-.05 14.65-1.961 1.775-3.594 1.881-23.86 1.556l-21.755-.348-6.89 5.999c-10.082 8.778-25.09 24.369-25.814 26.816-.345 1.165-.157 3.353.417 4.862 1.343 3.534 27.258 30.639 30.809 32.225 1.789.799 9.185 1.22 21.948 1.25 25.126.059 23.7-1.099 23.028 18.709-.269 7.918-.133 14.617.303 14.886.435.269 2.507.105 4.605-.364 3.018-.676 5.901-.255 13.814 2.013 5.5 1.576 10.9 2.739 12 2.583 2.114-.298 2.251-1.139 4.088-25.126.779-10.179 2.107-11.656 10.478-11.656 12.35 0 12.49-.373 13.348-35.777l.685-28.278-2.887-2.887c-2.065-2.065-4.286-3.077-7.799-3.556-9.547-1.302-10.185-2.054-10.597-12.501-.361-9.127-.137-9.243 20.584-10.617 9.55-.634 18.054-1.542 18.897-2.018 2.859-1.615 28.499-31.418 29.105-33.83 1.082-4.312-1.097-7.179-14.964-19.69-19.666-17.742-16.075-16.331-38.254-15.031-17.459 1.023-18.848.976-21.184-.718-1.895-1.374-2.682-3.116-3.251-7.205-1.2-8.616-3.343-9.892-16.605-9.892-7.023 0-11.16.416-11.944 1.2"/><path fill="#8fd6b7" fill-opacity=".658" fill-rule="evenodd" d="M115 24.908c-2.359.668-2.5 1.101-2.5 7.65 0 11.874-1.13 12.961-14.395 13.843-9.228.614-12.71 2.178-13.709 6.156-.565 2.254.557 27.51 2.23 50.173.525 7.114.965 8.589 3.241 10.876 2.58 2.592 2.831 2.634 12.545 2.105 9.864-.537 9.927-.526 12.75 2.298 3.887 3.886 4.044 10.876.328 14.592l-2.51 2.509-21.842-.187c-12.013-.103-22.543.209-23.398.695-.856.485-8.122 7.286-16.148 15.112-18.858 18.391-18.692 16.922-3.737 33.058 5.97 6.442 12.855 13.551 15.3 15.799l4.446 4.086 20.95.619 20.949.618 2.314 2.675c2.262 2.615 2.298 2.986 1.605 16.635l-.709 13.96 5.395-.646c4.343-.52 6.843-.148 12.82 1.91 4.084 1.406 9.092 2.556 11.129 2.556h3.704l.726-15.499c.913-19.471 1.258-20.091 11.51-20.67 5.936-.336 7.43-.801 9.624-2.994l2.596-2.597.539-29.408.538-29.409-3.222-2.712c-2.428-2.042-4.299-2.711-7.59-2.711-6.806 0-9.24-2.789-10.034-11.5-.594-6.51-.472-7.156 1.751-9.23 2.124-1.981 4.06-2.345 17.347-3.264 22.785-1.575 19.455.12 35.426-18.04C217.548 79.661 219 77.632 219 74.35c0-4.126-.034-4.163-19.055-20.952-6.295-5.555-12.354-10.578-13.465-11.162-1.377-.722-6.312-.783-15.5-.191-26.519 1.709-28.532 1.263-29.575-6.545-1.054-7.887-1.402-8.601-4.908-10.066-3.58-1.496-16.924-1.822-21.497-.526M80.813 146.07c-2.656.715-17.265 11.441-23.563 17.299-3.742 3.481-4.359 8.164-1.5 11.374 3.672 4.123 20.319 17.388 23.461 18.695 2.524 1.05 11.662 1.439 39.289 1.673 32.151.272 36.336.126 39.142-1.373 4.611-2.462 5.358-5.92 5.358-24.798v-16.762l-3.029-2.549c-1.667-1.402-4.479-2.775-6.25-3.05-5.367-.834-70.025-1.285-72.908-.509"/></svg>