<svg xmlns="http://www.w3.org/2000/svg" width="256" height="256"><path fill="#315e47" fill-opacity=".016" fill-rule="evenodd" d="M0 128.004v128.004l128.25-.254 128.25-.254.254-127.75L257.008 0H0zm.485.496c0 70.4.119 99.053.265 63.672s.146-92.98 0-128S.485 58.1.485 128.5"/><path fill="#315e47" fill-opacity=".514" fill-rule="evenodd" d="M108.127 1.75c-1.793 1.498-2.133 3.031-2.361 10.646-.354 11.827-.996 12.333-16.766 13.211-13.249.737-17.476 2.227-19.731 6.956-1.412 2.961-1.354 6.113.663 35.593 1.593 23.288 2.615 32.968 3.65 34.573 2.953 4.582 6.543 5.454 20.994 5.099 13.298-.326 13.388-.313 16.003 2.3 2.261 2.258 2.621 3.445 2.561 8.441-.058 4.854-.492 6.237-2.63 8.373l-2.562 2.558-29.326-.364c-21.517-.267-29.924-.045-31.57.836-4.225 2.261-40.228 33.32-41.266 35.599-.571 1.252-.747 3.825-.392 5.718.541 2.88 3.683 6.198 19.25 20.327 10.231 9.286 19.56 17.431 20.729 18.099 1.247.712 6.094 1.229 11.717 1.25 5.274.019 17.856.334 27.961.7 17.592.638 18.472.767 20.757 3.052l2.385 2.385-.726 17.003-.727 17.002 7.38-.654c6.272-.557 8.806-.251 16.88 2.038 5.225 1.481 11.839 2.937 14.697 3.235 6.167.644 5.897 1.231 6.773-14.726 1.517-27.664 1.695-28 14.837-28 7.085 0 8.926-.356 11.781-2.28 1.86-1.254 3.879-3.276 4.486-4.493.688-1.381 1.354-14.256 1.772-34.255.577-27.654.46-32.447-.856-34.99-2.034-3.934-5.623-5.581-13.734-6.304-3.71-.331-7.586-1.052-8.613-1.602-2.432-1.301-3.888-5.254-4.449-12.076-.919-11.202 1.18-12.498 21.806-13.458 8.25-.384 18.702-1.056 23.227-1.493l8.226-.796 18.108-17.339c9.959-9.536 18.744-18.571 19.523-20.077 1.839-3.555 1.795-6.851-.127-9.595-1.686-2.407-35.772-29.316-41.169-32.499-3.241-1.913-4.095-1.935-28.655-.749-31.74 1.532-31.395 1.636-33.176-9.994-1.484-9.687-4.147-11-22.314-11-10.842 0-13.259.282-15.016 1.75"/><path fill="#315e47" fill-opacity=".36" fill-rule="evenodd" d="M114.535.745c-8.391.517-8.742.987-7.959 10.66.639 7.878.583 8.168-2.072 10.821-3.073 3.07-4.919 3.475-18.922 4.153-7.662.371-10.504.915-12.5 2.391-5.084 3.761-5.109 4.12-2.703 39.515l2.229 32.785 3.226 3.215 3.226 3.215 14.351-.304c14.024-.297 14.417-.248 17.22 2.163 2.616 2.25 2.869 3.046 2.869 9.027 0 5.499-.369 6.926-2.284 8.836-2.277 2.27-2.385 2.278-32.664 2.278H48.173l-3.336 2.464c-10.423 7.696-36.611 30.769-38.176 33.635-1.393 2.551-1.617 4.037-.923 6.134.915 2.766 29.986 30.54 37.673 35.993l3.911 2.774 27.736.5c35.986.649 34.165-.653 32.776 23.436-.474 8.215-.485 15.313-.024 15.774s3.115.311 5.899-.332c4.603-1.063 6.095-.891 16.427 1.897 13.719 3.701 17.971 4.441 19.598 3.409.817-.518 1.683-6.936 2.567-19.027 1.283-17.558 1.433-18.345 3.975-20.887 2.433-2.434 3.34-2.651 11.513-2.767 7.48-.106 9.369-.479 12.039-2.381 1.742-1.24 3.366-3.237 3.609-4.438.782-3.859 1.565-26.604 1.637-47.526.063-18.289-.113-20.543-1.741-22.342-2.892-3.196-5.3-4.078-13.261-4.858-9.912-.97-11.534-2.726-12.551-13.579l-.731-7.802 3.121-2.788c1.739-1.554 4.331-2.811 5.855-2.839 1.504-.028 12.014-.631 23.357-1.342 18.119-1.134 20.972-1.545 23.5-3.382 1.582-1.15 10.46-9.709 19.727-19.019 15.668-15.741 16.85-17.186 16.85-20.601 0-2.02-.607-4.55-1.35-5.624-2.319-3.353-40.977-32.759-43.733-33.268-1.439-.265-13.192.064-26.117.731-29.997 1.548-31.417 1.119-32.92-9.956C143.66 1.026 138.642-.739 114.535.745M63.429 143.067c-4.595 1.343-32.646 21.026-34.368 24.115-2.669 4.789-.722 7.446 12.942 17.656 6.873 5.136 14.522 10.536 16.997 12l4.5 2.662 48 .566c26.4.311 49.54.229 51.423-.184 4.204-.92 8.187-3.767 9.758-6.972.758-1.547 1.27-9.533 1.431-22.304l.25-19.894-3.142-2.807c-1.728-1.544-4.847-3.234-6.931-3.756-5.023-1.258-96.886-2.244-100.86-1.082"/><path fill="#315e47" fill-opacity=".462" fill-rule="evenodd" d="M108.25 1.662c-.862.348-1.25 3.137-1.25 8.987 0 4.665-.463 9.348-1.03 10.406-1.793 3.352-6.129 4.649-17.815 5.33-16.726.976-19.167 2.736-19.139 13.799.031 12.271 3.81 59.623 4.925 61.705 2.584 4.828 5.337 5.545 20.216 5.258l13.877-.267 2.983 2.983c2.607 2.607 2.983 3.695 2.983 8.637 0 4.916-.382 6.035-2.923 8.577L108.154 130H47.13l-19.533 16.507c-10.744 9.079-19.998 17.374-20.565 18.434-1.293 2.416-1.329 6.636-.076 8.977 1.03 1.925 36.045 33.939 38.849 35.52.932.525 13.62 1.106 28.195 1.291 36.765.467 35.614-.336 34.089 23.774-.521 8.248-.624 15.33-.228 15.737s2.274.295 4.173-.25c5.297-1.519 8.075-1.234 19.629 2.01 12.913 3.626 19.337 3.965 19.337 1.02 0-7.531 2.307-33.034 3.194-35.317 1.637-4.211 5.525-5.703 14.856-5.703 7.864 0 8.264-.114 11.389-3.25l3.239-3.25.661-21.411c1.177-38.119.968-45.429-1.384-48.42-2.309-2.934-7.39-4.655-13.771-4.663-8.295-.011-10.778-2.688-11.721-12.634-1.317-13.905-1.011-14.074 28.656-15.858 18.216-1.095 23.573-1.737 25.606-3.069 1.413-.926 10.385-9.393 19.938-18.815 16.822-16.592 17.366-17.256 17.321-21.13-.026-2.2-.596-4.71-1.266-5.579-1.716-2.224-38.723-30.948-41.538-32.24-1.643-.755-9.656-.742-27.5.045-31.893 1.408-32.551 1.181-34.038-11.724-.369-3.204-1.272-5.147-3.136-6.75-2.469-2.124-3.453-2.248-17.312-2.173-8.082.043-15.256.306-15.944.583m24.25 29.414c-21.45.999-40.417 2.077-42.149 2.396-4.139.763-8.29 4.114-9.841 7.946-1.64 4.052 1.348 43.784 3.565 47.415.784 1.283 3.225 3.279 5.425 4.435 4.73 2.484 5.737 2.489 58.5.265 41.311-1.74 46.327-2.113 49.296-3.661 3.577-1.865 30.42-24.69 31.09-26.435 1.276-3.326.552-7.998-1.641-10.589-2.551-3.013-28.277-20.337-33.346-22.454-4.144-1.732-10.611-1.66-60.899.682M62.304 142.933c-4.615 2.022-32.271 21.137-33.263 22.99-1.298 2.426-1.342 6.646-.093 8.98 1.202 2.246 27.923 21.727 32.324 23.566 2.553 1.067 14.197 1.54 51.783 2.101 65.136.974 60.535 3.089 61.584-28.306.766-22.921.603-23.569-6.851-27.372-4.069-2.076-5.521-2.144-53.735-2.527-30.462-.242-50.399-.023-51.749.568"/></svg>