<?xml version="1.0" encoding="UTF-8" standalone="no"?>
<svg
   viewBox="0 0 24 24"
   version="1.1"
   id="svg12"
   sodipodi:docname="arrow-up-down.svg"
   inkscape:version="1.1.2 (0a00cf5339, 2022-02-04)"
   xmlns:inkscape="http://www.inkscape.org/namespaces/inkscape"
   xmlns:sodipodi="http://sodipodi.sourceforge.net/DTD/sodipodi-0.dtd"
   xmlns="http://www.w3.org/2000/svg"
   xmlns:svg="http://www.w3.org/2000/svg">
  <defs
     id="defs16" />
  <sodipodi:namedview
     id="namedview14"
     pagecolor="#ffffff"
     bordercolor="#666666"
     borderopacity="1.0"
     inkscape:pageshadow="2"
     inkscape:pageopacity="0.0"
     inkscape:pagecheckerboard="0"
     showgrid="false"
     inkscape:zoom="25.721009"
     inkscape:cx="11.683056"
     inkscape:cy="12.674464"
     inkscape:window-width="2560"
     inkscape:window-height="1375"
     inkscape:window-x="2240"
     inkscape:window-y="0"
     inkscape:window-maximized="1"
     inkscape:current-layer="g8" />
  <g
     data-name="Layer 2"
     id="g10">
    <g
       data-name="arrowhead-down"
       id="g8">
      <rect
         width="24"
         height="24"
         opacity="0"
         id="rect2" />
      <path
         d="m 17.37,13.391249 -5.37,4.32 -5.36,-4.48 a 1.0012492,1.0012492 0 1 0 -1.28,1.54 l 6,5 a 1,1 0 0 0 1.27,0 l 6,-4.83 a 1,1 0 0 0 0.15,-1.41 1,1 0 0 0 -1.41,-0.14 z"
         id="path4" />
      <path
         d="m 11.36,4.2274879 a 1,1 0 0 1 1.27,0 l 6,4.8300001 a 1,1 0 0 1 0.15,1.41 1,1 0 0 1 -1.41,0.15 L 12,6.2874879 6.64,10.767488 a 1.0012492,1.0012492 0 0 1 -1.28,-1.54 z"
         id="path6" />
    </g>
  </g>
</svg>
