<svg version="1.1" viewBox="0 0 24 24" xmlns="http://www.w3.org/2000/svg">
 <path d="m12 1.5c-4.1421 0-7.5 3.3579-7.5 7.5 0 1.932 1.0636 3.8004 2.2676 5.3164 1.22 1.537 2.6793 2.8281 3.6563 3.6211 0.926 0.75 2.2263 0.75 3.1523 0 0.977-0.793 2.4363-2.0841 3.6562-3.6211 1.204-1.515 2.2676-3.3844 2.2676-5.3164 0-4.1421-3.3579-7.5-7.5-7.5zm0 3.0586c0.6597 0 1.3561 0.18307 1.9082 0.5918 0.57078 0.4245 0.96094 1.0806 0.96094 1.9238 0 0.61524-0.19463 1.0834-0.52734 1.4434-0.26245 0.28396-0.5997 0.47743-0.83203 0.60938l-0.07227 0.042969c-0.26818 0.15775-0.42512 0.26519-0.53125 0.4043-0.09179 0.1176-0.18945 0.31536-0.18945 0.72266 0 0.95609-1.4336 0.95609-1.4336 0 0-0.66687 0.17174-1.187 0.48438-1.5957 0.29543-0.38722 0.67765-0.61373 0.94727-0.77148l0.03906-0.021484c0.28252-0.16349 0.42708-0.24907 0.5332-0.36523 0.0717-0.076009 0.14648-0.18909 0.14648-0.46875 0.01206-0.3064-0.13202-0.597-0.38281-0.77344-0.25528-0.18931-0.63488-0.30664-1.0508-0.30664-0.4159 0-0.79407 0.11785-1.0508 0.30859-0.25078 0.17644-0.39486 0.46704-0.38281 0.77344 0 0.95609-1.4355 0.95609-1.4355 0 0-0.8447 0.39015-1.4998 0.96094-1.9258 0.5507-0.40873 1.2485-0.5918 1.9082-0.5918zm0 7.1738c0.35853 0 0.7168 0.23875 0.7168 0.7168 0 0.95609-1.4336 0.95609-1.4336 0 0-0.47804 0.35826-0.7168 0.7168-0.7168zm-5.6816 3.6152c-0.146 0.05-0.28907 0.10158-0.42773 0.15625-0.798 0.315-1.4939 0.70664-2.0039 1.1816-0.51 0.476-0.88672 1.0885-0.88672 1.8145s0.37572 1.3385 0.88672 1.8145c0.51 0.475 1.2059 0.86764 2.0039 1.1816 1.601 0.63 3.7614 1.0039 6.1094 1.0039 2.348 0 4.5074-0.37291 6.1074-1.0039 0.799-0.314 1.4959-0.70664 2.0059-1.1816 0.51-0.476 0.88672-1.0885 0.88672-1.8145s-0.37572-1.3385-0.88672-1.8145c-0.51-0.474-1.2069-0.86664-2.0059-1.1816-0.138-0.054-0.27978-0.10558-0.42578-0.15625-0.364 0.432-0.73928 0.84166-1.1133 1.2227 0.35667 0.1 0.6869 0.21008 0.99024 0.33008 0.696 0.274 1.2062 0.57881 1.5312 0.88281 0.325 0.302 0.41016 0.5448 0.41016 0.7168s-0.08516 0.4148-0.41016 0.7168c-0.325 0.303-0.83625 0.60881-1.5312 0.88281-1.386 0.546-3.3496 0.90039-5.5586 0.90039s-4.1726-0.35439-5.5586-0.90039c-0.695-0.273-1.2072-0.57881-1.5332-0.88281-0.324-0.302-0.4082-0.5448-0.4082-0.7168s0.085157-0.4148 0.41016-0.7168c0.325-0.303 0.83625-0.60881 1.5312-0.88281 0.30467-0.12 0.6349-0.23008 0.99023-0.33008-0.3862-0.39357-0.75774-0.80118-1.1133-1.2227z"/>
</svg>
