<svg xmlns="http://www.w3.org/2000/svg" width="256" height="256"><path fill="#bfab25" fill-opacity=".016" fill-rule="evenodd" d="M0 128.004v128.004l128.25-.254 128.25-.254.254-127.75L257.008 0H0zm.485.496c0 70.4.119 99.053.265 63.672s.146-92.98 0-128S.485 58.1.485 128.5"/><path fill="#bfab25" fill-opacity=".514" fill-rule="evenodd" d="M109.466 11.677c-1.337 1.337-1.584 3.007-1.221 8.25.478 6.904-.84 11.32-3.707 12.42-.846.324-6.375.891-12.287 1.258-11.455.713-15.272 1.97-17.831 5.876-1.47 2.244-1.432 4.873.472 32.627 2.229 32.492 2.446 33.464 8.122 36.399 2.452 1.268 5.148 1.427 14.891.876 11.875-.671 11.902-.667 14.496 1.927 3.534 3.534 3.701 11.298.328 15.219l-2.272 2.64-27.478-.068c-20.065-.05-28.063.264-29.645 1.165-1.192.679-10.074 7.887-19.74 16.019-17.784 14.962-19.484 17.033-18.197 22.16.769 3.063 33.488 33.191 38.17 35.148 2.566 1.072 8.87 1.407 26.451 1.407 24.648 0 28.081.586 29.493 5.034.358 1.13.333 8.498-.057 16.373-.406 8.198-.327 14.553.185 14.87.492.304 2.987.073 5.546-.512 4.087-.935 6.098-.682 16.557 2.085 12.567 3.325 16.728 3.817 17.787 2.103.356-.576 1.176-8.495 1.822-17.598 1.153-16.24 1.227-16.596 3.968-18.953 2.441-2.099 3.792-2.402 10.721-2.402 7.347 0 8.168-.214 11.194-2.918l3.266-2.917.762-30.333c.519-20.667.426-31.148-.292-32.891-1.526-3.705-5.699-5.755-13.295-6.533-3.668-.376-7.427-1.237-8.352-1.914-1.032-.755-2.129-3.887-2.841-8.112-2.221-13.183-1.084-13.873 25.296-15.332 11.153-.616 21.278-1.531 22.5-2.033 1.222-.501 9.745-8.248 18.941-17.214 17.67-17.231 19.238-19.568 16.665-24.838-1.505-3.083-37.238-31.301-40.823-32.239-1.182-.309-8.992-.163-17.355.323-8.363.487-19.065.9-23.782.918-7.694.03-8.799-.205-10.75-2.281-1.196-1.273-2.177-3.411-2.18-4.75-.012-5.609-1.964-9.694-5.413-11.331-4.994-2.37-27.727-2.316-30.115.072"/><path fill="#bfab25" fill-opacity=".352" fill-rule="evenodd" d="M115 10.672c-2.475.25-4.933.881-5.461 1.402-.529.522-.838 4.26-.687 8.308.245 6.585.016 7.66-2.178 10.211-2.356 2.739-2.898 2.874-13.813 3.456-20.578 1.097-20.176.234-17.665 37.951 1.043 15.675 2.389 29.759 2.991 31.297 1.831 4.679 5.279 5.703 19.208 5.703 11.547 0 12.693.172 15.133 2.27 2.152 1.852 2.639 3.132 2.639 6.95 0 6.576-.851 8.565-4.462 10.432-2.769 1.432-6.257 1.557-28.679 1.026-14.039-.333-26.374-.257-27.41.168-3.833 1.575-36.509 29.743-38.03 32.784-2.654 5.306-.94 7.691 17.551 24.418 9.395 8.498 17.849 15.744 18.786 16.101s13.086.982 26.996 1.388c24.282.71 25.396.83 27.919 3 2.527 2.174 2.619 2.619 2.389 11.612-.131 5.143-.517 12.196-.857 15.674l-.619 6.323 6.906-.681c5.542-.546 8.299-.265 13.972 1.424 9.123 2.717 16.986 4.196 18.737 3.524 1.006-.386 1.566-3.586 2.049-11.722 1.61-27.11 1.906-27.691 14.089-27.691 8.243 0 12.655-1.56 14.578-5.154 1.282-2.395 2.663-58.741 1.549-63.181-.982-3.913-5.06-6.035-12.992-6.762-9.08-.833-11.05-2.848-12.018-12.296-.725-7.08.073-9.838 3.357-11.595 1.062-.569 10.389-1.495 20.727-2.059 10.337-.564 20.37-1.271 22.295-1.572 2.892-.451 6.49-3.516 20.702-17.629 9.461-9.395 17.354-18.02 17.54-19.167.83-5.126-1.363-7.573-19.422-21.671-9.879-7.712-19.051-14.518-20.383-15.125-1.767-.805-8.694-.797-25.632.028-21.636 1.054-23.417 1.01-26.258-.647-2.365-1.38-3.232-2.774-3.873-6.224a804 804 0 0 0-1.266-6.683c-.773-3.931-4.489-5.389-14.599-5.731-5.12-.172-11.334-.11-13.809.14M68.858 141.925c-2.935.938-28.91 18.227-30.793 20.497-1.977 2.382-1.577 7.404.791 9.925 3.271 3.481 24.372 18.437 28.244 20.018 2.62 1.07 13.406 1.55 46.993 2.093 46.773.755 49.681.538 53.972-4.025 2.375-2.525 2.443-3.058 2.762-21.433.225-12.987-.035-19.519-.836-21.016-.639-1.195-3.036-2.981-5.327-3.969-3.727-1.609-8.838-1.857-48.664-2.366-24.475-.312-45.689-.188-47.142.276"/><path fill="#bfab25" fill-opacity=".469" fill-rule="evenodd" d="M109.667 11.667c-.367.366-.667 4.376-.667 8.911 0 7.861-.134 8.357-2.887 10.674-2.551 2.146-4.205 2.505-14.154 3.074-12.086.692-15.155 1.815-17.195 6.292-.879 1.929-.68 9.485.856 32.582l1.999 30.07 3.363 3.005 3.363 3.005 11.532-.568c14.359-.707 17.44.275 19.189 6.114 1.614 5.387.495 10.588-2.843 13.213-2.628 2.068-3.45 2.118-29.927 1.829l-27.225-.297-3.285 2.419c-7.611 5.603-34.576 29.021-35.156 30.531-1 2.607-.675 6.843.652 8.502 3.552 4.44 34.946 31.98 36.912 32.381 1.268.259 13.19.702 26.492.985 17.038.362 24.787.889 26.221 1.785 3.569 2.229 4.101 5.477 3.246 19.826-.443 7.425-.477 13.883-.077 14.352.4.468 2.832.403 5.405-.146 4.019-.857 6.217-.582 15.635 1.957 6.027 1.624 12.629 2.815 14.671 2.645l3.713-.308 1.15-16.872c1.438-21.104 1.286-20.877 14.508-21.683 8.554-.521 9.267-.737 11.809-3.582 2.679-2.998 2.712-3.213 3.366-21.945 1.102-31.515.888-42.15-.899-44.878-1.907-2.911-6.261-4.54-12.133-4.54-4.684 0-9.719-2.041-10.582-4.289-1.324-3.452-1.861-14.576-.799-16.561 2.03-3.793 5.164-4.472 26.362-5.709 24.914-1.455 21.862.053 42.988-21.243C238.711 69.649 240 68.038 240 64.786c0-1.963-.786-4.467-1.75-5.573-2.457-2.821-34.156-27.317-37.528-29-2.316-1.157-6.206-1.206-23.385-.3-28.336 1.495-27.003 1.575-30.414-1.836-2.388-2.388-2.923-3.77-2.923-7.548 0-3.716-.52-5.106-2.646-7.077-2.55-2.363-3.16-2.452-16.833-2.452-7.803 0-14.488.3-14.854.667M129.5 38.722c-17.6.791-33.759 1.888-35.908 2.439s-5.187 2.28-6.75 3.843c-3.368 3.368-3.486 5.78-1.449 29.683 1.452 17.043 2.183 18.916 8.494 21.762 4 1.804 5.256 1.799 49.858-.199 25.165-1.128 46.638-2.405 47.717-2.838 2.908-1.169 27.841-22.281 29.253-24.77 3.516-6.201 1.147-9.152-16.943-21.108L187.834 37l-13.167.142c-7.242.079-27.567.789-45.167 1.58M67.306 141.959c-3.614 1.54-27.67 18.2-29.534 20.453-.95 1.148-1.738 3.385-1.75 4.97-.028 3.622 2.928 6.434 18.429 17.539l11.755 8.42 8.647.759c4.756.417 26.129.79 47.496.829 41.86.077 43.58-.116 46.95-5.265 1.953-2.985 3.391-36.584 1.736-40.579-.634-1.531-3.039-3.862-5.344-5.181l-4.191-2.398-46-.241c-26.918-.142-46.91.146-48.194.694"/></svg>