<svg width="48" height="48" shape-rendering="auto" version="1.1" viewBox="0 0 48 48" xmlns="http://www.w3.org/2000/svg" xmlns:xlink="http://www.w3.org/1999/xlink">
 <defs>
  <filter id="c" x="-.12904" y="-.079922" width="1.2581" height="1.1598" color-interpolation-filters="sRGB">
   <feGaussianBlur stdDeviation="1.3347985"/>
  </filter>
  <linearGradient id="a" x1="6.4277" x2="6.2853" y1="29.483" y2="31.251" gradientUnits="userSpaceOnUse">
   <stop stop-color="#8ac7a3" offset="0"/>
   <stop stop-color="#8fd6b7" offset="1"/>
  </linearGradient>
  <linearGradient id="b" x1="5.6913" x2="5.8178" y1="16.583" y2="14.567" gradientUnits="userSpaceOnUse">
   <stop stop-color="#8bc8a4" offset="0"/>
   <stop stop-color="#8fd6b7" offset="1"/>
  </linearGradient>
 </defs>
 <g display="none">
  <rect width="48" height="48" fill="#112119" stop-color="#000000"/>
 </g>
 <g display="none">
  <g transform="matrix(.15483 0 0 .15483 -723.03 -212.2)" display="inline">
   <g transform="matrix(1.1063 0 0 1.1063 5940 -1078)">
    <path d="m-743.25 2243.4c-4.1828 0.1027-5.0683 2.2765-4.8713 4.4463l0.48754 9.9557c0.20455 3.6593-2.9237 7.1786-6.5818 7.4044l-13.956 0.8228c-1.5341 0.091-0.34134-0.084-1.8283 0.3047-1.4869 0.3882-0.35408-0.03-1.7369 0.6399-1.3828 0.6705-0.35889 0.018-1.5845 0.9446-1.2256 0.9272-0.34974 0.1317-1.3712 1.2798-1.0215 1.1482-0.31881 0.168-1.097 1.493-0.77815 1.3253-0.25678 0.2246-0.76178 1.676s-0.2141 0.2758-0.42659 1.7978-0.17959 0.3245-0.0914 1.8588l3.0776 52.532v0.03c0.0807 1.4254-0.0778 0.3332 0.30471 1.7977 0.38886 1.4888-0.032 0.3832 0.6399 1.7674 0.67184 1.3843 0.046 0.3275 0.97508 1.554 0.929 1.2266 0.0988 0.3495 1.2493 1.3712 1.1505 1.0218 0.16539 0.3193 1.4931 1.097 1.3277 0.7777 0.22201 0.2582 1.6759 0.7618s0.30404 0.2163 1.8283 0.4266 0.2923 0.1825 1.8283 0.092h0.0304l14.047-0.8227c3.6593-0.2045 7.1786 2.9238 7.4045 6.5818l0.22249 1.7173c0.0144 0.1417 0.0245 0.2841 0.0304 0.4265v0.2743c-8e-3 0.1119-0.0177 0.2236-0.0304 0.3352l-0.18282 3.8394c-0.16499 3.605-3.5219 6.761-7.1303 6.7036l-39.064-0.7008c-1.5366-0.028-0.34613-0.1497-1.8587 0.1219-1.5126 0.2715-0.33663-0.043-1.7673 0.5181-1.4307 0.561-0.35152 0.024-1.6454 0.8531s-0.35508 0.062-1.4626 1.1275l-26.723 25.809c-1.1082 1.0678-0.30991 0.1381-1.1884 1.4017s-0.29913 0.2041-0.91413 1.6149c-0.615 1.4107-0.25107 0.2636-0.57895 1.7673-0.32788 1.5036-0.18515 0.32-0.21331 1.8588-0.0282 1.5387-0.12029 0.3136 0.15236 1.8283 0.27265 1.5145-0.0755 0.3655 0.48754 1.7977 0.56297 1.4323 0.0216 0.3505 0.85319 1.6454 0.83165 1.295 0.0896 0.355 1.1579 1.4627l25.748 26.815c1.0698 1.1073 0.13631 0.3113 1.4017 1.1885 1.2654 0.8771 0.20273 0.3009 1.615 0.9141 1.4122 0.6131 0.26253 0.2532 1.7673 0.5789 1.5048 0.3257 0.31931 0.1572 1.8587 0.1828l36.748 0.6704c3.751 0.07 7.0731 3.627 6.8865 7.374l-1.1884 25.687c0.90964 4.0391 5.86-1.7394 12.223 0.4072 3.7058 1.2501 14.162 5.014 18.848 5.1164 1.325-0.055 2.7891 0.07 2.9183-1.55l1.7369-29.557c0.2102-3.5738 3.5508-6.6717 7.1303-6.6123l6.7811 0.14c1.5354 0.026 0.31723 0.1515 1.8283-0.1219 1.511-0.2733 0.3689 0.044 1.7978-0.518 1.4289-0.5624 0.35339-0.024 1.6454-0.8532 1.292-0.8298 0.35688-0.061 1.4626-1.1275 1.1057-1.0655 0.31128-0.1716 1.1884-1.4321 0.8771-1.2604 0.29926-0.2078 0.91414-1.615 0.61487-1.4071 0.21936-0.2369 0.54848-1.7367 0.32379-1.4758 0.18836-0.4035 0.2133-1.8283v-0.03l0.97508-52.593c0.029-1.539 0.15007-0.3438-0.12189-1.8588s0.0444-0.3651-0.51801-1.7978c-0.56241-1.4328-0.0219-0.3501-0.85319-1.6454-0.83123-1.2955-0.0594-0.3544-1.1274-1.4627-1.0681-1.1083-0.1683-0.3098-1.4321-1.1883-1.2638-0.8786-0.20397-0.2992-1.615-0.9142-1.411-0.615-0.26343-0.2208-1.7673-0.5484-1.5039-0.3278-0.28932-0.1855-1.8283-0.2133l-4.8342-0.2867c-1.9025-0.033-3.7776-0.8781-5.0621-2.282s-1.9603-3.3464-1.8244-5.2444l0.0304-0.457c5e-3 -0.3987 0.0103-0.2241 0-0.2743-4e-3 -0.016 0.0101 0.041 0-0.092l-0.89286-7.2021c-0.32188-3.7271 2.8474-7.3953 6.5818-7.6178l30.521-1.9987h0.0304c1.5367-0.088 0.33815 0.081 1.8283-0.3047 1.4901-0.3856 0.35063 0.029 1.7368-0.6399 1.3862-0.669 0.35551-0.018 1.5845-0.9446 1.2141-0.9153 0.37398-0.1612 1.3407-1.2493l24.651-27.82h0.0304c1.0199-1.1496 0.29018-0.1666 1.0665-1.4929 0.77631-1.3265 0.28932-0.2237 0.79225-1.676s0.21635-0.3058 0.4266-1.8283c0.21024-1.5224 0.15143-0.294 0.0609-1.8283-0.0905-1.5342 0.1135-0.341-0.27424-1.8282-0.38775-1.4872 0.0302-0.3538-0.6399-1.7368-0.67015-1.3832-0.0483-0.3586-0.97507-1.5846-0.92685-1.2259-0.10133-0.3493-1.2493-1.3712l-27.759-24.743v0.03c-1.1508-1.0191-0.16572-0.3216-1.4931-1.0969-1.3274-0.7754-0.22289-0.2601-1.6759-0.7618-1.453-0.5017-0.27486-0.2482-1.7978-0.4571-1.5229-0.2087-0.32431-0.1529-1.8587-0.06-0.0102 1e-4 -0.0203 1e-4 -0.0304 0l-34.174 1.9131c-3.6027 0.2083-7.0886-2.8041-7.4045-6.399l-0.563-6.6263c-0.16405-1.6812-2.443-6.3-8.5269-6.1951-5.4327-0.2362-10.876-0.058-16.31 0.071z" fill="#2b2b2b"/>
    <path d="m-756.83 2271.8a12.355 10.58 0 0 0-11.606 11.18l2.3146 33.724a12.355 10.58 0 0 0 13.056 9.9389l68.916-3.4688a12.355 10.58 0 0 0 8.5122-3.5277l18.484-17.85a12.355 10.58 0 0 0-1.0256-14.942l-20.799-15.873a12.355 10.58 0 0 0-8.9362-2.6495z" fill="#2a5b46"/>
    <path d="m-708.74 2418.6a12.17 9.7363 0 0 0 12.389-9.5536l0.71452-31.083a12.17 9.7363 0 0 0-11.941-9.9116l-67.991-1.0004a12.17 9.7363 0 0 0-8.6724 2.7201l-19.735 15.256a12.17 9.7363 0 0 0-0.31656 13.772l19.021 15.826a12.17 9.7363 0 0 0 8.5416 2.9733z" fill="#408c6b"/>
   </g>
  </g>
 </g>
 <g>
  <rect x="-119.15" y="139.13" width="51.314" height="52.854" rx=".55969" ry="1.4156" fill="#fff" fill-opacity=".57068"/>
  <path d="m-97.113 90.366 2.0441-0.03641c1.0955-0.01951 1.8877 0.85378 2.0135 1.9422 1.4148 12.245 0.49953 23.428-0.59288 34.528-0.10731 1.0904-0.84593 1.9932-1.9415 2.0127l-2.0441 0.0364c-1.0955 0.0195-2.1043-0.85031-2.0135-1.9422 0.92695-11.142 1.9369-22.234 0.59288-34.528-0.11908-1.0892 0.84593-1.9932 1.9415-2.0127z" fill="#1c1c1c" stroke-width="2.765"/>
  <g>
   <path transform="matrix(.99933 -.083829 .049955 .99648 -117.12 87.726)" d="m13.5 20h15a3.6213 3.6213 157.5 0 0 2.5607-1.0607l3.8787-3.8787a1.5 1.5 90 0 0 0-2.1213l-3.8787-3.8787a3.6213 3.6213 22.5 0 0-2.5607-1.0607h-15a1.5 1.5 135 0 0-1.5 1.5v9a1.5 1.5 45 0 0 1.5 1.5z" fill="#1c1c1c" style="-inkscape-stroke:none"/>
   <path transform="matrix(1 0 .077643 1 -116.92 85.708)" d="m13.414 11.489c0.0029 1.9824 0.0058 3.9648 0.0088 5.9473 8.16e-4 0.55228 0.4475 0.96106 0.99778 0.91407 4.2282-0.36106 8.4624-0.67974 12.686-1.0721 0.54979-0.05108 1.4429-0.22346 1.8641-0.57464 0.35063-0.29239 0.64784-0.66197 0.95031-1.0212 0.3546-0.42119 0.98698-1.0549 1.3625-1.4599l0.69725-0.75206c0.37549-0.405 0.34088-1.0259-0.06643-1.3989-0.74744-0.6844-1.4774-1.3927-2.249-2.0443-0.42018-0.35483-1.2151-0.7543-1.7653-0.75157-0.45349 0.00225-0.91367 0.068741-1.3721 0.1246-0.54724 0.066683-1.4414 0.1135-1.9918 0.15948l-10.127 0.84606c-0.55037 0.04598-0.99587 0.53097-0.99506 1.0833z" fill="#2a5b46" style="-inkscape-stroke:none"/>
   <path transform="matrix(-.9994 -.042427 .035418 -.9991 -76.321 130.36)" d="m13.5 20h15a3.6213 3.6213 157.5 0 0 2.5607-1.0607l3.8787-3.8787a1.5 1.5 90 0 0 0-2.1213l-3.8787-3.8787a3.6213 3.6213 22.5 0 0-2.5607-1.0607h-15a1.5 1.5 135 0 0-1.5 1.5v9a1.5 1.5 45 0 0 1.5 1.5z" fill="#1c1c1c" style="-inkscape-stroke:none"/>
   <path transform="matrix(1 0 -.042438 1 -116.74 86.983)" d="m26.413 24.514c-2.8972-0.25038-7.0823-0.34637-10.727-0.43842-1.1039-0.02788-2.9006 0.22344-3.6452 1.0084-0.45341 0.478-1.5047 1.4481-2.3034 2.2111-0.29193 0.27893 0.10136 1.1416 0.85699 1.9472 0.34575 0.3686 0.69119 0.73757 1.0425 1.0998 0.76734 0.79128 2.2977 1.7089 3.3921 1.71 0.74945 8.03e-4 2.2507 0.08661 3.3543 0.13339l8.0146 0.33974a1.9177 1.9177 136.22 0 0 1.9989-1.9153l0.0014-3.8635c4e-4 -1.1046-0.88505-2.1373-1.9853-2.2324z" fill="#408c6b" style="-inkscape-stroke:none"/>
  </g>
  <g transform="translate(-206.36 -38.194)">
   <path d="m111.74 78.778-5.959 0.48438c0.0789 0.98528 0.14577 1.9602 0.20703 2.9316l-5.6035 0.35547 0.75976 11.977 5.2188-0.33203c4e-3 1.4123-6e-3 2.8237-0.0254 4.2363l-8.3496-0.49609-6.3438 5.6328 5.6328 6.3457 8.7188 0.51758c-0.0812 2.0859-0.16745 4.1903-0.25586 6.3476h6c0.0934-2.0172 0.18305-4.0085 0.26758-5.9902l3.2383 0.19336 0.71093-11.98-3.584-0.21289c0.0229-1.6533 0.0335-3.3107 0.0234-4.9766l6.7109-0.42578 5.6094-6.3672-6.3691-5.6074-6.3789 0.4043c-0.0681-1.0057-0.14145-2.0158-0.22852-3.0371z" fill="#1c1c1c" stroke-width="2.7805"/>
  </g>
  <g transform="translate(-223.41 41.733)" fill="#1c1c1c">
   <path d="m124.42-47.009 5.9589-0.48412c1.1344 13.306 0.59252 25.204 0 38h-6c0.53742-13.113 1.07-24.673 0.0411-37.516z" stroke-width="2.7805"/>
   <path d="m119.79-31.745 17.964-1.1393 5.6082-6.3678-6.3678-5.6082-17.964 1.1393z" style="-inkscape-stroke:none"/>
   <path d="m134.6-27.27-17.968-1.0673-6.3452 5.6337 5.6337 6.3452 17.968 1.0673z" style="-inkscape-stroke:none"/>
  </g>
  <g stroke="#1c1c1c" stroke-linecap="round" stroke-linejoin="round" stroke-width="1.7">
   <path d="m-97.428 147.19 5.9589-0.48412c1.1344 13.306 0.59252 25.204 0 38h-6c0.53742-13.113 1.07-24.673 0.0411-37.516z" fill="#8fd6b7"/>
   <path d="m-100.6 161.61 15.659-0.99319 4.8888-5.5509-5.5509-4.8888-15.659 0.99319z" fill="#2a5b46"/>
   <path d="m-88.508 167.49-16.112-0.95706-5.6898 5.0517 5.0517 5.6898 16.112 0.95707z" fill="#408c6b"/>
  </g>
  <g fill="#1c1c1c">
   <rect x="-97.622" y="-48.303" width="6" height="39" ry=".42383" style="-inkscape-stroke:none"/>
   <path d="m-102.62-32.303h18l6-6-6-6h-18z" style="-inkscape-stroke:none"/>
   <path d="m-86.622-28.303h-18l-6 6 6 6h18z" style="-inkscape-stroke:none"/>
  </g>
  <g fill-opacity=".57068">
   <path d="m-87.353 151.11 1.4945-0.0476 4.5589 4.0678-3.9899 4.6859-1.7924 0.12567 3.8827-4.4544z" fill="#112119"/>
   <path d="m-89.447 168.31-0.49611 9.0572-1.8954-0.0994 0.69897-9.0827z" fill="#112119"/>
   <path d="m-92.061 178.9-0.0604 1.2225-4.29-0.30124 0.0445-1.2107z" fill="#4db286"/>
   <path d="m-96.001 163.37 0.021-1.2125 4.3238-0.25886 0.0288 1.1953z" fill="#4db286"/>
  </g>
 </g>
 <g transform="translate(.45956 -.31933)">
  <path transform="matrix(.99096 0 0 .97045 -.40411 .98984)" d="m42 41.353 2.3799-7.0424a7 7 95.821 0 0 0.31581-3.0978l-1.483-12.026a7 7 94.001 0 1 0.18693-2.6724l1.1025-4.1053a7 7 54.301 0 0-6.3248-8.802l-25.356-1.5811a7 7 142.43 0 0-7.3 5.6151l-1.328 6.6474a7 7 92.134 0 0-0.083005 2.2281l1.5119 12.259a7 7 95.821 0 1-0.31581 3.0979l-1.1702 3.4628a7 7 56.12 0 0 6.1959 9.2275l24.601 1.534a7 7 146.12 0 0 7.0672-4.7454z" fill="#8fd6b7" stroke="#6dc59f" stroke-opacity=".89584" stroke-width="3.7948" style="paint-order:stroke fill markers"/>
  <g transform="matrix(.99096 0 0 .97045 -.40411 .94875)">
   <path d="m4.1075 16.493 1.602 12.99 39.046 2.2184-1.602-12.99z" fill="#6f5610" fill-opacity=".1125"/>
   <path d="m5.7095 29.483 39.046 2.2184c0.11117 0.902-0.03971 1.5368-0.21848 2.1432l-39.003-2.6448c0.1266-0.47005 0.26749-0.91871 0.17501-1.7168z" fill="url(#a)" stroke-width="2.6379" style="-inkscape-stroke:none"/>
   <path d="m4.1075 16.493 39.046 2.2184c-0.06948-0.57894-0.03334-1.1567 0.12122-1.7331l-39.086-2.6652c-0.14981 0.80584-0.16983 1.5279-0.08121 2.1799z" fill="url(#b)" stroke-width="2.6379" style="-inkscape-stroke:none"/>
  </g>
  <path transform="matrix(.99096 0 0 .97045 -.40411 .94875)" d="m4.2902 13.847 1.4788-0.99056a8.4171 8.4171 134.9 0 0 2.3246-2.3324l2.1043-3.1645a3.58 3.58 151.56 0 1 2.9491-1.5975l22.759-0.20277a2.7665 2.7665 153.26 0 0 2.1836-1.1l0.58742-0.77842-24.803-1.5466c-0.75119-0.046843-1.9747-0.11932-2.7199-0.019908-3.8066 0.50782-5.2235 3.6761-5.5727 5.2675z" fill="#fff" fill-opacity=".14764" style="paint-order:stroke fill markers"/>
 </g>
 <g>
  <path transform="matrix(.852 -.089823 -.21771 .63769 20.142 16.12)" d="m13.27 3.1968c-0.068785-0.015961-0.13948-0.025365-0.20607-0.025964-1.4759-0.016548-2.3397 0.31358-3.1979 0.77162-0.39993 0.21346-0.51482 0.85324-0.31901 1.416 0.040192 0.1155 0.080107 0.22907 0.11697 0.34113 0.27817 0.84446-0.095344 1.5811-0.84108 1.6426l-2.6849 0.22212c-0.76758 0.063486-1.1295 0.81628-0.80756 1.6841l3.4937 9.4294c0.32145 0.86789 1.2016 1.517 1.9692 1.4535l2.8045-0.22978c0.61065-0.05037 1.2849 0.47264 1.4994 1.1668 0.09374 0.30339 0.18622 0.60652 0.27812 0.90901 0.20658 0.68004-0.14102 1.1991-0.76885 1.1628l-4.3114-0.24894c-0.89098-0.051828-1.3702 0.97774-1.8274 1.5956l-3.9434 3.515c-0.61584 0.54976-0.66541 1.4992-0.11187 2.119l3.6624 4.1055c0.64172 0.71872 1.5426 1.1552 2.5015 1.213l3.3877 0.20459c1.068 0.0645 1.8481 0.9786 1.7416 2.0432-0.11974 1.1968-0.24099 2.3916-0.36245 3.5876-0.11071 1.0901 0.88154 1.9784 1.9772 1.9784l2.0448 1.25e-4c1.0957 0 1.8523-0.89014 1.9794-1.9785 0.13043-1.1164 0.25598-2.2328 0.37897-3.3525 0.10909-0.99321 1.0028-1.7508 2.0002-1.6907l1.8277 0.11043c0.82681 0.05018 1.5323-0.58056 1.5775-1.4072l0.38114-7.1837-1.5222-0.26035c0.58296 0.09534 1.1056 0.18355 1.5222 0.26035l-0.64021-2.2005c-0.25447-0.86897-1.2269-1.7705-2.0301-1.8174l-2.1216-0.1212c-0.59593-0.034622-1.2327-0.58488-1.4285-1.2303-0.15917-0.5247-0.32086-1.0511-0.48584-1.5784-0.25175-0.80452 0.11024-1.5047 0.81782-1.5632l3.0688-0.2538c0.88971-0.07345 1.595-0.54411 1.9606-1.3073l2.0889-4.3582c0.31571-0.65898-0.053651-1.655-0.82488-2.2234l-5.0976-3.7655c-0.89253-0.65903-1.896-0.98951-2.7855-0.9161l-3.3134 0.27448c-0.55854 0.045979-1.2575-0.42411-1.5723-1.0484-0.19679-0.39036-0.42518-0.85371-0.65637-1.3666-0.22835-0.50657-0.73842-0.96668-1.22-1.0784z" fill="#1c1c1c" fill-opacity=".21906" filter="url(#c)" stroke-width="2.765" style="mix-blend-mode:normal"/>
 </g>
 <g>
  <ellipse cx="24.416" cy="42.111" rx="5.4053" ry="1.728" fill="#133426" fill-opacity=".21232" style="paint-order:stroke fill markers"/>
  <ellipse cx="24.336" cy="42.114" rx="3.4851" ry="1.1141" fill="#133426" fill-opacity=".3654" style="paint-order:stroke fill markers"/>
  <path d="m26.487 4.9082c-0.27038-0.00542-0.06716-8.403e-4 -0.10156 0.00195-1.6088-0.10125-3.3887 0.21147-3.9668 0.32422s-0.96014 0.52731-0.91992 1.0781c0.02285 0.31297 0.04537 0.62399 0.06641 0.93555 0.03722 0.55103-0.38242 1.0256-0.93359 1.0605 2.8657 0.57046 5.4761 0.22935 7.9766-0.50391-0.55118 0.03493-1.0288-0.38468-1.0684-0.93555-0.0249-0.34674-0.04902-0.6944-0.07617-1.043-0.040206-0.5162-0.70619-0.91254-0.97657-0.91797zm-1.168 14.227c-1.2034-0.0076-2.5767 0.27507-4.3125 1.1758 0.55117-0.03507 0.99905 0.38326 0.99805 0.93555-0.0014 0.74548-6e-3 1.4908-0.01367 2.2363-0.0057 0.55225-0.45845 0.97416-1.0098 0.94141 2.2776 0.9659 4.8711 1.2932 8.0312 0.47461-0.55131-0.03275-0.9922-0.50634-0.98633-1.0586 0.01052-0.99012 0.01687-1.9819 0.01563-2.9766-7e-4 -0.55228 0.44297-1.0275 0.99414-1.0625-1.2072-0.27592-2.3529-0.65738-3.7168-0.66602zm-1.6992 16.916c-0.99901-0.01076-1.9929 0.09835-2.9805 0.37305 0.55132 0.03273 0.98066 0.50682 0.95703 1.0586-0.05898 1.3771-0.12103 2.5697-0.18359 4.0098-0.01826 0.42042 0.35798 0.7744 0.77873 0.76623 3.5462-0.06887 2.965 0.93067 4.3502 0.61463 0.4524-0.10322 0.8576-0.41887 0.87891-0.88281 0.06399-1.3933 0.1258-2.7744 0.18555-4.1504 0.02396-0.55176 0.48972-0.97237 1.041-0.93945-1.6836-0.47985-3.3623-0.83167-5.0273-0.84961z" fill="#1c1c1c" stroke-width="2.7805"/>
  <path d="m14.628 24.046c-0.63916-0.03798-1.2672 0.17953-1.746 0.60465l-4.8482 4.3049c-0.413 0.36671-0.45057 0.99878-0.083916 1.4118l4.3051 4.85c0.42505 0.47884 1.0229 0.76918 1.6621 0.80712l15.972 0.9495c0.55124 0.03292 1.0247-0.38738 1.0575-0.93864l0.59246-9.984c0.03272-0.55132-0.38768-1.0248-0.939-1.0575l-1.5875-0.0943z" fill="#1c1c1c"/>
  <path transform="rotate(187.18 22.649 21.873)" d="m15.399 9.3598 13.656-0.8245a2.3876 2.3876 19.27 0 1 1.7414 0.60881l2.6372 2.3742a1.027 1.027 86.232 0 1 0.09417 1.4298l-2.582 3.0266a2.3487 2.3487 153.53 0 1-1.6473 0.82019l-13.295 0.79142a1.0139 1.0139 41.197 0 1-1.0715-0.93789l-0.45762-6.2311a0.98708 0.98708 131.17 0 1 0.92494-1.0576z" fill="#408c6b" style="paint-order:stroke fill markers"/>
  <path d="m33.751 19.501c0.63902-0.04054 1.2358-0.33322 1.659-0.81367l4.2873-4.8665c0.36505-0.41437 0.32496-1.0462-0.08952-1.4111l-4.868-4.2858c-0.48059-0.42311-1.1095-0.63805-1.7486-0.59755l-4.3829 0.27779-7.9765 0.50547-3.6075 0.22885c-0.55118 0.034965-0.96965 0.51013-0.93468 1.0613l0.63315 9.9806c0.03496 0.55115 0.51015 0.96956 1.0613 0.9345" fill="#1c1c1c"/>
  <path transform="translate(3.4231 .80675)" d="m15.752 9.6948 13.557-0.86452a2.4101 2.4101 18.886 0 1 1.7479 0.59793l2.6318 2.3219a1.0122 1.0122 86.074 0 1 0.09742 1.4194l-2.5498 2.9615a2.3866 2.3866 153.46 0 1-1.6503 0.82419l-13.284 0.88352a1.001 1.001 41.167 0 1-1.0651-0.93137l-0.41515-6.1512a0.9963 0.9963 131.25 0 1 0.93064-1.0614z" fill="#2a5b46" style="paint-order:stroke fill markers"/>
 </g>
 <g>
  <path transform="translate(-17.368 .89062)" d="m40.096 4.2891c-0.10294 0.01845-0.23852 0.041021-0.30859 0.054687-0.57811 0.11275-0.96014 0.52731-0.91992 1.0781 0.02285 0.31297 0.04537 0.62399 0.06641 0.93555 0.037216 0.55103-0.38242 1.0256-0.9336 1.0605l1.5342-0.097056c0.48268-0.030535 0.83831-0.44574 0.79034-0.927-0.06983-0.70056-0.14609-1.4023-0.22886-2.1048zm-1.7207 15.131c0.55117-0.03507 0.99905 0.38326 0.99805 0.93555-0.0014 0.74547-6e-3 1.4908-0.01367 2.2363-0.0057 0.55225-0.45845 0.97416-1.0098 0.94141l1.7537 0.10384c0.48878 0.02894 0.88914-0.3445 0.89136-0.83413 0.0041-0.91275 0.0027-1.923-6.29e-4 -2.6719-0.0021-0.48318-0.39678-0.85036-0.87903-0.82013zm-0.36719 16.113c0.5781 0.03427 0.98066 0.50682 0.95703 1.0586-0.05898 1.3771-0.12103 2.5697-0.18359 4.0098-0.01826 0.42042 0.35849 0.76914 0.7793 0.76563 0.33664-0.0028 0.62588 0.06887 0.89162 0.0074 0.05921-1.5065 0.10478-3.1888 0.15972-4.7542 0.01805-0.51415-0.38176-0.95554-0.89536-0.98595z" fill="#575757" fill-opacity=".14672" stroke-width="2.7805"/>
  <path d="m28.148 26.92-0.47461 4.0781a2.7051 2.7051 0 0 1-2.7344 2.3906l-12.232-0.2168 0.26953 0.3125a2.3876 2.3876 0 0 0 1.6504 0.82227l13.652 0.88867a0.98708 0.98708 0 0 0 1.0508-0.93359l0.32422-6.2402a1.0139 1.0139 0 0 0-0.94531-1.0645z" fill="#1a4231" fill-opacity=".23056" style="paint-order:stroke fill markers"/>
  <path d="m37.13 12.576-2.7988 2.5527a4.5873 4.5873 0 0 1-2.8086 1.1895l-12.904 0.79102 0.04102 0.60547a1.001 1.001 0 0 0 1.0645 0.93164l13.285-0.88477a2.3866 2.3866 0 0 0 1.6504-0.82422l2.5488-2.9609a1.0122 1.0122 0 0 0-0.07813-1.4004z" fill="#133426" fill-opacity=".32557" style="paint-order:stroke fill markers"/>
 </g>
 <g display="none" fill="none" stroke-linecap="round" stroke-linejoin="round">
  <circle cx="24" cy="24" r="24" image-rendering="auto" opacity=".59436" stop-color="#000000" stroke="#cec3ff" stroke-width=".1"/>
  <ellipse cx="24" cy="24" rx="16.501" ry="16.5" display="inline" opacity=".25036" stop-color="#000000" stroke="#cec3ff" stroke-width=".1"/>
  <g stroke="#b3a3ff">
   <ellipse cx="24" cy="24" rx="19.5" ry="19.495" display="inline" opacity=".59436" stop-color="#000000" stroke-width=".18953"/>
   <path d="m0 0 48 48" opacity=".59436" stop-color="#000000" stroke-width=".1"/>
   <path d="m48 0-48 48" opacity=".59436" stop-color="#000000" stroke-width=".1"/>
  </g>
 </g>
 <g display="none">
  <path d="m0 0v48h48v-48zm24 4.5047c11.017 4.318e-4 19.5 8.4778 19.5 19.495-4.32e-4 11.017-8.4825 19.495-19.5 19.495-11.017-4.32e-4 -19.5-8.4778-19.5-19.495 4.32e-4 -11.017 8.4825-19.495 19.5-19.495z" fill="#ecf8e3" stop-color="#000000"/>
 </g>
</svg>
