<svg width="48" height="48" shape-rendering="auto" version="1.1" viewBox="0 0 48 48" xmlns="http://www.w3.org/2000/svg">
 <g>
  <path d="m26.424 0.40598c-1.7692-8e-3 -3.5366 0.30537-4.1641 0.42773-0.71706 0.13985-1.1905 0.65274-1.1406 1.3359 0.02834 0.38819 0.15359 2.0081 0.17969 2.3945 0.04617 0.68346-0.47456 1.273-1.1582 1.3164 2e-3 4.006e-4 0.0038 0.00155 0.0059 0.00195l-0.10352 0.00586-4.4746 0.2832c-0.68365 0.043369-1.2035 0.63276-1.1602 1.3164l0.78516 12.379c0.04336 0.68361 0.6328 1.2036 1.3164 1.1602l4.0684-0.25781c0.66336-0.01909 1.1965 0.48791 1.1953 1.1582-0.0017 0.92464-0.03537 0.61431-0.04492 1.5391-0.0068 0.65554-0.5135 1.1644-1.1562 1.1719l-7.9766-0.47265c-0.79278-0.04711-1.5722 0.2227-2.166 0.75l-6.0137 5.3398c-0.51226 0.45485-0.55829 1.2377-0.10352 1.75l5.3398 6.0156c0.5272 0.59393 1.2697 0.95489 2.0625 1.002l8.3398 0.49609c0.68287 0.04161 1.2148 0.62876 1.1855 1.3125-0.07315 1.708-0.15092 3.1864-0.22852 4.9727-0.02265 0.52147 0.44494 0.96131 0.9668 0.95117 4.3985-0.08543 3.6764 1.1537 5.3945 0.76172 0.56113-0.12802 1.0634-0.5183 1.0898-1.0938 0.07937-1.7281 0.15636-3.4418 0.23047-5.1484 0.02969-0.68371 0.60614-1.2057 1.2891-1.166 6.09e-4 1.74e-4 0.0013-1.74e-4 2e-3 0l1.541 0.0918c0.68373 0.04084 1.27-0.48032 1.3105-1.1641l0.73633-12.385c0.04058-0.68383-0.48219-1.2699-1.166-1.3105l-1.9375-0.11524c-0.68381-0.04062-1.2299-0.62752-1.2227-1.3125 0.01305-1.2281 0.02887-1.2194 0.02734-2.4531-8.68e-4 -0.68502 0.54878-1.275 1.2324-1.3184-0.0063-0.0014-0.0132-5.43e-4 -0.01953-0.0019l5.8281-0.3711c0.7926-0.05028 1.5336-0.41384 2.0586-1.0098l5.3184-6.0352c0.45279-0.51396 0.40278-1.2974-0.11133-1.75l-6.0391-5.3165c-0.5961-0.5248-1.3754-0.79242-2.168-0.74219l-5.3379 0.33984c-0.0013 8.4e-5 -0.0026-7.9e-5 -0.0039 0-0.68197 0.04106-1.2713-0.47822-1.3203-1.1602-0.03088-0.43007-0.15968-2.0969-0.19336-2.5293-0.04987-0.64026-0.87753-1.1319-1.2129-1.1387-0.33536-0.0067-0.08233 5.07e-4 -0.125 0.0039-0.24944-0.0157-0.50312-0.02425-0.75586-0.02539z" stroke-width="3.4488"/>
 </g>
 <g display="none" fill="none" stroke-linecap="round" stroke-linejoin="round">
  <circle cx="24" cy="24" r="24" image-rendering="auto" opacity=".59436" stop-color="#000000" stroke="#cec3ff" stroke-width=".1"/>
  <ellipse cx="24" cy="24" rx="16.501" ry="16.5" display="inline" opacity=".25036" stop-color="#000000" stroke="#cec3ff" stroke-width=".1"/>
  <g stroke="#b3a3ff">
   <ellipse cx="24" cy="24" rx="19.5" ry="19.495" display="inline" opacity=".59436" stop-color="#000000" stroke-width=".18953"/>
   <path d="m0 0 48 48" opacity=".59436" stop-color="#000000" stroke-width=".1"/>
   <path d="m48 0-48 48" opacity=".59436" stop-color="#000000" stroke-width=".1"/>
  </g>
 </g>
 <g display="none">
  <path d="m0 0v48h48v-48zm24 4.5047c11.017 4.318e-4 19.5 8.4778 19.5 19.495-4.32e-4 11.017-8.4825 19.495-19.5 19.495-11.017-4.32e-4 -19.5-8.4778-19.5-19.495 4.32e-4 -11.017 8.4825-19.495 19.5-19.495z" fill="#ecf8e3" stop-color="#000000"/>
 </g>
</svg>
