<svg width="48" height="48" shape-rendering="auto" version="1.1" viewBox="0 0 48 48" xmlns="http://www.w3.org/2000/svg" xmlns:xlink="http://www.w3.org/1999/xlink">
 <defs>
  <filter id="c" x="-.12904" y="-.079922" width="1.2581" height="1.1598" color-interpolation-filters="sRGB">
   <feGaussianBlur stdDeviation="1.3347985"/>
  </filter>
  <linearGradient id="a" x1="6.4277" x2="6.2853" y1="29.483" y2="31.251" gradientTransform="matrix(1.3731 .12147 -.085514 .96667 -7.6575 .61413)" gradientUnits="userSpaceOnUse">
   <stop stop-color="#8ac7a3" offset="0"/>
   <stop stop-color="#8fd6b7" offset="1"/>
  </linearGradient>
  <linearGradient id="b" x1="5.6913" x2="5.8178" y1="16.583" y2="14.567" gradientTransform="matrix(1.3731 .12147 -.085514 .96667 -7.6575 .61413)" gradientUnits="userSpaceOnUse">
   <stop stop-color="#8bc8a4" offset="0"/>
   <stop stop-color="#8fd6b7" offset="1"/>
  </linearGradient>
 </defs>
 <g display="none">
  <rect width="48" height="48" fill="#112119" stop-color="#000000"/>
 </g>
 <g display="none">
  <g transform="matrix(.15483 0 0 .15483 -723.03 -212.2)" display="inline">
   <g transform="matrix(1.1063 0 0 1.1063 5940 -1078)">
    <path d="m-743.25 2243.4c-4.1828 0.1027-5.0683 2.2765-4.8713 4.4463l0.48754 9.9557c0.20455 3.6593-2.9237 7.1786-6.5818 7.4044l-13.956 0.8228c-1.5341 0.091-0.34134-0.084-1.8283 0.3047-1.4869 0.3882-0.35408-0.03-1.7369 0.6399-1.3828 0.6705-0.35889 0.018-1.5845 0.9446-1.2256 0.9272-0.34974 0.1317-1.3712 1.2798-1.0215 1.1482-0.31881 0.168-1.097 1.493-0.77815 1.3253-0.25678 0.2246-0.76178 1.676s-0.2141 0.2758-0.42659 1.7978-0.17959 0.3245-0.0914 1.8588l3.0776 52.532v0.03c0.0807 1.4254-0.0778 0.3332 0.30471 1.7977 0.38886 1.4888-0.032 0.3832 0.6399 1.7674 0.67184 1.3843 0.046 0.3275 0.97508 1.554 0.929 1.2266 0.0988 0.3495 1.2493 1.3712 1.1505 1.0218 0.16539 0.3193 1.4931 1.097 1.3277 0.7777 0.22201 0.2582 1.6759 0.7618s0.30404 0.2163 1.8283 0.4266 0.2923 0.1825 1.8283 0.092h0.0304l14.047-0.8227c3.6593-0.2045 7.1786 2.9238 7.4045 6.5818l0.22249 1.7173c0.0144 0.1417 0.0245 0.2841 0.0304 0.4265v0.2743c-8e-3 0.1119-0.0177 0.2236-0.0304 0.3352l-0.18282 3.8394c-0.16499 3.605-3.5219 6.761-7.1303 6.7036l-39.064-0.7008c-1.5366-0.028-0.34613-0.1497-1.8587 0.1219-1.5126 0.2715-0.33663-0.043-1.7673 0.5181-1.4307 0.561-0.35152 0.024-1.6454 0.8531s-0.35508 0.062-1.4626 1.1275l-26.723 25.809c-1.1082 1.0678-0.30991 0.1381-1.1884 1.4017s-0.29913 0.2041-0.91413 1.6149c-0.615 1.4107-0.25107 0.2636-0.57895 1.7673-0.32788 1.5036-0.18515 0.32-0.21331 1.8588-0.0282 1.5387-0.12029 0.3136 0.15236 1.8283 0.27265 1.5145-0.0755 0.3655 0.48754 1.7977 0.56297 1.4323 0.0216 0.3505 0.85319 1.6454 0.83165 1.295 0.0896 0.355 1.1579 1.4627l25.748 26.815c1.0698 1.1073 0.13631 0.3113 1.4017 1.1885 1.2654 0.8771 0.20273 0.3009 1.615 0.9141 1.4122 0.6131 0.26253 0.2532 1.7673 0.5789 1.5048 0.3257 0.31931 0.1572 1.8587 0.1828l36.748 0.6704c3.751 0.07 7.0731 3.627 6.8865 7.374l-1.1884 25.687c0.90964 4.0391 5.86-1.7394 12.223 0.4072 3.7058 1.2501 14.162 5.014 18.848 5.1164 1.325-0.055 2.7891 0.07 2.9183-1.55l1.7369-29.557c0.2102-3.5738 3.5508-6.6717 7.1303-6.6123l6.7811 0.14c1.5354 0.026 0.31723 0.1515 1.8283-0.1219 1.511-0.2733 0.3689 0.044 1.7978-0.518 1.4289-0.5624 0.35339-0.024 1.6454-0.8532 1.292-0.8298 0.35688-0.061 1.4626-1.1275 1.1057-1.0655 0.31128-0.1716 1.1884-1.4321 0.8771-1.2604 0.29926-0.2078 0.91414-1.615 0.61487-1.4071 0.21936-0.2369 0.54848-1.7367 0.32379-1.4758 0.18836-0.4035 0.2133-1.8283v-0.03l0.97508-52.593c0.029-1.539 0.15007-0.3438-0.12189-1.8588s0.0444-0.3651-0.51801-1.7978c-0.56241-1.4328-0.0219-0.3501-0.85319-1.6454-0.83123-1.2955-0.0594-0.3544-1.1274-1.4627-1.0681-1.1083-0.1683-0.3098-1.4321-1.1883-1.2638-0.8786-0.20397-0.2992-1.615-0.9142-1.411-0.615-0.26343-0.2208-1.7673-0.5484-1.5039-0.3278-0.28932-0.1855-1.8283-0.2133l-4.8342-0.2867c-1.9025-0.033-3.7776-0.8781-5.0621-2.282s-1.9603-3.3464-1.8244-5.2444l0.0304-0.457c5e-3 -0.3987 0.0103-0.2241 0-0.2743-4e-3 -0.016 0.0101 0.041 0-0.092l-0.89286-7.2021c-0.32188-3.7271 2.8474-7.3953 6.5818-7.6178l30.521-1.9987h0.0304c1.5367-0.088 0.33815 0.081 1.8283-0.3047 1.4901-0.3856 0.35063 0.029 1.7368-0.6399 1.3862-0.669 0.35551-0.018 1.5845-0.9446 1.2141-0.9153 0.37398-0.1612 1.3407-1.2493l24.651-27.82h0.0304c1.0199-1.1496 0.29018-0.1666 1.0665-1.4929 0.77631-1.3265 0.28932-0.2237 0.79225-1.676s0.21635-0.3058 0.4266-1.8283c0.21024-1.5224 0.15143-0.294 0.0609-1.8283-0.0905-1.5342 0.1135-0.341-0.27424-1.8282-0.38775-1.4872 0.0302-0.3538-0.6399-1.7368-0.67015-1.3832-0.0483-0.3586-0.97507-1.5846-0.92685-1.2259-0.10133-0.3493-1.2493-1.3712l-27.759-24.743v0.03c-1.1508-1.0191-0.16572-0.3216-1.4931-1.0969-1.3274-0.7754-0.22289-0.2601-1.6759-0.7618-1.453-0.5017-0.27486-0.2482-1.7978-0.4571-1.5229-0.2087-0.32431-0.1529-1.8587-0.06-0.0102 1e-4 -0.0203 1e-4 -0.0304 0l-34.174 1.9131c-3.6027 0.2083-7.0886-2.8041-7.4045-6.399l-0.563-6.6263c-0.16405-1.6812-2.443-6.3-8.5269-6.1951-5.4327-0.2362-10.876-0.058-16.31 0.071z" fill="#2b2b2b"/>
    <path d="m-756.83 2271.8a12.355 10.58 0 0 0-11.606 11.18l2.3146 33.724a12.355 10.58 0 0 0 13.056 9.9389l68.916-3.4688a12.355 10.58 0 0 0 8.5122-3.5277l18.484-17.85a12.355 10.58 0 0 0-1.0256-14.942l-20.799-15.873a12.355 10.58 0 0 0-8.9362-2.6495z" fill="#2a5b46"/>
    <path d="m-708.74 2418.6a12.17 9.7363 0 0 0 12.389-9.5536l0.71452-31.083a12.17 9.7363 0 0 0-11.941-9.9116l-67.991-1.0004a12.17 9.7363 0 0 0-8.6724 2.7201l-19.735 15.256a12.17 9.7363 0 0 0-0.31656 13.772l19.021 15.826a12.17 9.7363 0 0 0 8.5416 2.9733z" fill="#408c6b"/>
   </g>
  </g>
 </g>
 <g></g>
 <g transform="translate(.45956 -.31933)">
  <rect x="-.45956" y=".31933" width="48" height="48" ry=".42383" fill="#8fd6b7" style="paint-order:stroke fill markers"/>
  <path d="m-0.45956 17.438v12.611l48 6.1875v-12.609l-48-6.1895z" fill="#6f5610" fill-opacity=".1125"/>
  <path d="m-0.45956 30.05v1.707l48 6.5664v-2.0859l-48-6.1875z" fill="url(#a)" stroke-width="3.051" style="-inkscape-stroke:none"/>
  <path d="m-0.45956 15.323v2.1152l48 6.1895v-1.7246l-48-6.5801z" fill="url(#b)" stroke-width="3.051" style="-inkscape-stroke:none"/>
 </g>
 <g>
  <path transform="matrix(.69689 -.07347 -.17807 .5216 19.902 17.816)" d="m13.27 3.1968c-0.068785-0.015961-0.13948-0.025365-0.20607-0.025964-1.4759-0.016548-2.3397 0.31358-3.1979 0.77162-0.39993 0.21346-0.51482 0.85324-0.31901 1.416 0.040192 0.1155 0.080107 0.22907 0.11697 0.34113 0.27817 0.84446-0.095344 1.5811-0.84108 1.6426l-2.6849 0.22212c-0.76758 0.063486-1.1295 0.81628-0.80756 1.6841l3.4937 9.4294c0.32145 0.86789 1.2016 1.517 1.9692 1.4535l2.8045-0.22978c0.61065-0.05037 1.2849 0.47264 1.4994 1.1668 0.09374 0.30339 0.18622 0.60652 0.27812 0.90901 0.20658 0.68004-0.14102 1.1991-0.76885 1.1628l-4.3114-0.24894c-0.89098-0.051828-1.3702 0.97774-1.8274 1.5956l-3.9434 3.515c-0.61584 0.54976-0.66541 1.4992-0.11187 2.119l3.6624 4.1055c0.64172 0.71872 1.5426 1.1552 2.5015 1.213l3.3877 0.20459c1.068 0.0645 1.8481 0.9786 1.7416 2.0432-0.11974 1.1968-0.24099 2.3916-0.36245 3.5876-0.11071 1.0901 0.88154 1.9784 1.9772 1.9784l2.0448 1.25e-4c1.0957 0 1.8523-0.89014 1.9794-1.9785 0.13043-1.1164 0.25598-2.2328 0.37897-3.3525 0.10909-0.99321 1.0028-1.7508 2.0002-1.6907l1.8277 0.11043c0.82681 0.05018 1.5323-0.58056 1.5775-1.4072l0.38114-7.1837-1.5222-0.26035c0.58296 0.09534 1.1056 0.18355 1.5222 0.26035l-0.64021-2.2005c-0.25447-0.86897-1.2269-1.7705-2.0301-1.8174l-2.1216-0.1212c-0.59593-0.034622-1.2327-0.58488-1.4285-1.2303-0.15917-0.5247-0.32086-1.0511-0.48584-1.5784-0.25175-0.80452 0.11024-1.5047 0.81782-1.5632l3.0688-0.2538c0.88971-0.07345 1.595-0.54411 1.9606-1.3073l2.0889-4.3582c0.31571-0.65898-0.053651-1.655-0.82488-2.2234l-5.0976-3.7655c-0.89253-0.65903-1.896-0.98951-2.7855-0.9161l-3.3134 0.27448c-0.55854 0.045979-1.2575-0.42411-1.5723-1.0484-0.19679-0.39036-0.42518-0.85371-0.65637-1.3666-0.22835-0.50657-0.73842-0.96668-1.22-1.0784z" fill="#1c1c1c" fill-opacity=".21906" filter="url(#c)" stroke-width="2.765" style="mix-blend-mode:normal"/>
 </g>
 <g>
  <ellipse cx="23.398" cy="39.075" rx="4.4212" ry="1.4134" fill="#133426" fill-opacity=".21232" style="paint-order:stroke fill markers"/>
  <ellipse cx="23.333" cy="39.078" rx="2.8506" ry=".91131" fill="#133426" fill-opacity=".3654" style="paint-order:stroke fill markers"/>
  <path d="m25.092 8.6456c-0.22116-0.00443-0.05493-6.873e-4 -0.08307 0.0016-1.3159-0.082815-2.7718 0.17297-3.2446 0.26519-0.47286 0.092221-0.78534 0.43131-0.75244 0.88185 0.01869 0.25599 0.03711 0.51039 0.05432 0.76523 0.03044 0.45071-0.3128 0.83887-0.76363 0.86747 2.344 0.46661 4.4791 0.18759 6.5244-0.41217-0.45083 0.02857-0.8415-0.31465-0.87386-0.76523-0.02037-0.28361-0.0401-0.56798-0.0623-0.85309-0.03289-0.42222-0.57762-0.74641-0.79878-0.75085zm-0.95533 11.637c-0.98434-0.0062-2.1076 0.22499-3.5274 0.96172 0.45082-0.02869 0.81717 0.31349 0.81635 0.76522-0.0011 0.60976-0.0049 1.2194-0.01118 1.8292-0.0047 0.45171-0.37499 0.79681-0.82593 0.77002 1.863 0.79005 3.9843 1.0577 6.5691 0.3882-0.45094-0.02679-0.81156-0.41416-0.80676-0.86587 0.0086-0.80987 0.0138-1.6211 0.01279-2.4347-5.73e-4 -0.45174 0.36232-0.84046 0.81315-0.86907-0.98746-0.22569-1.9246-0.5377-3.0401-0.54476zm-1.3899 13.836c-0.81714-0.0088-1.6301 0.08045-2.4379 0.30513 0.45094 0.02677 0.80213 0.41455 0.7828 0.86587-0.04824 1.1264-0.099 2.1018-0.15017 3.2798-0.01494 0.34388 0.29281 0.63342 0.63696 0.62673 2.9006-0.05633 2.4252 0.76124 3.5582 0.50274 0.37004-0.08442 0.70147-0.34262 0.7189-0.72209 0.05234-1.1396 0.1029-2.2693 0.15177-3.3948 0.0196-0.45131 0.40056-0.79534 0.85149-0.76842-1.3771-0.39249-2.7502-0.68026-4.1121-0.69493z" fill="#1c1c1c" stroke-width="2.2743"/>
  <path d="m15.392 24.299c-0.5228-0.03106-1.0365 0.14684-1.4281 0.49457l-3.9656 3.5212c-0.33781 0.29995-0.36854 0.81694-0.06864 1.1548l3.5213 3.967c0.34767 0.39167 0.83671 0.62915 1.3595 0.66018l13.064 0.77664c0.45089 0.02693 0.83819-0.31686 0.86494-0.76776l0.4846-8.1663c0.02676-0.45095-0.3171-0.83822-0.76805-0.86501l-1.2985-0.07713z" fill="#1c1c1c"/>
  <path transform="matrix(-.81153 -.10221 .10221 -.81153 38.097 42.588)" d="m15.399 9.3598 13.656-0.8245a2.3876 2.3876 19.27 0 1 1.7414 0.60881l2.6372 2.3742a1.027 1.027 86.232 0 1 0.09417 1.4298l-2.582 3.0266a2.3487 2.3487 153.53 0 1-1.6473 0.82019l-13.295 0.79142a1.0139 1.0139 41.197 0 1-1.0715-0.93789l-0.45762-6.2311a0.98708 0.98708 131.17 0 1 0.92494-1.0576z" fill="#408c6b" style="paint-order:stroke fill markers"/>
  <path d="m31.033 20.582c0.52268-0.03316 1.0108-0.27255 1.357-0.66553l3.5068-3.9805c0.29859-0.33893 0.2658-0.85576-0.07322-1.1542l-3.9818-3.5056c-0.3931-0.34608-0.90754-0.52189-1.4302-0.48876l-3.585 0.22722-6.5243 0.41345-2.9508 0.18719c-0.45083 0.0286-0.79312 0.41726-0.76452 0.86809l0.51788 8.1636c0.0286 0.45081 0.41728 0.79305 0.86808 0.76437" fill="#1c1c1c"/>
  <path transform="matrix(.81794 0 0 .81794 6.2267 5.2909)" d="m15.752 9.6948 13.557-0.86452a2.4101 2.4101 18.886 0 1 1.7479 0.59793l2.6318 2.3219a1.0122 1.0122 86.074 0 1 0.09742 1.4194l-2.5498 2.9615a2.3866 2.3866 153.46 0 1-1.6503 0.82419l-13.284 0.88352a1.001 1.001 41.167 0 1-1.0651-0.93137l-0.41515-6.1512a0.9963 0.9963 131.25 0 1 0.93064-1.0614z" fill="#2a5b46" style="paint-order:stroke fill markers"/>
 </g>
 <g>
  <path transform="matrix(.81794 0 0 .81794 -10.779 5.3595)" d="m40.096 4.2891c-0.10294 0.01845-0.23852 0.041021-0.30859 0.054687-0.57811 0.11275-0.96014 0.52731-0.91992 1.0781 0.02285 0.31297 0.04537 0.62399 0.06641 0.93555 0.037216 0.55103-0.38242 1.0256-0.9336 1.0605l1.3957-0.088292c0.55919-0.035375 0.97125-0.51641 0.91502-1.0739-0.066032-0.65466-0.13768-1.3103-0.21502-1.9667zm-1.7207 15.131c0.55117-0.03507 0.99905 0.38326 0.99805 0.93555-0.0014 0.74547-6e-3 1.4908-0.01367 2.2363-0.0057 0.55225-0.45845 0.97416-1.0098 0.94141l1.7402 0.10305c0.4962 0.02938 0.90265-0.34973 0.90519-0.84679 0.0045-0.88904 0.0043-1.8628 0.0019-2.5955-0.0017-0.49705-0.40779-0.8806-0.90428-0.85669zm-0.36719 16.113c0.51746 0.03066 0.98066 0.50682 0.95703 1.0586-0.05898 1.3771-0.12103 2.5697-0.18359 4.0098-0.01826 0.42042 0.35849 0.76866 0.7793 0.76563 0.3823-0.0028 0.67694 0.07097 0.94268 0.0095 0.05925-1.5075 0.06944-3.1925 0.11259-4.7593 0.01412-0.51254-0.38444-0.95247-0.8965-0.98279z" fill="#575757" fill-opacity=".14672" stroke-width="2.7805"/>
  <path d="m26.45 26.65-0.38821 3.3357a2.2126 2.2126 0 0 1-2.2366 1.9554l-10.005-0.17733 0.22046 0.25561a1.9529 1.9529 0 0 0 1.3499 0.67257l11.167 0.72688a0.80738 0.80738 0 0 0 0.85948-0.76363l0.26519-5.1042a0.82935 0.82935 0 0 0-0.77321-0.87066z" fill="#1a4231" fill-opacity=".23056" style="paint-order:stroke fill markers"/>
  <path d="m33.797 14.918-2.2893 2.088a3.7522 3.7522 0 0 1-2.2973 0.97291l-10.555 0.64701 0.03355 0.49524a0.81875 0.81875 0 0 0 0.87066 0.76203l10.867-0.72369a1.9521 1.9521 0 0 0 1.3499-0.67416l2.0848-2.4219a0.8279 0.8279 0 0 0-0.0639-1.1454z" fill="#133426" fill-opacity=".32557" style="paint-order:stroke fill markers"/>
 </g>
 <g display="none" fill="none" stroke-linecap="round" stroke-linejoin="round">
  <circle cx="24" cy="24" r="24" image-rendering="auto" opacity=".59436" stop-color="#000000" stroke="#cec3ff" stroke-width=".1"/>
  <ellipse cx="24" cy="24" rx="16.501" ry="16.5" display="inline" opacity=".25036" stop-color="#000000" stroke="#cec3ff" stroke-width=".1"/>
  <g stroke="#b3a3ff">
   <ellipse cx="24" cy="24" rx="19.5" ry="19.495" display="inline" opacity=".59436" stop-color="#000000" stroke-width=".18953"/>
   <path d="m0 0 48 48" opacity=".59436" stop-color="#000000" stroke-width=".1"/>
   <path d="m48 0-48 48" opacity=".59436" stop-color="#000000" stroke-width=".1"/>
  </g>
 </g>
 <g display="none">
  <path d="m0 0v48h48v-48zm24 4.5047c11.017 4.318e-4 19.5 8.4778 19.5 19.495-4.32e-4 11.017-8.4825 19.495-19.5 19.495-11.017-4.32e-4 -19.5-8.4778-19.5-19.495 4.32e-4 -11.017 8.4825-19.495 19.5-19.495z" fill="#ecf8e3" stop-color="#000000"/>
 </g>
</svg>
