<svg width="48" height="48" shape-rendering="auto" version="1.1" viewBox="0 0 48 48" xmlns="http://www.w3.org/2000/svg" xmlns:xlink="http://www.w3.org/1999/xlink">
 <defs>
  <filter id="c" x="-.14556" y="-.090152" width="1.2911" height="1.1803" color-interpolation-filters="sRGB">
   <feGaussianBlur stdDeviation="1.5056471"/>
  </filter>
  <linearGradient id="a" x1="6.4277" x2="6.2853" y1="29.483" y2="31.251" gradientTransform="matrix(1.3731 .12147 -.085514 .96667 -7.6575 .61413)" gradientUnits="userSpaceOnUse">
   <stop stop-color="#8ac7a3" offset="0"/>
   <stop stop-color="#8fd6b7" offset="1"/>
  </linearGradient>
  <linearGradient id="b" x1="5.6913" x2="5.8178" y1="16.583" y2="14.567" gradientTransform="matrix(1.3731 .12147 -.085514 .96667 -7.6575 .61413)" gradientUnits="userSpaceOnUse">
   <stop stop-color="#8bc8a4" offset="0"/>
   <stop stop-color="#8fd6b7" offset="1"/>
  </linearGradient>
 </defs>
 <g display="none">
  <rect width="48" height="48" fill="#112119" stop-color="#000000"/>
 </g>
 <g display="none">
  <g transform="matrix(.15483 0 0 .15483 -723.03 -212.2)" display="inline">
   <g transform="matrix(1.1063 0 0 1.1063 5940 -1078)">
    <path d="m-743.25 2243.4c-4.1828 0.1027-5.0683 2.2765-4.8713 4.4463l0.48754 9.9557c0.20455 3.6593-2.9237 7.1786-6.5818 7.4044l-13.956 0.8228c-1.5341 0.091-0.34134-0.084-1.8283 0.3047-1.4869 0.3882-0.35408-0.03-1.7369 0.6399-1.3828 0.6705-0.35889 0.018-1.5845 0.9446-1.2256 0.9272-0.34974 0.1317-1.3712 1.2798-1.0215 1.1482-0.31881 0.168-1.097 1.493-0.77815 1.3253-0.25678 0.2246-0.76178 1.676s-0.2141 0.2758-0.42659 1.7978-0.17959 0.3245-0.0914 1.8588l3.0776 52.532v0.03c0.0807 1.4254-0.0778 0.3332 0.30471 1.7977 0.38886 1.4888-0.032 0.3832 0.6399 1.7674 0.67184 1.3843 0.046 0.3275 0.97508 1.554 0.929 1.2266 0.0988 0.3495 1.2493 1.3712 1.1505 1.0218 0.16539 0.3193 1.4931 1.097 1.3277 0.7777 0.22201 0.2582 1.6759 0.7618s0.30404 0.2163 1.8283 0.4266 0.2923 0.1825 1.8283 0.092h0.0304l14.047-0.8227c3.6593-0.2045 7.1786 2.9238 7.4045 6.5818l0.22249 1.7173c0.0144 0.1417 0.0245 0.2841 0.0304 0.4265v0.2743c-8e-3 0.1119-0.0177 0.2236-0.0304 0.3352l-0.18282 3.8394c-0.16499 3.605-3.5219 6.761-7.1303 6.7036l-39.064-0.7008c-1.5366-0.028-0.34613-0.1497-1.8587 0.1219-1.5126 0.2715-0.33663-0.043-1.7673 0.5181-1.4307 0.561-0.35152 0.024-1.6454 0.8531s-0.35508 0.062-1.4626 1.1275l-26.723 25.809c-1.1082 1.0678-0.30991 0.1381-1.1884 1.4017s-0.29913 0.2041-0.91413 1.6149c-0.615 1.4107-0.25107 0.2636-0.57895 1.7673-0.32788 1.5036-0.18515 0.32-0.21331 1.8588-0.0282 1.5387-0.12029 0.3136 0.15236 1.8283 0.27265 1.5145-0.0755 0.3655 0.48754 1.7977 0.56297 1.4323 0.0216 0.3505 0.85319 1.6454 0.83165 1.295 0.0896 0.355 1.1579 1.4627l25.748 26.815c1.0698 1.1073 0.13631 0.3113 1.4017 1.1885 1.2654 0.8771 0.20273 0.3009 1.615 0.9141 1.4122 0.6131 0.26253 0.2532 1.7673 0.5789 1.5048 0.3257 0.31931 0.1572 1.8587 0.1828l36.748 0.6704c3.751 0.07 7.0731 3.627 6.8865 7.374l-1.1884 25.687c0.90964 4.0391 5.86-1.7394 12.223 0.4072 3.7058 1.2501 14.162 5.014 18.848 5.1164 1.325-0.055 2.7891 0.07 2.9183-1.55l1.7369-29.557c0.2102-3.5738 3.5508-6.6717 7.1303-6.6123l6.7811 0.14c1.5354 0.026 0.31723 0.1515 1.8283-0.1219 1.511-0.2733 0.3689 0.044 1.7978-0.518 1.4289-0.5624 0.35339-0.024 1.6454-0.8532 1.292-0.8298 0.35688-0.061 1.4626-1.1275 1.1057-1.0655 0.31128-0.1716 1.1884-1.4321 0.8771-1.2604 0.29926-0.2078 0.91414-1.615 0.61487-1.4071 0.21936-0.2369 0.54848-1.7367 0.32379-1.4758 0.18836-0.4035 0.2133-1.8283v-0.03l0.97508-52.593c0.029-1.539 0.15007-0.3438-0.12189-1.8588s0.0444-0.3651-0.51801-1.7978c-0.56241-1.4328-0.0219-0.3501-0.85319-1.6454-0.83123-1.2955-0.0594-0.3544-1.1274-1.4627-1.0681-1.1083-0.1683-0.3098-1.4321-1.1883-1.2638-0.8786-0.20397-0.2992-1.615-0.9142-1.411-0.615-0.26343-0.2208-1.7673-0.5484-1.5039-0.3278-0.28932-0.1855-1.8283-0.2133l-4.8342-0.2867c-1.9025-0.033-3.7776-0.8781-5.0621-2.282s-1.9603-3.3464-1.8244-5.2444l0.0304-0.457c5e-3 -0.3987 0.0103-0.2241 0-0.2743-4e-3 -0.016 0.0101 0.041 0-0.092l-0.89286-7.2021c-0.32188-3.7271 2.8474-7.3953 6.5818-7.6178l30.521-1.9987h0.0304c1.5367-0.088 0.33815 0.081 1.8283-0.3047 1.4901-0.3856 0.35063 0.029 1.7368-0.6399 1.3862-0.669 0.35551-0.018 1.5845-0.9446 1.2141-0.9153 0.37398-0.1612 1.3407-1.2493l24.651-27.82h0.0304c1.0199-1.1496 0.29018-0.1666 1.0665-1.4929 0.77631-1.3265 0.28932-0.2237 0.79225-1.676s0.21635-0.3058 0.4266-1.8283c0.21024-1.5224 0.15143-0.294 0.0609-1.8283-0.0905-1.5342 0.1135-0.341-0.27424-1.8282-0.38775-1.4872 0.0302-0.3538-0.6399-1.7368-0.67015-1.3832-0.0483-0.3586-0.97507-1.5846-0.92685-1.2259-0.10133-0.3493-1.2493-1.3712l-27.759-24.743v0.03c-1.1508-1.0191-0.16572-0.3216-1.4931-1.0969-1.3274-0.7754-0.22289-0.2601-1.6759-0.7618-1.453-0.5017-0.27486-0.2482-1.7978-0.4571-1.5229-0.2087-0.32431-0.1529-1.8587-0.06-0.0102 1e-4 -0.0203 1e-4 -0.0304 0l-34.174 1.9131c-3.6027 0.2083-7.0886-2.8041-7.4045-6.399l-0.563-6.6263c-0.16405-1.6812-2.443-6.3-8.5269-6.1951-5.4327-0.2362-10.876-0.058-16.31 0.071z" fill="#2b2b2b"/>
    <path d="m-756.83 2271.8a12.355 10.58 0 0 0-11.606 11.18l2.3146 33.724a12.355 10.58 0 0 0 13.056 9.9389l68.916-3.4688a12.355 10.58 0 0 0 8.5122-3.5277l18.484-17.85a12.355 10.58 0 0 0-1.0256-14.942l-20.799-15.873a12.355 10.58 0 0 0-8.9362-2.6495z" fill="#2a5b46"/>
    <path d="m-708.74 2418.6a12.17 9.7363 0 0 0 12.389-9.5536l0.71452-31.083a12.17 9.7363 0 0 0-11.941-9.9116l-67.991-1.0004a12.17 9.7363 0 0 0-8.6724 2.7201l-19.735 15.256a12.17 9.7363 0 0 0-0.31656 13.772l19.021 15.826a12.17 9.7363 0 0 0 8.5416 2.9733z" fill="#408c6b"/>
   </g>
  </g>
 </g>
 <g/>
 <g transform="translate(.45956 -.31933)">
  <rect x="-.45956" y=".31933" width="48" height="48" ry=".42383" fill="#8fd6b7" style="paint-order:stroke fill markers"/>
  <path d="m-0.45956 17.438v12.611l48 6.1875v-12.609l-48-6.1895z" fill="#6f5610" fill-opacity=".1125"/>
  <path d="m-0.45956 30.05v1.707l48 6.5664v-2.0859l-48-6.1875z" fill="url(#a)" stroke-width="3.051" style="-inkscape-stroke:none"/>
  <path d="m-0.45956 15.323v2.1152l48 6.1895v-1.7246l-48-6.5801z" fill="url(#b)" stroke-width="3.051" style="-inkscape-stroke:none"/>
 </g>
 <g>
  <path transform="matrix(.69689 -.07347 -.17807 .5216 19.902 17.816)" d="m13.27 3.1968c-0.068785-0.015961-0.13948-0.025365-0.20607-0.025964-1.4759-0.016548-2.3397 0.31358-3.1979 0.77162-0.39993 0.21346-0.51482 0.85324-0.31901 1.416 0.040192 0.1155 0.080107 0.22907 0.11697 0.34113 0.27817 0.84446-0.095344 1.5811-0.84108 1.6426l-2.6849 0.22212c-0.76758 0.063486-1.1295 0.81628-0.80756 1.6841l3.4937 9.4294c0.32145 0.86789 1.2016 1.517 1.9692 1.4535l2.8045-0.22978c0.61065-0.05037 1.2849 0.47264 1.4994 1.1668 0.09374 0.30339 0.18622 0.60652 0.27812 0.90901 0.20658 0.68004-0.14102 1.1991-0.76885 1.1628l-4.3114-0.24894c-0.89098-0.051828-1.3702 0.97774-1.8274 1.5956l-3.9434 3.515c-0.61584 0.54976-0.66541 1.4992-0.11187 2.119l3.6624 4.1055c0.64172 0.71872 1.5426 1.1552 2.5015 1.213l3.3877 0.20459c1.068 0.0645 1.8481 0.9786 1.7416 2.0432-0.11974 1.1968-0.24099 2.3916-0.36245 3.5876-0.11071 1.0901 0.88154 1.9784 1.9772 1.9784l2.0448 1.25e-4c1.0957 0 1.8523-0.89014 1.9794-1.9785 0.13043-1.1164 0.25598-2.2328 0.37897-3.3525 0.10909-0.99321 1.0028-1.7508 2.0002-1.6907l1.8277 0.11043c0.82681 0.05018 1.5323-0.58056 1.5775-1.4072l0.38114-7.1837-1.5222-0.26035c0.58296 0.09534 1.1056 0.18355 1.5222 0.26035l-0.64021-2.2005c-0.25447-0.86897-1.2269-1.7705-2.0301-1.8174l-2.1216-0.1212c-0.59593-0.034622-1.2327-0.58488-1.4285-1.2303-0.15917-0.5247-0.32086-1.0511-0.48584-1.5784-0.25175-0.80452 0.11024-1.5047 0.81782-1.5632l3.0688-0.2538c0.88971-0.07345 1.595-0.54411 1.9606-1.3073l2.0889-4.3582c0.31571-0.65898-0.053651-1.655-0.82488-2.2234l-5.0976-3.7655c-0.89253-0.65903-1.896-0.98951-2.7855-0.9161l-3.3134 0.27448c-0.55854 0.045979-1.2575-0.42411-1.5723-1.0484-0.19679-0.39036-0.42518-0.85371-0.65637-1.3666-0.22835-0.50657-0.73842-0.96668-1.22-1.0784z" fill="#1c1c1c" fill-opacity=".080506" filter="url(#c)" stroke-width="2.765" style="mix-blend-mode:normal"/>
 </g>
 <g fill="#133426">
  <ellipse cx="23.398" cy="39.075" rx="4.4212" ry="1.4134" fill-opacity=".21232" style="paint-order:stroke fill markers"/>
  <ellipse cx="23.333" cy="39.078" rx="2.8506" ry=".91131" fill-opacity=".3654" style="paint-order:stroke fill markers"/>
 </g>
 <g transform="matrix(.65717 0 0 .65717 -46.071 -7.1118)">
  <path d="m108.31 24.022c-0.33536-0.0067-0.0833-1e-3 -0.12597 0.0024-1.9955-0.12558-4.2031 0.2623-4.9202 0.40214s-1.1909 0.65404-1.141 1.3372c0.0283 0.38819 0.1552 2.008 0.1813 2.3945 0.0462 0.68347-0.47433 1.2721-1.158 1.3154 3.5544 0.70757 6.7922 0.28447 9.8937-0.62502-0.68365 0.04333-1.2761-0.47714-1.3251-1.1604-0.0309-0.43007-0.15972-2.0953-0.1934-2.5277-0.0499-0.64026-0.87592-1.1319-1.2113-1.1386zm-1.4208 18.88c-1.4927-0.0095-3.196 0.34118-5.349 1.4584 0.68364-0.0435 1.2392 0.47538 1.2379 1.1604-2e-3 0.92464-0.0353 0.61495-0.0448 1.5397-7e-3 0.68498-0.56864 1.2083-1.2524 1.1677 2.825 1.198 6.0697 1.6092 9.9894 0.59397-0.68382-0.04062-1.2307-0.62804-1.2234-1.313 0.0131-1.2281 0.0209-1.2295 0.0194-2.4631-8.6e-4 -0.68502 0.54943-1.2745 1.2331-1.3179-1.4974-0.34224-2.9184-0.82609-4.6101-0.82609zm-2.1355 19.748c-1.2391-0.01335-2.4719 0.12199-3.6968 0.46271 0.68382 0.0406 1.2164 0.62862 1.187 1.313-0.0731 1.708-0.15012 3.1873-0.22772 4.9735-0.0227 0.52147 0.44402 0.96052 0.96588 0.95039 4.3985-0.08543 3.6776 1.1543 5.3957 0.76236 0.56113-0.12802 1.0637-0.51955 1.0902-1.095 0.0794-1.7281 0.15604-3.4412 0.23014-5.1479 0.0297-0.68438 0.60742-1.2061 1.2912-1.1652-2.0882-0.59518-4.1704-1.0316-6.2356-1.0538z" fill="#1c1c1c" stroke-width="3.4488"/>
  <path d="m93.596 47.759c-0.79278-0.04711-1.5718 0.22267-2.1656 0.74998l-6.0135 5.3395c-0.51226 0.45485-0.55886 1.2388-0.10408 1.7512l5.3398 6.0156c0.5272 0.59393 1.2688 0.95405 2.0616 1.0011l19.811 1.1777c0.68373 0.04084 1.271-0.48049 1.3116-1.1642l0.73486-12.384c0.0406-0.68383-0.48086-1.2711-1.1647-1.3117l-1.969-0.11696z" fill="#1c1c1c"/>
  <path transform="matrix(-1.2306 -.155 .155 -1.2306 128.03 75.494)" d="m15.399 9.3598 13.656-0.8245a2.3876 2.3876 19.27 0 1 1.7414 0.60881l2.6372 2.3742a1.027 1.027 86.232 0 1 0.09417 1.4298l-2.582 3.0266a2.3487 2.3487 153.53 0 1-1.6473 0.82019l-13.295 0.79142a1.0139 1.0139 41.197 0 1-1.0715-0.93789l-0.45762-6.2311a0.98708 0.98708 131.17 0 1 0.92494-1.0576z" fill="#408c6b" style="paint-order:stroke fill markers"/>
  <path transform="matrix(-1.2306 -.155 .155 -1.2306 128.03 75.494)" d="m29.299 16.795c0.6372-0.0383 1.2314-0.33432 1.6457-0.81991l2.5835-3.0267c0.36174-0.42363 0.31981-1.0584-0.09451-1.4308-0.50537-0.01217-1.3428 1.481-2.7628 2.9409-0.60344 0.62036-1.8592 1.1326-2.7197 1.2325l-6.0717 0.70466a2.1202 2.1202 158.06 0 0-1.0391 0.41852l-0.69065 0.5253z" fill="#8fd6b7" opacity=".10695" style="paint-order:stroke fill markers"/>
  <path d="m117.31 43.363c0.7926-0.05028 1.5328-0.41331 2.0578-1.0092l5.3177-6.0361c0.45279-0.51396 0.40307-1.2977-0.11103-1.7503l-6.038-5.3159c-0.5961-0.5248-1.3762-0.7914-2.1688-0.74116l-5.4363 0.34456-9.8936 0.62696-4.4746 0.28385c-0.68365 0.04337-1.2027 0.63273-1.1593 1.3164l0.78532 12.379c0.04336 0.68361 0.63276 1.2026 1.3164 1.1591" fill="#1c1c1c"/>
  <path transform="matrix(1.2403 0 0 1.2403 79.698 20.176)" d="m15.752 9.6948 13.557-0.86452a2.4101 2.4101 18.886 0 1 1.7479 0.59793l2.6318 2.3219a1.0122 1.0122 86.074 0 1 0.09742 1.4194l-2.5498 2.9615a2.3866 2.3866 153.46 0 1-1.6503 0.82419l-13.284 0.88352a1.001 1.001 41.167 0 1-1.0651-0.93137l-0.41515-6.1512a0.9963 0.9963 131.25 0 1 0.93064-1.0614z" fill="#2a5b46" style="paint-order:stroke fill markers"/>
  <path transform="translate(84 23.594)" d="m30.497 7.6342-15.262 0.97266c-0.68286 0.043554-1.2003 0.63371-1.1543 1.3164l0.35156 5.2031a1.7119 1.7119 120.88 0 0 0.79581-1.3307l0.14233-1.4633a2.5076 2.5076 134 0 1 2.1662-2.2431l11.387-1.5101a2.05 2.05 154.82 0 0 1.1236-0.5283z" fill="#408c6b" opacity=".098813" style="paint-order:stroke fill markers"/>
  <path d="m110.36 51.324-0.58868 5.0583a3.3552 3.3552 0 0 1-3.3916 2.9652l-15.172-0.2689 0.33431 0.38761a2.9614 2.9614 0 0 0 2.0471 1.0199l16.934 1.1023a1.2243 1.2243 0 0 0 1.3033-1.158l0.40214-7.74a1.2576 1.2576 0 0 0-1.1725-1.3203z" fill="#1a4231" fill-opacity=".23056" style="paint-order:stroke fill markers"/>
  <path d="m121.51 34.774-3.4715 3.1663a5.6898 5.6898 0 0 1-3.4836 1.4753l-16.006 0.98113 0.05088 0.75099a1.2416 1.2416 0 0 0 1.3203 1.1556l16.478-1.0974a2.9602 2.9602 0 0 0 2.047-1.0223l3.1614-3.6726a1.2554 1.2554 0 0 0-0.0969-1.737z" fill="#133426" fill-opacity=".32557" style="paint-order:stroke fill markers"/>
  <path d="m104.57 24.21c-0.12768 0.02288-1.2259 0.20032-1.3128 0.21727-0.71706 0.13985-1.1909 0.65405-1.141 1.3372 0.0283 0.38819 0.1552 2.008 0.1813 2.3945 0.0462 0.68347-0.47434 1.2721-1.158 1.3154l3.8584-0.2591c0-0.43859-0.91068 0.0034-1-0.92049-0.0447-0.46194-0.18455-1.6486-0.23894-2.4411-0.0864-1.259 0.95164-0.92856 0.811-1.6437zm-3.0364 20.151c0.68364-0.0435 1.2392 0.47538 1.2379 1.1604-2e-3 0.92464-0.0353 0.61495-0.0448 1.5397-7e-3 0.68498-0.56864 1.2083-1.2525 1.1677 1.6906 0.10028 2.4866 0.14672 4.1773 0.24642 3e-3 -0.47413-0.88482-0.05258-0.88648-1.0863-2e-3 -1.0338 0.04-2.2438 0.04-2.2438 0.0237-0.98887 0.98513-0.5371 1.002-1.0506-1.8154 0.11526-2.3794 0.14912-4.2734 0.26663zm-0.48331 18.752c0.73162 0.04347 1.2164 0.62862 1.187 1.313-0.0732 1.708-0.15012 3.1873-0.22772 4.9735-0.0227 0.52147 0.44465 0.95401 0.96659 0.94964 0.41624-0.0035 1.3489-0.08969 2.9222 0.23516 0.0995-1.183-1.8104-0.74505-1.7757-1.895 0.0347-1.15 0.0782-3.4939 0.10252-4.0944 0.0486-1.2011 1.0781-0.7001 1.0806-1.229z" fill="#315e47" fill-opacity=".20574" stroke-width="3.4488"/>
 </g>
 <g display="none" fill="none" stroke-linecap="round" stroke-linejoin="round">
  <circle cx="24" cy="24" r="24" image-rendering="auto" opacity=".59436" stop-color="#000000" stroke="#cec3ff" stroke-width=".1"/>
  <ellipse cx="24" cy="24" rx="16.501" ry="16.5" display="inline" opacity=".25036" stop-color="#000000" stroke="#cec3ff" stroke-width=".1"/>
  <g stroke="#b3a3ff">
   <ellipse cx="24" cy="24" rx="19.5" ry="19.495" display="inline" opacity=".59436" stop-color="#000000" stroke-width=".18953"/>
   <path d="m0 0 48 48" opacity=".59436" stop-color="#000000" stroke-width=".1"/>
   <path d="m48 0-48 48" opacity=".59436" stop-color="#000000" stroke-width=".1"/>
  </g>
 </g>
 <g display="none">
  <path d="m0 0v48h48v-48zm24 4.5047c11.017 4.318e-4 19.5 8.4778 19.5 19.495-4.32e-4 11.017-8.4825 19.495-19.5 19.495-11.017-4.32e-4 -19.5-8.4778-19.5-19.495 4.32e-4 -11.017 8.4825-19.495 19.5-19.495z" fill="#ecf8e3" stop-color="#000000"/>
 </g>
</svg>
