<svg width="48" height="48" shape-rendering="auto" version="1.1" viewBox="0 0 48 48" xmlns="http://www.w3.org/2000/svg" xmlns:xlink="http://www.w3.org/1999/xlink">
 <defs>
  <filter id="c" x="-.12904" y="-.079922" width="1.2581" height="1.1598" color-interpolation-filters="sRGB">
   <feGaussianBlur stdDeviation="1.3347985"/>
  </filter>
  <linearGradient id="a" x1="6.4277" x2="6.2853" y1="29.483" y2="31.251" gradientUnits="userSpaceOnUse">
   <stop stop-color="#8ac7a3" offset="0"/>
   <stop stop-color="#8fd6b7" offset="1"/>
  </linearGradient>
  <linearGradient id="b" x1="5.6913" x2="5.8178" y1="16.583" y2="14.567" gradientUnits="userSpaceOnUse">
   <stop stop-color="#8bc8a4" offset="0"/>
   <stop stop-color="#8fd6b7" offset="1"/>
  </linearGradient>
 </defs>
 <g display="none">
  <rect width="48" height="48" fill="#112119" stop-color="#000000"/>
 </g>
 <g transform="translate(.45956 -.31933)">
  <path transform="matrix(.99096 0 0 .97045 -.40411 .98984)" d="m42 41.353 2.3799-7.0424a7 7 95.821 0 0 0.31581-3.0978l-1.483-12.026a7 7 94.001 0 1 0.18693-2.6724l1.1025-4.1053a7 7 54.301 0 0-6.3248-8.802l-25.356-1.5811a7 7 142.43 0 0-7.3 5.6151l-1.328 6.6474a7 7 92.134 0 0-0.083005 2.2281l1.5119 12.259a7 7 95.821 0 1-0.31581 3.0979l-1.1702 3.4628a7 7 56.12 0 0 6.1959 9.2275l24.601 1.534a7 7 146.12 0 0 7.0672-4.7454z" fill="#8fd6b7" stroke="#6dc59f" stroke-opacity=".89584" stroke-width="3.7948" style="paint-order:stroke fill markers"/>
  <g transform="matrix(.99096 0 0 .97045 -.40411 .94875)">
   <path d="m4.1075 16.493 1.602 12.99 39.046 2.2184-1.602-12.99z" fill="#6f5610" fill-opacity=".1125"/>
   <path d="m5.7095 29.483 39.046 2.2184c0.11117 0.902-0.03971 1.5368-0.21848 2.1432l-39.003-2.6448c0.1266-0.47005 0.26749-0.91871 0.17501-1.7168z" fill="url(#a)" stroke-width="2.6379" style="-inkscape-stroke:none"/>
   <path d="m4.1075 16.493 39.046 2.2184c-0.06948-0.57894-0.03334-1.1567 0.12122-1.7331l-39.086-2.6652c-0.14981 0.80584-0.16983 1.5279-0.08121 2.1799z" fill="url(#b)" stroke-width="2.6379" style="-inkscape-stroke:none"/>
  </g>
  <path transform="matrix(.99096 0 0 .97045 -.40411 .94875)" d="m4.2902 13.847 1.4788-0.99056a8.4171 8.4171 134.9 0 0 2.3246-2.3324l2.1043-3.1645a3.58 3.58 151.56 0 1 2.9491-1.5975l22.759-0.20277a2.7665 2.7665 153.26 0 0 2.1836-1.1l0.58742-0.77842-24.803-1.5466c-0.75119-0.046843-1.9747-0.11932-2.7199-0.019908-3.8066 0.50782-5.2235 3.6761-5.5727 5.2675z" fill="#fff" fill-opacity=".14764" style="paint-order:stroke fill markers"/>
 </g>
 <g>
  <path transform="matrix(.852 -.089823 -.21771 .63769 20.142 16.12)" d="m13.27 3.1968c-0.068785-0.015961-0.13948-0.025365-0.20607-0.025964-1.4759-0.016548-2.3397 0.31358-3.1979 0.77162-0.39993 0.21346-0.51482 0.85324-0.31901 1.416 0.040192 0.1155 0.080107 0.22907 0.11697 0.34113 0.27817 0.84446-0.095344 1.5811-0.84108 1.6426l-2.6849 0.22212c-0.76758 0.063486-1.1295 0.81628-0.80756 1.6841l3.4937 9.4294c0.32145 0.86789 1.2016 1.517 1.9692 1.4535l2.8045-0.22978c0.61065-0.05037 1.2849 0.47264 1.4994 1.1668 0.09374 0.30339 0.18622 0.60652 0.27812 0.90901 0.20658 0.68004-0.14102 1.1991-0.76885 1.1628l-4.3114-0.24894c-0.89098-0.051828-1.3702 0.97774-1.8274 1.5956l-3.9434 3.515c-0.61584 0.54976-0.66541 1.4992-0.11187 2.119l3.6624 4.1055c0.64172 0.71872 1.5426 1.1552 2.5015 1.213l3.3877 0.20459c1.068 0.0645 1.8481 0.9786 1.7416 2.0432-0.11974 1.1968-0.24099 2.3916-0.36245 3.5876-0.11071 1.0901 0.88154 1.9784 1.9772 1.9784l2.0448 1.25e-4c1.0957 0 1.8523-0.89014 1.9794-1.9785 0.13043-1.1164 0.25598-2.2328 0.37897-3.3525 0.10909-0.99321 1.0028-1.7508 2.0002-1.6907l1.8277 0.11043c0.82681 0.05018 1.5323-0.58056 1.5775-1.4072l0.38114-7.1837-1.5222-0.26035c0.58296 0.09534 1.1056 0.18355 1.5222 0.26035l-0.64021-2.2005c-0.25447-0.86897-1.2269-1.7705-2.0301-1.8174l-2.1216-0.1212c-0.59593-0.034622-1.2327-0.58488-1.4285-1.2303-0.15917-0.5247-0.32086-1.0511-0.48584-1.5784-0.25175-0.80452 0.11024-1.5047 0.81782-1.5632l3.0688-0.2538c0.88971-0.07345 1.595-0.54411 1.9606-1.3073l2.0889-4.3582c0.31571-0.65898-0.053651-1.655-0.82488-2.2234l-5.0976-3.7655c-0.89253-0.65903-1.896-0.98951-2.7855-0.9161l-3.3134 0.27448c-0.55854 0.045979-1.2575-0.42411-1.5723-1.0484-0.19679-0.39036-0.42518-0.85371-0.65637-1.3666-0.22835-0.50657-0.73842-0.96668-1.22-1.0784z" fill="#1c1c1c" fill-opacity=".21906" filter="url(#c)" stroke-width="2.765" style="mix-blend-mode:normal"/>
 </g>
 <g fill="#133426">
  <ellipse cx="24.416" cy="42.111" rx="5.4053" ry="1.728" fill-opacity=".21232" style="paint-order:stroke fill markers"/>
  <ellipse cx="24.336" cy="42.114" rx="3.4851" ry="1.1141" fill-opacity=".3654" style="paint-order:stroke fill markers"/>
 </g>
 <g transform="matrix(.81033 0 0 .81033 -61.252 -14.718)">
  <path d="m108.31 24.022c-0.33536-0.0067-0.0833-1e-3 -0.12597 0.0024-1.9955-0.12558-4.2031 0.2623-4.9202 0.40214s-1.1909 0.65404-1.141 1.3372c0.0283 0.38819 0.1552 2.008 0.1813 2.3945 0.0462 0.68347-0.47433 1.2721-1.158 1.3154 3.5544 0.70757 6.7922 0.28447 9.8937-0.62502-0.68365 0.04333-1.2761-0.47714-1.3251-1.1604-0.0309-0.43007-0.15972-2.0953-0.1934-2.5277-0.0499-0.64026-0.87592-1.1319-1.2113-1.1386zm-1.4208 18.88c-1.4927-0.0095-3.196 0.34118-5.349 1.4584 0.68364-0.0435 1.2392 0.47538 1.2379 1.1604-2e-3 0.92464-0.0353 0.61495-0.0448 1.5397-7e-3 0.68498-0.56864 1.2083-1.2524 1.1677 2.825 1.198 6.0697 1.6184 9.9894 0.6031-0.68382-0.04062-1.2307-0.62804-1.2234-1.313 0.0131-1.2281 0.0209-1.2386 0.0194-2.4723-8.6e-4 -0.68502 0.54943-1.2745 1.2331-1.3179-1.4974-0.34224-2.9184-0.82609-4.6101-0.82609zm-2.1355 19.748c-1.2391-0.01335-2.4719 0.12199-3.6968 0.46271 0.68382 0.0406 1.2164 0.62862 1.187 1.313-0.0731 1.708-0.15012 3.1873-0.22772 4.9735-0.0227 0.52147 0.44402 0.96052 0.96588 0.95039 4.3985-0.08543 3.6776 1.1543 5.3957 0.76236 0.56113-0.12802 1.0637-0.51955 1.0902-1.095 0.0794-1.7281 0.15604-3.4412 0.23014-5.1479 0.0297-0.68438 0.60742-1.2061 1.2912-1.1652-2.0882-0.59518-4.1704-1.0316-6.2356-1.0538z" fill="#1c1c1c" stroke-width="3.4488"/>
  <path d="m93.596 47.759c-0.79278-0.04711-1.5718 0.22267-2.1656 0.74998l-6.0135 5.3395c-0.51226 0.45485-0.55886 1.2388-0.10408 1.7512l5.3398 6.0156c0.5272 0.59393 1.2688 0.95405 2.0616 1.0011l19.811 1.1777c0.68373 0.04084 1.271-0.48049 1.3116-1.1642l0.73486-12.384c0.0406-0.68383-0.48086-1.2711-1.1647-1.3117l-1.969-0.11696z" fill="#1c1c1c"/>
  <path transform="matrix(-1.2306 -.155 .155 -1.2306 128.03 75.494)" d="m15.399 9.3598 13.656-0.8245a2.3876 2.3876 19.27 0 1 1.7414 0.60881l2.6372 2.3742a1.027 1.027 86.232 0 1 0.09417 1.4298l-2.582 3.0266a2.3487 2.3487 153.53 0 1-1.6473 0.82019l-13.295 0.79142a1.0139 1.0139 41.197 0 1-1.0715-0.93789l-0.45762-6.2311a0.98708 0.98708 131.17 0 1 0.92494-1.0576z" fill="#408c6b" style="paint-order:stroke fill markers"/>
  <path transform="matrix(-1.2306 -.155 .155 -1.2306 128.03 75.494)" d="m29.299 16.795c0.6372-0.0383 1.2314-0.33432 1.6457-0.81991l2.5835-3.0267c0.36174-0.42363 0.31981-1.0584-0.09451-1.4308-0.50537-0.01217-1.3428 1.481-2.7628 2.9409-0.60344 0.62036-1.8592 1.1326-2.7197 1.2325l-6.0717 0.70466a2.1202 2.1202 158.06 0 0-1.0391 0.41852l-0.69065 0.5253z" fill="#8fd6b7" opacity=".10695" style="paint-order:stroke fill markers"/>
  <path d="m117.31 43.363c0.7926-0.05028 1.5328-0.41331 2.0578-1.0092l5.3177-6.0361c0.45279-0.51396 0.40307-1.2977-0.11103-1.7503l-6.038-5.3159c-0.5961-0.5248-1.3762-0.7914-2.1688-0.74116l-5.4363 0.34456-9.8936 0.62696-4.4746 0.28385c-0.68365 0.04337-1.2027 0.63273-1.1593 1.3164l0.78532 12.379c0.04336 0.68361 0.63276 1.2026 1.3164 1.1591" fill="#1c1c1c"/>
  <path transform="matrix(1.2403 0 0 1.2403 79.698 20.176)" d="m15.752 9.6948 13.557-0.86452a2.4101 2.4101 18.886 0 1 1.7479 0.59793l2.6318 2.3219a1.0122 1.0122 86.074 0 1 0.09742 1.4194l-2.5498 2.9615a2.3866 2.3866 153.46 0 1-1.6503 0.82419l-13.284 0.88352a1.001 1.001 41.167 0 1-1.0651-0.93137l-0.41515-6.1512a0.9963 0.9963 131.25 0 1 0.93064-1.0614z" fill="#2a5b46" style="paint-order:stroke fill markers"/>
  <path transform="translate(84 23.594)" d="m30.497 7.6342-15.262 0.97266c-0.68286 0.043554-1.2003 0.63371-1.1543 1.3164l0.35156 5.2031a1.7119 1.7119 120.88 0 0 0.79581-1.3307l0.14233-1.4633a2.5076 2.5076 134 0 1 2.1662-2.2431l11.387-1.5101a2.05 2.05 154.82 0 0 1.1236-0.5283z" fill="#408c6b" opacity=".098813" style="paint-order:stroke fill markers"/>
  <path d="m110.36 51.324-0.58868 5.0583a3.3552 3.3552 0 0 1-3.3916 2.9652l-15.172-0.2689 0.33431 0.38761a2.9614 2.9614 0 0 0 2.0471 1.0199l16.934 1.1023a1.2243 1.2243 0 0 0 1.3033-1.158l0.40214-7.74a1.2576 1.2576 0 0 0-1.1725-1.3203z" fill="#1a4231" fill-opacity=".23056" style="paint-order:stroke fill markers"/>
  <path d="m121.51 34.774-3.4715 3.1663a5.6898 5.6898 0 0 1-3.4836 1.4753l-16.006 0.98113 0.05088 0.75099a1.2416 1.2416 0 0 0 1.3203 1.1556l16.478-1.0974a2.9602 2.9602 0 0 0 2.047-1.0223l3.1614-3.6726a1.2554 1.2554 0 0 0-0.0969-1.737z" fill="#133426" fill-opacity=".32557" style="paint-order:stroke fill markers"/>
  <path d="m104.57 24.21c-0.12768 0.02288-1.2259 0.20032-1.3128 0.21727-0.71706 0.13985-1.1909 0.65405-1.141 1.3372 0.0283 0.38819 0.1552 2.008 0.1813 2.3945 0.0462 0.68347-0.47434 1.2721-1.158 1.3154l3.8584-0.2591c0-0.43859-0.91068 0.0034-1-0.92049-0.0447-0.46194-0.18455-1.6486-0.23894-2.4411-0.0864-1.259 0.95164-0.92856 0.811-1.6437zm-3.0364 20.151c0.68364-0.0435 1.2392 0.47538 1.2379 1.1604-2e-3 0.92464-0.0353 0.61495-0.0448 1.5397-7e-3 0.68498-0.56864 1.2083-1.2525 1.1677 1.6906 0.10028 2.4866 0.14672 4.1773 0.24642 3e-3 -0.47413-0.88482-0.05258-0.88648-1.0863-2e-3 -1.0338 0.04-2.2438 0.04-2.2438 0.0237-0.98887 0.98513-0.5371 1.002-1.0506-1.8154 0.11526-2.3794 0.14912-4.2734 0.26663zm-0.48331 18.752c0.73162 0.04347 1.2164 0.62862 1.187 1.313-0.0732 1.708-0.15012 3.1873-0.22772 4.9735-0.0227 0.52147 0.44465 0.95401 0.96659 0.94964 0.41624-0.0035 1.3489-0.08969 2.9222 0.23516 0.0995-1.183-1.8104-0.74505-1.7757-1.895 0.0347-1.15 0.0782-3.4939 0.10252-4.0944 0.0486-1.2011 1.0781-0.7001 1.0806-1.229z" fill="#315e47" fill-opacity=".20574" stroke-width="3.4488"/>
 </g>
 <g display="none" fill="none" stroke-linecap="round" stroke-linejoin="round">
  <circle cx="24" cy="24" r="24" image-rendering="auto" opacity=".59436" stop-color="#000000" stroke="#cec3ff" stroke-width=".1"/>
  <ellipse cx="24" cy="24" rx="16.501" ry="16.5" display="inline" opacity=".25036" stop-color="#000000" stroke="#cec3ff" stroke-width=".1"/>
  <g stroke="#b3a3ff">
   <ellipse cx="24" cy="24" rx="19.5" ry="19.495" display="inline" opacity=".59436" stop-color="#000000" stroke-width=".18953"/>
   <path d="m0 0 48 48" opacity=".59436" stop-color="#000000" stroke-width=".1"/>
   <path d="m48 0-48 48" opacity=".59436" stop-color="#000000" stroke-width=".1"/>
  </g>
 </g>
 <g display="none">
  <path d="m0 0v48h48v-48zm24 4.5047c11.017 4.318e-4 19.5 8.4778 19.5 19.495-4.32e-4 11.017-8.4825 19.495-19.5 19.495-11.017-4.32e-4 -19.5-8.4778-19.5-19.495 4.32e-4 -11.017 8.4825-19.495 19.5-19.495z" fill="#ecf8e3" stop-color="#000000"/>
 </g>
</svg>
