<svg width="42" height="48" shape-rendering="auto" version="1.1" viewBox="0 0 42 48" xmlns="http://www.w3.org/2000/svg">
 <g transform="translate(-44.414)">
  <g transform="matrix(-.603 -.54606 .47847 -.68819 79.885 38.809)">
   <path d="m33.315 19.769c0.7926-0.05028 1.5328-0.41331 2.0578-1.0092l5.3177-6.0361c0.45279-0.51396 0.40307-1.2977-0.11104-1.7503l-6.038-5.3159c-0.5961-0.5248-1.3762-0.7914-2.1688-0.74116l-5.4363 0.34456-9.8936 0.62696-4.4746 0.28385c-0.68365 0.043369-1.2027 0.63273-1.1593 1.3164l0.78532 12.379c0.04336 0.68361 0.63276 1.2026 1.3164 1.1591" fill="#1c1c1c"/>
   <path transform="matrix(1.2403 0 0 1.2403 -4.3022 -3.418)" d="m15.752 9.6948 13.557-0.86452a2.4101 2.4101 18.886 0 1 1.7479 0.59793l2.6318 2.3219a1.0122 1.0122 86.074 0 1 0.09742 1.4194l-2.5498 2.9615a2.3866 2.3866 153.46 0 1-1.6503 0.82419l-13.284 0.88352a1.001 1.001 41.167 0 1-1.0651-0.93137l-0.41515-6.1512a0.9963 0.9963 131.25 0 1 0.93064-1.0614z" fill="#61000b" style="paint-order:stroke fill markers"/>
  </g>
  <path d="m73.841 23.791 2.7805-8.6896-2.0951-1.5508-2.3407 8.8907z" fill="#ff747f" fill-opacity=".089363" stroke-dasharray="66.6667, 43.3333" stroke-linecap="round" stroke-linejoin="round" stroke-width="33.333"/>
  <g transform="translate(39)">
   <g transform="rotate(17.752 19.627 44.904)">
    <path d="m25.497 1.5682c1.2482 15.361 0.9169 26.525 0.24604 41.239-0.04015 0.88051-0.75439 1.8112-1.598 2.0675-0.45051 0.13684-0.92718 0.27846-1.3178 0.38726-0.95236 0.26522-2.8551 0.84133-3.966 1.18-0.47561 0.145-0.84433-0.13944-0.82496-0.63634 0.59872-15.359 0.5934-34.915 0.05341-43.541-0.04376-0.69897 0.46832-1.3735 1.1604-1.4822 1.6628-0.26116 3.3252-0.40795 4.987-0.40308 0.64271 0.001883 1.2079 0.54782 1.2599 1.1885z" fill="#1c1c1c" style="paint-order:normal"/>
    <path d="m19.25 0.78277c-0.69212 0.1087-1.2039 0.78345-1.1602 1.4824 0.53999 8.6257 0.54403 28.182-0.05469 43.541-0.01937 0.4969 0.36587 0.75111 0.85392 0.66117 0.4119 0.0023 2.2237-0.8206 3.5105-1.0775 0.05368-1.6605-2.0409-1.0142-2.0436-1.9587-0.0023-0.79261 0.09064-1.7539 0.12584-3.7226 0.07039-3.9375 0.26417-12.515 0.28149-16.365s-0.44407-12.677-0.53463-17.494c-0.045281-2.4082-0.5087-3.5717 0.033543-4.0171 0.32561-0.26741 0.43176-0.87833 0.42484-1.2467-0.42457 0.056097-1.0996 0.14335-1.4371 0.19635z" fill="#9c9c9c" fill-opacity=".082404" style="mix-blend-mode:lighten"/>
   </g>
   <g transform="rotate(17.752 11.964 57.933)">
    <path d="m9.596 24.165c-0.79278-0.047106-1.5718 0.22267-2.1656 0.74998l-6.0135 5.3395c-0.51226 0.45485-0.55886 1.2388-0.10408 1.7512l5.3398 6.0156c0.52721 0.59393 1.2688 0.95405 2.0616 1.0011l19.811 1.1777c0.68373 0.04084 1.271-0.48049 1.3116-1.1642l0.73486-12.384c0.04058-0.68383-0.48086-1.2711-1.1647-1.3117l-1.9691-0.11696z" fill="#1c1c1c"/>
    <path transform="matrix(-1.2306 -.155 .155 -1.2306 44.027 51.899)" d="m15.399 9.3598 13.656-0.8245a2.3876 2.3876 19.27 0 1 1.7414 0.60881l2.6372 2.3742a1.027 1.027 86.232 0 1 0.09417 1.4298l-2.582 3.0266a2.3487 2.3487 153.53 0 1-1.6473 0.82019l-13.295 0.79142a1.0139 1.0139 41.197 0 1-1.0715-0.93789l-0.45762-6.2311a0.98708 0.98708 131.17 0 1 0.92494-1.0576z" fill="#408c6b" style="paint-order:stroke fill markers"/>
    <path transform="matrix(-1.2306 -.155 .155 -1.2306 44.027 51.899)" d="m29.299 16.795c0.6372-0.0383 1.2314-0.33432 1.6457-0.81991l2.5835-3.0267c0.36174-0.42363 0.31981-1.0584-0.09451-1.4308-0.50537-0.01217-1.3428 1.481-2.7628 2.9409-0.60344 0.62036-1.8592 1.1326-2.7197 1.2325l-6.0717 0.70466a2.1202 2.1202 158.06 0 0-1.0391 0.41852l-0.69065 0.5253z" fill="#fff" fill-opacity=".04" style="mix-blend-mode:lighten;paint-order:stroke fill markers"/>
    <path d="m26.365 27.73-0.58868 5.0583a3.3552 3.3552 0 0 1-3.3916 2.9652l-15.172-0.2689 0.33431 0.38761a2.9614 2.9614 0 0 0 2.0471 1.0199l16.934 1.1023a1.2243 1.2243 0 0 0 1.3033-1.158l0.40214-7.74a1.2576 1.2576 0 0 0-1.1725-1.3203z" fill="#0f0f0f" fill-opacity=".18039" style="mix-blend-mode:overlay;paint-order:stroke fill markers"/>
   </g>
  </g>
 </g>
</svg>
