<svg width="42" height="48" shape-rendering="auto" version="1.1" viewBox="0 0 42 48" xmlns="http://www.w3.org/2000/svg">
 <defs>
  <filter id="a" x="-.11594" y="-.091574" width="1.2319" height="1.1831" color-interpolation-filters="sRGB">
   <feGaussianBlur stdDeviation="1.4690613"/>
  </filter>
 </defs>
 <g display="none">
  <path transform="matrix(.70286 -.076855 -.091881 .54563 17.43 19.036)" d="m16.725 6.8075c7.65e-4 0.10995 1.69e-4 0.21859-0.0013 0.32526-0.01084 0.80376-0.66768 1.4985-1.4732 1.5516l-2.9009 0.1914c-0.82917 0.054812-1.4798 0.76921-1.4531 1.5955l0.28579 8.9753c0.02624 0.82631 0.71984 1.4518 1.549 1.397l3.0282-0.19962c0.65959-0.04348 1.1798 0.45695 1.156 1.1175-0.0104 0.28872-0.02163 0.577-0.03365 0.86486-0.02703 0.64713-0.5775 1.1399-1.224 1.101l-4.4393-0.26767c-0.9593-0.05808-1.8998 0.26739-2.6145 0.90476l-4.0806 3.6389c-0.61584 0.54976-0.66634 1.4977-0.1128 2.1175l3.6641 4.105c0.64173 0.71872 1.5409 1.1549 2.4998 1.2127l3.3874 0.2046c1.068 0.0645 1.8493 0.98001 1.7428 2.0446-0.11974 1.1968-0.24126 2.3927-0.36272 3.5886-0.11071 1.0901 0.88229 1.977 1.978 1.977l2.0452 0.0013c1.0957 0 1.8506-0.89043 1.9778-1.9788 0.13043-1.1164 0.25664-2.2344 0.37963-3.3541 0.1091-0.99322 1.0033-1.7499 2.0007-1.6898l1.8274 0.11017c0.82681 0.05018 1.5334-0.57905 1.5786-1.4057l0.48208-8.9851c0.04453-0.82686-0.58964-1.5378-1.4166-1.588l-2.1846-0.13215c-0.61363-0.03712-1.0861-0.56495-1.0601-1.1792 0.0211-0.49931 0.03977-0.99979 0.05568-1.5016 0.02427-0.76565 0.6562-1.4275 1.4206-1.4781l3.3158-0.21933c0.96105-0.0634 1.8706-0.50464 2.5286-1.2267l3.7593-4.1232c0.56817-0.62342 0.53732-1.5716-0.06888-2.1168l-4.0052-3.611c-0.70113-0.63207-1.6347-0.95155-2.5956-0.88817l-3.582 0.23558c-0.60328 0.039677-1.1687-0.41226-1.2752-1.0073-0.066645-0.37203-0.13972-0.81166-0.19854-1.3003-0.066394-0.55153-0.54148-1.0513-1.0998-1.0608-1.5445-0.02622-2.5728 0.28105-3.6387 0.70983-0.49676 0.19983-0.84474 0.80752-0.84101 1.3433z" display="inline" fill="#1c1c1c" fill-opacity=".086594" filter="url(#a)" stroke-width="2.765" style="mix-blend-mode:normal"/>
 </g>
 <g>
  <g transform="matrix(1.0276 0 0 1.0276 -3.48 -.57273)">
   <path d="m27.039 0.97383c-0.32636-0.006542-0.08106-0.001014-0.12259 0.002354-1.9419-0.12221-4.0902 0.25525-4.788 0.39134s-1.1589 0.63647-1.1104 1.3013c0.02758 0.37776 0.05476 0.75317 0.08016 1.1292 0.04493 0.66511-0.46159 1.2379-1.1269 1.2801 3.459 0.68856 6.6097 0.27683 9.6279-0.60823-0.66528 0.042161-1.2418-0.46432-1.2895-1.1292-0.030055-0.41852-0.059168-0.83815-0.091939-1.2589-0.04853-0.62306-0.85238-1.1015-1.1787-1.108zm-1.4098 17.172c-1.4526-0.0092-3.1102 0.33202-5.2053 1.4192 0.66527-0.04233 1.2059 0.46261 1.2047 1.1292-0.0017 0.89981-0.0072 1.7994-0.0165 2.6993-0.0069 0.66658-0.55336 1.1758-1.2188 1.1363 2.7491 1.1659 5.8795 1.5609 9.6939 0.57286-0.66545-0.03953-1.1976-0.61117-1.1905-1.2777 0.0127-1.1951 0.02036-2.3922 0.01887-3.5928-8.45e-4 -0.66662 0.53467-1.2403 1.2-1.2825-1.4572-0.33304-2.84-0.79347-4.4863-0.8039zm-2.051 20.418c-1.2058-0.01299-2.4055 0.11871-3.5975 0.45028 0.66545 0.03951 1.1837 0.61174 1.1552 1.2777-0.07119 1.6621-0.14609 3.1017-0.2216 4.8399-0.02204 0.50746 0.4321 0.93472 0.93994 0.92486 4.2804-0.08313 3.5788 1.1233 5.2508 0.74188 0.54606-0.12458 1.0351-0.50559 1.0609-1.0656 0.07724-1.6817 0.15185-3.3488 0.22396-5.0096 0.02892-0.66599 0.5911-1.1737 1.2565-1.1339-2.0321-0.57919-4.0584-1.0038-6.0681-1.0255z" fill="#1c1c1c" stroke-width="3.3562"/>
   <path d="m12.725 24.073c-0.77148-0.04584-1.5296 0.21669-2.1075 0.72983l-5.8519 5.1961c-0.4985 0.44263-0.54384 1.2055-0.10129 1.7041l5.1964 5.854c0.51304 0.57798 1.2347 0.92842 2.0062 0.97422l19.279 1.1461c0.66536 0.03974 1.2369-0.46758 1.2764-1.133l0.71512-12.051c0.03949-0.66546-0.46794-1.2369-1.1334-1.2765l-1.9162-0.11382z" fill="#1c1c1c"/>
   <path transform="matrix(-1.1976 -.15084 .15084 -1.1976 46.23 51.062)" d="m15.399 9.3598 13.656-0.8245a2.3876 2.3876 19.27 0 1 1.7414 0.60881l2.6372 2.3742a1.027 1.027 86.232 0 1 0.09417 1.4298l-2.582 3.0266a2.3487 2.3487 153.53 0 1-1.6473 0.82019l-13.295 0.79142a1.0139 1.0139 41.197 0 1-1.0715-0.93789l-0.45762-6.2311a0.98708 0.98708 131.17 0 1 0.92494-1.0576z" fill="#408c6b" style="paint-order:stroke fill markers"/>
   <path d="m35.807 18.587c0.77131-0.04893 1.4916-0.4022 2.0025-0.98212l5.1749-5.874c0.44062-0.50015 0.39224-1.2628-0.10805-1.7033l-5.8758-5.1731c-0.58008-0.51071-1.3392-0.77014-2.1106-0.72125l-5.2903 0.3353-9.6278 0.61011-4.3544 0.27623c-0.66528 0.042204-1.1704 0.61574-1.1282 1.281l0.76422 12.047c0.0422 0.66525 0.61577 1.1703 1.281 1.128" fill="#1c1c1c"/>
   <path transform="matrix(1.207 0 0 1.207 -.80008 -3.9767)" d="m15.752 9.6948 13.557-0.86452a2.4101 2.4101 18.886 0 1 1.7479 0.59793l2.6318 2.3219a1.0122 1.0122 86.074 0 1 0.09742 1.4194l-2.5498 2.9615a2.3866 2.3866 153.46 0 1-1.6503 0.82419l-13.284 0.88352a1.001 1.001 41.167 0 1-1.0651-0.93137l-0.41515-6.1512a0.9963 0.9963 131.25 0 1 0.93064-1.0614z" fill="#2a5b46" style="paint-order:stroke fill markers"/>
   <path transform="matrix(1.207 0 0 1.207 -25.896 -3.8755)" d="m40.096 4.2891c-0.10294 0.01845-0.23852 0.041021-0.30859 0.054687-0.57811 0.11275-0.96014 0.52731-0.91992 1.0781 0.02285 0.31297 0.04537 0.62399 0.06641 0.93555 0.037216 0.55103-0.38242 1.0256-0.9336 1.0605l1.2398-0.078428c0.64531-0.040823 1.1209-0.59595 1.0552-1.2392-0.061626-0.603-0.12802-1.2068-0.19923-1.8113zm-1.7207 15.131c0.55117-0.03507 0.99905 0.38326 0.99805 0.93555-0.0014 0.74547-6e-3 1.4908-0.01367 2.2363-0.0057 0.55225-0.45845 0.97416-1.0098 0.94141l1.7882 0.10589c0.46971 0.02781 0.8544-0.33106 0.85802-0.80159 0.0072-0.93241 0.01337-2.0595 0.01716-2.8116 0.0023-0.46127-0.36855-0.80289-0.8281-0.76302zm-0.36719 16.113c0.55144 0.03268 0.98066 0.50682 0.95703 1.0586-0.05898 1.3771-0.12103 2.5697-0.18359 4.0098-0.01826 0.42042 0.35849 0.76915 0.7793 0.76563 0.33558-0.0028 0.59207 0.0676 0.85781 0.0061 0.05769-1.4677 0.12464-3.1014 0.18613-4.6319 0.02334-0.58098-0.42854-1.0798-1.009-1.1142z" fill="#575757" fill-opacity=".14672" stroke-width="2.7805"/>
   <path d="m29.043 27.543-0.57287 4.9224a3.2651 3.2651 0 0 1-3.3004 2.8855l-14.765-0.26168 0.32533 0.3772a2.8819 2.8819 0 0 0 1.9921 0.9925l16.479 1.0726a1.1914 1.1914 0 0 0 1.2683-1.1269l0.39134-7.5321a1.2239 1.2239 0 0 0-1.141-1.2848z" fill="#1a4231" fill-opacity=".23056" style="paint-order:stroke fill markers"/>
   <path d="m39.885 10.229-3.3783 3.0812a5.537 5.537 0 0 1-3.39 1.4357l-15.576 0.95478 0.04951 0.73081a1.2082 1.2082 0 0 0 1.2848 1.1245l16.036-1.0679a2.8807 2.8807 0 0 0 1.9921-0.99485l3.0765-3.5739a1.2217 1.2217 0 0 0-0.0943-1.6903z" fill="#133426" fill-opacity=".32557" style="paint-order:stroke fill markers"/>
  </g>
 </g>
 <g display="none" fill="none" stroke-linecap="round" stroke-linejoin="round">
  <circle cx="24" cy="24" r="24" image-rendering="auto" opacity=".59436" stop-color="#000000" stroke="#cec3ff" stroke-width=".1"/>
  <ellipse cx="24" cy="24" rx="16.501" ry="16.5" display="inline" opacity=".25036" stop-color="#000000" stroke="#cec3ff" stroke-width=".1"/>
  <g stroke="#b3a3ff">
   <ellipse cx="24" cy="24" rx="19.5" ry="19.495" display="inline" opacity=".59436" stop-color="#000000" stroke-width=".18953"/>
   <path d="m0 0 48 48" opacity=".59436" stop-color="#000000" stroke-width=".1"/>
   <path d="m48 0-48 48" opacity=".59436" stop-color="#000000" stroke-width=".1"/>
  </g>
 </g>
 <g display="none">
  <path d="m0 0v48h48v-48zm24 4.5047c11.017 4.318e-4 19.5 8.4778 19.5 19.495-4.32e-4 11.017-8.4825 19.495-19.5 19.495-11.017-4.32e-4 -19.5-8.4778-19.5-19.495 4.32e-4 -11.017 8.4825-19.495 19.5-19.495z" fill="#ecf8e3" stop-color="#000000"/>
 </g>
</svg>
