<svg width="42" height="48" shape-rendering="auto" version="1.1" viewBox="0 0 42 48" xmlns="http://www.w3.org/2000/svg">
 <defs>
  <filter id="a" x="-.11594" y="-.091574" width="1.2319" height="1.1831" color-interpolation-filters="sRGB">
   <feGaussianBlur stdDeviation="1.4690613"/>
  </filter>
 </defs>
 <g display="none">
  <path transform="matrix(.70286 -.076855 -.091881 .54563 17.43 19.036)" d="m16.725 6.8075c7.65e-4 0.10995 1.69e-4 0.21859-0.0013 0.32526-0.01084 0.80376-0.66768 1.4985-1.4732 1.5516l-2.9009 0.1914c-0.82917 0.054812-1.4798 0.76921-1.4531 1.5955l0.28579 8.9753c0.02624 0.82631 0.71984 1.4518 1.549 1.397l3.0282-0.19962c0.65959-0.04348 1.1798 0.45695 1.156 1.1175-0.0104 0.28872-0.02163 0.577-0.03365 0.86486-0.02703 0.64713-0.5775 1.1399-1.224 1.101l-4.4393-0.26767c-0.9593-0.05808-1.8998 0.26739-2.6145 0.90476l-4.0806 3.6389c-0.61584 0.54976-0.66634 1.4977-0.1128 2.1175l3.6641 4.105c0.64173 0.71872 1.5409 1.1549 2.4998 1.2127l3.3874 0.2046c1.068 0.0645 1.8493 0.98001 1.7428 2.0446-0.11974 1.1968-0.24126 2.3927-0.36272 3.5886-0.11071 1.0901 0.88229 1.977 1.978 1.977l2.0452 0.0013c1.0957 0 1.8506-0.89043 1.9778-1.9788 0.13043-1.1164 0.25664-2.2344 0.37963-3.3541 0.1091-0.99322 1.0033-1.7499 2.0007-1.6898l1.8274 0.11017c0.82681 0.05018 1.5334-0.57905 1.5786-1.4057l0.48208-8.9851c0.04453-0.82686-0.58964-1.5378-1.4166-1.588l-2.1846-0.13215c-0.61363-0.03712-1.0861-0.56495-1.0601-1.1792 0.0211-0.49931 0.03977-0.99979 0.05568-1.5016 0.02427-0.76565 0.6562-1.4275 1.4206-1.4781l3.3158-0.21933c0.96105-0.0634 1.8706-0.50464 2.5286-1.2267l3.7593-4.1232c0.56817-0.62342 0.53732-1.5716-0.06888-2.1168l-4.0052-3.611c-0.70113-0.63207-1.6347-0.95155-2.5956-0.88817l-3.582 0.23558c-0.60328 0.039677-1.1687-0.41226-1.2752-1.0073-0.066645-0.37203-0.13972-0.81166-0.19854-1.3003-0.066394-0.55153-0.54148-1.0513-1.0998-1.0608-1.5445-0.02622-2.5728 0.28105-3.6387 0.70983-0.49676 0.19983-0.84474 0.80752-0.84101 1.3433z" display="inline" fill="#1c1c1c" fill-opacity=".086594" filter="url(#a)" stroke-width="2.765" style="mix-blend-mode:normal"/>
 </g>
 <g>
  <path d="m24.305 0.42798c-0.33536-0.006723-0.0833-0.001042-0.12597 0.002419-1.9955-0.12558-4.2031 0.2623-4.9202 0.40214-0.71706 0.13985-1.1909 0.65404-1.141 1.3372 0.02834 0.38819 0.1552 2.008 0.1813 2.3945 0.04617 0.68347-0.47433 1.2721-1.158 1.3154 3.5545 0.70757 6.7922 0.28447 9.8937-0.62502-0.68365 0.043325-1.2761-0.47714-1.3251-1.1604-0.03088-0.43007-0.15973-2.0953-0.19341-2.5277-0.04987-0.64026-0.87592-1.1319-1.2113-1.1386zm-1.4208 18.88c-1.4927-0.0095-3.196 0.34118-5.349 1.4584 0.68364-0.0435 1.2392 0.47538 1.2379 1.1604-0.0017 0.92464-0.03527 0.61495-0.04482 1.5397-0.0071 0.68498-0.55778 1.2173-1.2416 1.1766 2.825 1.198 6.0619 1.5982 9.9816 0.5829-0.68382-0.04062-1.2307-0.62804-1.2234-1.313 0.01305-1.2281 0.02868-1.2184 0.02715-2.4521-8.68e-4 -0.68502 0.54943-1.2745 1.2331-1.3179-1.4974-0.34224-3.3051 0.25038-4.6101-0.82609zm-2.1355 19.748c-1.2391-0.01335-2.4719 0.12199-3.6968 0.46271 0.68382 0.0406 1.2164 0.62862 1.187 1.313-0.07315 1.708-0.15012 3.1873-0.22772 4.9735-0.02265 0.52147 0.44402 0.96052 0.96589 0.95039 4.3985-0.08543 3.6776 1.1543 5.3957 0.76236 0.56113-0.12802 1.0637-0.51955 1.0901-1.095 0.07937-1.7281 0.15604-3.4412 0.23014-5.1479 0.02972-0.68438 0.60742-1.2061 1.2912-1.1652-2.0882-0.59518-4.1704-1.0316-6.2356-1.0538z" fill="#1c1c1c" stroke-width="3.4488"/>
  <path d="m9.596 24.165c-0.79278-0.047106-1.5718 0.22267-2.1656 0.74998l-6.0135 5.3395c-0.51226 0.45485-0.55886 1.2388-0.10408 1.7512l5.3398 6.0156c0.52721 0.59393 1.2688 0.95405 2.0616 1.0011l19.811 1.1777c0.68373 0.04084 1.271-0.48049 1.3116-1.1642l0.73486-12.384c0.04058-0.68383-0.48086-1.2711-1.1647-1.3117l-1.9691-0.11696z" fill="#1c1c1c"/>
  <path transform="matrix(-1.2306 -.155 .155 -1.2306 44.027 51.899)" d="m15.399 9.3598 13.656-0.8245a2.3876 2.3876 19.27 0 1 1.7414 0.60881l2.6372 2.3742a1.027 1.027 86.232 0 1 0.09417 1.4298l-2.582 3.0266a2.3487 2.3487 153.53 0 1-1.6473 0.82019l-13.295 0.79142a1.0139 1.0139 41.197 0 1-1.0715-0.93789l-0.45762-6.2311a0.98708 0.98708 131.17 0 1 0.92494-1.0576z" fill="#408c6b" style="paint-order:stroke fill markers"/>
  <path transform="matrix(-1.2306 -.155 .155 -1.2306 44.027 51.899)" d="m29.299 16.795c0.6372-0.0383 1.2314-0.33432 1.6457-0.81991l2.5835-3.0267c0.36174-0.42363 0.31981-1.0584-0.09451-1.4308-0.50537-0.01217-1.3428 1.481-2.7628 2.9409-0.60344 0.62036-1.8592 1.1326-2.7197 1.2325l-6.0717 0.70466a2.1202 2.1202 158.06 0 0-1.0391 0.41852l-0.69065 0.5253z" fill="#8fd6b7" opacity=".10695" style="paint-order:stroke fill markers"/>
  <path d="m33.315 19.769c0.7926-0.05028 1.5328-0.41331 2.0578-1.0092l5.3177-6.0361c0.45279-0.51396 0.40307-1.2977-0.11104-1.7503l-6.038-5.3159c-0.5961-0.5248-1.3762-0.7914-2.1688-0.74116l-5.4363 0.34456-9.8936 0.62696-4.4746 0.28385c-0.68365 0.043369-1.2027 0.63273-1.1593 1.3164l0.78532 12.379c0.04336 0.68361 0.63276 1.2026 1.3164 1.1591" fill="#1c1c1c"/>
  <path transform="matrix(1.2403 0 0 1.2403 -4.3022 -3.418)" d="m15.752 9.6948 13.557-0.86452a2.4101 2.4101 18.886 0 1 1.7479 0.59793l2.6318 2.3219a1.0122 1.0122 86.074 0 1 0.09742 1.4194l-2.5498 2.9615a2.3866 2.3866 153.46 0 1-1.6503 0.82419l-13.284 0.88352a1.001 1.001 41.167 0 1-1.0651-0.93137l-0.41515-6.1512a0.9963 0.9963 131.25 0 1 0.93064-1.0614z" fill="#2a5b46" style="paint-order:stroke fill markers"/>
  <path d="m30.497 7.6342-15.262 0.97266c-0.68286 0.043554-1.2003 0.63371-1.1543 1.3164l0.35156 5.2031a1.7119 1.7119 120.88 0 0 0.79581-1.3307l0.14233-1.4633a2.5076 2.5076 134 0 1 2.1662-2.2431l11.387-1.5101a2.05 2.05 154.82 0 0 1.1236-0.5283z" fill="#408c6b" opacity=".098813" style="paint-order:stroke fill markers"/>
 </g>
 <g>
  <path transform="matrix(1.2403 0 0 1.2403 -30.09 -4.5552)" d="m40.096 4.2891c-0.10294 0.01845-0.23852 0.041021-0.30859 0.054687-0.57811 0.11275-0.96014 0.52731-0.91992 1.0781 0.02285 0.31297 0.12513 1.6189 0.14617 1.9305 0.03722 0.55103-0.38242 1.0256-0.9336 1.0605l1.2398-0.078428c0.64531-0.040823 1.1206-0.59591 1.06-1.2397-0.091727-0.97419-0.20348-2.1237-0.28384-2.8057zm-1.6982 16.126c0.55117-0.03507 0.99905 0.38326 0.99805 0.93555-0.0014 0.74547-0.02847 0.49579-0.03614 1.2414-0.0057 0.55225-0.45845 0.97416-1.0098 0.94141l1.7882 0.10589c0.46971 0.02781 0.85448-0.33106 0.86068-0.80156 0.0086-0.65133 0.01886-1.3158 0.02696-1.8167 0.0075-0.46122-0.35854-0.80278-0.8181-0.76292zm-0.38966 15.118c0.55144 0.03268 0.98066 0.50682 0.95703 1.0586-0.05898 1.3771-0.12103 2.5697-0.18359 4.0098-0.01826 0.42042 0.35849 0.76915 0.7793 0.76563 0.33558-0.0028 0.59207 0.0676 0.85781 0.0061 0.05769-1.4677 0.12464-3.1014 0.18613-4.6319 0.02334-0.58098-0.42854-1.0798-1.009-1.1142z" display="none" fill="#575757" fill-opacity=".26424" stroke-width="2.7805"/>
  <path d="m26.365 27.73-0.58868 5.0583a3.3552 3.3552 0 0 1-3.3916 2.9652l-15.172-0.2689 0.33431 0.38761a2.9614 2.9614 0 0 0 2.0471 1.0199l16.934 1.1023a1.2243 1.2243 0 0 0 1.3033-1.158l0.40214-7.74a1.2576 1.2576 0 0 0-1.1725-1.3203z" fill="#1a4231" fill-opacity=".23056" style="paint-order:stroke fill markers"/>
  <path d="m37.506 11.18-3.4715 3.1663a5.6898 5.6898 0 0 1-3.4836 1.4753l-16.006 0.98113 0.05088 0.75099a1.2416 1.2416 0 0 0 1.3203 1.1556l16.478-1.0974a2.9602 2.9602 0 0 0 2.0471-1.0223l3.1614-3.6726a1.2554 1.2554 0 0 0-0.0969-1.737z" fill="#133426" fill-opacity=".32557" style="paint-order:stroke fill markers"/>
  <path transform="matrix(1.2403 0 0 1.2403 -30.09 -4.5552)" d="m40.846 4.1686c-0.10294 0.01845-0.98834 0.1615-1.0584 0.17517-0.57811 0.11275-0.96014 0.52731-0.91992 1.0781 0.02285 0.31297 0.12513 1.6189 0.14617 1.9305 0.03722 0.55103-0.38242 1.0256-0.9336 1.0605l3.1108-0.20889c0-0.3536-0.73421 0.00273-0.80623-0.74213-0.03601-0.37243-0.14879-1.3292-0.19264-1.9681-0.06967-1.015 0.76724-0.74863 0.65385-1.3252zm-2.448 16.246c0.55117-0.03507 0.99905 0.38326 0.99805 0.93555-0.0014 0.74547-0.02847 0.49579-0.03614 1.2414-0.0057 0.55225-0.45845 0.97416-1.0098 0.94141 1.3631 0.08085 2.0048 0.11829 3.3679 0.19867 0.0026-0.38226-0.71337-0.04239-0.71471-0.87584-0.0013-0.83345 0.03224-1.809 0.03224-1.809 0.01914-0.79726 0.79425-0.43303 0.80781-0.84706-1.4637 0.09293-1.9184 0.12022-3.4454 0.21496zm-0.38966 15.118c0.58985 0.03505 0.98066 0.50682 0.95703 1.0586-0.05898 1.3771-0.12103 2.5697-0.18359 4.0098-0.01826 0.42042 0.35849 0.76915 0.7793 0.76563 0.33558-0.0028 1.0876-0.07231 2.356 0.18959 0.08024-0.95374-1.4596-0.60068-1.4316-1.5278 0.02796-0.92715 0.06306-2.8169 0.08265-3.3011 0.03917-0.96837 0.86917-0.56444 0.87119-0.99082z" fill="#315e47" fill-opacity=".20574" stroke-width="2.7805"/>
 </g>
 <g display="none" fill="none" stroke-linecap="round" stroke-linejoin="round">
  <circle cx="24" cy="24" r="24" image-rendering="auto" opacity=".59436" stop-color="#000000" stroke="#cec3ff" stroke-width=".1"/>
  <ellipse cx="24" cy="24" rx="16.501" ry="16.5" display="inline" opacity=".25036" stop-color="#000000" stroke="#cec3ff" stroke-width=".1"/>
  <g stroke="#b3a3ff">
   <ellipse cx="24" cy="24" rx="19.5" ry="19.495" display="inline" opacity=".59436" stop-color="#000000" stroke-width=".18953"/>
   <path d="m0 0 48 48" opacity=".59436" stop-color="#000000" stroke-width=".1"/>
   <path d="m48 0-48 48" opacity=".59436" stop-color="#000000" stroke-width=".1"/>
  </g>
 </g>
 <g display="none">
  <path d="m0 0v48h48v-48zm24 4.5047c11.017 4.318e-4 19.5 8.4778 19.5 19.495-4.32e-4 11.017-8.4825 19.495-19.5 19.495-11.017-4.32e-4 -19.5-8.4778-19.5-19.495 4.32e-4 -11.017 8.4825-19.495 19.5-19.495z" fill="#ecf8e3" stop-color="#000000"/>
 </g>
 <g>
  <rect x="-105.19" y="78.74" width="51.314" height="52.854" rx=".55969" ry="1.4156" fill="#fff" fill-opacity=".57068"/>
  <path d="m-56.512 20.881 2.0441-0.03641c1.0955-0.01951 1.8877 0.85378 2.0135 1.9422 1.4148 12.245 0.49953 23.428-0.59288 34.528-0.10731 1.0904-0.84593 1.9932-1.9415 2.0127l-2.0441 0.0364c-1.0955 0.0195-2.1043-0.85031-2.0135-1.9422 0.92695-11.142 1.9369-22.234 0.59288-34.528-0.11908-1.0892 0.84593-1.9932 1.9415-2.0127z" fill="#1c1c1c" stroke-width="2.765"/>
  <g>
   <path transform="matrix(.99933 -.083829 .049955 .99648 -76.519 18.241)" d="m13.5 20h15a3.6213 3.6213 157.5 0 0 2.5607-1.0607l3.8787-3.8787a1.5 1.5 90 0 0 0-2.1213l-3.8787-3.8787a3.6213 3.6213 22.5 0 0-2.5607-1.0607h-15a1.5 1.5 135 0 0-1.5 1.5v9a1.5 1.5 45 0 0 1.5 1.5z" fill="#1c1c1c" style="-inkscape-stroke:none"/>
   <path transform="matrix(1 0 .077643 1 -76.325 16.223)" d="m13.414 11.489c0.0029 1.9824 0.0058 3.9648 0.0088 5.9473 8.16e-4 0.55228 0.4475 0.96106 0.99778 0.91407 4.2282-0.36106 8.4624-0.67974 12.686-1.0721 0.54979-0.05108 1.4429-0.22346 1.8641-0.57464 0.35063-0.29239 0.64784-0.66197 0.95031-1.0212 0.3546-0.42119 0.98698-1.0549 1.3625-1.4599l0.69725-0.75206c0.37549-0.405 0.34088-1.0259-0.06643-1.3989-0.74744-0.6844-1.4774-1.3927-2.249-2.0443-0.42018-0.35483-1.2151-0.7543-1.7653-0.75157-0.45349 0.00225-0.91367 0.068741-1.3721 0.1246-0.54724 0.066683-1.4414 0.1135-1.9918 0.15948l-10.127 0.84606c-0.55037 0.04598-0.99587 0.53097-0.99506 1.0833z" fill="#2a5b46" style="-inkscape-stroke:none"/>
   <path transform="matrix(-.9994 -.042427 .035418 -.9991 -35.721 60.873)" d="m13.5 20h15a3.6213 3.6213 157.5 0 0 2.5607-1.0607l3.8787-3.8787a1.5 1.5 90 0 0 0-2.1213l-3.8787-3.8787a3.6213 3.6213 22.5 0 0-2.5607-1.0607h-15a1.5 1.5 135 0 0-1.5 1.5v9a1.5 1.5 45 0 0 1.5 1.5z" fill="#1c1c1c" style="-inkscape-stroke:none"/>
   <path transform="matrix(1 0 -.042438 1 -76.137 17.498)" d="m26.413 24.514c-2.8972-0.25038-7.0823-0.34637-10.727-0.43842-1.1039-0.02788-2.9006 0.22344-3.6452 1.0084-0.45341 0.478-1.5047 1.4481-2.3034 2.2111-0.29193 0.27893 0.10136 1.1416 0.85699 1.9472 0.34575 0.3686 0.69119 0.73757 1.0425 1.0998 0.76734 0.79128 2.2977 1.7089 3.3921 1.71 0.74945 8.03e-4 2.2507 0.08661 3.3543 0.13339l8.0146 0.33974a1.9177 1.9177 136.22 0 0 1.9989-1.9153l0.0014-3.8635c4e-4 -1.1046-0.88505-2.1373-1.9853-2.2324z" fill="#408c6b" style="-inkscape-stroke:none"/>
  </g>
  <g transform="translate(-165.76 -107.68)">
   <path d="m111.74 78.778-5.959 0.48438c0.0789 0.98528 0.14577 1.9602 0.20703 2.9316l-5.6035 0.35547 0.75976 11.977 5.2188-0.33203c4e-3 1.4123-6e-3 2.8237-0.0254 4.2363l-8.3496-0.49609-6.3438 5.6328 5.6328 6.3457 8.7188 0.51758c-0.0812 2.0859-0.16745 4.1903-0.25586 6.3476h6c0.0934-2.0172 0.18305-4.0085 0.26758-5.9902l3.2383 0.19336 0.71093-11.98-3.584-0.21289c0.0229-1.6533 0.0335-3.3107 0.0234-4.9766l6.7109-0.42578 5.6094-6.3672-6.3691-5.6074-6.3789 0.4043c-0.0681-1.0057-0.14145-2.0158-0.22852-3.0371z" fill="#1c1c1c" stroke-width="2.7805"/>
  </g>
  <g transform="translate(-223.41 65.733)" fill="#1c1c1c">
   <path d="m124.42-47.009 5.9589-0.48412c1.1344 13.306 0.59252 25.204 0 38h-6c0.53742-13.113 1.07-24.673 0.0411-37.516z" stroke-width="2.7805"/>
   <path d="m119.79-31.745 17.964-1.1393 5.6082-6.3678-6.3678-5.6082-17.964 1.1393z" style="-inkscape-stroke:none"/>
   <path d="m134.6-27.27-17.968-1.0673-6.3452 5.6337 5.6337 6.3452 17.968 1.0673z" style="-inkscape-stroke:none"/>
  </g>
  <g stroke="#1c1c1c" stroke-linecap="round" stroke-linejoin="round" stroke-width="1.7">
   <path d="m-83.469 86.795 5.9589-0.48412c1.1344 13.306 0.59252 25.204 0 38h-6c0.53742-13.113 1.07-24.673 0.0411-37.516z" fill="#8fd6b7"/>
   <path d="m-86.643 101.22 15.659-0.99319 4.8888-5.5509-5.5509-4.8888-15.659 0.99319z" fill="#2a5b46"/>
   <path d="m-74.548 107.1-16.112-0.95706-5.6898 5.0517 5.0517 5.6898 16.112 0.95707z" fill="#408c6b"/>
  </g>
  <g transform="translate(-2e-6,24)" fill="#1c1c1c">
   <rect x="-97.622" y="-48.303" width="6" height="39" ry=".42383" style="-inkscape-stroke:none"/>
   <path d="m-102.62-32.303h18l6-6-6-6h-18z" style="-inkscape-stroke:none"/>
   <path d="m-86.622-28.303h-18l-6 6 6 6h18z" style="-inkscape-stroke:none"/>
  </g>
  <g fill-opacity=".57068">
   <path d="m-73.393 90.719 1.4945-0.0476 4.5589 4.0678-3.9899 4.6859-1.7924 0.12567 3.8827-4.4544z" fill="#112119"/>
   <path d="m-75.487 107.92-0.49611 9.0572-1.8954-0.0994 0.69897-9.0827z" fill="#112119"/>
   <path d="m-78.101 118.51-0.0604 1.2225-4.29-0.30124 0.0445-1.2107z" fill="#4db286"/>
   <path d="m-82.041 102.98 0.021-1.2125 4.3238-0.25886 0.0288 1.1953z" fill="#4db286"/>
  </g>
  <path d="m18.071 1.0052 7.3506-0.59718c1.3993 16.413 0.7309 31.091 0 46.874h-7.4012c0.66293-16.175 1.3199-30.435 0.050699-46.277z" display="none" fill="none" opacity=".45265" stroke="#2673bf" stroke-width=".24671"/>
  <g transform="translate(-98.798 85.202)">
   <path d="m76.305 5.1528c-0.33536-0.00672-0.0833-0.00104-0.12597 0.00242-1.9955-0.12558-4.2031 0.2623-4.9202 0.40214-0.71706 0.13985-1.1909 0.65404-1.141 1.3372 0.02834 0.38819 0.05627 0.77396 0.08237 1.1604 0.04617 0.68347-0.47433 1.2721-1.158 1.3154 3.5545 0.70757 6.7922 0.28447 9.8937-0.62502-0.68365 0.043325-1.2761-0.47714-1.3251-1.1604-0.03088-0.43007-0.0608-0.86129-0.09448-1.2936-0.04987-0.64026-0.87592-1.1319-1.2113-1.1386zm-1.4487 17.646c-1.4927-0.0095-3.196 0.34118-5.349 1.4584 0.68364-0.0435 1.2392 0.47538 1.2379 1.1604-0.0017 0.92464-0.0074 1.8491-0.01695 2.7738-0.0071 0.68498-0.56864 1.2083-1.2525 1.1677 2.825 1.198 6.0418 1.604 9.9615 0.58868-0.68382-0.04062-1.2307-0.62804-1.2234-1.313 0.01305-1.2281 0.02092-2.4583 0.01939-3.692-8.68e-4 -0.68502 0.54943-1.2745 1.2331-1.3179-1.4974-0.34224-2.9184-0.81537-4.6101-0.82609zm-2.1076 20.982c-1.2391-0.01335-2.4719 0.12199-3.6968 0.46271 0.68382 0.0406 1.2164 0.62862 1.187 1.313-0.07315 1.708-0.15012 3.1873-0.22772 4.9735-0.02265 0.52147 0.44402 0.96052 0.96589 0.95039 4.3985-0.08543 3.6776 1.1543 5.3957 0.76236 0.56113-0.12802 1.0637-0.51955 1.0901-1.095 0.07937-1.7281 0.15604-3.4412 0.23014-5.1479 0.02972-0.68438 0.60742-1.2061 1.2912-1.1652-2.0882-0.59518-4.1704-1.0316-6.2356-1.0538z" fill="#1c1c1c" stroke-width="3.4488"/>
   <path d="m61.596 28.89c-0.79278-0.04711-1.5718 0.22267-2.1656 0.74998l-6.0135 5.3395c-0.51226 0.45485-0.55886 1.2388-0.10408 1.7512l5.3398 6.0156c0.5272 0.59393 1.2688 0.95405 2.0616 1.0011l19.811 1.1777c0.68373 0.04084 1.271-0.48049 1.3116-1.1642l0.73486-12.384c0.04058-0.68383-0.48086-1.2711-1.1647-1.3117l-1.9691-0.11696z" fill="#1c1c1c"/>
   <path transform="matrix(-1.2306 -.155 .155 -1.2306 96.027 56.624)" d="m15.399 9.3598 13.656-0.8245a2.3876 2.3876 19.27 0 1 1.7414 0.60881l2.6372 2.3742a1.027 1.027 86.232 0 1 0.09417 1.4298l-2.582 3.0266a2.3487 2.3487 153.53 0 1-1.6473 0.82019l-13.295 0.79142a1.0139 1.0139 41.197 0 1-1.0715-0.93789l-0.45762-6.2311a0.98708 0.98708 131.17 0 1 0.92494-1.0576z" fill="#408c6b" style="paint-order:stroke fill markers"/>
   <path d="m85.315 23.253c0.7926-0.05028 1.5328-0.41331 2.0578-1.0092l5.3177-6.0361c0.45279-0.51396 0.40307-1.2977-0.11104-1.7503l-6.038-5.3159c-0.5961-0.5248-1.3762-0.7914-2.1688-0.74116l-5.4363 0.34456-9.8936 0.62696-4.4746 0.28385c-0.68365 0.043369-1.2027 0.63273-1.1593 1.3164l0.78532 12.379c0.04336 0.68361 0.63276 1.2026 1.3164 1.1591" fill="#1c1c1c"/>
   <path transform="matrix(1.2403 0 0 1.2403 47.698 .065624)" d="m15.752 9.6948 13.557-0.86452a2.4101 2.4101 18.886 0 1 1.7479 0.59793l2.6318 2.3219a1.0122 1.0122 86.074 0 1 0.09742 1.4194l-2.5498 2.9615a2.3866 2.3866 153.46 0 1-1.6503 0.82419l-13.284 0.88352a1.001 1.001 41.167 0 1-1.0651-0.93137l-0.41515-6.1512a0.9963 0.9963 131.25 0 1 0.93064-1.0614z" fill="#2a5b46" style="paint-order:stroke fill markers"/>
   <path transform="matrix(1.2403 0 0 1.2403 21.91 .16966)" d="m40.096 4.2891c-0.10294 0.01845-0.23852 0.041021-0.30859 0.054687-0.57811 0.11275-0.96014 0.52731-0.91992 1.0781 0.02285 0.31297 0.04537 0.62399 0.06641 0.93555 0.037216 0.55103-0.38242 1.0256-0.9336 1.0605l1.2398-0.078428c0.64531-0.040823 1.1209-0.59595 1.0552-1.2392-0.061626-0.603-0.12802-1.2068-0.19923-1.8113zm-1.7207 15.131c0.55117-0.03507 0.99905 0.38326 0.99805 0.93555-0.0014 0.74547-6e-3 1.4908-0.01367 2.2363-0.0057 0.55225-0.45845 0.97416-1.0098 0.94141l1.7882 0.10589c0.46971 0.02781 0.8544-0.33106 0.85802-0.80159 0.0072-0.93241 0.01337-2.0595 0.01716-2.8116 0.0023-0.46127-0.36855-0.80289-0.8281-0.76302zm-0.36719 16.113c0.55144 0.03268 0.98066 0.50682 0.95703 1.0586-0.05898 1.3771-0.12103 2.5697-0.18359 4.0098-0.01826 0.42042 0.35849 0.76915 0.7793 0.76563 0.33558-0.0028 0.59207 0.0676 0.85781 0.0061 0.05769-1.4677 0.12464-3.1014 0.18613-4.6319 0.02334-0.58098-0.42854-1.0798-1.009-1.1142z" fill="#575757" fill-opacity=".26424" stroke-width="2.7805"/>
   <path d="m78.365 32.455-0.58868 5.0583a3.3552 3.3552 0 0 1-3.3916 2.9652l-15.172-0.2689 0.33431 0.38761a2.9614 2.9614 0 0 0 2.0471 1.0199l16.934 1.1023a1.2243 1.2243 0 0 0 1.3033-1.158l0.40214-7.74a1.2576 1.2576 0 0 0-1.1725-1.3203z" fill="#1a4231" fill-opacity=".23056" style="paint-order:stroke fill markers"/>
   <path d="m89.506 14.664-3.4715 3.1663a5.6898 5.6898 0 0 1-3.4836 1.4753l-16.006 0.98113 0.05088 0.75099a1.2416 1.2416 0 0 0 1.3203 1.1556l16.478-1.0974a2.9602 2.9602 0 0 0 2.0471-1.0223l3.1614-3.6726a1.2554 1.2554 0 0 0-0.0969-1.737z" fill="#133426" fill-opacity=".32557" style="paint-order:stroke fill markers"/>
  </g>
 </g>
 <g display="none" fill="none" stroke="#2673bf" stroke-opacity=".89584" stroke-width=".2">
  <path d="m12.568 6.1717 19.804-1.2554" display="inline" opacity=".45265" style="paint-order:stroke fill markers"/>
  <path d="m9 39 19.525 1.2001" display="inline" opacity=".45265" style="paint-order:stroke fill markers"/>
  <path d="m13.51 21.027 19.804-1.2575" display="inline" opacity=".45265" style="paint-order:stroke fill markers"/>
  <path d="m9.596 24.165 19.811 1.1756" display="inline" opacity=".45265" style="paint-order:stroke fill markers"/>
 </g>
</svg>
