<svg width="54.626mm" height="65.371mm" version="1.1" viewBox="0 0 54.626 65.371" xmlns="http://www.w3.org/2000/svg">
 <g transform="translate(-4.5941 -120.39)">
  <g transform="matrix(.26458 0 0 .26458 -1353.1 -359.27)">
   <g transform="translate(104.21 409.26)">
    <g transform="matrix(1.1063 0 0 1.1063 5940 -1078)">
     <path d="m-743.25 2243.4c-4.1828 0.1027-5.0683 2.2765-4.8713 4.4463l0.48754 9.9557c0.20455 3.6593-2.9237 7.1786-6.5818 7.4044l-13.956 0.8228c-1.5341 0.091-0.34134-0.084-1.8283 0.3047-1.4869 0.3882-0.35408-0.03-1.7369 0.6399-1.3828 0.6705-0.35889 0.018-1.5845 0.9446-1.2256 0.9272-0.34974 0.1317-1.3712 1.2798-1.0215 1.1482-0.31881 0.168-1.097 1.493-0.77815 1.3253-0.25678 0.2246-0.76178 1.676s-0.2141 0.2758-0.42659 1.7978-0.17959 0.3245-0.0914 1.8588l3.0776 52.532v0.03c0.0807 1.4254-0.0778 0.3332 0.30471 1.7977 0.38886 1.4888-0.032 0.3832 0.6399 1.7674 0.67184 1.3843 0.046 0.3275 0.97508 1.554 0.929 1.2266 0.0988 0.3495 1.2493 1.3712 1.1505 1.0218 0.16539 0.3193 1.4931 1.097 1.3277 0.7777 0.22201 0.2582 1.6759 0.7618s0.30404 0.2163 1.8283 0.4266 0.2923 0.1825 1.8283 0.092h0.0304l14.047-0.8227c3.6593-0.2045 7.1786 2.9238 7.4045 6.5818l0.22249 1.7173c0.0144 0.1417 0.0245 0.2841 0.0304 0.4265v0.2743c-8e-3 0.1119-0.0177 0.2236-0.0304 0.3352l-0.18282 3.8394c-0.16499 3.605-3.5219 6.761-7.1303 6.7036l-39.064-0.7008c-1.5366-0.028-0.34613-0.1497-1.8587 0.1219-1.5126 0.2715-0.33663-0.043-1.7673 0.5181-1.4307 0.561-0.35152 0.024-1.6454 0.8531s-0.35508 0.062-1.4626 1.1275l-26.723 25.809c-1.1082 1.0678-0.30991 0.1381-1.1884 1.4017s-0.29913 0.2041-0.91413 1.6149c-0.615 1.4107-0.25107 0.2636-0.57895 1.7673-0.32788 1.5036-0.18515 0.32-0.21331 1.8588-0.0282 1.5387-0.12029 0.3136 0.15236 1.8283 0.27265 1.5145-0.0755 0.3655 0.48754 1.7977 0.56297 1.4323 0.0216 0.3505 0.85319 1.6454 0.83165 1.295 0.0896 0.355 1.1579 1.4627l25.748 26.815c1.0698 1.1073 0.13631 0.3113 1.4017 1.1885 1.2654 0.8771 0.20273 0.3009 1.615 0.9141 1.4122 0.6131 0.26253 0.2532 1.7673 0.5789 1.5048 0.3257 0.31931 0.1572 1.8587 0.1828l36.748 0.6704c3.751 0.07 7.0731 3.627 6.8865 7.374l-1.1884 25.687c0.90964 4.0391 5.86-1.7394 12.223 0.4072 3.7058 1.2501 14.162 5.014 18.848 5.1164 1.325-0.055 2.7891 0.07 2.9183-1.55l1.7369-29.557c0.2102-3.5738 3.5508-6.6717 7.1303-6.6123l6.7811 0.14c1.5354 0.026 0.31723 0.1515 1.8283-0.1219 1.511-0.2733 0.3689 0.044 1.7978-0.518 1.4289-0.5624 0.35339-0.024 1.6454-0.8532 1.292-0.8298 0.35688-0.061 1.4626-1.1275 1.1057-1.0655 0.31128-0.1716 1.1884-1.4321 0.8771-1.2604 0.29926-0.2078 0.91414-1.615 0.61487-1.4071 0.21936-0.2369 0.54848-1.7367 0.32379-1.4758 0.18836-0.4035 0.2133-1.8283v-0.03l0.97508-52.593c0.029-1.539 0.15007-0.3438-0.12189-1.8588s0.0444-0.3651-0.51801-1.7978c-0.56241-1.4328-0.0219-0.3501-0.85319-1.6454-0.83123-1.2955-0.0594-0.3544-1.1274-1.4627-1.0681-1.1083-0.1683-0.3098-1.4321-1.1883-1.2638-0.8786-0.20397-0.2992-1.615-0.9142-1.411-0.615-0.26343-0.2208-1.7673-0.5484-1.5039-0.3278-0.28932-0.1855-1.8283-0.2133l-4.8342-0.2867c-1.9025-0.033-3.7776-0.8781-5.0621-2.282s-1.9603-3.3464-1.8244-5.2444l0.0304-0.457c5e-3 -0.3987 0.0103-0.2241 0-0.2743-4e-3 -0.016 0.0101 0.041 0-0.092l-0.89286-7.2021c-0.32188-3.7271 2.8474-7.3953 6.5818-7.6178l30.521-1.9987h0.0304c1.5367-0.088 0.33815 0.081 1.8283-0.3047 1.4901-0.3856 0.35063 0.029 1.7368-0.6399 1.3862-0.669 0.35551-0.018 1.5845-0.9446 1.2141-0.9153 0.37398-0.1612 1.3407-1.2493l24.651-27.82h0.0304c1.0199-1.1496 0.29018-0.1666 1.0665-1.4929 0.77631-1.3265 0.28932-0.2237 0.79225-1.676s0.21635-0.3058 0.4266-1.8283c0.21024-1.5224 0.15143-0.294 0.0609-1.8283-0.0905-1.5342 0.1135-0.341-0.27424-1.8282-0.38775-1.4872 0.0302-0.3538-0.6399-1.7368-0.67015-1.3832-0.0483-0.3586-0.97507-1.5846-0.92685-1.2259-0.10133-0.3493-1.2493-1.3712l-27.759-24.743v0.03c-1.1508-1.0191-0.16572-0.3216-1.4931-1.0969-1.3274-0.7754-0.22289-0.2601-1.6759-0.7618-1.453-0.5017-0.27486-0.2482-1.7978-0.4571-1.5229-0.2087-0.32431-0.1529-1.8587-0.06-0.0102 1e-4 -0.0203 1e-4 -0.0304 0l-34.174 1.9131c-3.6027 0.2083-7.0886-2.8041-7.4045-6.399l-0.563-6.6263c-0.16405-1.6812-2.443-6.3-8.5269-6.1951-5.4327-0.2362-10.876-0.058-16.31 0.071z" fill="#2b2b2b"/>
     <path d="m-756.83 2271.8a12.355 10.58 0 0 0-11.606 11.18l2.3146 33.724a12.355 10.58 0 0 0 13.056 9.9389l68.916-3.4688a12.355 10.58 0 0 0 8.5122-3.5277l18.484-17.85a12.355 10.58 0 0 0-1.0256-14.942l-20.799-15.873a12.355 10.58 0 0 0-8.9362-2.6495z" fill="#2a5b46"/>
     <path d="m-708.74 2418.6a12.17 9.7363 0 0 0 12.389-9.5536l0.71452-31.083a12.17 9.7363 0 0 0-11.941-9.9116l-67.991-1.0004a12.17 9.7363 0 0 0-8.6724 2.7201l-19.735 15.256a12.17 9.7363 0 0 0-0.31656 13.772l19.021 15.826a12.17 9.7363 0 0 0 8.5416 2.9733z" fill="#408c6b"/>
    </g>
   </g>
  </g>
 </g>
</svg>
