<svg version="1.1" viewBox="0 0 128 128" xmlns="http://www.w3.org/2000/svg">
 <path d="m11.407 4.7988c-0.38252-0.00287-0.79214 0.038985-1.2264 0.13086-2.3297 0.5-2.7846 2.3205-2.0214 3.7305 0.68283 1.28 2.0737 2.1191 2.0737 2.1191s2.6914 5.1009 4.5658 7.8809c1.8613 2.7605 4.6083 5.5757 4.6469 5.6152-3.8643-1.6714-9.0893-3.0291-10.149-1.9551-1.3255 1.34 4.2429 6.83 6.9742 9.5 2.7313 2.67 7.445 6.4805 7.445 6.4805s-1.4187 1.8287-3.4806 2.6387c0.03055 3e-3 0.06598 0.01058 0.09676 0.01367-0.25089 0.08179-1.7866 0.57757-3.0962 0.83594-1.1497 0.22846-2.776 0.40102-3.6035 0.87695-0.28318 0.03682-0.53567 0.13346-0.72174 0.31445-0.56233 0.56-1.3642 2.0388-0.84204 4.4688 0.28082 1.3069 2.023 5.0823 8.7158 4.9902 3.9584-0.05446 7.3637-0.1218 9.4585-0.16211 1.4035 3.1046 1.8297 5.4008 2.2971 12.203 0.46861 6.83 2.4523 10.98 4.1526 13.09 1.7004 2.11 5.8367 5.9805 5.8367 5.9805s0.37353 7.7401 0.27981 11.83c-0.09372 4.08-1.1231 11.469-2.0737 15.059-0.93722 3.59-2.0761 5.2798-3.2008 6.3398-1.1247 1.06-3.1732 3.3314 0.33472 3.9414 2.6376 0.46 6.5214 0.15922 7.4319-0.0508 1.9012-0.44 1.3777-2.7691 1.284-4.0391-0.09372-1.27 2.1704-11.431 2.7327-15.721 0.54894-4.12 1.6334-9.2506 2.0083-11.641 0.44183-2.77 0.94894-4.0602 1.6318-3.9902 0.93722 0.09 1.0979 1.0609 1.0042 3.3809-0.09372 2.34-0.88294 9.3299-1.2578 13.34-0.37489 4.01-1.8471 13.771-2.1417 14.551-0.28117 0.77-3.0534 2.8693-2.7588 4.5293 0.25439 1.43 2.544 2.0391 5.4628 2.0391 2.9188 0 4.9534-0.5893 5.1542-1.7793 0.25439-1.55-0.15993-2.6498-0.25366-4.3398-0.09372-1.69 1.8873-13.3 2.1417-15.6 0.21422-1.98 2.384-10.72 2.7588-11.85s0.54915-2.4312 0.88388-3.0312c0.15605-0.28831 2.8144-0.12164 6.1871-0.43359 1.2992 1.8981 2.9285 4.2069 4.0428 5.5039 2.0619 2.4 4.8055 4.081 5.1803 7.041 0.37489 2.96-1.5396 12.059-3.24 14.449-1.4594 2.06-3.0802 3.7794-1.7547 5.1894 1.3255 1.41 8.7967 1.5003 9.9214 0.0703 0.85689-1.08 1.0991-4.4995 1.2866-5.7695s1.1249-6.2609 1.888-10.211c0.482-2.51 1.6065-4.1499 1.7939-5.8399 0.18744-1.69-3.4162-3.9289-4.7149-5.6289-1.7219-2.2678-1.7063-6.1531-1.3833-9.0547 2.0779-1.1645 3.2871-2.0762 3.2871-2.0762 0 0 4.1485 4.1508 6.2237 6.0508 2.0753 1.9 9.4258 9.2201 9.7069 11.83 0.28117 2.6 0.65637 11.97 0.65637 14.57 0 2.6-0.0928 4.5787-0.37395 5.1387-0.28116 0.56-3.5758 3.8703-2.6386 5.0703 0.93723 1.2 3.5492 1.4995 6.5349 1.2695 3.0928-0.24 4.4705-1.2199 4.9659-2.6699 0.88367-2.58-0.50679-13.209-0.30595-18.629 0.18744-5.42 1.2571-7.2697 0.50731-8.6797-0.74978-1.41-4.4322-4.7214-5.5569-8.9414s-0.0941-7.3891-0.0941-11.119c0-1.8476-0.0667-3.3256-0.13598-4.3535 1.9456-0.14884 6.5001-0.90766 7.7561-4.8164 1.1436-3.5727 0.1823-7.2603-1.807-6.9336-0.0192-0.0038-0.0349-0.01559-0.0549-0.01758-1.4192-0.14-3.4274 2.7109-4.2442 3.3809-1.379 1.13-4.15 1.6191-4.15 1.6191s-3.1068-6.2593-12.251-7.5293c-9.1446-1.27-20.217 2.1893-26.014 3.0293-5.8375 0.84-8.8514 0.59392-10.363 0.14062-1.5226-0.45652-5.7196-3.7998-3.738-6.2598 1.9816-2.46 2.9876-4.0795 3.2688-5.7695 0.28116-1.69 0.30596-3.4512 0.30596-3.4512s6.7881-0.91938 10.939-4.3594c4.1505-3.45 7.8188-10.699 9.0506-12.529 1.2318-1.83 2.2647-2.1799 1.7024-3.1699-0.35146-0.61875-3.4652-0.96133-6.901-0.88867-2.0615 0.04359-4.2394 0.23617-6.0067 0.60742-1.6067 0.3375-3.4648 0.95657-5.2902 1.7207 0.23346-0.10449 0.57946-0.26169 0.68513-0.31055 0.85689-0.39 2.1953-1.8105 4.15-3.7305 2.6912-2.64 6.1714-7.7402 6.1714-7.7402s1.42-1.199 1.42-2.959c0-1.16-1.0305-2.2507-2.9184-2.2207-1.9414 0.04-2.88 1.1807-3.0674 2.2207-0.20083 1.15 0.28242 2.3203 0.28242 2.3203 1e-6 0-0.9504 1.4091-1.7939 2.2891-0.85689 0.88-2.9733 2.9609-2.9733 2.9609l0.18828-4.3301s0.68273-0.9407 0.56223-1.9707c-0.13389-1.03-0.97833-2.0087-2.9733-1.9687-1.8477 0.03-2.6775 1.2794-2.6909 2.1094-0.02678 1.04 1.0852 2.2207 1.0852 2.2207v1.9395c0 0.81-0.03964 4.8892-0.46809 5.6992-0.42844 0.81-4.2442 3.4805-4.2442 3.4805s0.27897-3.6905 0.42625-5.5605c0.05356-0.7 0.80501-1.3293 0.71128-2.5293-0.09372-1.16-1.2202-2.1904-3.1616-2.1504-2.0887 0.05-2.9589 1.2397-3.0125 2.4297-0.04017 1.05 0.53639 1.6 0.523 2.25-0.05356 1.73-0.10574 4.6205-0.61453 6.2305-0.49426 1.5357-2.2552 4.872-3.1485 6.5234-1.4432-0.53624-3.3268-0.93103-5.6746-0.74414-1.983 0.15869-3.9075 0.77398-5.3843 1.3691l0.28236-0.1484-2.7588-3.5508s-0.0523-3.6293-0.0523-5.0293c0-1.16 0.0523-3.1992 0.0523-3.1992s0.92415-1.0704 0.99109-2.1504c0.08033-1.22-0.79131-2.4612-2.7327-2.5312-1.8343-0.07-2.8786 1.1216-3.0125 2.1816-0.14728 1.06 0.61714 2.0098 0.61714 2.0098l-0.18828 5.7402s-1.0291-1.4401-1.4173-1.8301-1.2999-2.001-1.5141-2.291c-0.42844-0.6 0.42886-5.6295 0.42886-6.4395s0.27981-3.1699 0.27981-3.1699 0.91034-1.0297 0.89695-2.1797c-0.01339-1.03-0.82896-2.1698-2.5026-2.2598-1.8878-0.11-2.879 0.90008-3.1066 1.8301-0.28117 1.14 0.37656 2.1094 0.37656 2.1094s-0.29529 5.1293-0.75051 5.0293c-0.52217-0.11-3.6819-6.2598-3.6819-6.2598s0.72122-1.2806 0.18566-2.8906c-0.4025-1.2106-1.5458-2.0579-3.2034-2.0703zm26.689 33.121c1.6602 0 3.2121 1.1309 3.0648 2.6309-0.14728 1.65-1.0029 2.6984-3.0648 2.8184-1.6602 0.1-3.0674-1.3887-3.0674-2.8887 0-1.5 1.4072-2.5605 3.0674-2.5605z" stroke-width="1.1571"/>
</svg>
