<svg width="48" height="48" shape-rendering="auto" version="1.1" viewBox="0 0 48 48" xmlns="http://www.w3.org/2000/svg">
 <defs>
  <filter id="b" x="-.13825" y="-.32452" width="1.2765" height="1.649" color-interpolation-filters="sRGB">
   <feGaussianBlur stdDeviation="0.20095004"/>
  </filter>
  <filter id="a" x="-.089828" y="-.095677" width="1.1797" height="1.1914" color-interpolation-filters="sRGB">
   <feGaussianBlur stdDeviation="1.4274467"/>
  </filter>
 </defs>
 <g>
  <path d="m31.202 11.572c-1.6612-0.0037-3.3412 0.10866-5.0364 0.30691-0.70557 0.08252-1.3006 0.59325-1.3433 1.1238-0.05412 0.6721-0.13422 1.4517-0.22616 2.2862l-3.1954-0.62271c-0.64437-0.12539-1.3667 0.18328-1.6141 0.68795l-4.4815 9.1376c-0.24742 0.50464 0.07602 1.0149 0.72041 1.1402l6.9153 1.3462c-0.23891 1.4725-0.4927 2.9805-0.75954 4.5162l-10.16 3.9201c-0.74498 0.28739-1.3436 0.77422-1.6638 1.3522l-3.2429 5.852c-0.27613 0.49855 0.014384 1.0233 0.64698 1.1713l7.4277 1.7377c0.73335 0.17158 1.5638 0.10653 2.3088-0.18088l2.2051-0.85105c-0.10785 0.51637-0.21427 1.0544-0.32259 1.5598-0.08085 0.3772 0.25855 0.67255 0.75528 0.6746 0.99667 0.0046 2.5625 0.05435 3.3294 0.30394 0.24433 0.07953 0.88931 0.20358 1.5227 0.31581 0.83556 0.14804 1.6392-0.28795 1.7887-0.95631 0.37927-1.6962 0.75015-3.3783 1.1151-5.0558l8.222-3.1714c0.64259-0.24772 0.96013-0.8195 0.70807-1.2766l-4.453-8.0775 2.3228 0.45221c0.74706 0.14537 1.5787 0.05138 2.3099-0.25946l7.4056-3.1477c0.63059-0.2681 0.91336-0.84744 0.6326-1.2929l-3.2978-5.2308c-0.32553-0.51647-0.92826-0.888-1.6753-1.0334l-5.1225-0.99782-2.9494-0.57379c0.12875-1.4057 0.2374-2.822 0.32028-4.2537 0.02816-0.48639-0.47012-0.90149-1.1126-0.90293z" fill="#1c1c1c" filter="url(#a)" opacity=".13248" style="paint-order:normal"/>
 </g>
 <g>
  <path transform="matrix(1.2403 0 0 1.2403 -30.09 -4.5552)" d="m40.096 4.2891c-0.10294 0.01845-0.23852 0.041021-0.30859 0.054687-0.57811 0.11275-0.96014 0.52731-0.91992 1.0781 0.02285 0.31297 0.12513 1.6189 0.14617 1.9305 0.03722 0.55103-0.38242 1.0256-0.9336 1.0605l1.2398-0.078428c0.64531-0.040823 1.1206-0.59591 1.06-1.2397-0.091727-0.97419-0.20348-2.1237-0.28384-2.8057zm-1.6982 16.126c0.55117-0.03507 0.99905 0.38326 0.99805 0.93555-0.0014 0.74547-0.02847 0.49579-0.03614 1.2414-0.0057 0.55225-0.45845 0.97416-1.0098 0.94141l1.7882 0.10589c0.46971 0.02781 0.85448-0.33106 0.86068-0.80156 0.0086-0.65133 0.01886-1.3158 0.02696-1.8167 0.0075-0.46122-0.35854-0.80278-0.8181-0.76292zm-0.38966 15.118c0.55144 0.03268 0.98066 0.50682 0.95703 1.0586-0.05898 1.3771-0.12103 2.5697-0.18359 4.0098-0.01826 0.42042 0.35849 0.76915 0.7793 0.76563 0.33558-0.0028 0.59207 0.0676 0.85781 0.0061 0.05769-1.4677 0.12464-3.1014 0.18613-4.6319 0.02334-0.58098-0.42854-1.0798-1.009-1.1142z" display="none" fill="#575757" fill-opacity=".26424" stroke-width="2.7805"/>
  <g transform="translate(-73.948)">
   <path d="m24.305 0.42798c-0.33536-0.006723-0.0833-0.001042-0.12597 0.002419-1.9955-0.12558-4.2031 0.2623-4.9202 0.40214-0.71706 0.13985-1.1909 0.65404-1.141 1.3372 0.02834 0.38819 0.02386 0.27098 0.04996 0.65741 0.046168 0.68347-0.42418 1.1868-1.1682 1.0397 3.5545 0.70757 7.0504 3.3583 10.152 2.4488-0.66644-0.16299-1.35-0.79108-1.399-1.4743-0.03088-0.43007-0.20251-2.8424-0.23619-3.2748-0.04987-0.64026-0.87592-1.1319-1.2113-1.1386zm-1.4208 18.88c-1.4927-0.0095-4.5668 0.12743-5.377-0.06454 0.99432 0.23899 1.286 0.76006 1.2848 1.4451-0.0017 0.92464-0.02178 3.0969-0.03133 4.0216-0.0071 0.68498-0.49705 1.0314-1.2081 1.306 2.825 1.198 9.1421-3.5301 9.5784-3.6787 0.52243-0.17796-0.899 0.32729-0.89653-0.09905 0.0017-0.29549-0.0061 0.0755 0.0017-0.38572 8.24e-4 -0.23627 0.28872-0.47247 0.95417-0.31479 1.4946 0.35415-2.9901-1.1444-4.2952-2.2209zm-2.1355 19.748c-1.2391-0.01335-5.0297 3.6234-3.8705 3.176 0.55144-0.21287 1.2736 0.46485 1.2442 1.1492-0.07315 1.708-0.03358 0.63775-0.11118 2.424-0.02265 0.52147 0.44402 0.96052 0.96589 0.95039 4.3985-0.08543 3.6776 1.1543 5.3957 0.76236 0.56113-0.12802 1.0637-0.51955 1.0901-1.095 0.07937-1.7281 0.20645-4.5848 0.28055-6.2914 0.02972-0.68438 0.61819-1.5456 1.3352-1.8371-1.6562 0.19354-4.2648 0.78384-6.33 0.76159z" fill="#1c1c1c" stroke-width="3.4488"/>
   <path d="m8.4108 29.546c-0.74088 0.28602-1.3378 0.85466-1.6594 1.5808l-3.2565 7.353c-0.27741 0.62637 0.00542 1.359 0.63175 1.6365l7.3542 3.2584c0.72609 0.3217 1.5502 0.34173 2.2911 0.05568l18.515-7.1469c0.63906-0.24648 0.95718-0.96448 0.71045-1.6034l-4.4686-11.573c-0.24676-0.63905-0.96483-0.95708-1.6039-0.71036l-1.8401 0.71042z" fill="#1c1c1c"/>
   <path transform="matrix(-1.184 .36948 -.36948 -1.184 51.244 40.498)" d="m15.399 9.3598 13.656-0.8245a2.3876 2.3876 19.27 0 1 1.7414 0.60881l2.6372 2.3742a1.027 1.027 86.232 0 1 0.09417 1.4298l-2.582 3.0266a2.3487 2.3487 153.53 0 1-1.6473 0.82019l-13.295 0.79142a1.0139 1.0139 41.197 0 1-1.0715-0.93789l-0.45762-6.2311a0.98708 0.98708 131.17 0 1 0.92494-1.0576z" fill="#df3330" style="paint-order:stroke fill markers"/>
   <path transform="matrix(-1.184 .36948 -.36948 -1.184 51.244 40.498)" d="m29.299 16.795c0.6372-0.0383 1.2314-0.33432 1.6457-0.81991l2.5835-3.0267c0.36174-0.42363 0.31981-1.0584-0.09451-1.4308-0.50537-0.01217-1.3428 1.481-2.7628 2.9409-0.60344 0.62036-1.8592 1.1326-2.7197 1.2325l-6.0717 0.70466a2.1202 2.1202 158.06 0 0-1.0391 0.41852l-0.69065 0.5253z" fill="#8fd6b7" opacity=".10695" style="paint-order:stroke fill markers"/>
   <path d="m30.768 22.522c0.77145 0.1887 1.5863 0.06328 2.2653-0.34867l6.8776-4.1727c0.58561-0.35529 0.7722-1.1181 0.41672-1.7036l-4.175-6.8764c-0.41218-0.67887-1.0771-1.1663-1.8485-1.355l-5.2911-1.2946-9.6293-2.3561-4.3552-1.0653c-0.66541-0.16276-1.3368 0.2447-1.4995 0.91011l-2.9473 12.049c-0.16276 0.66537 0.24477 1.3367 0.91016 1.4993" fill="#1c1c1c"/>
   <path transform="matrix(1.1837 .3704 -.3704 1.1837 1.7914 -10.841)" d="m15.752 9.6948 13.557-0.86452a2.4101 2.4101 18.886 0 1 1.7479 0.59793l2.6318 2.3219a1.0122 1.0122 86.074 0 1 0.09742 1.4194l-2.5498 2.9615a2.3866 2.3866 153.46 0 1-1.6503 0.82419l-13.284 0.88352a1.001 1.001 41.167 0 1-1.0651-0.93137l-0.41515-6.1512a0.9963 0.9963 131.25 0 1 0.93064-1.0614z" fill="#ac1d1b" style="paint-order:stroke fill markers"/>
   <path transform="rotate(17.375 23.033 12.81)" d="m30.497 7.6342-15.262 0.97266c-0.68286 0.043554-1.2003 0.63371-1.1543 1.3164l0.35156 5.2031a1.7119 1.7119 120.88 0 0 0.79581-1.3307l0.14233-1.4633a2.5076 2.5076 134 0 1 2.1662-2.2431l11.387-1.5101a2.05 2.05 154.82 0 0 1.1236-0.5283z" fill="#408c6b" opacity=".1972" style="paint-order:stroke fill markers"/>
   <path d="m25.148 25.834 1.5628 4.8467a3.3552 3.3552 0 0 1-1.8559 4.105l-13.917 6.0495 0.46498 0.21399a2.9614 2.9614 0 0 0 2.2857 0.07879l15.865-6.0218a1.2243 1.2243 0 0 0 0.70551-1.5943l-2.845-7.2094a1.2576 1.2576 0 0 0-1.6146-0.71491z" fill="#1a4231" fill-opacity=".23056" style="paint-order:stroke fill markers"/>
   <path d="m37.333 15.577-4.2586 1.9851a5.6898 5.6898 0 0 1-3.7652 0.36771l-15.568-3.8434-0.17571 0.73191a1.2416 1.2416 0 0 0 0.91497 1.4971l16.054 3.8735a2.9602 2.9602 0 0 0 2.2589-0.36436l4.1139-2.5609a1.2554 1.2554 0 0 0 0.42622-1.6866z" fill="#133426" fill-opacity=".32557" style="paint-order:stroke fill markers"/>
   <path transform="matrix(1.2403 0 0 1.2403 -30.09 -4.5552)" d="m40.846 4.1686c-0.10294 0.01845-0.98834 0.1615-1.0584 0.17517-0.57811 0.11275-0.96014 0.52731-0.91992 1.0781 0.02285 0.31297 0.01924 0.21847 0.04028 0.53002 0.06415 0.44902-0.22316 0.88369-0.776 0.85057l2.9517 0.63586c0-0.3536-0.73421 0.00273-0.80623-0.74213-0.03601-0.37243-0.04138-0.5635-0.08523-1.2024-0.06967-1.015 0.76724-0.74863 0.65385-1.3252zm-2.4706 15.019c0.55117-0.03507 1.0368 0.61158 1.0358 1.1639-0.0014 0.74547-0.01757 2.4962-0.02524 3.2418-0.0057 0.55225-0.46221 0.84725-0.97405 1.0547 0.85262-0.32923 2.9028-1.1209 3.1894-1.2315-0.02193-0.39388-0.60566 0.09309-0.60701-0.74036-0.0013-0.83345 0.05809-2.0099 0.05809-2.0099 0.01914-0.79726 0.77643-0.23581 0.79-0.64984-1.5857-0.38296-1.8899-0.45503-3.467-0.82872zm-0.50716 18.534c0.53849-0.18662 1.07 0.44894 1.0463 1.0007-0.05898 1.3771-0.07026 0.44001-0.13283 1.8801-0.01826 0.42042 0.35849 0.76915 0.7793 0.76563 0.33558-0.0028 1.0876-0.07231 2.356 0.18959 0.08024-0.95374-1.4596-0.60068-1.4316-1.5278 0.02796-0.92715 0.01061-2.1914 0.0302-2.6756 0.03917-0.96837 0.86917-0.56444 0.87119-0.99082z" fill="#315e47" fill-opacity=".20574" stroke-width="2.7805"/>
  </g>
 </g>
 <g display="none" fill="none" stroke-linecap="round" stroke-linejoin="round">
  <circle cx="24" cy="24" r="24" image-rendering="auto" opacity=".59436" stop-color="#000000" stroke="#cec3ff" stroke-width=".1"/>
  <ellipse cx="24" cy="24" rx="16.501" ry="16.5" display="inline" opacity=".25036" stop-color="#000000" stroke="#cec3ff" stroke-width=".1"/>
  <g stroke="#b3a3ff">
   <ellipse cx="24" cy="24" rx="19.5" ry="19.495" display="inline" opacity=".59436" stop-color="#000000" stroke-width=".18953"/>
   <path d="m0 0 48 48" opacity=".59436" stop-color="#000000" stroke-width=".1"/>
   <path d="m48 0-48 48" opacity=".59436" stop-color="#000000" stroke-width=".1"/>
  </g>
 </g>
 <g display="none">
  <path d="m0 0v48h48v-48zm24 4.5047c11.017 4.318e-4 19.5 8.4778 19.5 19.495-4.32e-4 11.017-8.4825 19.495-19.5 19.495-11.017-4.32e-4 -19.5-8.4778-19.5-19.495 4.32e-4 -11.017 8.4825-19.495 19.5-19.495z" fill="#ecf8e3" stop-color="#000000"/>
 </g>
 <g transform="translate(-1.7643)">
  <g transform="translate(3 .036236)">
   <path d="m25.496 1.5682c1.238 15.516 0.67832 29.751-0.0086 44.683-0.0405 0.88045-0.77447 1.4539-1.6342 1.2589-0.65173-0.14784-1.3169-0.31143-1.5742-0.4162-0.80751-0.32881-2.3816-0.39391-3.379-0.39942-0.49706-0.0027-0.88336-0.39169-0.86399-0.88859 0.59872-15.359 0.5934-34.915 0.05341-43.541-0.04376-0.69897 0.46832-1.3735 1.1604-1.4822 1.6628-0.26116 3.3252-0.40795 4.987-0.40308 0.64271 0.001883 1.208 0.54782 1.2591 1.1885z" fill="#1c1c1c" style="paint-order:normal"/>
   <path d="m19.25 0.78277c-0.69212 0.1087-1.2039 0.78345-1.1602 1.4824 0.53999 8.6257 0.54403 28.182-0.05469 43.541-0.01937 0.4969 0.36818 0.88593 0.86523 0.88867 0.4119 0.0023 1.0058-0.04987 2.4641 0.1657 0.05368-1.6605-1.0429-1.1857-1.0456-2.1303-0.0023-0.79261 0.12778-3.0529 0.16297-5.0217 0.07039-3.9375 0.26417-12.515 0.28149-16.365s-0.44407-12.677-0.53463-17.494c-0.045281-2.4082-0.5087-3.5717 0.033543-4.0171 0.32561-0.26741 0.43176-0.87833 0.42484-1.2467-0.42457 0.056097-1.0996 0.14335-1.4371 0.19635z" fill="#9c9c9c" fill-opacity=".082404" style="mix-blend-mode:lighten"/>
  </g>
  <g transform="rotate(17.583 20.684 22.7)">
   <path d="m33.315 19.769c0.7926-0.05028 1.5328-0.41331 2.0578-1.0092l5.3177-6.0361c0.45279-0.51396 0.40307-1.2977-0.11104-1.7503l-6.038-5.3159c-0.5961-0.5248-1.3762-0.7914-2.1688-0.74116l-5.4363 0.34456-9.8936 0.62696-4.4746 0.28385c-0.68365 0.043369-1.2027 0.63273-1.1593 1.3164l0.78532 12.379c0.04336 0.68361 0.63276 1.2026 1.3164 1.1591" fill="#1c1c1c"/>
   <path transform="matrix(1.2403 0 0 1.2403 -4.3022 -3.418)" d="m15.752 9.6948 13.557-0.86452a2.4101 2.4101 18.886 0 1 1.7479 0.59793l2.6318 2.3219a1.0122 1.0122 86.074 0 1 0.09742 1.4194l-2.5498 2.9615a2.3866 2.3866 153.46 0 1-1.6503 0.82419l-13.284 0.88352a1.001 1.001 41.167 0 1-1.0651-0.93137l-0.41515-6.1512a0.9963 0.9963 131.25 0 1 0.93064-1.0614z" fill="#ac1d1b" style="paint-order:stroke fill markers"/>
   <path d="m30.497 7.6342-15.262 0.97266c-0.68286 0.043554-1.2003 0.63371-1.1543 1.3164l0.35156 5.2031a1.7119 1.7119 120.88 0 0 0.79581-1.3307l0.14233-1.4633a2.5076 2.5076 134 0 1 2.1662-2.2431l11.387-1.5101a2.05 2.05 154.82 0 0 1.1236-0.5283z" fill="#fff" fill-opacity=".04" style="mix-blend-mode:lighten;paint-order:stroke fill markers"/>
   <path d="m37.506 11.18-3.4715 3.1663a5.6898 5.6898 0 0 1-3.4836 1.4753l-16.006 0.98113 0.05088 0.75099a1.2416 1.2416 0 0 0 1.3203 1.1556l16.478-1.0974a2.9602 2.9602 0 0 0 2.0471-1.0223l3.1614-3.6726a1.2554 1.2554 0 0 0-0.0969-1.737z" fill="#0f0f0f" fill-opacity=".1" style="mix-blend-mode:darken;paint-order:stroke fill markers"/>
  </g>
  <path d="m31.828 23.276s-0.69826-1.3394-1.4317-1.4707c-0.7334-0.13122-2.0567 0.61562-2.0567 0.61562z" fill="#fff" fill-opacity=".1" filter="url(#b)" opacity=".27673"/>
  <g transform="rotate(-31.87 24.182 23.888)">
   <path d="m9.596 24.165c-0.79278-0.047106-1.5718 0.22267-2.1656 0.74998l-6.0135 5.3395c-0.51226 0.45485-0.55886 1.2388-0.10408 1.7512l5.3398 6.0156c0.52721 0.59393 1.2688 0.95405 2.0616 1.0011l19.811 1.1777c0.68373 0.04084 1.271-0.48049 1.3116-1.1642l0.73486-12.384c0.04058-0.68383-0.48086-1.2711-1.1647-1.3117l-1.9691-0.11696z" fill="#1c1c1c"/>
   <path transform="matrix(-1.2306 -.155 .155 -1.2306 44.027 51.899)" d="m15.399 9.3598 13.656-0.8245a2.3876 2.3876 19.27 0 1 1.7414 0.60881l2.6372 2.3742a1.027 1.027 86.232 0 1 0.09417 1.4298l-2.582 3.0266a2.3487 2.3487 153.53 0 1-1.6473 0.82019l-13.295 0.79142a1.0139 1.0139 41.197 0 1-1.0715-0.93789l-0.45762-6.2311a0.98708 0.98708 131.17 0 1 0.92494-1.0576z" fill="#df3330" style="paint-order:stroke fill markers"/>
   <path transform="matrix(-1.2306 -.155 .155 -1.2306 44.027 51.899)" d="m29.299 16.795c0.6372-0.0383 1.2314-0.33432 1.6457-0.81991l2.5835-3.0267c0.36174-0.42363 0.31981-1.0584-0.09451-1.4308-0.50537-0.01217-1.3428 1.481-2.7628 2.9409-0.60344 0.62036-1.8592 1.1326-2.7197 1.2325l-6.0717 0.70466a2.1202 2.1202 158.06 0 0-1.0391 0.41852l-0.69065 0.5253z" fill="#fff" fill-opacity=".04" style="mix-blend-mode:lighten;paint-order:stroke fill markers"/>
   <path d="m26.365 27.73-0.58868 5.0583a3.3552 3.3552 0 0 1-3.3916 2.9652l-15.172-0.2689 0.33431 0.38761a2.9614 2.9614 0 0 0 2.0471 1.0199l16.934 1.1023a1.2243 1.2243 0 0 0 1.3033-1.158l0.40214-7.74a1.2576 1.2576 0 0 0-1.1725-1.3203z" fill="#0f0f0f" fill-opacity=".1" style="mix-blend-mode:darken;paint-order:stroke fill markers"/>
  </g>
 </g>
 <path d="m-53.175 72.991c-1.6618-0.0049-3.3235 0.14314-4.9863 0.4043-0.69212 0.1087-1.2039 0.7815-1.1602 1.4805 0.05543 0.88537 0.1024 1.9124 0.14648 3.0117l-3.2969-0.82031c-0.66481-0.16518-1.3368 0.24144-1.502 0.90625l-2.9922 12.037c-0.16517 0.66477 0.24145 1.3369 0.90625 1.502l7.1348 1.7734c0.0011 1.9398-0.0069 3.9263-0.02344 5.9492l-9.5215 5.1641c-0.69813 0.37858-1.2174 1.0199-1.4434 1.7812l-2.2891 7.709c-0.19487 0.65675 0.18117 1.348 0.83789 1.543l7.7109 2.2891c0.76132 0.22603 1.5812 0.14033 2.2793-0.23828l2.0664-1.1211c-0.02369 0.68022-0.04241 1.389-0.06836 2.0547-0.01937 0.4969 0.36818 0.88597 0.86523 0.88867 0.9974 6e-3 2.5714 0.0716 3.3789 0.40039 0.25729 0.10477 0.92249 0.26818 1.5742 0.41602 0.85969 0.19501 1.5923-0.37932 1.6328-1.2598 0.1028-2.2345 0.19952-4.4503 0.29102-6.6602l7.7051-4.1777c0.60222-0.32632 0.82656-1.0795 0.5-1.6816l-5.7695-10.641 2.3965 0.5957c0.77076 0.1915 1.5871 0.06769 2.2676-0.3418l6.8926-4.1465c0.58689-0.35317 0.77523-1.1164 0.42188-1.7031l-4.1504-6.8906c-0.40971-0.68036-1.073-1.1698-1.8438-1.3613l-5.2852-1.3145-3.043-0.75586c-0.10036-1.8517-0.22257-3.7175-0.37305-5.6035-0.05112-0.64073-0.61706-1.1876-1.2598-1.1895z" fill="#1c1c1c" style="paint-order:normal"/>
 <g transform="translate(38 10.416)" display="none" opacity=".474">
  <g transform="translate(-35 -10.38)" display="inline">
   <path d="m25.496 1.5682c1.238 15.516 0.67832 29.751-0.0086 44.683-0.0405 0.88045-0.77447 1.4539-1.6342 1.2589-0.65173-0.14784-1.3169-0.31143-1.5742-0.4162-0.80751-0.32881-2.3816-0.39391-3.379-0.39942-0.49706-0.0027-0.88336-0.39169-0.86399-0.88859 0.59872-15.359 0.5934-34.915 0.05341-43.541-0.04376-0.69897 0.46832-1.3735 1.1604-1.4822 1.6628-0.26116 3.3252-0.40795 4.987-0.40308 0.64271 0.001883 1.208 0.54782 1.2591 1.1885z" display="inline" fill="#1c1c1c" opacity="1" style="paint-order:normal"/>
   <path d="m19.25 0.78277c-0.69212 0.1087-1.2039 0.78345-1.1602 1.4824 0.53999 8.6257 0.54403 28.182-0.05469 43.541-0.01937 0.4969 0.36818 0.88593 0.86523 0.88867 0.4119 0.0023 1.0058-0.04987 2.4641 0.1657 0.05368-1.6605-1.0429-1.1857-1.0456-2.1303-0.0023-0.79261 0.12778-3.0529 0.16297-5.0217 0.07039-3.9375 0.26417-12.515 0.28149-16.365s-0.44407-12.677-0.53463-17.494c-0.045281-2.4082-0.5087-3.5717 0.033543-4.0171 0.32561-0.26741 0.43176-0.87833 0.42484-1.2467-0.42457 0.056097-1.0996 0.14335-1.4371 0.19635z" display="inline" fill="#9c9c9c" fill-opacity=".082404" opacity="1" style="mix-blend-mode:lighten"/>
  </g>
  <g transform="translate(-35 -10.38)" display="inline">
   <path d="m9.596 24.165c-0.79278-0.047106-1.5718 0.22267-2.1656 0.74998l-6.0135 5.3395c-0.51226 0.45485-0.55886 1.2388-0.10408 1.7512l5.3398 6.0156c0.52721 0.59393 1.2688 0.95405 2.0616 1.0011l19.811 1.1777c0.68373 0.04084 1.271-0.48049 1.3116-1.1642l0.73486-12.384c0.04058-0.68383-0.48086-1.2711-1.1647-1.3117l-1.9691-0.11696z" display="inline" fill="#1c1c1c"/>
   <path transform="matrix(-1.2306 -.155 .155 -1.2306 44.027 51.899)" d="m15.399 9.3598 13.656-0.8245a2.3876 2.3876 19.27 0 1 1.7414 0.60881l2.6372 2.3742a1.027 1.027 86.232 0 1 0.09417 1.4298l-2.582 3.0266a2.3487 2.3487 153.53 0 1-1.6473 0.82019l-13.295 0.79142a1.0139 1.0139 41.197 0 1-1.0715-0.93789l-0.45762-6.2311a0.98708 0.98708 131.17 0 1 0.92494-1.0576z" display="inline" fill="#408c6b" style="paint-order:stroke fill markers"/>
   <path transform="matrix(-1.2306 -.155 .155 -1.2306 44.027 51.899)" d="m29.299 16.795c0.6372-0.0383 1.2314-0.33432 1.6457-0.81991l2.5835-3.0267c0.36174-0.42363 0.31981-1.0584-0.09451-1.4308-0.50537-0.01217-1.3428 1.481-2.7628 2.9409-0.60344 0.62036-1.8592 1.1326-2.7197 1.2325l-6.0717 0.70466a2.1202 2.1202 158.06 0 0-1.0391 0.41852l-0.69065 0.5253z" display="inline" fill="#fff" fill-opacity=".04" opacity="1" style="mix-blend-mode:lighten;paint-order:stroke fill markers"/>
   <path d="m26.365 27.73-0.58868 5.0583a3.3552 3.3552 0 0 1-3.3916 2.9652l-15.172-0.2689 0.33431 0.38761a2.9614 2.9614 0 0 0 2.0471 1.0199l16.934 1.1023a1.2243 1.2243 0 0 0 1.3033-1.158l0.40214-7.74a1.2576 1.2576 0 0 0-1.1725-1.3203z" display="inline" fill="#0f0f0f" fill-opacity=".18039" style="mix-blend-mode:overlay;paint-order:stroke fill markers"/>
  </g>
  <g transform="translate(-35 -10.38)" display="inline">
   <path d="m33.315 19.769c0.7926-0.05028 1.5328-0.41331 2.0578-1.0092l5.3177-6.0361c0.45279-0.51396 0.40307-1.2977-0.11104-1.7503l-6.038-5.3159c-0.5961-0.5248-1.3762-0.7914-2.1688-0.74116l-5.4363 0.34456-9.8936 0.62696-4.4746 0.28385c-0.68365 0.043369-1.2027 0.63273-1.1593 1.3164l0.78532 12.379c0.04336 0.68361 0.63276 1.2026 1.3164 1.1591" display="inline" fill="#1c1c1c"/>
   <path transform="matrix(1.2403 0 0 1.2403 -4.3022 -3.418)" d="m15.752 9.6948 13.557-0.86452a2.4101 2.4101 18.886 0 1 1.7479 0.59793l2.6318 2.3219a1.0122 1.0122 86.074 0 1 0.09742 1.4194l-2.5498 2.9615a2.3866 2.3866 153.46 0 1-1.6503 0.82419l-13.284 0.88352a1.001 1.001 41.167 0 1-1.0651-0.93137l-0.41515-6.1512a0.9963 0.9963 131.25 0 1 0.93064-1.0614z" display="inline" fill="#2a5b46" style="paint-order:stroke fill markers"/>
   <path d="m30.497 7.6342-15.262 0.97266c-0.68286 0.043554-1.2003 0.63371-1.1543 1.3164l0.35156 5.2031a1.7119 1.7119 120.88 0 0 0.79581-1.3307l0.14233-1.4633a2.5076 2.5076 134 0 1 2.1662-2.2431l11.387-1.5101a2.05 2.05 154.82 0 0 1.1236-0.5283z" display="inline" fill="#fff" fill-opacity=".04" opacity="1" style="mix-blend-mode:lighten;paint-order:stroke fill markers"/>
   <path d="m37.506 11.18-3.4715 3.1663a5.6898 5.6898 0 0 1-3.4836 1.4753l-16.006 0.98113 0.05088 0.75099a1.2416 1.2416 0 0 0 1.3203 1.1556l16.478-1.0974a2.9602 2.9602 0 0 0 2.0471-1.0223l3.1614-3.6726a1.2554 1.2554 0 0 0-0.0969-1.737z" display="inline" fill="#0f0f0f" fill-opacity=".18026" style="mix-blend-mode:overlay;paint-order:stroke fill markers"/>
  </g>
 </g>
</svg>
